<svg width="60" height="60" viewBox="0 0 60 60" fill="none" xmlns="http://www.w3.org/2000/svg">
<g clip-path="url(#clip0_3582_11256)">
<path d="M51.0938 49.3359H47.5781V31.6406C47.5781 21.948 39.6926 14.0625 30 14.0625C20.3074 14.0625 12.4219 21.948 12.4219 31.6406V49.3359H8.90625C7.93547 49.3359 7.14844 50.123 7.14844 51.0938V58.2422C7.14844 59.213 7.93547 60 8.90625 60H51.0938C52.0645 60 52.8516 59.213 52.8516 58.2422V51.0938C52.8516 50.123 52.0645 49.3359 51.0938 49.3359ZM15.9375 31.6406C15.9375 23.8866 22.2459 17.5781 30 17.5781C37.7541 17.5781 44.0625 23.8866 44.0625 31.6406V49.3359H15.9375V31.6406ZM49.3359 56.4844H10.6641V52.8516H49.3359V56.4844Z" fill="black"/>
<path d="M29.8828 10.5469C30.8536 10.5469 31.6406 9.75984 31.6406 8.78906V1.75781C31.6406 0.787031 30.8536 0 29.8828 0C28.912 0 28.125 0.787031 28.125 1.75781V8.78906C28.125 9.75984 28.912 10.5469 29.8828 10.5469Z" fill="black"/>
<path d="M16.0425 13.0318C16.5294 13.8752 17.6053 14.1592 18.4437 13.6752C19.2845 13.1898 19.5725 12.1147 19.087 11.274L15.5714 5.18484C15.0859 4.34402 14.0109 4.05609 13.1702 4.54148C12.3294 5.02687 12.0414 6.10195 12.5269 6.94265L16.0425 13.0318Z" fill="black"/>
<path d="M10.1007 22.1038C10.5862 21.2631 10.2981 20.1881 9.45729 19.7027L3.368 16.187C2.52718 15.7015 1.4521 15.9896 0.966825 16.8304C0.481317 17.6711 0.769364 18.7462 1.61018 19.2316L7.69948 22.7472C8.53655 23.2306 9.61315 22.9483 10.1007 22.1038Z" fill="black"/>
<path d="M41.5565 13.6753C42.3935 14.1587 43.4701 13.8763 43.9576 13.0319L47.4733 6.94276C47.9588 6.10205 47.6707 5.02697 46.8299 4.54158C45.9892 4.05596 44.914 4.34412 44.4287 5.18494L40.9131 11.2741C40.4276 12.1148 40.7157 13.1899 41.5565 13.6753Z" fill="black"/>
<path d="M59.0333 16.8303C58.5478 15.9895 57.4729 15.7017 56.6321 16.1869L50.5428 19.7026C49.702 20.188 49.4139 21.263 49.8994 22.1037C50.3864 22.9471 51.4623 23.2311 52.3006 22.7471L58.3899 19.2315C59.2307 18.7461 59.5188 17.6711 59.0333 16.8303Z" fill="black"/>
</g>
<defs>
<clipPath id="clip0_3582_11256">
<rect width="60" height="60" fill="white"/>
</clipPath>
</defs>
</svg>
