<svg width="32" height="32" viewBox="0 0 32 32" fill="none" xmlns="http://www.w3.org/2000/svg">
<g clip-path="url(#clip0_2363_22386)">
<path d="M22.9383 10.6507C22.281 10.6279 21.6873 10.3352 21.2664 9.82686C20.9593 9.4558 20.3953 9.45655 20.0888 9.82686C19.1765 10.9292 17.4974 10.9272 16.5869 9.82686C16.2761 9.45142 15.7116 9.46174 15.4092 9.82686C14.4972 10.9289 12.8183 10.9277 11.9073 9.8268C11.5996 9.45523 11.0357 9.45711 10.7297 9.8268C10.3089 10.3352 9.71514 10.6278 9.05789 10.6507C8.79914 10.6597 8.5967 10.8767 8.60576 11.1354C8.61476 11.3942 8.83039 11.5961 9.09051 11.5876C9.93839 11.5581 10.7396 11.1921 11.3184 10.5759C12.5856 11.9277 14.7289 11.9295 15.9981 10.576C17.2654 11.9278 19.4088 11.9294 20.6777 10.5759C21.2566 11.1921 22.0577 11.5581 22.9056 11.5876C23.1632 11.5969 23.3814 11.3942 23.3904 11.1354C23.3994 10.8767 23.197 10.6597 22.9383 10.6507Z" fill="#484848"/>
<path d="M21.2667 13.6726C20.9596 13.3015 20.3956 13.3022 20.0891 13.6726C19.1768 14.7748 17.4978 14.773 16.5871 13.6726C16.2763 13.2971 15.7118 13.3074 15.4095 13.6726C14.4972 14.775 12.8181 14.7729 11.9075 13.6725C11.601 13.3024 11.0371 13.3014 10.73 13.6726C10.2303 14.2762 9.46858 14.5778 8.69171 14.4797C8.43546 14.4472 8.2004 14.629 8.16783 14.8859C8.13527 15.1427 8.31721 15.3772 8.57402 15.4097C9.60408 15.5403 10.6151 15.1726 11.3188 14.4217C12.5861 15.7735 14.7293 15.7751 15.9983 14.4217C17.2656 15.7734 19.409 15.7752 20.6779 14.4217C21.3815 15.1726 22.3926 15.5402 23.4226 15.4097C23.6794 15.3772 23.8613 15.1427 23.8288 14.8859C23.7962 14.629 23.5607 14.4472 23.3049 14.4797C22.5277 14.5777 21.7663 14.2762 21.2667 13.6726Z" fill="#484848"/>
<path d="M22.5479 6.73148C22.0428 6.62504 21.6 6.35648 21.2675 5.95479C20.9604 5.58373 20.3964 5.58448 20.0899 5.95479C19.1775 7.0571 17.4985 7.05516 16.5879 5.95479C16.2771 5.57935 15.7126 5.58966 15.4102 5.95479C14.4982 7.05685 12.8193 7.0556 11.9083 5.95473C11.6007 5.58316 11.0367 5.58504 10.7307 5.95473C10.3982 6.35641 9.95548 6.62504 9.45035 6.73148C9.19698 6.78485 9.03492 7.03348 9.08829 7.28679C9.14167 7.5401 9.39079 7.70223 9.64361 7.64879C10.2925 7.51204 10.8681 7.18691 11.3196 6.70398C12.5872 8.05591 14.7304 8.05698 15.9991 6.70391C17.2664 8.05554 19.4095 8.05741 20.6785 6.70404C21.1302 7.18698 21.7058 7.51216 22.3547 7.64879C22.6077 7.70223 22.8565 7.54004 22.91 7.28673C22.9633 7.03341 22.8012 6.78479 22.5479 6.73148Z" fill="#484848"/>
<path d="M3.43696 26.8296H14.0452V31.1782C14.0452 31.6314 14.4138 32 14.867 32H16.4415C16.8947 32 17.2633 31.6314 17.2633 31.1782V31.0868H21.9007V31.1782C21.9007 31.6314 22.2693 32 22.7225 32H24.297C24.7502 32 25.1188 31.6314 25.1188 31.1782V26.8296H28.5637C30.0713 26.8296 31.2563 25.5242 31.1048 24.0198C31.1045 24.0173 31.1043 24.0148 31.104 24.0123L30.2893 17.0394C30.2592 16.7822 30.0258 16.598 29.7693 16.6282C29.5122 16.6582 29.3281 16.8911 29.3582 17.1482L30.1725 24.1171C30.2638 25.0442 29.5417 25.892 28.5639 25.892H25.119V24.7009H27.9275C28.5194 24.7009 28.9825 24.1889 28.9235 23.5999C28.9232 23.5972 28.9228 23.5945 28.9225 23.5918L26.5003 3.02469C26.4465 2.5135 26.0193 2.12862 25.5048 2.12862H17.0942C16.8352 2.12862 16.6254 2.3385 16.6254 2.59737C16.6254 2.85625 16.8352 3.06612 17.0942 3.06612H25.5048C25.5375 3.06612 25.5646 3.09069 25.568 3.12325C25.5682 3.12587 25.5685 3.12844 25.5688 3.13106L27.9907 23.6957C27.9919 23.7129 27.9861 23.7299 27.9745 23.7426C27.9625 23.7559 27.9453 23.7634 27.9275 23.7634H25.1189V22.3327C25.1189 19.8654 23.1029 17.9362 20.7223 17.9362C19.0487 17.9362 17.5382 18.8855 16.7949 20.3577C16.0444 18.8719 14.4996 17.9046 12.782 17.937C10.4258 17.9813 8.47028 19.9116 8.47028 22.3328V23.7635H4.07328C4.0554 23.7635 4.03828 23.7559 4.02621 23.7426C4.01465 23.7298 4.0089 23.7128 4.01003 23.6956L6.43203 3.13112C6.43234 3.1285 6.43265 3.12587 6.4329 3.12319C6.43621 3.09069 6.46328 3.06619 6.49603 3.06619H14.9067C15.1656 3.06619 15.3754 2.85631 15.3754 2.59744C15.3754 2.33856 15.1656 2.12869 14.9067 2.12869H6.49603C5.98146 2.12869 5.55434 2.51369 5.50059 3.02487L3.07828 23.5919C3.07796 23.5946 3.07765 23.5973 3.07734 23.6C3.01821 24.1889 3.48134 24.701 4.07328 24.701H14.0452V25.8921H3.43696C2.50871 25.8921 1.73203 25.0933 1.82828 24.1172L4.36634 2.3995C4.36665 2.397 4.3669 2.3945 4.36715 2.39206C4.45065 1.56281 5.14209 0.9375 5.97553 0.9375H26.0254C26.8588 0.9375 27.5502 1.56281 27.6337 2.392C27.634 2.3945 27.6342 2.397 27.6345 2.3995L29.1025 14.9607C29.1325 15.2179 29.366 15.4021 29.6224 15.3719C29.8795 15.3419 30.0637 15.109 30.0336 14.8519L28.5661 2.29425C28.4325 0.986 27.3409 0 26.0254 0H5.97553C4.65996 0 3.56828 0.986062 3.43478 2.29437L0.896651 24.0124C0.896338 24.0149 0.896088 24.0174 0.895838 24.0199C0.744901 25.5198 1.92496 26.8296 3.43696 26.8296ZM19.544 22.3732C19.544 21.7279 20.0517 21.1676 20.7003 21.1555C21.3679 21.1427 21.9008 21.6862 21.9008 22.3328V23.7635H19.544V22.3732ZM17.2633 26.8296H21.9008V28.0207H17.2633V26.8296ZM22.1518 24.7009C22.4998 24.7009 22.7777 25.0021 22.7445 25.3528C22.715 25.6581 22.4577 25.892 22.1518 25.892H17.2633V24.7009C18.8953 24.7009 20.5238 24.7009 22.1518 24.7009ZM17.2633 28.9582H22.1518C22.4978 28.9582 22.7778 29.2579 22.7445 29.6101C22.715 29.9147 22.4578 30.1493 22.1518 30.1493H17.2633V28.9582ZM24.1815 31.0625H22.8383V30.9242C23.9642 30.3537 23.9667 28.7549 22.8383 28.1833V26.667C23.9695 26.0939 23.9613 24.495 22.8383 23.9261V22.3328C22.8383 21.0524 21.7007 20.0504 20.4137 20.2396C19.3917 20.3896 18.6065 21.2725 18.6065 22.3328V23.7635H17.2634V22.3987C17.2634 20.4892 18.7922 18.8928 20.6898 18.8746C22.6409 18.8582 24.1815 20.4407 24.1815 22.3328V31.0625ZM9.4079 23.7634V22.3986C9.4079 20.3846 11.0764 18.7996 13.0072 18.8772C14.8499 18.9524 16.3259 20.4711 16.3259 22.3326V31.0624H14.9828C14.9828 30.1613 14.9828 23.496 14.9828 22.3326C14.9828 21.2107 14.1037 20.2824 12.9881 20.2204C11.7833 20.1519 10.751 21.1117 10.751 22.3326V23.7634H9.4079V23.7634ZM11.6885 23.7634V22.3731C11.6885 21.7841 12.1111 21.2654 12.6808 21.1704C13.4083 21.0547 14.0452 21.6227 14.0452 22.3327V23.7634H11.6885Z" fill="#484848"/>
</g>
<defs>
<clipPath id="clip0_2363_22386">
<rect width="32" height="32" fill="white"/>
</clipPath>
</defs>
</svg>
