<svg width="60" height="60" viewBox="0 0 60 60" fill="none" xmlns="http://www.w3.org/2000/svg">
<g clip-path="url(#clip0_3582_11244)">
<path d="M15.2364 26.1627C15.7219 26.1627 16.1153 25.7692 16.1153 25.2837V23.3271C16.1153 21.8555 17.3125 20.6583 18.784 20.6583H20.5878C21.0734 20.6583 21.4668 20.2647 21.4668 19.7793C21.4668 19.2939 21.0734 18.9004 20.5878 18.9004H18.784C16.3431 18.9004 14.3574 20.8862 14.3574 23.3271V25.2837C14.3574 25.7692 14.751 26.1627 15.2364 26.1627Z" fill="black"/>
<path d="M15.2364 32.9529C15.7219 32.9529 16.1153 32.5593 16.1153 32.0739V29.1739C16.1153 28.6885 15.7219 28.2949 15.2364 28.2949C14.7508 28.2949 14.3574 28.6885 14.3574 29.1739V32.0739C14.3574 32.5593 14.751 32.9529 15.2364 32.9529Z" fill="black"/>
<path d="M18.4995 24.477V28.7357C18.4995 29.2211 18.8929 29.6146 19.3785 29.6146C19.864 29.6146 20.2574 29.2211 20.2574 28.7357V24.477C20.2574 24.091 20.5851 23.7647 20.9729 23.7647H22.5241C23.0097 23.7647 23.4031 23.3712 23.4031 22.8858C23.4031 22.4004 23.0097 22.0068 22.5241 22.0068H20.9729C19.6091 22.0068 18.4995 23.1149 18.4995 24.477Z" fill="black"/>
<path d="M26.7414 24.7781C27.0861 25.0082 27.4893 25.1253 27.9003 25.1253C28.1865 25.1253 28.4768 25.0685 28.7537 24.9534L31.6554 23.7516L39.1082 24.3265L39.6545 26.2158C39.8442 26.8722 40.3103 27.3964 40.9667 27.6918C41.3356 27.8579 41.7391 27.9407 42.1434 27.9407C42.5715 27.9407 43.0008 27.8478 43.3908 27.6625L57.1364 21.1315C57.8945 20.7713 58.4753 20.0756 58.6902 19.2705C58.8756 18.5753 58.7639 17.8835 58.3756 17.3229L55.6053 13.3191C57.687 10.9211 58.1766 7.50694 56.7921 4.59283C54.8852 0.584728 50.0732 -1.12581 46.0678 0.778213C42.9996 2.2355 41.1936 5.46685 41.5079 8.80098L37.5507 10.681C37.5506 10.681 37.5506 10.681 37.5506 10.681C36.2937 11.2782 35.7469 12.7062 36.1899 14.2337L37.2147 17.7778H31.6883L28.752 16.5617C28.0767 16.2838 27.3248 16.3516 26.7402 16.7429C26.1879 17.1129 25.8711 17.7063 25.8711 18.371V23.1479C25.8709 23.8149 26.1882 24.4089 26.7414 24.7781ZM56.9302 18.3235C57.0227 18.4571 57.0434 18.6232 56.9916 18.8173C56.9105 19.1212 56.6712 19.4063 56.3819 19.5438L42.6363 26.0747C42.3468 26.2122 41.9746 26.2178 41.6881 26.0888C41.5047 26.0062 41.3886 25.8847 41.3432 25.7274L38.7209 16.6585L51.5584 10.5598L56.9302 18.3235ZM46.8221 2.36629C46.8222 2.36629 46.8223 2.36617 46.8224 2.36617C49.9533 0.877475 53.714 2.21523 55.2045 5.34778C56.2199 7.48502 55.9463 9.96716 54.5643 11.8136L54.5615 11.8106L51.2798 7.06782C50.3741 5.75995 48.9202 5.28169 47.6623 5.87749L43.2321 7.98204L43.2307 7.98239C43.2561 5.61627 44.6252 3.40965 46.8221 2.36629ZM38.305 12.2688L48.4155 7.46581C48.9722 7.202 49.5279 7.62589 49.8344 8.06853L50.5448 9.09513L38.2261 14.9474L37.8784 13.7447C37.7286 13.2286 37.7507 12.5323 38.305 12.2688ZM32.3923 19.5358H37.722L38.5851 22.5231L32.3923 22.0453V19.5358ZM27.6287 18.3712C27.6287 18.3249 27.638 18.2572 27.7184 18.2035C27.7423 18.1874 27.8088 18.1501 27.9074 18.1501C27.9575 18.1501 28.0157 18.1597 28.0809 18.1866L30.6343 19.2441V22.2717L28.0798 23.3296C27.8847 23.4109 27.7526 23.3395 27.717 23.3157C27.6387 23.2635 27.6286 23.1987 27.6286 23.148V18.3712H27.6287Z" fill="black"/>
<path d="M13.8243 54.4332C13.4811 54.7765 13.4811 55.333 13.8243 55.6761L13.8276 55.6794C13.9989 55.8506 14.2226 55.936 14.4467 55.936C14.6717 55.936 14.8969 55.8498 15.069 55.6778C15.4122 55.3345 15.4106 54.7764 15.0673 54.4331C14.724 54.09 14.1676 54.09 13.8243 54.4332Z" fill="black"/>
<path d="M22.3746 54.8785C22.0314 55.2217 22.0314 55.7782 22.3746 56.1213L22.3779 56.1246C22.5492 56.2958 22.7729 56.3813 22.997 56.3813C23.222 56.3813 23.4472 56.295 23.6193 56.123C23.9625 55.7797 23.9609 55.2216 23.6176 54.8783C23.2743 54.5353 22.7179 54.5353 22.3746 54.8785Z" fill="black"/>
<path d="M36.0904 54.4332C35.7472 54.7765 35.7472 55.333 36.0904 55.6761L36.0937 55.6794C36.265 55.8506 36.4888 55.936 36.7128 55.936C36.9378 55.936 37.1631 55.8498 37.3351 55.6778C37.6783 55.3345 37.6767 54.7764 37.3334 54.4331C36.9901 54.09 36.4337 54.09 36.0904 54.4332Z" fill="black"/>
<path d="M44.0907 56.3815C44.3157 56.3815 44.541 56.2952 44.713 56.1232C45.0563 55.7799 45.0546 55.2218 44.7114 54.8785C44.368 54.5353 43.8116 54.5353 43.4684 54.8785C43.1251 55.2218 43.1251 55.7783 43.4684 56.1214L43.4716 56.1247C43.643 56.296 43.8667 56.3815 44.0907 56.3815Z" fill="black"/>
<path d="M55.1725 47.977C57.8343 47.7101 59.9998 45.306 59.9998 42.6179V39.2495C59.9998 38.8148 59.8182 38.4017 59.5019 38.1161C59.1865 37.8312 58.7575 37.6932 58.3289 37.7372L54.9525 38.0761C53.7896 38.1945 52.7215 38.7209 51.8878 39.5003L51.8952 38.8963C51.8952 36.2122 49.7463 33.8258 47.084 33.5549L43.7108 33.2162C43.2788 33.1718 42.8514 33.3102 42.536 33.5949C42.2197 33.8806 42.0382 34.2936 42.0382 34.7283V38.0968C42.0382 40.7808 44.2031 43.1849 46.8647 43.4559L50.1301 43.7856V50.1136H43.7408C43.2553 50.1136 42.8619 50.5071 42.8619 50.9925C42.8619 51.4779 43.2553 51.8715 43.7408 51.8715H57.7224C58.0088 51.8715 58.242 52.103 58.242 52.3877V57.7226C58.242 58.0043 58.0041 58.2423 57.7224 58.2423H2.27461C1.99475 58.2423 1.75838 58.0044 1.75838 57.7226V52.3877C1.75838 52.1078 1.99487 51.8715 2.27461 51.8715H39.6815C40.1671 51.8715 40.5605 51.4779 40.5605 50.9925C40.5605 50.5071 40.1671 50.1136 39.6815 50.1136H30.8773V48.3092L34.1654 47.9772C36.8272 47.7102 38.9926 45.3061 38.9926 42.6181V39.2496C38.9926 38.8154 38.8107 38.4024 38.4937 38.1165C38.1772 37.8311 37.7484 37.6932 37.3216 37.7373L33.9453 38.0763C32.7811 38.1947 31.7118 38.7216 30.8772 39.5017C30.8772 39.5017 30.9005 38.9826 30.9005 38.9142C30.9005 36.2297 28.7355 33.8257 26.0734 33.5551L22.701 33.2164C22.2714 33.1725 21.8446 33.3097 21.5295 33.594C21.2126 33.8798 21.0308 34.2933 21.0308 34.7285V38.097C21.0308 40.7811 23.1958 43.1852 25.8575 43.4561L29.1194 43.7858V50.1137H9.87021V48.3092L13.1546 47.9773C15.8164 47.7108 17.9819 45.3066 17.9819 42.6182V39.2497C17.9819 38.8146 17.8002 38.401 17.4833 38.1152C17.1681 37.8309 16.7411 37.6928 16.3143 37.7373L12.938 38.0763C11.7738 38.1947 10.7045 38.7216 9.86998 39.5016C9.86998 39.5016 9.89318 38.9824 9.89318 38.9142C9.89318 36.2301 7.72816 33.826 5.06602 33.5551L1.69369 33.2164C1.26476 33.1726 0.837477 33.3096 0.522112 33.594C0.205224 33.8798 0.023458 34.2934 0.023458 34.7285V38.097C0.023458 40.7811 2.18847 43.1852 4.85015 43.4561L8.1122 43.7858V47.5119V50.1137H2.27461C1.02065 50.1137 0.000488281 51.1339 0.000488281 52.3878V57.7228C0.000488281 58.9786 1.02065 60.0003 2.27461 60.0003H57.7224C58.9782 60.0003 59.9999 58.9786 59.9999 57.7228V52.3878C59.9999 51.1339 58.9782 50.1137 57.7224 50.1137H51.888V48.3092L55.1725 47.977ZM51.8878 43.4351C51.8878 41.6572 53.3729 40.0038 55.1294 39.825L58.2419 39.5126V42.6179C58.2419 44.3983 56.7559 46.0516 54.9965 46.2281L53.19 46.4106L55.4247 43.9382C55.7501 43.5781 55.722 43.0223 55.362 42.6968C55.002 42.3716 54.4463 42.3993 54.1205 42.7595L51.8878 45.2296V43.4351ZM50.1299 40.6861L47.9174 38.2382C47.5917 37.8782 47.0359 37.8501 46.6758 38.1755C46.3157 38.501 46.2876 39.0568 46.6131 39.4169L48.8476 41.8892L47.0419 41.7069C45.2824 41.5278 43.7959 39.8746 43.7959 38.0968V34.9915L46.9072 35.304C48.6668 35.483 50.1299 37.1363 50.1299 38.9141V40.6861ZM30.8773 43.4351C30.8773 41.6573 32.3639 40.0041 34.1221 39.825L37.2347 39.5126V42.6179C37.2347 44.3983 35.7488 46.0516 33.9894 46.2281L32.183 46.4105L34.4176 43.9382C34.743 43.5781 34.7149 43.0223 34.3549 42.6968C33.9949 42.3716 33.4391 42.3993 33.1134 42.7595L30.8774 45.2332V43.4351H30.8773ZM25.606 39.4171L27.8407 41.8895L26.0349 41.707C24.2753 41.5279 22.7888 39.8747 22.7888 38.0969V34.9919L25.8969 35.304C27.6565 35.4828 29.1196 37.136 29.1196 38.9141V40.6826L26.9102 38.2383C26.5847 37.8783 26.0288 37.8502 25.6687 38.1756C25.3086 38.5011 25.2804 39.0569 25.606 39.4171ZM9.87021 43.4351C9.87021 41.6573 11.3568 40.0041 13.115 39.825L16.2242 39.5129V42.6179C16.2242 44.3987 14.7383 46.0518 12.9789 46.2281L11.1735 46.4105L13.4099 43.9385C13.7356 43.5784 13.7078 43.0227 13.3478 42.697C12.9882 42.3715 12.4322 42.3991 12.1064 42.7592L9.87021 45.2309V43.4351ZM4.59877 39.4171L6.83352 41.8895L5.0277 41.7069C3.26805 41.5278 1.78158 39.8746 1.78158 38.0968V34.9918L4.88953 35.3038C6.64917 35.4829 8.11244 37.1361 8.11244 38.9139V40.6826L5.90301 38.2382C5.57733 37.8782 5.0216 37.8501 4.66147 38.1755C4.30134 38.501 4.27321 39.0569 4.59877 39.4171Z" fill="black"/>
</g>
<defs>
<clipPath id="clip0_3582_11244">
<rect width="60" height="60" fill="white"/>
</clipPath>
</defs>
</svg>
