<svg width="24" height="24" viewBox="0 0 24 24" fill="none" xmlns="http://www.w3.org/2000/svg">
<path d="M6.82317 9.43786C6.82317 9.24238 6.66473 9.08398 6.46929 9.08398H3.92419C3.72876 9.08398 3.57031 9.24238 3.57031 9.43786V11.9829C3.57031 12.1784 3.72876 12.3368 3.92419 12.3368H6.46929C6.66473 12.3368 6.82317 12.1784 6.82317 11.9829V9.43786ZM6.11541 11.629H4.27807V9.79174H6.11541V11.629Z" fill="#484848"/>
<path d="M11.3583 9.43786C11.3583 9.24238 11.1999 9.08398 11.0044 9.08398H8.45935C8.26391 9.08398 8.10547 9.24238 8.10547 9.43786V11.9829C8.10547 12.1784 8.26391 12.3368 8.45935 12.3368H11.0044C11.1999 12.3368 11.3583 12.1784 11.3583 11.9829V9.43786ZM10.6506 11.629H8.81323V9.79174H10.6506V11.629Z" fill="#484848"/>
<path d="M15.8974 9.43786C15.8974 9.24238 15.7389 9.08398 15.5435 9.08398H12.9984C12.8029 9.08398 12.6445 9.24238 12.6445 9.43786V11.9829C12.6445 12.1784 12.8029 12.3368 12.9984 12.3368H15.5435C15.7389 12.3368 15.8974 12.1784 15.8974 11.9829V9.43786ZM15.1896 11.629H13.3523V9.79174H15.1896V11.629Z" fill="#484848"/>
<path d="M17.5336 12.3368H20.0787C20.2741 12.3368 20.4325 12.1784 20.4325 11.9829V9.43786C20.4325 9.24238 20.2741 9.08398 20.0787 9.08398H17.5336C17.3381 9.08398 17.1797 9.24238 17.1797 9.43786V11.9829C17.1797 12.1784 17.3381 12.3368 17.5336 12.3368ZM17.8874 9.79174H19.7248V11.629H17.8874V9.79174Z" fill="#484848"/>
<path d="M6.82317 14.0433C6.82317 13.8478 6.66473 13.6895 6.46929 13.6895H3.92419C3.72876 13.6895 3.57031 13.8478 3.57031 14.0433V16.5884C3.57031 16.7839 3.72876 16.9423 3.92419 16.9423H6.46929C6.66473 16.9423 6.82317 16.7839 6.82317 16.5884V14.0433ZM6.11541 16.2345H4.27807V14.3972H6.11541V16.2345Z" fill="#484848"/>
<path d="M11.3583 14.0433C11.3583 13.8478 11.1999 13.6895 11.0044 13.6895H8.45935C8.26391 13.6895 8.10547 13.8478 8.10547 14.0433V16.5884C8.10547 16.7839 8.26391 16.9423 8.45935 16.9423H11.0044C11.1999 16.9423 11.3583 16.7839 11.3583 16.5884V14.0433ZM10.6506 16.2345H8.81323V14.3972H10.6506V16.2345Z" fill="#484848"/>
<path d="M15.8974 14.0433C15.8974 13.8478 15.7389 13.6895 15.5435 13.6895H12.9984C12.8029 13.6895 12.6445 13.8478 12.6445 14.0433V16.5884C12.6445 16.7839 12.8029 16.9423 12.9984 16.9423H15.5435C15.7389 16.9423 15.8974 16.7839 15.8974 16.5884V14.0433ZM15.1896 16.2345H13.3523V14.3972H15.1896V16.2345Z" fill="#484848"/>
<path d="M17.1797 16.5884C17.1797 16.7839 17.3381 16.9423 17.5336 16.9423H20.0787C20.2741 16.9423 20.4325 16.7839 20.4325 16.5884V14.0433C20.4325 13.8478 20.2741 13.6895 20.0787 13.6895H17.5336C17.3381 13.6895 17.1797 13.8478 17.1797 14.0433V16.5884ZM17.8874 14.3972H19.7248V16.2345H17.8874V14.3972Z" fill="#484848"/>
<path d="M6.46929 18.2959H3.92419C3.72876 18.2959 3.57031 18.4543 3.57031 18.6498V21.1948C3.57031 21.3903 3.72876 21.5487 3.92419 21.5487H6.46929C6.66473 21.5487 6.82317 21.3903 6.82317 21.1948V18.6498C6.82317 18.4543 6.66473 18.2959 6.46929 18.2959ZM6.11541 20.841H4.27807V19.0037H6.11541V20.841Z" fill="#484848"/>
<path d="M11.0044 18.2959H8.45935C8.26391 18.2959 8.10547 18.4543 8.10547 18.6498V21.1948C8.10547 21.3903 8.26391 21.5487 8.45935 21.5487H11.0044C11.1999 21.5487 11.3583 21.3903 11.3583 21.1948V18.6498C11.3583 18.4543 11.1999 18.2959 11.0044 18.2959ZM10.6506 20.841H8.81323V19.0037H10.6506V20.841Z" fill="#484848"/>
<path d="M15.5435 18.2959H12.9984C12.8029 18.2959 12.6445 18.4543 12.6445 18.6498V21.1948C12.6445 21.3903 12.8029 21.5487 12.9984 21.5487H15.5435C15.7389 21.5487 15.8974 21.3903 15.8974 21.1948V18.6498C15.8974 18.4543 15.739 18.2959 15.5435 18.2959ZM15.1896 20.841H13.3523V19.0037H15.1896V20.841Z" fill="#484848"/>
<path d="M17.1797 21.1948C17.1797 21.3903 17.3381 21.5487 17.5336 21.5487H20.0787C20.2741 21.5487 20.4325 21.3903 20.4325 21.1948V18.6498C20.4325 18.4543 20.2741 18.2959 20.0787 18.2959H17.5336C17.3381 18.2959 17.1797 18.4543 17.1797 18.6498V21.1948ZM17.8874 19.0037H19.7248V20.841H17.8874V19.0037Z" fill="#484848"/>
<path d="M21.9392 2.62673H21.5027V1.27288C21.5027 0.57102 20.9317 0 20.2298 0C19.528 0 18.9569 0.57102 18.9569 1.27288V2.62673H17.388V1.27288C17.3881 0.57102 16.8171 0 16.1152 0C15.4133 0 14.8423 0.57102 14.8423 1.27288V2.62673H13.2734V1.27288C13.2735 0.57102 12.7025 0 12.0006 0C11.2988 0 10.7277 0.57102 10.7277 1.27288V2.62673H9.15882V1.27288C9.15887 0.57102 8.58785 0 7.88599 0C7.18413 0 6.61311 0.57102 6.61311 1.27288V2.62673H5.0442V1.27288C5.04425 0.57102 4.47327 0 3.77141 0C3.06955 0 2.49853 0.57102 2.49853 1.27288V2.62673H2.06204C1.25892 2.62673 0.605469 3.28018 0.605469 4.0833V22.5434C0.605469 23.3466 1.25887 24 2.06204 24H17.1187C17.3142 24 17.4726 23.8416 17.4726 23.6461C17.4726 23.4506 17.3142 23.2922 17.1187 23.2922H2.06204C1.64918 23.2922 1.31323 22.9563 1.31323 22.5434V7.40566H5.83071C6.02614 7.40566 6.18459 7.24726 6.18459 7.05178C6.18459 6.85629 6.02614 6.6979 5.83071 6.6979H1.31323V4.0833C1.31323 3.67039 1.64913 3.33449 2.06204 3.33449H2.49853V3.85634C2.49853 4.5582 3.06955 5.12922 3.77141 5.12922C4.47327 5.12922 5.04429 4.5582 5.04429 3.85634V3.33449H6.61321V3.85634C6.61321 4.5582 7.18423 5.12922 7.88609 5.12922C8.58795 5.12922 9.15897 4.5582 9.15897 3.85634V3.33449H10.7279V3.85634C10.7279 4.5582 11.2989 5.12922 12.0008 5.12922C12.7026 5.12922 13.2736 4.5582 13.2736 3.85634V3.33449H14.8425V3.85634C14.8425 4.5582 15.4135 5.12922 16.1154 5.12922C16.8172 5.12922 17.3883 4.5582 17.3883 3.85634V3.33449H18.9572V3.85634C18.9572 4.5582 19.5282 5.12922 20.2301 5.12922C20.9319 5.12922 21.5029 4.5582 21.5029 3.85634V3.33449H21.9394C22.3523 3.33449 22.6882 3.67039 22.6882 4.0833V6.6979H5.55768C5.36224 6.6979 5.2038 6.85629 5.2038 7.05178C5.2038 7.24726 5.36224 7.40566 5.55768 7.40566H22.6881V22.5434C22.6881 22.9563 22.3522 23.2922 21.9392 23.2922H17.0342C16.8387 23.2922 16.6803 23.4506 16.6803 23.6461C16.6803 23.8416 16.8387 24 17.0342 24H21.9392C22.7423 24 23.3958 23.3465 23.3958 22.5434V4.0833C23.3958 3.28018 22.7423 2.62673 21.9392 2.62673ZM4.33649 3.85634C4.33649 4.16794 4.08302 4.42146 3.77137 4.42146C3.45976 4.42146 3.20625 4.16794 3.20625 3.85634V1.27288C3.20629 0.961278 3.45981 0.707759 3.77141 0.707759C4.08302 0.707759 4.33654 0.961278 4.33654 1.27288V3.85634H4.33649ZM8.45111 3.85634C8.45111 4.16794 8.19759 4.42146 7.88599 4.42146C7.57439 4.42146 7.32087 4.16794 7.32087 3.85634V1.27288C7.32087 0.961278 7.57439 0.707759 7.88599 0.707759C8.19759 0.707759 8.45111 0.961278 8.45111 1.27288V3.85634ZM12.5657 3.85634C12.5657 4.16794 12.3122 4.42146 12.0006 4.42146C11.689 4.42146 11.4355 4.16794 11.4355 3.85634V1.27288C11.4355 0.961278 11.689 0.707759 12.0006 0.707759C12.3122 0.707759 12.5657 0.961278 12.5657 1.27288V3.85634ZM16.6803 3.85634C16.6803 4.16794 16.4268 4.42146 16.1152 4.42146C15.8036 4.42146 15.5501 4.16794 15.5501 3.85634V1.27288C15.5501 0.961278 15.8036 0.707759 16.1152 0.707759C16.4268 0.707759 16.6803 0.961278 16.6803 1.27288V3.85634ZM20.7949 3.85634C20.7949 4.16794 20.5414 4.42146 20.2298 4.42146C19.9183 4.42146 19.6647 4.16794 19.6647 3.85634V1.27288C19.6647 0.961278 19.9182 0.707759 20.2298 0.707759C20.5414 0.707759 20.7949 0.961278 20.7949 1.27288V3.85634Z" fill="#484848"/>
</svg>
