<svg width="512" height="512" viewBox="0 0 512 512" fill="none" xmlns="http://www.w3.org/2000/svg">
<g clip-path="url(#clip0_3582_11580)">
<path d="M455.576 42.04L415.576 2.04001C414.26 0.731203 412.48 -0.0024346 410.624 6.07028e-06H101.376C99.5203 -0.0024346 97.7395 0.731203 96.424 2.04001L56.424 42.04C55.7744 42.6899 55.2592 43.4613 54.9078 44.3103C54.5564 45.1593 54.3757 46.0692 54.376 46.988V446.252C54.376 448.109 55.1135 449.889 56.4262 451.202C57.739 452.514 59.5195 453.252 61.376 453.252H94V504.988C93.9984 505.908 94.1783 506.82 94.5294 507.67C94.8805 508.521 95.3958 509.294 96.046 509.945C96.6961 510.597 97.4684 511.113 98.3184 511.466C99.1685 511.819 100.08 512 101 512H151.5C152.758 512 153.994 511.661 155.075 511.018C156.157 510.376 157.046 509.453 157.648 508.348L187.648 453.264H324.344L354.344 508.348C354.946 509.453 355.835 510.376 356.916 511.018C357.998 511.661 359.234 512 360.492 512H411C412.856 512 414.637 511.262 415.95 509.95C417.262 508.637 418 506.857 418 505V453.252H450.624C452.48 453.252 454.261 452.514 455.574 451.202C456.886 449.889 457.624 448.109 457.624 446.252V46.988C457.624 46.0692 457.444 45.1593 457.092 44.3103C456.741 43.4613 456.226 42.6899 455.576 42.04ZM68.376 49.888L104.276 14H407.724L443.624 49.9V332H68.376V49.888ZM408.04 346L382 407.252H130L103.96 346H408.04ZM147.34 498H108V453.252H171.716L147.34 498ZM404 498H364.66L340.284 453.264H404V498ZM443.624 439.264H68.376V346H88.744L118.932 416.988C119.469 418.253 120.366 419.331 121.512 420.09C122.658 420.848 124.002 421.252 125.376 421.252H386.624C387.998 421.252 389.342 420.848 390.488 420.09C391.634 419.331 392.531 418.253 393.068 416.988L423.252 346H443.624V439.264Z" fill="black"/>
<path d="M151.752 381.5H360.252C362.108 381.5 363.889 380.762 365.202 379.45C366.514 378.137 367.252 376.357 367.252 374.5C367.252 372.643 366.514 370.863 365.202 369.55C363.889 368.238 362.108 367.5 360.252 367.5H151.752C149.895 367.5 148.115 368.238 146.802 369.55C145.489 370.863 144.752 372.643 144.752 374.5C144.752 376.357 145.489 378.137 146.802 379.45C148.115 380.762 149.895 381.5 151.752 381.5Z" fill="black"/>
<path d="M174.5 58H337.5C339.357 58 341.137 57.2625 342.45 55.9497C343.762 54.637 344.5 52.8565 344.5 51C344.5 49.1435 343.762 47.363 342.45 46.0503C341.137 44.7375 339.357 44 337.5 44H174.5C172.643 44 170.863 44.7375 169.55 46.0503C168.237 47.363 167.5 49.1435 167.5 51C167.5 52.8565 168.237 54.637 169.55 55.9497C170.863 57.2625 172.643 58 174.5 58Z" fill="black"/>
<path d="M163 314H349C350.857 314 352.637 313.262 353.95 311.95C355.263 310.637 356 308.857 356 307V87C356 85.1435 355.263 83.363 353.95 82.0503C352.637 80.7375 350.857 80 349 80H163C161.146 80 159.367 80.7358 158.054 82.046C156.742 83.3562 156.003 85.1336 156 86.988V306.988C155.998 307.908 156.178 308.82 156.529 309.67C156.88 310.521 157.396 311.294 158.046 311.945C158.696 312.597 159.468 313.113 160.318 313.466C161.169 313.819 162.08 314 163 314ZM274.88 288.24C273.406 291.619 271.007 294.513 267.959 296.588C264.912 298.663 261.34 299.835 257.656 299.968C257.176 299.968 256.688 299.996 256.188 300H255.336C251.889 299.929 248.515 298.991 245.525 297.273C242.536 295.555 240.027 293.111 238.23 290.168C236.434 287.225 235.407 283.877 235.245 280.433C235.083 276.988 235.791 273.559 237.304 270.46L238.764 272.004C239.508 272.798 240.428 273.406 241.45 273.778C242.472 274.149 243.568 274.275 244.648 274.144C245.727 274.02 246.762 273.647 247.672 273.055C248.582 272.463 249.342 271.668 249.892 270.732L260.732 252.22L272.26 266.644C274.688 269.631 276.222 273.243 276.685 277.064C277.149 280.885 276.523 284.759 274.88 288.24ZM289.496 288.764C290.971 283.488 291.169 277.937 290.074 272.57C288.979 267.203 286.623 262.173 283.2 257.896L265.312 235.496C264.602 234.61 263.687 233.909 262.646 233.455C261.606 233.001 260.47 232.806 259.337 232.888C258.205 232.97 257.109 233.326 256.144 233.925C255.18 234.524 254.375 235.349 253.8 236.328L242.524 255.6L240.924 253.924C240.171 253.129 239.242 252.522 238.213 252.151C237.183 251.78 236.08 251.656 234.993 251.788C233.907 251.92 232.866 252.306 231.955 252.913C231.044 253.52 230.288 254.332 229.748 255.284L225.732 262.4C221.291 270.159 220.058 279.345 222.296 288C212.902 280.201 206.552 269.346 204.358 257.335C202.164 245.324 204.266 232.924 210.296 222.308L214.264 215.308L224.88 226.528C225.627 227.316 226.548 227.92 227.568 228.291C228.589 228.662 229.682 228.791 230.761 228.667C231.84 228.543 232.875 228.17 233.785 227.578C234.695 226.985 235.455 226.189 236.004 225.252L265.108 175.6L297.06 215.6C303.128 223.179 306.965 232.299 308.139 241.937C309.314 251.575 307.779 261.35 303.708 270.164C300.46 277.372 295.597 283.736 289.496 288.764ZM170 94H342V300H297.936C311.505 288.897 320.165 272.906 322.048 255.475C323.93 238.044 318.885 220.572 308 206.828L269.684 158.892C268.975 158.005 268.061 157.304 267.02 156.849C265.98 156.394 264.844 156.199 263.711 156.281C262.578 156.362 261.483 156.719 260.518 157.319C259.554 157.919 258.75 158.744 258.176 159.724L228.652 210.124L217.944 198.808C217.191 198.013 216.262 197.406 215.233 197.035C214.203 196.664 213.1 196.54 212.013 196.672C210.927 196.804 209.886 197.19 208.975 197.797C208.064 198.404 207.308 199.216 206.768 200.168L198.132 215.396C192.423 225.353 189.429 236.635 189.448 248.113C189.468 259.591 192.501 270.862 198.244 280.8C202.448 288.199 208.04 294.718 214.712 300H170V94Z" fill="black"/>
<path d="M131 314C132.856 314 134.637 313.262 135.95 311.95C137.262 310.637 138 308.857 138 307V87C138 85.1435 137.262 83.363 135.95 82.0503C134.637 80.7375 132.856 80 131 80H93.376C92.4566 79.9995 91.5461 80.1802 90.6966 80.5318C89.8471 80.8834 89.0752 81.399 88.4251 82.0491C87.7749 82.6992 87.2594 83.4711 86.9078 84.3206C86.5562 85.1701 86.3755 86.0806 86.376 87V307C86.3755 307.919 86.5562 308.83 86.9078 309.679C87.2594 310.529 87.7749 311.301 88.4251 311.951C89.0752 312.601 89.8471 313.117 90.6966 313.468C91.5461 313.82 92.4566 314.001 93.376 314H131ZM100.376 94H124V300H100.376V94Z" fill="black"/>
<path d="M381 314H418.624C419.543 314.001 420.454 313.82 421.303 313.468C422.153 313.117 422.925 312.601 423.575 311.951C424.225 311.301 424.741 310.529 425.092 309.679C425.444 308.83 425.625 307.919 425.624 307V87C425.625 86.0806 425.444 85.1701 425.092 84.3206C424.741 83.4711 424.225 82.6992 423.575 82.0491C422.925 81.399 422.153 80.8834 421.303 80.5318C420.454 80.1802 419.543 79.9995 418.624 80H381C379.143 80 377.363 80.7375 376.05 82.0503C374.738 83.363 374 85.1435 374 87V307C374 308.857 374.738 310.637 376.05 311.95C377.363 313.262 379.143 314 381 314ZM388 94H411.624V300H388V94Z" fill="black"/>
</g>
<defs>
<clipPath id="clip0_3582_11580">
<rect width="512" height="512" fill="white"/>
</clipPath>
</defs>
</svg>
