<svg width="32" height="32" viewBox="0 0 32 32" fill="none" xmlns="http://www.w3.org/2000/svg">
<g clip-path="url(#clip0_2363_22393)">
<path d="M31.8901 13.4612V10.2832H29.7714V3.70775L26.0636 0L22.3559 3.70775V10.2832H19.7075V3.70775L15.9997 0L12.292 3.70775V10.2832H9.64359V3.70775L5.93584 0L2.22809 3.70775V10.2832H0.109375V13.4612H2.22809V23.5251H0.109375V26.7032H2.22809V32H9.64359V26.7032H12.292V32H19.7075V26.7032H22.3559V32H29.7714V26.7032H31.8901V23.5251H29.7714V13.4612H31.8901ZM29.7714 11.3425H30.8307V12.4019H29.7714V11.3425ZM2.22809 25.6439H1.16873V24.5845H2.22809V25.6439ZM2.22809 12.4019H1.16873V11.3425H2.22809V12.4019ZM8.58423 30.9406H3.28745V4.14632L5.93584 1.49793L8.58423 4.14632V30.9406ZM12.292 25.6439H9.64359V24.5845H12.292V25.6439ZM12.292 23.5251H9.64359V13.4612H12.292V23.5251ZM12.292 12.4019H9.64359V11.3425H12.292V12.4019ZM18.6481 30.9406H13.3513V4.14632L15.9997 1.49793L18.6481 4.14632V30.9406ZM22.3559 25.6439H19.7075V24.5845H22.3559V25.6439ZM22.3559 23.5251H19.7075V13.4612H22.3559V23.5251ZM22.3559 12.4019H19.7075V11.3425H22.3559V12.4019ZM28.712 23.5251V30.9406H23.4152V4.14632L26.0636 1.49793L28.712 4.14632V23.5251ZM30.8307 24.5845V25.6439H29.7714V24.5845H30.8307Z" fill="black"/>
</g>
<defs>
<clipPath id="clip0_2363_22393">
<rect width="32" height="32" fill="white"/>
</clipPath>
</defs>
</svg>
