<svg width="32" height="32" viewBox="0 0 32 32" fill="none" xmlns="http://www.w3.org/2000/svg">
<g clip-path="url(#clip0_2363_22492)">
<path d="M31.6916 25.6873L28.1895 21.1351C27.9838 20.8679 27.6598 20.7083 27.3226 20.7083H22.5173L25.6266 16.6669C25.9287 16.2743 25.9287 15.7257 25.6266 15.3331L22.1245 10.781C21.9189 10.5138 21.5948 10.3542 21.2576 10.3542H16.4523L19.5617 6.31275C19.8637 5.92006 19.8637 5.37162 19.5616 4.97894L16.0593 0.426812C15.8537 0.159562 15.5297 0 15.1925 0H1.17578C0.572719 0 0.0820312 0.490687 0.0820312 1.09375V4.59237C0.0820312 4.85125 0.291906 5.06112 0.550781 5.06112C0.809656 5.06112 1.01953 4.85125 1.01953 4.59237V1.09375C1.01953 1.00762 1.08966 0.9375 1.17578 0.9375H11.8682L15.4173 5.55056C15.4604 5.60663 15.4604 5.685 15.4173 5.74113L11.8682 10.3542H1.01953V6.46737C1.01953 6.2085 0.809656 5.99862 0.550781 5.99862C0.291906 5.99862 0.0820312 6.2085 0.0820312 6.46737V30.9062C0.0820312 31.5093 0.572719 32 1.17578 32H15.2178C15.4767 32 15.6865 31.7901 15.6865 31.5312C15.6865 31.2724 15.4767 31.0625 15.2178 31.0625H1.17578C1.08966 31.0625 1.01953 30.9924 1.01953 30.9062V21.6458H23.8213L27.4173 26.2589C27.4604 26.315 27.4604 26.3933 27.4173 26.4494L23.8682 31.0625H17.0928C16.8339 31.0625 16.624 31.2724 16.624 31.5312C16.624 31.7901 16.8339 32 17.0928 32H27.3225C27.6597 32 27.9838 31.8404 28.1894 31.5732L31.6915 27.0211C31.9937 26.6284 31.9937 26.0799 31.6916 25.6873ZM21.3813 11.3526L24.8835 15.9047C24.9266 15.9608 24.9266 16.0391 24.8835 16.0952L21.3344 20.7083H18.986L22.0953 16.6669C22.3974 16.2743 22.3974 15.7257 22.0953 15.3331L18.986 11.2917H21.2575C21.3057 11.2917 21.352 11.3144 21.3813 11.3526ZM1.01953 20.7083V11.2917H17.8032L21.3522 15.9047C21.3954 15.9608 21.3954 16.0392 21.3522 16.0953L17.8032 20.7084H1.01953V20.7083ZM16.1603 6.31275C16.4625 5.92006 16.4625 5.37156 16.1603 4.97888L13.0511 0.9375H15.1925C15.2407 0.9375 15.287 0.960312 15.3163 0.9985L18.8185 5.55056C18.8617 5.60669 18.8617 5.68506 18.8185 5.74113L15.2695 10.3542H13.0511L16.1603 6.31275ZM30.9485 26.4494L27.4464 31.0015C27.417 31.0397 27.3707 31.0625 27.3225 31.0625H25.051L28.1603 27.0211C28.4624 26.6284 28.4624 26.0799 28.1585 25.6849L25.01 21.6459H27.3225C27.3707 21.6459 27.417 21.6687 27.4464 21.7068L30.9485 26.2589C30.9917 26.315 30.9917 26.3934 30.9485 26.4494Z" fill="#484848"/>
<path d="M4.52798 8.28684L4.87585 7.37352H7.21466L7.55885 8.28552C7.62973 8.47321 7.80804 8.5889 7.99754 8.5889C8.05248 8.5889 8.10848 8.57915 8.16291 8.55859C8.40516 8.46721 8.52735 8.19671 8.43598 7.95452L6.59448 3.07484C6.59285 3.07059 6.59116 3.06627 6.58941 3.06209C6.49948 2.84334 6.28866 2.70215 6.05216 2.70215C6.05198 2.70215 6.05179 2.70215 6.0516 2.70215C5.81485 2.7024 5.60404 2.84409 5.51448 3.06321C5.51304 3.06671 5.51166 3.07021 5.51029 3.07377L3.65191 7.95327C3.55979 8.19521 3.68116 8.46602 3.9231 8.55815C4.1651 8.65021 4.43585 8.52877 4.52798 8.28684ZM6.05066 4.28896L6.86091 6.43602H5.23291L6.05066 4.28896Z" fill="#484848"/>
<path d="M7.23656 15.651C7.44925 15.3784 7.57644 15.036 7.57644 14.6642C7.57644 13.7778 6.85525 13.0566 5.96888 13.0566H4.53125C4.27238 13.0566 4.0625 13.2665 4.0625 13.5254V15.8044V15.8081V18.4746C4.0625 18.5993 4.11219 18.7189 4.20056 18.8068C4.28844 18.8943 4.40738 18.9434 4.53125 18.9434H4.53331C4.53337 18.9434 5.8555 18.9375 6.21994 18.9375C7.213 18.9375 8.02087 18.1296 8.02087 17.1366C8.02087 16.5205 7.70975 15.9759 7.23656 15.651ZM5.96888 13.9941C6.33838 13.9941 6.63894 14.2947 6.63894 14.6642C6.63894 15.0337 6.33831 15.3343 5.96888 15.3343C5.86238 15.3343 5.66094 15.3348 5.44188 15.3356H5V13.9941H5.96888ZM6.21994 18C5.99744 18 5.41844 18.0021 5 18.0038V16.2748C5.14019 16.2743 5.29588 16.2736 5.44369 16.2731H6.21994C6.69606 16.2731 7.08338 16.6605 7.08338 17.1366C7.08338 17.6126 6.69606 18 6.21994 18Z" fill="#484848"/>
<path d="M6.49806 24.3486C6.90012 24.3486 7.28781 24.4669 7.61919 24.6909C7.83362 24.8358 8.12506 24.7794 8.27 24.5649C8.41494 24.3504 8.35856 24.059 8.144 23.9141C7.657 23.585 7.08781 23.4111 6.498 23.4111C4.87506 23.4111 3.55469 24.7315 3.55469 26.3544C3.55469 27.9774 4.87506 29.2978 6.498 29.2978C7.14231 29.2978 7.71975 29.0868 8.16794 28.6877C8.25581 28.6094 8.33931 28.5233 8.41612 28.4317C8.5825 28.2333 8.55656 27.9376 8.35819 27.7713C8.15975 27.6049 7.86419 27.6309 7.69781 27.8293C7.65006 27.8862 7.59844 27.9394 7.54444 27.9876C7.26675 28.2349 6.91469 28.3603 6.498 28.3603C5.392 28.3603 4.49219 27.4604 4.49219 26.3544C4.49225 25.2484 5.39206 24.3486 6.49806 24.3486Z" fill="#484848"/>
</g>
<defs>
<clipPath id="clip0_2363_22492">
<rect width="32" height="32" fill="white"/>
</clipPath>
</defs>
</svg>
