<svg width="20" height="20" viewBox="0 0 20 20" fill="black" xmlns="http://www.w3.org/2000/svg">
                          <path d="M18.5806 1H1.30259C1.21094 1 1.12305 1.03637 1.05824 1.10111C0.993439 1.16584 0.957031 1.25364 0.957031 1.34519V18.6049C0.957031 18.6965 0.993439 18.7843 1.05824 18.849C1.12305 18.9138 1.21094 18.9501 1.30259 18.9501H11.5277C11.6194 18.9501 11.7073 18.9138 11.7721 18.849C11.8369 18.7843 11.8733 18.6965 11.8733 18.6049V12.709C11.8733 12.6175 11.8369 12.5297 11.7721 12.4649C11.7073 12.4002 11.6194 12.3638 11.5277 12.3638C11.4361 12.3638 11.3482 12.4002 11.2834 12.4649C11.2186 12.5297 11.1822 12.6175 11.1822 12.709V18.2597H1.64815V13.0542H8.1758C8.26745 13.0542 8.35535 13.0178 8.42015 12.9531C8.48496 12.8884 8.52136 12.8006 8.52136 12.709V9.47108C8.52136 9.37953 8.48496 9.29173 8.42015 9.22699C8.35535 9.16226 8.26745 9.12589 8.1758 9.12589C8.08415 9.12589 7.99626 9.16226 7.93145 9.22699C7.86665 9.29173 7.83024 9.37953 7.83024 9.47108V12.3638H1.64815V6.52312H8.1758C8.26745 6.52312 8.35535 6.48675 8.42015 6.42201C8.48496 6.35728 8.52136 6.26948 8.52136 6.17792V1.69039H12.2603V4.07914C12.2603 4.17069 12.2967 4.25849 12.3615 4.32323C12.4264 4.38797 12.5142 4.42433 12.6059 4.42433C12.6975 4.42433 12.7854 4.38797 12.8502 4.32323C12.915 4.25849 12.9515 4.17069 12.9515 4.07914V1.69039H18.2351V6.82689H12.6059C12.5142 6.82689 12.4264 6.86326 12.3615 6.928C12.2967 6.99273 12.2603 7.08053 12.2603 7.17209C12.2603 7.26364 12.2967 7.35144 12.3615 7.41618C12.4264 7.48091 12.5142 7.51728 12.6059 7.51728H18.2351V12.35H14.5479C14.4563 12.35 14.3684 12.3864 14.3036 12.4511C14.2388 12.5159 14.2024 12.6037 14.2024 12.6952C14.2024 12.7868 14.2388 12.8746 14.3036 12.9393C14.3684 13.004 14.4563 13.0404 14.5479 13.0404H18.2351V18.2597H15.125C15.0334 18.2597 14.9455 18.2961 14.8807 18.3609C14.8159 18.4256 14.7795 18.5134 14.7795 18.6049C14.7795 18.6965 14.8159 18.7843 14.8807 18.849C14.9455 18.9138 15.0334 18.9501 15.125 18.9501H18.5806C18.6723 18.9501 18.7602 18.9138 18.825 18.849C18.8898 18.7843 18.9262 18.6965 18.9262 18.6049V1.34519C18.9262 1.25364 18.8898 1.16584 18.825 1.10111C18.7602 1.03637 18.6723 1 18.5806 1ZM7.83024 5.83273H1.64815V1.69039H7.83024V5.83273Z" fill="#484848" stroke="#484848" stroke-width="0.3"/>
                          </svg>
