<svg width="60" height="60" viewBox="0 0 60 60" fill="none" xmlns="http://www.w3.org/2000/svg">
<g clip-path="url(#clip0_3618_11854)">
<path d="M42.4102 0H17.5898C14.918 0 12.7383 2.17969 12.7383 4.85156V51.9844C12.7383 54.1875 14.2148 56.0508 16.2187 56.6367V58.0547C16.2187 59.1211 17.0859 59.9883 18.1523 59.9883H22.5938C23.6602 59.9883 24.5273 59.1211 24.5273 58.0547V56.8359H35.4609V58.0547C35.4609 59.1211 36.3281 59.9883 37.3945 59.9883H41.8359C42.9023 59.9883 43.7695 59.1211 43.7695 58.0547V56.6367C45.7852 56.0391 47.25 54.1875 47.25 51.9844V4.85156C47.2617 2.17969 45.082 0 42.4102 0ZM17.5898 1.875H42.3984C44.0391 1.875 45.375 3.21094 45.375 4.85156V21.6445H14.6133V4.85156C14.6133 3.21094 15.9492 1.875 17.5898 1.875ZM22.6641 58.0664C22.6641 58.1016 22.6289 58.125 22.6055 58.125H18.1641C18.1289 58.125 18.1055 58.0898 18.1055 58.0664V56.8359H22.6641V58.0664ZM41.8359 58.125H37.3945C37.3594 58.125 37.3359 58.0898 37.3359 58.0664V56.8359H41.8945V58.0547C41.9062 58.0898 41.8711 58.125 41.8359 58.125ZM42.4102 54.9609H17.5898C15.9492 54.9609 14.6133 53.625 14.6133 51.9844V23.5195H45.3867V51.9844C45.3867 53.625 44.0508 54.9609 42.4102 54.9609Z" fill="#484848"/>
<path d="M18.2227 18.1172H20.1328C20.8828 18.1172 21.5039 17.5078 21.5039 16.7461V6.77344C21.5039 6.02344 20.8945 5.40234 20.1328 5.40234H18.2227C17.4727 5.40234 16.8516 6.01172 16.8516 6.77344V16.7578C16.8633 17.5078 17.4727 18.1172 18.2227 18.1172ZM18.7383 7.27734H19.6289V16.2422H18.7383V7.27734Z" fill="#484848"/>
<path d="M20.1328 27.0469H18.2227C17.4727 27.0469 16.8516 27.6562 16.8516 28.418V41.2031C16.8516 41.9531 17.4609 42.5742 18.2227 42.5742H20.1328C20.8828 42.5742 21.5039 41.9648 21.5039 41.2031V28.4062C21.5039 27.6562 20.8828 27.0469 20.1328 27.0469ZM19.6289 40.6875H18.7383V28.9219H19.6289V40.6875Z" fill="#484848"/>
</g>
<defs>
<clipPath id="clip0_3618_11854">
<rect width="60" height="60" fill="white"/>
</clipPath>
</defs>
</svg>
