<svg width="24" height="24" viewBox="0 0 24 24" fill="none" xmlns="http://www.w3.org/2000/svg">
<g clip-path="url(#clip0_1536_20425)">
<path d="M23.7245 6.65071L12.267 0.286019C12.1018 0.192421 11.8981 0.192421 11.7329 0.286019L0.280889 6.65071C0.104704 6.74981 9.4117e-05 6.9315 9.4117e-05 7.12971V23.2451C-0.00541167 23.5425 0.231337 23.7847 0.52865 23.7847C0.534155 23.7847 0.539661 23.7847 0.539661 23.7847H23.4602C23.7576 23.7902 23.9998 23.5535 23.9998 23.2562C23.9998 23.2507 23.9998 23.2451 23.9998 23.2451V7.13522C24.0053 6.9315 23.9007 6.74981 23.7245 6.65071ZM19.7108 22.6891H4.29461V20.4317H19.7108V22.6891ZM19.7108 19.3305H4.29461V17.2383H19.7108V19.3305ZM19.7108 16.1372H4.29461V14.045H19.7108V16.1372ZM19.7108 12.9438H4.29461V10.8516H19.7108V12.9438ZM22.9042 22.6891H20.812V10.3176C20.812 10.0147 20.5862 9.75047 20.2779 9.75047H3.72751C3.42469 9.75047 3.19345 10.0147 3.19345 10.3176V22.6891H1.10125V7.45455L12.0027 1.39268L22.9042 7.45455V22.6891Z" fill="#484848"/>
</g>
<defs>
<clipPath id="clip0_1536_20425">
<rect width="24" height="24" fill="white"/>
</clipPath>
</defs>
</svg>
