<svg width="60" height="60" viewBox="0 0 60 60" fill="none" xmlns="http://www.w3.org/2000/svg">
<g clip-path="url(#clip0_3573_12960)">
<path d="M31.1719 4.6875H26.4844C25.8371 4.6875 25.3125 5.21215 25.3125 5.85938V15.2344C25.3125 15.8816 25.8371 16.4062 26.4844 16.4062C27.1316 16.4062 27.6562 15.8816 27.6562 15.2344V11.7188H31.1719C33.1104 11.7188 34.6875 10.1416 34.6875 8.20312C34.6875 6.26461 33.1104 4.6875 31.1719 4.6875ZM31.1719 9.375H27.6562V7.03125H31.1719C31.818 7.03125 32.3438 7.55695 32.3438 8.20312C32.3438 8.8493 31.818 9.375 31.1719 9.375Z" fill="#484848"/>
<path d="M58.8281 9.375H39.375V1.17188C39.375 0.524648 38.8502 0 38.2031 0H21.7969C21.1496 0 20.625 0.524648 20.625 1.17188V9.375H3.51562C2.8684 9.375 2.34375 9.89965 2.34375 10.5469V43.4797C0.921563 44.5498 0 46.2512 0 48.1641V58.8281C0 59.4754 0.524648 60 1.17188 60H58.8281C59.4752 60 60 59.4754 60 58.8281V10.5469C60 9.89965 59.4752 9.375 58.8281 9.375ZM22.9688 2.34375H37.0312V18.75H22.9688V2.34375ZM9.375 11.7188H20.625V14.0625H9.375V11.7188ZM9.375 16.4062H20.625V18.75H9.375V16.4062ZM4.6875 11.7188H7.03125V42.4236C6.65238 42.3463 6.26074 42.3047 5.85938 42.3047C5.45813 42.3047 5.06625 42.3454 4.6875 42.4226V11.7188ZM9.375 57.6562H2.34375V48.1641C2.34375 46.2255 3.92086 44.6484 5.85938 44.6484C7.29797 44.6484 8.53629 45.5175 9.07957 46.7578H8.20312C6.26461 46.7578 4.6875 48.3349 4.6875 50.2734C4.6875 52.212 6.26461 53.7891 8.20312 53.7891H9.375V57.6562ZM35.1562 49.1016V51.4453H8.20312C7.55695 51.4453 7.03125 50.9196 7.03125 50.2734C7.03125 49.6273 7.55695 49.1016 8.20312 49.1016H35.1562ZM52.9688 57.6562H11.7188V53.7891H36.3281C36.9752 53.7891 37.5 53.2644 37.5 52.6172V47.9297C37.5 47.2825 36.9752 46.7578 36.3281 46.7578H11.548C11.2196 45.4298 10.4366 44.2798 9.375 43.4808V39.375H52.9688V57.6562ZM52.9688 32.6953H35.8594C35.2137 32.6953 34.6875 33.2215 34.6875 33.8672C34.6875 34.5129 35.2137 35.0391 35.8594 35.0391H52.9688V37.0312H9.375V35.0391H26.4844C27.1301 35.0391 27.6562 34.5129 27.6562 33.8672C27.6562 33.2215 27.1301 32.6953 26.4844 32.6953H9.375V30.4688H52.9688V32.6953ZM52.9688 28.125H9.375V25.7812H52.9688V28.125ZM52.9688 23.4375H9.375V21.0938H52.9688V23.4375ZM52.9688 18.75H39.375V16.4062H52.9688V18.75ZM52.9688 14.0625H39.375V11.7188H52.9688V14.0625ZM57.6562 57.6562H55.3125V11.7188H57.6562V57.6562Z" fill="#484848"/>
<path d="M31.1719 35.0391C31.8176 35.0391 32.3438 34.5129 32.3438 33.8672C32.3438 33.2215 31.8176 32.6953 31.1719 32.6953C30.5249 32.6953 30 33.2215 30 33.8672C30 34.5129 30.5249 35.0391 31.1719 35.0391Z" fill="#484848"/>
</g>
<defs>
<clipPath id="clip0_3573_12960">
<rect width="60" height="60" fill="white"/>
</clipPath>
</defs>
</svg>
