<svg width="60" height="60" viewBox="0 0 60 60" fill="none" xmlns="http://www.w3.org/2000/svg">
<g clip-path="url(#clip0_3618_11683)">
<path d="M59 8C59.5522 8 60 7.55225 60 7V1C60 0.44775 59.5522 0 59 0H1C0.44775 0 0 0.44775 0 1V7C0 7.55225 0.44775 8 1 8H3V58H1C0.44775 58 0 58.4478 0 59C0 59.5522 0.44775 60 1 60H59C59.5522 60 60 59.5522 60 59C60 58.4478 59.5522 58 59 58H57V8H59ZM51 58H9V52H51V58ZM51 50H9V44H51V50ZM51 42H9V36H51V42ZM51 34H9V28H51V34ZM51 26H9V20H51V26ZM51 18H9V12H51V18ZM55 58H53V11C53 10.4478 52.5522 10 52 10H8C7.44775 10 7 10.4478 7 11V58H5V8H55V58ZM2 6V2H58V6H2Z" fill="#484848"/>
<path d="M27 57H33C33.5522 57 34 56.5523 34 56C34 55.4477 33.5522 55 33 55H27C26.4477 55 26 55.4477 26 56C26 56.5523 26.4477 57 27 57Z" fill="#484848"/>
</g>
<defs>
<clipPath id="clip0_3618_11683">
<rect width="60" height="60" fill="white"/>
</clipPath>
</defs>
</svg>
