<svg width="60" height="60" viewBox="0 0 60 60" fill="none" xmlns="http://www.w3.org/2000/svg">
<path d="M57.0264 22.4105H55.8343V17.9802C55.8343 15.3612 53.7036 13.2305 51.0846 13.2305H33.8708C32.2751 13.2305 30.8617 14.0223 30 15.2327C29.1383 14.0222 27.7249 13.2305 26.1292 13.2305H15.3149C14.8295 13.2305 14.436 13.624 14.436 14.1094C14.436 14.5948 14.8295 14.9883 15.3149 14.9883H26.1292C27.7789 14.9883 29.1211 16.3304 29.1211 17.9802V26.7704C29.1027 26.7527 29.0832 26.7362 29.0646 26.7188C28.0228 25.7474 26.6108 25.1875 25.1856 25.1875H10.5456C10.4681 24.0074 9.66363 22.9695 8.55352 22.5759C8.24074 22.4651 7.91004 22.4105 7.57828 22.4105H5.92348V17.9802C5.92348 16.3304 7.26563 14.9883 8.91539 14.9883H11.7993C12.2846 14.9883 12.6782 14.5948 12.6782 14.1094C12.6782 13.624 12.2846 13.2305 11.7993 13.2305H8.91539C6.29637 13.2305 4.16566 15.3612 4.16566 17.9802V22.4105H2.97363C1.33395 22.4105 0 23.7446 0 25.3841V34.5612C0 37.9758 2.77805 40.7538 6.19266 40.7538H6.63434C6.63434 40.7538 5.67199 43.3423 5.67129 43.3443C5.06414 44.9771 6.31383 46.7709 8.05313 46.7709H9.46711C10.2586 46.7709 11.0162 46.3941 11.4938 45.7628L15.2825 40.7538H44.7177L48.5065 45.7629C48.984 46.3941 49.7416 46.7709 50.533 46.7709C50.533 46.7709 51.9461 46.7709 51.9469 46.7709C53.6883 46.7709 54.9357 44.9768 54.3287 43.3443L53.3655 40.7538H53.8073C57.222 40.7538 60 37.9758 60 34.5612V25.3841C60 23.7446 58.6661 22.4105 57.0264 22.4105ZM30.8789 17.9804C30.8789 16.3305 32.2211 14.9884 33.8708 14.9884H51.0846C52.7344 14.9884 54.0765 16.3305 54.0765 17.9803V22.4106C54.0765 22.4106 52.4222 22.4106 52.4216 22.4106C51.253 22.4106 50.132 23.1606 49.6787 24.2366C49.5518 24.5379 49.4757 24.8616 49.4544 25.1877C49.4544 25.1877 34.8149 25.1877 34.8144 25.1877C33.3671 25.1877 31.9247 25.77 30.8789 26.7707V17.9804ZM10.552 26.9454H25.1856C27.3557 26.9455 29.1211 28.7109 29.1211 30.881V32.1308H10.552V26.9454ZM10.0918 44.7023C9.94465 44.897 9.71098 45.0131 9.46699 45.0131C9.46699 45.0131 8.05793 45.0131 8.05301 45.0131C7.51488 45.0131 7.13133 44.4611 7.31883 43.9569L8.50969 40.7538H13.0784L10.0918 44.7023ZM51.9469 45.013H50.533C50.289 45.013 50.0555 44.8969 49.9083 44.7023L46.9216 40.7538H51.4903C51.4903 40.7538 52.6771 43.9457 52.6812 43.9568C52.869 44.4621 52.4828 45.013 51.9469 45.013ZM53.8073 38.996H6.19266C3.7473 38.9961 1.75781 37.0065 1.75781 34.5612V25.3841C1.75781 24.7137 2.3032 24.1683 2.97363 24.1683H7.57828C8.24871 24.1683 8.7941 24.7137 8.7941 25.3841V33.0096C8.7941 33.495 9.18762 33.8885 9.67301 33.8885H41.9555C42.4409 33.8885 42.8344 33.495 42.8344 33.0096C42.8344 32.5242 42.4409 32.1307 41.9555 32.1307H30.8789V30.8809C30.8789 28.7108 32.6443 26.9454 34.8144 26.9454H49.448V32.1308H45.4711C44.9857 32.1308 44.5922 32.5243 44.5922 33.0097C44.5922 33.4951 44.9857 33.8886 45.4711 33.8886H50.3269C50.8123 33.8886 51.2058 33.4951 51.2058 33.0097V25.3842C51.2058 24.7138 51.7512 24.1684 52.4216 24.1684H57.0262C57.6967 24.1684 58.2421 24.7138 58.2421 25.3842V34.5612H58.2422C58.2422 37.0065 56.2527 38.996 53.8073 38.996Z" fill="#484848"/>
</svg>
