<svg width="512" height="513" viewBox="0 0 512 513" fill="none" xmlns="http://www.w3.org/2000/svg">
<g clip-path="url(#clip0_3582_11391)">
<path d="M496.484 89.1689H15.516C6.96 89.1689 0 96.1299 0 104.685V248.976C0 257.532 6.96 264.492 15.516 264.492H32.064V401.282C32.064 414.258 42.621 424.814 55.596 424.814H167.822C180.798 424.814 191.354 414.258 191.354 401.282V278.916C194.001 279.95 196.877 280.524 199.886 280.524H312.112C318.302 280.524 323.939 278.118 328.144 274.196C332.35 278.117 337.986 280.524 344.176 280.524H456.402C466.756 280.524 475.562 273.8 478.702 264.492H496.483C505.039 264.492 511.999 257.532 511.999 248.976V104.685C512 96.1299 505.04 89.1689 496.484 89.1689ZM32.064 249.492H15.516C15.231 249.492 15 249.261 15 248.976V136.234H32.064V249.492ZM47.064 153.299V136.235H176.355V153.299H47.064ZM80.161 176.831V200.879C80.161 205.584 76.333 209.411 71.629 209.411H55.597C50.892 209.411 47.065 205.583 47.065 200.879V176.831C47.065 172.126 50.893 168.299 55.597 168.299H71.629C76.333 168.299 80.161 172.125 80.161 176.831ZM320.645 256.992C320.645 261.697 316.817 265.524 312.113 265.524H199.887C195.182 265.524 191.355 261.696 191.355 256.992V208.894C191.355 204.752 187.997 201.394 183.855 201.394C179.713 201.394 176.355 204.752 176.355 208.894V401.282C176.355 405.987 172.527 409.814 167.823 409.814H55.597C50.892 409.814 47.065 405.987 47.065 401.282V222.804C49.712 223.838 52.588 224.412 55.597 224.412H71.629C84.605 224.412 95.161 213.856 95.161 200.88V176.832C95.161 173.823 94.587 170.947 93.553 168.3H176.355V176.834C176.355 180.976 179.713 184.334 183.855 184.334C187.997 184.334 191.355 180.976 191.355 176.834V168.3H320.645V256.992ZM320.645 153.297H191.355V136.233H320.645V153.297ZM464.935 256.992C464.936 261.697 461.108 265.524 456.403 265.524H344.177C339.472 265.524 335.645 261.696 335.645 256.992V168.299H418.447C417.413 170.946 416.839 173.822 416.839 176.831V200.879C416.839 213.855 427.396 224.411 440.371 224.411H456.403C459.412 224.411 462.288 223.837 464.935 222.803V256.992ZM464.935 200.879C464.935 205.584 461.107 209.411 456.403 209.411H440.371C435.666 209.411 431.839 205.583 431.839 200.879V176.831C431.839 172.126 435.667 168.299 440.371 168.299H456.403C461.108 168.299 464.935 172.126 464.935 176.831V200.879ZM497 248.976C497 249.261 496.769 249.492 496.484 249.492H479.936V136.234H497V248.976ZM497 121.234H456.401C452.259 121.234 448.901 124.591 448.901 128.734C448.901 132.876 452.259 136.234 456.401 136.234H464.936V153.298H335.645V136.234H424.342C428.484 136.234 431.842 132.876 431.842 128.734C431.842 124.591 428.484 121.234 424.342 121.234H15V104.685C15 104.401 15.231 104.169 15.516 104.169H496.484C496.769 104.169 497 104.4 497 104.685V121.234Z" fill="black"/>
</g>
<defs>
<clipPath id="clip0_3582_11391">
<rect width="511.999" height="511.999" fill="white" transform="translate(0 0.992188)"/>
</clipPath>
</defs>
</svg>
