<svg width="32" height="32" viewBox="0 0 32 32" fill="none" xmlns="http://www.w3.org/2000/svg">
<path d="M20 8C20 7.20888 19.7654 6.43552 19.3259 5.77772C18.8864 5.11992 18.2616 4.60723 17.5307 4.30448C16.7998 4.00173 15.9956 3.92252 15.2196 4.07686C14.4437 4.2312 13.731 4.61216 13.1716 5.17157C12.6122 5.73098 12.2312 6.44372 12.0769 7.21964C11.9225 7.99556 12.0017 8.79983 12.3045 9.53074C12.6072 10.2616 13.1199 10.8864 13.7777 11.3259C14.4355 11.7654 15.2089 12 16 12C17.0609 12 18.0783 11.5786 18.8284 10.8284C19.5786 10.0783 20 9.06087 20 8ZM13 8C13 7.40666 13.1759 6.82664 13.5056 6.33329C13.8352 5.83994 14.3038 5.45543 14.852 5.22836C15.4001 5.0013 16.0033 4.94189 16.5853 5.05765C17.1672 5.1734 17.7018 5.45912 18.1213 5.87868C18.5409 6.29824 18.8266 6.83279 18.9424 7.41473C19.0581 7.99667 18.9987 8.59987 18.7716 9.14805C18.5446 9.69623 18.1601 10.1648 17.6667 10.4944C17.1734 10.8241 16.5933 11 16 11C15.2044 11 14.4413 10.6839 13.8787 10.1213C13.3161 9.55871 13 8.79565 13 8Z" fill="#484848"/>
<path d="M5.03 21.3393L3 27.4993V30.4993C3 30.632 3.05268 30.7591 3.14645 30.8529C3.24021 30.9467 3.36739 30.9993 3.5 30.9993H28.5C28.6326 30.9993 28.7598 30.9467 28.8536 30.8529C28.9473 30.7591 29 30.632 29 30.4993C29 30.4993 29 27.5493 29 27.4993L27 21.3393C26.9652 21.2359 26.8975 21.1466 26.8072 21.0852C26.7169 21.0238 26.609 20.9937 26.5 20.9993H18.345L22.41 10.8693C22.878 9.78847 23.0691 8.60796 22.9661 7.43462C22.8631 6.26129 22.4692 5.13215 21.82 4.14935C21.1884 3.18163 20.3254 2.38668 19.3092 1.83644C18.293 1.2862 17.1556 0.998047 16 0.998047C14.8444 0.998047 13.707 1.2862 12.6908 1.83644C11.6746 2.38668 10.8116 3.18163 10.18 4.14935C9.53132 5.12944 9.13721 6.25578 9.03332 7.42649C8.92943 8.59721 9.11904 9.77535 9.585 10.8543L13.655 20.9993H5.5C5.39603 21.0001 5.29489 21.0333 5.21065 21.0942C5.12641 21.1552 5.06327 21.2408 5.03 21.3393ZM10.5 29.9993H4V27.9993H10.5V29.9993ZM10.575 26.9993H4.2L4.865 24.9993H10.915L10.575 26.9993ZM28 29.9993H21.5V27.9993H28V29.9993ZM27.135 24.9993L27.8 26.9993H21.42L21.085 24.9993H27.135ZM26.135 21.9993L26.8 23.9993H20.92L20.59 21.9993H26.135ZM19.575 21.9993L19.91 23.9993H17.14L17.945 21.9993H19.575ZM10.5 10.4993C10.0925 9.56771 9.92475 8.54885 10.0121 7.53574C10.0994 6.52262 10.4391 5.54751 11 4.69935C11.5392 3.86342 12.2794 3.17603 13.1529 2.70004C14.0264 2.22404 15.0052 1.97464 16 1.97464C16.9948 1.97464 17.9736 2.22404 18.8471 2.70004C19.7206 3.17603 20.4608 3.86342 21 4.69935C21.5609 5.54751 21.9006 6.52262 21.9879 7.53574C22.0752 8.54885 21.9075 9.56771 21.5 10.4993L16 24.1593L10.5 10.4993ZM12.425 21.9993H14.055L14.86 23.9993H12.09L12.425 21.9993ZM11.925 24.9993H15.26L15.535 25.6843C15.5719 25.7776 15.6359 25.8576 15.7188 25.914C15.8018 25.9704 15.8997 26.0006 16 26.0006C16.1003 26.0006 16.1982 25.9704 16.2812 25.914C16.3641 25.8576 16.4281 25.7776 16.465 25.6843L16.74 24.9993H20.075L20.405 26.9993H11.595L11.925 24.9993ZM11.5 27.9993H20.5V29.9993H11.5V27.9993ZM11.405 21.9993L11.075 23.9993H5.2L5.865 21.9993H11.405Z" fill="#484848"/>
</svg>
