<svg width="60" height="60" viewBox="0 0 60 60" fill="none" xmlns="http://www.w3.org/2000/svg">
<path d="M42.047 25.7534C41.9625 25.6183 41.845 25.507 41.7056 25.4299C41.5662 25.3528 41.4094 25.3125 41.2501 25.3128H30.9376V11.2503C30.9363 11.0404 30.8647 10.8369 30.7341 10.6726C30.6035 10.5082 30.4215 10.3925 30.2173 10.3439C30.013 10.2952 29.7984 10.3166 29.6077 10.4044C29.4171 10.4923 29.2614 10.6416 29.1657 10.8284L17.9157 33.3284C17.8438 33.4711 17.8096 33.6299 17.8163 33.7895C17.8229 33.9492 17.8703 34.1045 17.9539 34.2407C18.0375 34.3769 18.1546 34.4895 18.2939 34.5677C18.4332 34.646 18.5903 34.6873 18.7501 34.6878H29.0626V48.7503C29.0633 48.9609 29.1349 49.1652 29.2658 49.3302C29.3968 49.4952 29.5795 49.6112 29.7845 49.6597C29.8548 49.6782 29.9273 49.6877 30.0001 49.6878C30.1732 49.6873 30.3428 49.6388 30.4901 49.5478C30.6374 49.4568 30.7566 49.3268 30.8345 49.1722L42.0845 26.6722C42.157 26.5285 42.1917 26.3687 42.1851 26.2079C42.1786 26.0471 42.131 25.8907 42.047 25.7534ZM30.9376 44.7753V33.7503C30.9376 33.5017 30.8388 33.2632 30.663 33.0874C30.4872 32.9116 30.2487 32.8128 30.0001 32.8128H20.2688L29.0626 15.2253V26.2503C29.0626 26.4989 29.1614 26.7374 29.3372 26.9132C29.513 27.089 29.7515 27.1878 30.0001 27.1878H39.7313L30.9376 44.7753Z" fill="#484848"/>
<path d="M52.8847 13.6691C53.5973 12.7718 53.9556 11.6441 53.8917 10.5C53.8277 9.35598 53.3459 8.27521 52.5378 7.46289L49.8847 4.80977C49.7063 4.64042 49.4697 4.54601 49.2237 4.54601C48.9778 4.54601 48.7412 4.64042 48.5628 4.80977L47.8972 5.47539L45.244 2.82227L43.9222 4.14414L46.5753 6.79727L45.244 8.12852L42.5909 5.47539L41.269 6.79727L43.9222 9.45039L43.2565 10.116C43.0819 10.2917 42.9839 10.5293 42.9839 10.777C42.9839 11.0246 43.0819 11.2622 43.2565 11.4379L45.9097 14.091C46.6199 14.8071 47.5446 15.2716 48.543 15.4137C49.5415 15.5559 50.5591 15.3679 51.4409 14.8785C54.5838 19.2933 56.2656 24.5812 56.2503 30.0004C56.2464 34.308 55.1835 38.5485 53.1552 42.3487C51.1268 46.1488 48.1952 49.3919 44.6185 51.7924C41.0418 54.1929 36.9297 55.6772 32.6444 56.1146C28.3591 56.5519 24.0319 55.9289 20.044 54.3004L19.3315 56.0348C23.6042 57.7803 28.2406 58.4483 32.8322 57.9802C37.4239 57.512 41.83 55.9219 45.6624 53.3499C49.4949 50.778 52.6361 47.3031 54.8094 43.2313C56.9827 39.1596 58.1214 34.6159 58.1253 30.0004C58.1423 24.1405 56.3082 18.4249 52.8847 13.6691ZM51.2159 12.7691C50.6846 13.2919 49.9691 13.5848 49.2237 13.5848C48.4784 13.5848 47.7629 13.2919 47.2315 12.7691L45.244 10.7723L49.2284 6.79727L51.2159 8.78477C51.7427 9.31395 52.0385 10.0303 52.0385 10.777C52.0385 11.5237 51.7427 12.24 51.2159 12.7691Z" fill="#484848"/>
<path d="M30.0001 1.87503C22.5437 1.88421 15.3954 4.85032 10.1229 10.1228C4.85041 15.3953 1.8843 22.5436 1.87512 30C1.85807 35.8599 3.69217 41.5755 7.11574 46.3313C6.40314 47.2286 6.0448 48.3563 6.10875 49.5004C6.17269 50.6444 6.65446 51.7252 7.46262 52.5375L10.1157 55.1907C10.2012 55.2778 10.3034 55.3468 10.4161 55.3935C10.5289 55.4403 10.6499 55.4637 10.772 55.4625C10.8954 55.4638 11.0179 55.4403 11.1322 55.3937C11.2465 55.347 11.3503 55.278 11.4376 55.1907L12.1032 54.525L14.7564 57.1782L16.0782 55.8563L13.4251 53.2032L14.7564 51.8719L17.4095 54.525L18.7314 53.2032L16.0782 50.55L16.7439 49.8844C16.9185 49.7088 17.0165 49.4711 17.0165 49.2235C17.0165 48.9758 16.9185 48.7382 16.7439 48.5625L14.0907 45.9094C13.3764 45.2002 12.4522 44.7404 11.4557 44.5986C10.4591 44.4567 9.44338 44.6402 8.55949 45.1219C5.41662 40.7072 3.73483 35.4192 3.75012 30C3.75781 23.0405 6.5259 16.3681 11.4471 11.447C16.3682 6.52581 23.0405 3.75772 30.0001 3.75003C33.4153 3.74291 36.7985 4.40871 39.9564 5.7094L40.6689 3.96565C37.2829 2.57992 33.6587 1.86971 30.0001 1.87503ZM8.78449 47.2313C9.31582 46.7085 10.0313 46.4156 10.7767 46.4156C11.522 46.4156 12.2375 46.7085 12.7689 47.2313L14.7564 49.2282L10.772 53.2032L8.78449 51.2157C8.25769 50.6865 7.96193 49.9702 7.96193 49.2235C7.96193 48.4768 8.25769 47.7605 8.78449 47.2313Z" fill="#484848"/>
</svg>
