<svg width="60" height="60" viewBox="0 0 60 60" fill="none" xmlns="http://www.w3.org/2000/svg">
<path d="M18.6489 9.24218C18.8626 8.74343 18.7301 8.16468 18.3226 7.80843C17.9126 7.45093 17.3226 7.39968 16.8576 7.67843C9.92514 11.8372 7.36639 22.5284 11.3826 30.5584C15.1189 38.0297 17.3739 42.5384 13.8526 50.7572C13.6389 51.2559 13.7714 51.8347 14.1789 52.1909C14.5889 52.5484 15.1789 52.5997 15.6439 52.3209C22.5739 48.1622 25.1326 37.4709 21.1176 29.4372C17.3826 21.9672 15.1276 17.4584 18.6489 9.24218ZM17.6851 47.0372C19.1051 40.4097 16.7139 35.6284 13.6189 29.4397C10.9826 24.1672 11.6826 17.3659 14.8164 12.9597C13.3976 19.5847 15.7876 24.3672 18.8826 30.5572C21.5176 35.8309 20.8176 42.6309 17.6851 47.0372ZM32.3989 9.24218C32.6126 8.74343 32.4801 8.16468 32.0726 7.80843C31.6626 7.45093 31.0726 7.39968 30.6076 7.67843C23.6764 11.8372 21.1176 22.5297 25.1326 30.5597C28.8689 38.0309 31.1239 42.5397 27.6026 50.7584C27.3889 51.2572 27.5214 51.8359 27.9289 52.1922C28.3389 52.5497 28.9289 52.6009 29.3939 52.3222C36.3239 48.1634 38.8826 37.4722 34.8676 29.4384C31.1326 21.9672 28.8776 17.4584 32.3989 9.24218ZM31.4351 47.0372C32.8551 40.4097 30.4639 35.6284 27.3689 29.4397C24.7326 24.1672 25.4326 17.3659 28.5664 12.9597C27.1476 19.5847 29.5376 24.3672 32.6326 30.5572C35.2676 35.8309 34.5676 42.6309 31.4351 47.0372ZM48.6176 29.4384C44.8826 21.9672 42.6276 17.4584 46.1489 9.24218C46.3626 8.74343 46.2301 8.16468 45.8226 7.80843C45.4126 7.45093 44.8226 7.39968 44.3576 7.67843C37.4264 11.8372 34.8676 22.5297 38.8826 30.5597C42.6189 38.0309 44.8739 42.5397 41.3526 50.7584C41.1389 51.2572 41.2714 51.8359 41.6789 52.1922C42.0889 52.5497 42.6789 52.6009 43.1439 52.3222C50.0739 48.1634 52.6326 37.4709 48.6176 29.4384ZM45.1851 47.0372C46.6051 40.4097 44.2139 35.6284 41.1189 29.4397C38.4826 24.1672 39.1826 17.3659 42.3164 12.9597C40.8976 19.5847 43.2876 24.3672 46.3826 30.5572C49.0176 35.8309 48.3176 42.6309 45.1851 47.0372Z" fill="#484848"/>
</svg>
