<svg width="60" height="60" viewBox="0 0 60 60" fill="none" xmlns="http://www.w3.org/2000/svg">
<g clip-path="url(#clip0_3582_11168)">
<path d="M53.3735 11.5781C52.3159 10.6893 51.1632 9.92014 49.9366 9.28453V4.10016C49.935 3.01298 49.5023 1.97081 48.7335 1.20219C47.9646 0.433573 46.9223 0.00123988 45.8351 0L14.1654 0C13.078 0.00124064 12.0354 0.433767 11.2665 1.20269C10.4976 1.97161 10.0651 3.01414 10.0638 4.10156V9.28641C8.83731 9.92143 7.6847 10.69 6.62695 11.5781C6.54187 11.6552 6.47392 11.7492 6.42749 11.8542C6.38106 11.9592 6.35719 12.0727 6.35742 12.1875V48.7472C6.35755 48.9647 6.44401 49.1733 6.59782 49.3271C6.75164 49.4809 6.96021 49.5674 7.17774 49.5675H10.1473V51.2695C10.1483 52.1084 10.4819 52.9126 11.0751 53.5058C11.6683 54.0989 12.4725 54.4326 13.3113 54.4336H15.0588V59.1783C15.0588 59.3958 15.1453 59.6045 15.2991 59.7583C15.4529 59.9122 15.6616 59.9986 15.8791 59.9986H21.9729C22.1905 59.9986 22.3991 59.9122 22.5529 59.7583C22.7068 59.6045 22.7932 59.3958 22.7932 59.1783V54.4336H37.2073V59.1783C37.2073 59.3958 37.2937 59.6045 37.4475 59.7583C37.6014 59.9122 37.81 59.9986 38.0276 59.9986H44.1213C44.3389 59.9986 44.5475 59.9122 44.7014 59.7583C44.8552 59.6045 44.9416 59.3958 44.9416 59.1783V54.4336H46.6877C47.5266 54.4326 48.3308 54.0989 48.924 53.5058C49.5171 52.9126 49.8508 52.1084 49.8518 51.2695V49.5675H52.8213C53.0389 49.5675 53.2475 49.4811 53.4014 49.3272C53.5552 49.1734 53.6416 48.9647 53.6416 48.7472V12.1875C53.642 12.0728 53.6183 11.9594 53.5721 11.8544C53.5259 11.7495 53.4583 11.6554 53.3735 11.5781ZM11.7045 4.10016C11.7052 3.4477 11.9647 2.82219 12.4261 2.36083C12.8874 1.89948 13.5129 1.63996 14.1654 1.63922H45.8351C46.4875 1.63996 47.113 1.89948 47.5744 2.36083C48.0358 2.82219 48.2953 3.4477 48.296 4.10016V8.45953C44.4991 6.44016 35.8652 4.60406 30.0002 4.80328C24.1338 4.60453 15.5037 6.44063 11.7045 8.45953V4.10016ZM21.1526 58.3594H16.6995V54.435H21.1526V58.3594ZM43.301 58.3594H38.8479V54.435H43.301V58.3594ZM48.2121 51.2709C48.2116 51.6748 48.0509 52.062 47.7654 52.3476C47.4798 52.6332 47.0926 52.7939 46.6887 52.7944H13.3127C12.9088 52.7939 12.5216 52.6332 12.2361 52.3476C11.9505 52.062 11.7898 51.6748 11.7893 51.2709V49.5689H48.2135L48.2121 51.2709ZM45.0443 47.9283H14.9562V40.4883C14.9568 39.9601 15.1669 39.4537 15.5404 39.0803C15.9138 38.7068 16.4202 38.4967 16.9484 38.4961H43.0521C43.5803 38.4967 44.0866 38.7068 44.4601 39.0803C44.8336 39.4537 45.0437 39.9601 45.0443 40.4883V47.9283ZM52.002 47.9283H46.6849V40.4883C46.6838 39.5251 46.3007 38.6018 45.6197 37.9207C44.9386 37.2397 44.0153 36.8566 43.0521 36.8555H16.9484C15.9852 36.8566 15.0619 37.2397 14.3808 37.9207C13.6998 38.6018 13.3167 39.5251 13.3155 40.4883V47.9269H7.99805V12.5752C9.20789 11.6273 14.4851 7.91672 24.1615 6.77859C28.0419 6.33586 31.96 6.33586 35.8404 6.77859C45.5187 7.91672 50.7935 11.6288 52.002 12.5742V47.9283Z" fill="black"/>
<path d="M31.861 11.317C31.7779 11.213 31.6707 11.1308 31.5488 11.0775C31.4268 11.0242 31.2938 11.0013 31.161 11.0109C31.0283 11.0205 30.8999 11.0623 30.7869 11.1326C30.6738 11.2029 30.5796 11.2996 30.5124 11.4145L25.9805 19.1521L24.1903 17.2602C24.1021 17.1671 23.9933 17.096 23.8726 17.0525C23.7519 17.009 23.6227 16.9945 23.4953 17.01C23.368 17.0254 23.2461 17.0706 23.1393 17.1417C23.0326 17.2129 22.944 17.308 22.8807 17.4196L21.5982 19.6809C20.7782 21.124 20.3472 22.7555 20.3477 24.4153C20.3481 26.0751 20.7798 27.7064 21.6005 29.1491C22.4213 30.5918 23.6028 31.7965 25.0294 32.645C26.4559 33.4936 28.0785 33.9569 29.738 33.9895H29.8678H29.8721H30.0211H30.0469C30.2513 33.9895 30.4527 33.9852 30.6511 33.9768C32.3867 33.9175 34.0703 33.369 35.5078 32.3947C36.9454 31.4203 38.0784 30.0596 38.7764 28.4695C39.5245 26.8481 39.8059 25.0503 39.5893 23.2778C39.3726 21.5054 38.6663 19.8284 37.5497 18.4349L31.861 11.317ZM33.0028 30.4771C32.7673 31.0162 32.3842 31.4778 31.8977 31.8085C31.4112 32.1393 30.8411 32.3258 30.2532 32.3465C30.1796 32.3498 30.1041 32.3512 30.0282 32.3512H29.8946C29.3287 32.3389 28.7756 32.1799 28.2896 31.8897C27.8036 31.5996 27.4013 31.1882 27.122 30.6959C26.8427 30.2035 26.6961 29.6471 26.6964 29.0811C26.6967 28.5151 26.844 27.9588 27.1238 27.4668L27.1758 27.373L27.6 27.8216C27.6874 27.9143 27.7952 27.9853 27.9148 28.029C28.0344 28.0727 28.1626 28.0879 28.2891 28.0735C28.4157 28.059 28.5371 28.0152 28.6438 27.9456C28.7504 27.8761 28.8394 27.7826 28.9036 27.6726L30.6741 24.6491L32.5852 27.0398C32.9676 27.5172 33.2092 28.0918 33.283 28.699C33.3568 29.3062 33.2598 29.922 33.0028 30.4771ZM37.283 27.7898C36.6894 29.1192 35.7354 30.2559 34.5291 31.071C34.8907 30.2483 35.0202 29.3422 34.9034 28.4511C34.7867 27.56 34.4281 26.7178 33.8667 26.016L31.2108 22.6926C31.1277 22.5886 31.0206 22.5064 30.8986 22.4531C30.7767 22.3998 30.6436 22.377 30.5109 22.3866C30.3781 22.3961 30.2497 22.4379 30.1367 22.5082C30.0237 22.5785 29.9295 22.6752 29.8622 22.7901L28.0402 25.9002L27.6052 25.4399C27.5166 25.3472 27.4077 25.2763 27.2871 25.2329C27.1664 25.1895 27.0374 25.1746 26.91 25.1896C26.7827 25.205 26.6607 25.2501 26.554 25.3213C26.4472 25.3924 26.3587 25.4877 26.2955 25.5993L25.6964 26.6554C25.323 27.3069 25.1054 28.036 25.0607 28.7856C25.0159 29.5352 25.1453 30.285 25.4386 30.9763C23.7999 29.8448 22.6436 28.1413 22.1971 26.2006C21.7506 24.2599 22.0461 22.2224 23.0255 20.4885L23.7605 19.192L25.5417 21.0726C25.6293 21.1651 25.7371 21.236 25.8568 21.2796C25.9765 21.3232 26.1046 21.3384 26.2312 21.3239C26.3577 21.3094 26.4791 21.2656 26.5858 21.196C26.6925 21.1264 26.7815 21.033 26.8458 20.923L31.3261 13.2721L36.27 19.4596C37.1959 20.617 37.781 22.0095 37.9599 23.4808C38.1389 24.9521 37.9045 26.4442 37.283 27.7898Z" fill="black"/>
<path d="M41.5286 40.5166H18.4717C18.3639 40.5165 18.2572 40.5377 18.1577 40.5789C18.0581 40.6201 17.9677 40.6805 17.8915 40.7567C17.8153 40.8329 17.7549 40.9234 17.7137 41.0229C17.6725 41.1225 17.6513 41.2292 17.6514 41.3369V45.0869C17.6514 45.3045 17.7378 45.5131 17.8916 45.667C18.0455 45.8208 18.2541 45.9072 18.4717 45.9072H41.5286C41.7461 45.9071 41.9547 45.8206 42.1085 45.6668C42.2623 45.513 42.3487 45.3044 42.3489 45.0869V41.3369C42.3489 41.1194 42.2624 40.9107 42.1086 40.7569C41.9548 40.603 41.7461 40.5166 41.5286 40.5166ZM40.7082 44.2666H19.292V42.1572H40.7082V44.2666Z" fill="black"/>
</g>
<defs>
<clipPath id="clip0_3582_11168">
<rect width="60" height="60" fill="white"/>
</clipPath>
</defs>
</svg>
