<svg width="32" height="32" viewBox="0 0 32 32" fill="none" xmlns="http://www.w3.org/2000/svg">
<g clip-path="url(#clip0_2363_22430)">
<path d="M29.0011 8.99968H16.0011V7.98568C16.3245 7.96322 16.6339 7.845 16.8899 7.64607C17.1459 7.44715 17.3369 7.17653 17.4386 6.86868C17.529 6.56272 17.5164 6.23555 17.4028 5.93744C17.2891 5.63934 17.0807 5.38681 16.8096 5.21868L10.1966 0.799678C9.90563 0.60904 9.56626 0.505459 9.21842 0.501119C8.87059 0.496779 8.52874 0.591859 8.2331 0.775178L1.2291 5.19468C0.949733 5.35724 0.732256 5.60798 0.610809 5.90752C0.489363 6.20707 0.470824 6.53846 0.558103 6.84968C0.656337 7.16223 0.846642 7.43784 1.10411 7.64044C1.36158 7.84305 1.67422 7.9632 2.0011 7.98518V17.4997C2.0011 17.6323 2.05378 17.7595 2.14755 17.8532C2.24132 17.947 2.36849 17.9997 2.5011 17.9997V30.2497C2.5011 30.5812 2.6328 30.8991 2.86722 31.1336C3.10164 31.368 3.41958 31.4997 3.7511 31.4997C4.08262 31.4997 4.40057 31.368 4.63499 31.1336C4.86941 30.8991 5.0011 30.5812 5.0011 30.2497V17.9997H6.0011V30.9997H7.0011V29.9997H11.0011V30.9997H12.0011V17.9997H13.0011V30.2497C13.0011 30.5812 13.1328 30.8991 13.3672 31.1336C13.6016 31.368 13.9196 31.4997 14.2511 31.4997C14.5826 31.4997 14.9006 31.368 15.135 31.1336C15.3694 30.8991 15.5011 30.5812 15.5011 30.2497V26.4997H18.7511C19.0607 26.4994 19.3591 26.3842 19.5886 26.1765C19.8182 25.9688 19.9625 25.6833 19.9936 25.3753C20.0247 25.0673 19.9404 24.7588 19.7571 24.5093C19.5737 24.2599 19.3043 24.0874 19.0011 24.0252V18.3422C19.5988 18.6257 20.1039 19.0728 20.4579 19.6316C20.8118 20.1904 21.0002 20.8382 21.0011 21.4997C21.0041 24.1509 22.0587 26.6927 23.9334 28.5674C25.8081 30.4421 28.3499 31.4966 31.0011 31.4997C31.1337 31.4997 31.2609 31.447 31.3547 31.3532C31.4484 31.2595 31.5011 31.1323 31.5011 30.9997V11.4997C31.5003 10.8369 31.2367 10.2015 30.768 9.73279C30.2993 9.26412 29.6639 9.00047 29.0011 8.99968ZM30.5011 11.4997V27.4872C29.3814 27.444 28.2943 27.0984 27.3551 26.4872C27.653 26.4611 27.9317 26.3288 28.1402 26.1144C28.3487 25.9 28.4732 25.6178 28.4909 25.3192C28.5086 25.0206 28.4184 24.7257 28.2366 24.4881C28.0549 24.2506 27.7939 24.0863 27.5011 24.0252V9.99968H29.0011C29.3989 9.99968 29.7805 10.1577 30.0618 10.439C30.3431 10.7203 30.5011 11.1019 30.5011 11.4997ZM22.0011 15.7857C21.1389 15.0345 20.1107 14.4986 19.0011 14.2222V9.99968H22.0011V15.7857ZM23.0011 9.99968H26.5011V23.9997H25.1471C24.7231 23.1449 24.502 22.2038 24.5011 21.2497C24.5009 19.6576 23.9734 18.1104 23.0011 16.8497V9.99968ZM27.2511 24.9997C27.3174 24.9997 27.381 25.026 27.4279 25.0729C27.4748 25.1198 27.5011 25.1834 27.5011 25.2497C27.5011 25.316 27.4748 25.3796 27.4279 25.4265C27.381 25.4733 27.3174 25.4997 27.2511 25.4997H26.1816C26.0335 25.3404 25.8938 25.1735 25.7631 24.9997H27.2511ZM18.0011 9.99968V14.0387C17.7519 14.0128 17.5016 13.9998 17.2511 13.9997H16.0011V9.99968H18.0011ZM12.0011 16.9997H6.0011V12.9997C6.0011 12.204 6.31717 11.441 6.87978 10.8784C7.44239 10.3157 8.20545 9.99968 9.0011 9.99968C9.79675 9.99968 10.5598 10.3157 11.1224 10.8784C11.685 11.441 12.0011 12.204 12.0011 12.9997V16.9997ZM9.0011 8.99968C7.9406 9.00087 6.92388 9.42268 6.17399 10.1726C5.4241 10.9225 5.00229 11.9392 5.0011 12.9997V16.9997H3.0011V7.99968H15.0011V16.9997H13.0011V12.9997C12.9999 11.9392 12.5781 10.9225 11.8282 10.1726C11.0783 9.42268 10.0616 9.00087 9.0011 8.99968ZM1.5191 6.57268C1.49015 6.4694 1.49878 6.3592 1.54346 6.26169C1.58814 6.16418 1.66597 6.08568 1.7631 6.04018L8.7671 1.61918C8.89879 1.53845 9.0506 1.49657 9.20504 1.49834C9.35949 1.5001 9.5103 1.54546 9.6401 1.62918L16.2541 6.04968C16.3477 6.09732 16.4216 6.17619 16.4632 6.27261C16.5047 6.36903 16.5112 6.47695 16.4816 6.57768C16.4313 6.71195 16.3383 6.82599 16.2169 6.90224C16.0955 6.97849 15.9524 7.01272 15.8096 6.99968H2.1926C2.04886 7.01342 1.90463 6.97892 1.78268 6.9016C1.66072 6.82428 1.56799 6.70855 1.5191 6.57268ZM4.0011 30.2497C4.0011 30.316 3.97476 30.3796 3.92788 30.4265C3.881 30.4733 3.81741 30.4997 3.7511 30.4997C3.6848 30.4997 3.62121 30.4733 3.57433 30.4265C3.52744 30.3796 3.5011 30.316 3.5011 30.2497V17.9997H4.0011V30.2497ZM7.0011 25.9997H11.0011V26.9997H7.0011V25.9997ZM7.0011 24.9997V23.9997H11.0011V24.9997H7.0011ZM7.0011 22.9997V21.9997H11.0011V22.9997H7.0011ZM7.0011 20.9997V19.9997H11.0011V20.9997H7.0011ZM7.0011 28.9997V27.9997H11.0011V28.9997H7.0011ZM11.0011 18.9997H7.0011V17.9997H11.0011V18.9997ZM14.2511 30.4997C14.1848 30.4997 14.1212 30.4733 14.0743 30.4265C14.0274 30.3796 14.0011 30.316 14.0011 30.2497V17.9997H14.5011V30.2497C14.5011 30.316 14.4748 30.3796 14.4279 30.4265C14.381 30.4733 14.3174 30.4997 14.2511 30.4997ZM18.7511 25.4997H15.5011V24.9997H18.7511C18.8174 24.9997 18.881 25.026 18.9279 25.0729C18.9748 25.1198 19.0011 25.1834 19.0011 25.2497C19.0011 25.316 18.9748 25.3796 18.9279 25.4265C18.881 25.4733 18.8174 25.4997 18.7511 25.4997ZM18.0011 23.9997H15.5011V17.9997H17.5011C17.6685 18.0011 17.8356 18.0144 18.0011 18.0397V23.9997ZM30.5011 30.4862C28.2052 30.3556 26.046 29.3523 24.4658 27.6816C22.8855 26.0109 22.0038 23.7993 22.0011 21.4997C21.9998 20.3066 21.5252 19.1628 20.6816 18.3192C19.838 17.4755 18.6942 17.001 17.5011 16.9997H16.0011V14.9997H17.2511C18.9081 15.0015 20.4968 15.6606 21.6685 16.8323C22.8402 18.004 23.4993 19.5926 23.5011 21.2497C23.5033 23.1285 24.2339 24.9334 25.5394 26.2846C26.8449 27.6359 28.6234 28.4283 30.5011 28.4952V30.4862Z" fill="#484848"/>
</g>
<defs>
<clipPath id="clip0_2363_22430">
<rect width="32" height="32" fill="white"/>
</clipPath>
</defs>
</svg>
