<svg width="24" height="24" viewBox="0 0 24 24" fill="none" xmlns="http://www.w3.org/2000/svg">
<g clip-path="url(#clip0_1536_20301)">
<path d="M11.9531 21.8672C12.8074 21.8672 13.5 21.1746 13.5 20.3203C13.5 19.466 12.8074 18.7734 11.9531 18.7734C11.0988 18.7734 10.4062 19.466 10.4062 20.3203C10.4062 21.1746 11.0988 21.8672 11.9531 21.8672Z" fill="#484848"/>
<path d="M23.7483 7.25924C20.6672 3.95348 16.495 2.13286 11.9998 2.13281C7.50499 2.13286 3.33279 3.95348 0.251657 7.25924C-0.101311 7.63799 -0.0804514 8.23124 0.298298 8.58425C0.677094 8.93722 1.2703 8.91641 1.62331 8.53761C4.34581 5.61656 8.03092 4.00786 12.0002 4.00781C15.9691 4.00786 19.6542 5.61656 22.3767 8.53761C22.5613 8.73571 22.8117 8.83592 23.0627 8.83592C23.2916 8.83592 23.521 8.75258 23.7017 8.58425C24.0804 8.23119 24.1013 7.63799 23.7483 7.25924Z" fill="#484848"/>
<path d="M20.306 11.1306C18.0285 8.83587 15.0787 7.57217 12 7.57227C8.92054 7.57231 5.9707 8.83606 3.69389 11.1307C3.3292 11.4982 3.3315 12.0918 3.69905 12.4565C4.06659 12.8212 4.66017 12.8189 5.02486 12.4513C6.94696 10.5142 9.42412 9.44731 12 9.44726C14.5752 9.44717 17.0524 10.5141 18.9752 12.4514C19.1584 12.6361 19.3995 12.7285 19.6406 12.7285C19.8793 12.7285 20.1182 12.6379 20.3011 12.4564C20.6685 12.0917 20.6708 11.4981 20.306 11.1306Z" fill="#484848"/>
<path d="M16.5543 15.0137C15.3346 13.8053 13.5863 13.0547 11.9915 13.0547C11.9913 13.0547 11.991 13.0547 11.9908 13.0547H11.9233C11.923 13.0547 11.9229 13.0547 11.9226 13.0547C10.3278 13.0547 8.57932 13.8053 7.35968 15.0137C6.9919 15.3781 6.98914 15.9717 7.35354 16.3395C7.53687 16.5245 7.77818 16.6172 8.01954 16.6172C8.25799 16.6172 8.49654 16.5268 8.6793 16.3457C9.54757 15.4854 10.8206 14.9297 11.9227 14.9297C11.9228 14.9297 11.923 14.9297 11.9231 14.9297H11.991C11.9912 14.9297 11.9912 14.9297 11.9914 14.9297C13.0934 14.9297 14.3664 15.4855 15.2346 16.3457C15.6024 16.71 16.1961 16.7074 16.5604 16.3395C16.9249 15.9717 16.9221 15.3781 16.5543 15.0137Z" fill="#484848"/>
</g>
<defs>
<clipPath id="clip0_1536_20301">
<rect width="24" height="24" fill="white"/>
</clipPath>
</defs>
</svg>
