<svg width="60" height="60" viewBox="0 0 60 60" fill="none" xmlns="http://www.w3.org/2000/svg">
<path d="M54.9334 2.13672H5.06686C4.28983 2.13746 3.54485 2.44646 2.99541 2.9959C2.44598 3.54534 2.13698 4.29032 2.13623 5.06734V54.9339C2.13698 55.7109 2.44598 56.4559 2.99541 57.0053C3.54485 57.5548 4.28983 57.8638 5.06686 57.8645H54.9334C55.7104 57.8638 56.4554 57.5548 57.0049 57.0053C57.5543 56.4559 57.8633 55.7109 57.864 54.9339V5.06734C57.8633 4.29032 57.5543 3.54534 57.0049 2.9959C56.4554 2.44646 55.7104 2.13746 54.9334 2.13672ZM56.2234 54.9339C56.2232 55.276 56.0872 55.6039 55.8453 55.8458C55.6034 56.0877 55.2755 56.2237 54.9334 56.2239H5.06686C4.7248 56.2237 4.39683 56.0877 4.15496 55.8458C3.91309 55.6039 3.7771 55.276 3.77686 54.9339V5.06734C3.7771 4.72529 3.91309 4.39732 4.15496 4.15545C4.39683 3.91358 4.7248 3.77759 5.06686 3.77734H54.9334C55.2755 3.77759 55.6034 3.91358 55.8453 4.15545C56.0872 4.39732 56.2232 4.72529 56.2234 5.06734V54.9339Z" fill="#484848"/>
<path d="M50.8986 8.28125H9.10156C8.99382 8.28119 8.88712 8.30236 8.78757 8.34357C8.68802 8.38477 8.59756 8.44519 8.52138 8.52138C8.44519 8.59756 8.38477 8.68802 8.34357 8.78757C8.30236 8.88712 8.28119 8.99382 8.28125 9.10156V33.5703C8.28119 33.6781 8.30236 33.7848 8.34357 33.8843C8.38477 33.9839 8.44519 34.0743 8.52138 34.1505C8.59756 34.2267 8.68802 34.2871 8.78757 34.3283C8.88712 34.3695 8.99382 34.3907 9.10156 34.3906H50.8986C51.0063 34.3907 51.113 34.3695 51.2126 34.3283C51.3121 34.2871 51.4026 34.2267 51.4788 34.1505C51.555 34.0743 51.6154 33.9839 51.6566 33.8843C51.6978 33.7848 51.719 33.6781 51.7189 33.5703V9.10156C51.719 8.99382 51.6978 8.88712 51.6566 8.78757C51.6154 8.68802 51.555 8.59756 51.4788 8.52138C51.4026 8.44519 51.3121 8.38477 51.2126 8.34357C51.113 8.30236 51.0063 8.28119 50.8986 8.28125ZM30.0003 24.005C29.2153 24.005 28.448 23.7722 27.7953 23.3361C27.1426 22.9 26.6339 22.2802 26.3335 21.5549C26.0331 20.8297 25.9545 20.0317 26.1077 19.2618C26.2608 18.4919 26.6388 17.7847 27.1939 17.2297C27.7489 16.6746 28.4561 16.2966 29.226 16.1434C29.9959 15.9903 30.7939 16.0689 31.5191 16.3693C32.2444 16.6697 32.8642 17.1784 33.3003 17.8311C33.7364 18.4838 33.9692 19.2511 33.9692 20.0361C33.9681 21.0884 33.5496 22.0972 32.8055 22.8413C32.0614 23.5854 31.0526 24.0039 30.0003 24.005ZM27.5445 25.0719C28.3081 25.4493 29.1483 25.6456 30.0001 25.6456C30.8518 25.6456 31.6921 25.4493 32.4556 25.0719L36.1409 26.2231C36.4513 26.3189 36.7227 26.5118 36.9152 26.7734C37.1076 27.035 37.211 27.3515 37.2102 27.6763V32.7505H22.7905V27.6772C22.7897 27.3524 22.8932 27.036 23.0857 26.7745C23.2781 26.5129 23.5494 26.32 23.8597 26.2241L27.5445 25.0719ZM50.0783 32.7505H38.8508V27.6772C38.8534 27.0021 38.6389 26.3441 38.239 25.8002C37.8391 25.2563 37.275 24.8554 36.6298 24.6566L34.0892 23.863C34.8384 23.0651 35.3379 22.0656 35.5261 20.9874C35.7143 19.9093 35.5829 18.7996 35.1483 17.7952C34.7136 16.7907 33.9946 15.9354 33.0798 15.3345C32.1651 14.7336 31.0945 14.4134 30.0001 14.4134C28.9056 14.4134 27.8351 14.7336 26.9203 15.3345C26.0056 15.9354 25.2866 16.7907 24.8519 17.7952C24.4172 18.7996 24.2859 19.9093 24.4741 20.9874C24.6623 22.0656 25.1617 23.0651 25.9109 23.863L23.3708 24.6566C22.7258 24.8556 22.1619 25.2565 21.762 25.8002C21.3622 26.344 21.1476 27.0018 21.1498 27.6767V32.7505H9.92188V9.92234H50.0783V32.7505Z" fill="#484848"/>
<path d="M29.9999 38.8965C28.7317 38.8965 27.492 39.2726 26.4375 39.9771C25.3831 40.6817 24.5612 41.6832 24.0759 42.8548C23.5906 44.0265 23.4637 45.3158 23.7111 46.5596C23.9586 47.8034 24.5693 48.946 25.4661 49.8427C26.3629 50.7394 27.5054 51.35 28.7493 51.5974C29.9931 51.8448 31.2824 51.7177 32.454 51.2323C33.6257 50.7469 34.6271 49.925 35.3316 48.8705C36.0361 47.816 36.412 46.5762 36.412 45.308C36.41 43.6081 35.7338 41.9784 34.5317 40.7764C33.3296 39.5744 31.6998 38.8983 29.9999 38.8965ZM29.9999 50.0795C29.0562 50.0795 28.1337 49.7996 27.3491 49.2753C26.5644 48.751 25.9529 48.0058 25.5917 47.134C25.2306 46.2621 25.1361 45.3028 25.3202 44.3772C25.5043 43.4516 25.9587 42.6014 26.626 41.9342C27.2933 41.2669 28.1435 40.8124 29.0691 40.6283C29.9946 40.4442 30.954 40.5387 31.8259 40.8998C32.6977 41.261 33.4429 41.8725 33.9672 42.6572C34.4915 43.4418 34.7713 44.3644 34.7713 45.308C34.7698 46.573 34.2667 47.7858 33.3722 48.6803C32.4777 49.5748 31.2649 50.078 29.9999 50.0795Z" fill="#484848"/>
<path d="M30 42.623C29.4692 42.6231 28.9503 42.7806 28.5089 43.0756C28.0676 43.3706 27.7237 43.7898 27.5206 44.2803C27.3175 44.7707 27.2644 45.3104 27.368 45.831C27.4717 46.3517 27.7273 46.8299 28.1027 47.2052C28.4781 47.5805 28.9564 47.8361 29.477 47.9396C29.9977 48.0432 30.5373 47.99 31.0277 47.7868C31.5181 47.5836 31.9373 47.2396 32.2322 46.7982C32.5271 46.3569 32.6845 45.8379 32.6845 45.3071C32.6835 44.5955 32.4004 43.9133 31.8971 43.4101C31.3939 42.907 30.7116 42.6239 30 42.623ZM30 46.3505C29.7936 46.3505 29.592 46.2892 29.4204 46.1745C29.2489 46.0598 29.1152 45.8968 29.0363 45.7061C28.9574 45.5154 28.9368 45.3056 28.9771 45.1033C29.0175 44.9009 29.1169 44.715 29.2628 44.5691C29.4088 44.4232 29.5947 44.3239 29.7971 44.2837C29.9995 44.2435 30.2092 44.2642 30.3999 44.3431C30.5905 44.4221 30.7535 44.5559 30.8681 44.7275C30.9827 44.899 31.0439 45.1008 31.0439 45.3071C31.0435 45.5838 30.9334 45.8491 30.7377 46.0447C30.542 46.2403 30.2767 46.3503 30 46.3505Z" fill="#484848"/>
<path d="M16.7917 40.5371C17.0093 40.5371 17.2179 40.4507 17.3718 40.2968C17.5256 40.143 17.6121 39.9344 17.6121 39.7168C17.6121 39.4992 17.5256 39.2906 17.3718 39.1367C17.2179 38.9829 17.0093 38.8965 16.7917 38.8965H10.6099C10.3923 38.8965 10.1837 38.9829 10.0298 39.1367C9.87598 39.2906 9.78955 39.4992 9.78955 39.7168C9.78955 39.9344 9.87598 40.143 10.0298 40.2968C10.1837 40.4507 10.3923 40.5371 10.6099 40.5371H16.7917Z" fill="#484848"/>
<path d="M16.7917 50.0781H10.6099C10.3923 50.0781 10.1837 50.1646 10.0298 50.3184C9.87598 50.4722 9.78955 50.6809 9.78955 50.8984C9.78955 51.116 9.87598 51.3246 10.0298 51.4785C10.1837 51.6323 10.3923 51.7188 10.6099 51.7188H16.7917C17.0093 51.7188 17.2179 51.6323 17.3718 51.4785C17.5256 51.3246 17.6121 51.116 17.6121 50.8984C17.6121 50.6809 17.5256 50.4722 17.3718 50.3184C17.2179 50.1646 17.0093 50.0781 16.7917 50.0781Z" fill="#484848"/>
<path d="M18.2998 42.623H9.10156C8.884 42.623 8.67535 42.7095 8.52151 42.8633C8.36768 43.0172 8.28125 43.2258 8.28125 43.4434C8.28125 43.6609 8.36768 43.8696 8.52151 44.0234C8.67535 44.1772 8.884 44.2637 9.10156 44.2637H18.2998C18.5174 44.2637 18.7261 44.1772 18.8799 44.0234C19.0337 43.8696 19.1202 43.6609 19.1202 43.4434C19.1202 43.2258 19.0337 43.0172 18.8799 42.8633C18.7261 42.7095 18.5174 42.623 18.2998 42.623Z" fill="#484848"/>
<path d="M18.2998 46.3516H9.10156C8.884 46.3516 8.67535 46.438 8.52151 46.5918C8.36768 46.7457 8.28125 46.9543 8.28125 47.1719C8.28125 47.3894 8.36768 47.5981 8.52151 47.7519C8.67535 47.9058 8.884 47.9922 9.10156 47.9922H18.2998C18.5174 47.9922 18.7261 47.9058 18.8799 47.7519C19.0337 47.5981 19.1202 47.3894 19.1202 47.1719C19.1202 46.9543 19.0337 46.7457 18.8799 46.5918C18.7261 46.438 18.5174 46.3516 18.2998 46.3516Z" fill="#484848"/>
<path d="M49.0447 38.8965H43.5547C42.8428 38.8965 42.1601 39.1793 41.6567 39.6826C41.1534 40.186 40.8706 40.8687 40.8706 41.5805C40.8706 42.2924 41.1534 42.9751 41.6567 43.4785C42.1601 43.9818 42.8428 44.2646 43.5547 44.2646H49.0447C49.7565 44.2646 50.4392 43.9818 50.9426 43.4785C51.4459 42.9751 51.7287 42.2924 51.7287 41.5805C51.7287 40.8687 51.4459 40.186 50.9426 39.6826C50.4392 39.1793 49.7565 38.8965 49.0447 38.8965ZM49.0447 42.624H43.5547C43.2779 42.624 43.0125 42.5141 42.8168 42.3184C42.6212 42.1227 42.5112 41.8573 42.5112 41.5805C42.5112 41.3038 42.6212 41.0384 42.8168 40.8427C43.0125 40.647 43.2779 40.5371 43.5547 40.5371H49.0447C49.3214 40.5371 49.5868 40.647 49.7825 40.8427C49.9782 41.0384 50.0881 41.3038 50.0881 41.5805C50.0881 41.8573 49.9782 42.1227 49.7825 42.3184C49.5868 42.5141 49.3214 42.624 49.0447 42.624Z" fill="#484848"/>
<path d="M49.0349 46.3516H43.5641C42.8583 46.3609 42.1846 46.6478 41.6888 47.1502C41.193 47.6526 40.915 48.33 40.915 49.0359C40.915 49.7417 41.193 50.4191 41.6888 50.9215C42.1846 51.4239 42.8583 51.7108 43.5641 51.7202H49.0349C49.7407 51.7108 50.4144 51.4239 50.9102 50.9215C51.4059 50.4191 51.6839 49.7417 51.6839 49.0359C51.6839 48.33 51.4059 47.6526 50.9102 47.1502C50.4144 46.6478 49.7407 46.3609 49.0349 46.3516ZM49.0349 50.0795H43.5641C43.2911 50.0737 43.0313 49.9612 42.8403 49.7662C42.6493 49.5711 42.5423 49.3089 42.5423 49.0359C42.5423 48.7628 42.6493 48.5007 42.8403 48.3056C43.0313 48.1105 43.2911 47.998 43.5641 47.9922H49.0349C49.3078 47.998 49.5677 48.1105 49.7587 48.3056C49.9497 48.5007 50.0567 48.7628 50.0567 49.0359C50.0567 49.3089 49.9497 49.5711 49.7587 49.7662C49.5677 49.9612 49.3078 50.0737 49.0349 50.0795Z" fill="#484848"/>
</svg>
