<svg width="24" height="24" viewBox="0 0 24 24" fill="none" xmlns="http://www.w3.org/2000/svg">
<g clip-path="url(#clip0_1536_20295)">
<path d="M23.5 3H0.5C0.367392 3 0.240215 3.05268 0.146447 3.14645C0.0526784 3.24021 0 3.36739 0 3.5L0 18.5C0 18.6326 0.0526784 18.7598 0.146447 18.8536C0.240215 18.9473 0.367392 19 0.5 19H9V20.09L4.4 21C4.26739 21.0265 4.15075 21.1046 4.07574 21.2172C4.00072 21.3297 3.97348 21.4674 4 21.6C4.02652 21.7326 4.10464 21.8493 4.21716 21.9243C4.32968 21.9993 4.46739 22.0265 4.6 22C10.54 20.81 8.28 21 14.45 21C19.76 22.06 19.45 22 19.5 22C19.6326 22.0133 19.7651 21.9733 19.8682 21.8889C19.9713 21.8045 20.0367 21.6826 20.05 21.55C20.0633 21.4174 20.0233 21.2849 19.9389 21.1818C19.8545 21.0787 19.7326 21.0133 19.6 21L15 20.09V19H23.5C23.6326 19 23.7598 18.9473 23.8536 18.8536C23.9473 18.7598 24 18.6326 24 18.5V3.5C24 3.36739 23.9473 3.24021 23.8536 3.14645C23.7598 3.05268 23.6326 3 23.5 3ZM23 4V16H1V4H23ZM1 17H2V18H1V17ZM14 20H10V19H14V20ZM3 18V17H23V18H3Z" fill="#484848"/>
<path d="M10.6491 11.85C10.7467 11.9392 10.8757 11.9862 11.0078 11.9806C11.1399 11.9749 11.2645 11.9172 11.3541 11.82C11.4433 11.7233 11.5507 11.6452 11.6702 11.5901C11.7896 11.535 11.9188 11.504 12.0502 11.4989C12.1817 11.4938 12.3128 11.5146 12.4362 11.5603C12.5595 11.606 12.6727 11.6755 12.7691 11.765C12.868 11.8447 12.9936 11.8838 13.1202 11.8743C13.2469 11.8648 13.3652 11.8075 13.4512 11.7139C13.5371 11.6203 13.5842 11.4976 13.5829 11.3705C13.5816 11.2435 13.532 11.1218 13.4441 11.03C12.0491 9.73998 9.87912 11.135 10.6491 11.85Z" fill="#484848"/>
<path d="M9.14878 9.78544C9.05861 9.8829 9.01085 10.0122 9.016 10.1449C9.02116 10.2776 9.07881 10.4028 9.17628 10.4929C9.27375 10.5831 9.40304 10.6309 9.53573 10.6257C9.66841 10.6206 9.79361 10.5629 9.88378 10.4654C10.1506 10.1755 10.472 9.94091 10.8296 9.77518C11.1871 9.60944 11.5738 9.51577 11.9675 9.49952C12.3613 9.48327 12.7544 9.54475 13.1243 9.68046C13.4943 9.81617 13.8339 10.0234 14.1238 10.2904C14.2212 10.3806 14.3505 10.4284 14.4832 10.4232C14.6159 10.4181 14.7411 10.3604 14.8313 10.2629C14.9215 10.1655 14.9692 10.0362 14.9641 9.90349C14.9589 9.77081 14.9012 9.64561 14.8038 9.55544C14.4175 9.19898 13.9647 8.92216 13.4714 8.74079C12.9781 8.55942 12.4538 8.47706 11.9286 8.49842C11.4034 8.51978 10.8876 8.64444 10.4106 8.86528C9.93363 9.08611 9.50485 9.39879 9.14878 9.78544Z" fill="#484848"/>
<path d="M12.0913 12.4995C11.9587 12.5055 11.8339 12.5639 11.7443 12.6619C11.6548 12.7599 11.6078 12.8894 11.6138 13.022C11.6198 13.1546 11.6782 13.2794 11.7761 13.369C11.8741 13.4585 12.0037 13.5055 12.1363 13.4995C12.2689 13.4936 12.3937 13.4352 12.4833 13.3372C12.5728 13.2392 12.6198 13.1096 12.6138 12.977C12.6078 12.8444 12.5494 12.7196 12.4514 12.6301C12.3534 12.5405 12.2239 12.4936 12.0913 12.4995Z" fill="#484848"/>
</g>
<defs>
<clipPath id="clip0_1536_20295">
<rect width="24" height="24" fill="white"/>
</clipPath>
</defs>
</svg>
