<svg width="24" height="20" viewBox="0 0 24 20" fill="none" xmlns="http://www.w3.org/2000/svg">
<path d="M23.5 0H0.5C0.367392 0 0.240215 0.0526785 0.146447 0.146447C0.0526784 0.240215 0 0.367392 0 0.5L0 15.5C0 15.6326 0.0526784 15.7598 0.146447 15.8536C0.240215 15.9473 0.367392 16 0.5 16H9V17.09L4.4 18C4.26739 18.0265 4.15075 18.1046 4.07574 18.2172C4.00072 18.3297 3.97348 18.4674 4 18.6C4.02652 18.7326 4.10464 18.8493 4.21716 18.9243C4.32968 18.9993 4.46739 19.0265 4.6 19C10.54 17.81 8.28 18 14.45 18C19.76 19.06 19.45 19 19.5 19C19.6326 19.0133 19.7651 18.9733 19.8682 18.8889C19.9713 18.8045 20.0367 18.6826 20.05 18.55C20.0633 18.4174 20.0233 18.2849 19.9389 18.1818C19.8545 18.0787 19.7326 18.0133 19.6 18L15 17.09V16H23.5C23.6326 16 23.7598 15.9473 23.8536 15.8536C23.9473 15.7598 24 15.6326 24 15.5V0.5C24 0.367392 23.9473 0.240215 23.8536 0.146447C23.7598 0.0526785 23.6326 0 23.5 0ZM23 1V13H1V1H23ZM1 14H2V15H1V14ZM14 17H10V16H14V17ZM3 15V14H23V15H3Z" fill="#484848"/>
<path d="M10.6491 8.84998C10.7467 8.93923 10.8757 8.98619 11.0078 8.98056C11.1399 8.97494 11.2645 8.9172 11.3541 8.81998C11.4433 8.72331 11.5507 8.64518 11.6702 8.59008C11.7896 8.53498 11.9188 8.50399 12.0502 8.49888C12.1817 8.49377 12.3128 8.51465 12.4362 8.56031C12.5595 8.60597 12.6727 8.67552 12.7691 8.76498C12.868 8.8447 12.9936 8.88379 13.1202 8.8743C13.2469 8.86481 13.3652 8.80746 13.4512 8.7139C13.5371 8.62033 13.5842 8.49757 13.5829 8.37055C13.5816 8.24352 13.532 8.12176 13.4441 8.02998C12.0491 6.73998 9.87912 8.13498 10.6491 8.84998Z" fill="#484848"/>
<path d="M9.14878 6.78544C9.05861 6.8829 9.01085 7.0122 9.016 7.14488C9.02116 7.27756 9.07881 7.40276 9.17628 7.49294C9.27375 7.58311 9.40304 7.63087 9.53573 7.62572C9.66841 7.62056 9.79361 7.5629 9.88378 7.46544C10.1506 7.17546 10.472 6.94091 10.8296 6.77518C11.1871 6.60944 11.5738 6.51577 11.9675 6.49952C12.3613 6.48327 12.7544 6.54475 13.1243 6.68046C13.4943 6.81617 13.8339 7.02344 14.1238 7.29044C14.2212 7.38061 14.3505 7.42837 14.4832 7.42321C14.6159 7.41806 14.7411 7.3604 14.8313 7.26294C14.9215 7.16547 14.9692 7.03617 14.9641 6.90349C14.9589 6.77081 14.9012 6.64561 14.8038 6.55544C14.4175 6.19898 13.9647 5.92216 13.4714 5.74079C12.9781 5.55942 12.4538 5.47706 11.9286 5.49842C11.4034 5.51978 10.8876 5.64444 10.4106 5.86528C9.93363 6.08611 9.50485 6.39879 9.14878 6.78544Z" fill="#484848"/>
<path d="M12.0913 9.49953C11.9587 9.5055 11.8339 9.5639 11.7443 9.66189C11.6548 9.75987 11.6078 9.88942 11.6138 10.022C11.6198 10.1546 11.6782 10.2794 11.7761 10.369C11.8741 10.4585 12.0037 10.5055 12.1363 10.4995C12.2689 10.4936 12.3937 10.4352 12.4833 10.3372C12.5728 10.2392 12.6198 10.1096 12.6138 9.97703C12.6078 9.84442 12.5494 9.71962 12.4514 9.63007C12.3534 9.54052 12.2239 9.49356 12.0913 9.49953Z" fill="#484848"/>
</svg>
