<svg width="61" height="60" viewBox="0 0 61 60" fill="none" xmlns="http://www.w3.org/2000/svg">
<g clip-path="url(#clip0_3582_11173)">
<path d="M32.0341 10.0477C22.2748 9.4976 12.859 13.7349 6.79864 21.4043C0.738237 29.0736 -1.20738 39.2139 1.58412 48.5817C1.84504 49.4239 2.62343 49.9984 3.50512 49.9997H57.1641C58.0458 49.9982 58.824 49.4231 59.0841 48.5807C61.7092 39.7865 60.1645 30.2745 54.8915 22.7629C49.6184 15.2513 41.1971 10.5667 32.0341 10.0477ZM57.1641 47.9997L3.50012 48.0067C0.971785 39.5344 2.59352 30.3658 7.87462 23.2749C13.1557 16.184 21.4757 12.004 30.3171 11.9997C30.8505 11.9997 31.3861 12.0143 31.9241 12.0437C40.4748 12.5265 48.3339 16.8976 53.2545 23.9073C58.1751 30.9169 59.6156 39.7937 57.1641 47.9997Z" fill="black"/>
<path d="M30.334 14C22.5281 14.0053 15.137 17.5151 10.1996 23.5611C5.26224 29.6071 3.30029 37.5505 4.85499 45.2C4.97638 45.7292 5.49781 46.0648 6.02973 45.9562C6.56166 45.8476 6.90977 45.3344 6.81399 44.8C6.56167 43.5474 6.40952 42.2767 6.35899 41H9.33399C9.88628 41 10.334 40.5523 10.334 40C10.334 39.4477 9.88628 39 9.33399 39H6.35899C6.50238 35.4673 7.43014 32.0107 9.07499 28.881L11.647 30.366C11.9566 30.5475 12.3396 30.5492 12.6508 30.3705C12.962 30.1917 13.1535 29.86 13.1527 29.5011C13.1519 29.1423 12.9589 28.8114 12.647 28.634L10.079 27.151C11.977 24.171 14.505 21.643 17.485 19.745L18.968 22.313C19.1454 22.625 19.4763 22.818 19.8351 22.8187C20.194 22.8195 20.5257 22.628 20.7044 22.3168C20.8832 22.0057 20.8815 21.6226 20.7 21.313L19.215 18.741C26.1772 15.0864 34.4908 15.0864 41.453 18.741L39.968 21.313C39.7865 21.6226 39.7848 22.0057 39.9635 22.3168C40.1423 22.628 40.474 22.8195 40.8329 22.8187C41.1917 22.818 41.5226 22.625 41.7 22.313L43.183 19.745C46.163 21.643 48.691 24.171 50.589 27.151L48.021 28.634C47.709 28.8114 47.516 29.1423 47.5153 29.5011C47.5145 29.86 47.706 30.1917 48.0172 30.3705C48.3283 30.5492 48.7114 30.5475 49.021 30.366L51.593 28.881C53.2379 32.0107 54.1656 35.4673 54.309 39H51.334C50.7817 39 50.334 39.4477 50.334 40C50.334 40.5523 50.7817 41 51.334 41H54.309C54.2585 42.2767 54.1063 43.5474 53.854 44.8C53.7447 45.3406 54.0936 45.8676 54.634 45.978C54.6998 45.9918 54.7668 45.9988 54.834 45.999C55.3089 45.9986 55.718 45.6643 55.813 45.199C57.3674 37.5496 55.4052 29.6066 50.4679 23.5608C45.5305 17.515 38.1397 14.0054 30.334 14Z" fill="black"/>
<path d="M33.8069 35.116L32.4199 19.916C32.3251 18.8346 31.4195 18.0049 30.3339 18.0049C29.2483 18.0049 28.3427 18.8346 28.2479 19.916L26.8609 35.116C24.7313 36.6277 23.8241 39.3432 24.6175 41.8313C25.4108 44.3195 27.7224 46.0087 30.3339 46.0087C32.9455 46.0087 35.2571 44.3195 36.0504 41.8313C36.8437 39.3432 35.9365 36.6277 33.8069 35.116ZM30.2399 20.087C30.2543 20.0475 30.2918 20.0211 30.3339 20.0211C30.376 20.0211 30.4136 20.0475 30.4279 20.087L31.7119 34.162C30.8066 33.9406 29.8612 33.9406 28.9559 34.162L30.2399 20.087ZM30.3339 44C28.1248 44 26.3339 42.2092 26.3339 40C26.3339 37.7909 28.1248 36 30.3339 36C32.5431 36 34.3339 37.7909 34.3339 40C34.3339 42.2092 32.5431 44 30.3339 44Z" fill="black"/>
</g>
<defs>
<clipPath id="clip0_3582_11173">
<rect width="60" height="60" fill="white" transform="translate(0.333984)"/>
</clipPath>
</defs>
</svg>
