<svg width="60" height="60" viewBox="0 0 60 60" fill="none" xmlns="http://www.w3.org/2000/svg">
<g clip-path="url(#clip0_3618_11891)">
<path d="M46.0525 48.8848C45.5666 48.8848 45.1729 49.2785 45.1729 49.7644C45.1729 50.2501 45.5666 50.644 46.0525 50.644H48.9844C49.4702 50.644 49.864 50.2502 49.864 49.7644C49.864 49.2786 49.4702 48.8848 48.9844 48.8848H46.0525Z" fill="#484848"/>
<path d="M46.0525 37.8002H48.9844C49.4702 37.8002 49.864 37.4065 49.864 36.9206C49.864 36.4349 49.4702 36.041 48.9844 36.041H46.0525C45.5666 36.041 45.1729 36.4348 45.1729 36.9206C45.173 37.4065 45.5667 37.8002 46.0525 37.8002Z" fill="#484848"/>
<path d="M57.8228 2.87891H34.2517C33.0511 2.87891 32.0745 3.85555 32.0745 5.05613V9.29656C32.0745 9.78231 32.4682 10.1762 32.9541 10.1762C33.4399 10.1762 33.8337 9.78242 33.8337 9.29656V5.05613C33.8337 4.82563 34.0213 4.63801 34.2518 4.63801H57.8228C58.0533 4.63801 58.2409 4.82551 58.2409 5.05613V17.2278H33.8336V13.4086C33.8336 12.9228 33.4398 12.5289 32.9539 12.5289C32.4681 12.5289 32.0743 12.9227 32.0743 13.4086V20.468C32.0743 21.6686 33.051 22.6453 34.2516 22.6453H42.2381L41.6307 25.4667H30.9488C30.8535 24.0037 30.2591 22.5955 29.2509 21.4982C28.0119 20.1496 26.3193 19.4069 24.4848 19.4069H15.9627C14.1282 19.4069 12.4356 20.1496 11.1966 21.4982C10.1885 22.5956 9.59402 24.0037 9.49875 25.4667H1.83457C0.823008 25.4668 0 26.2898 0 27.3014V29.4883C0 30.5 0.823008 31.3229 1.83457 31.3229H2.96707V55.362C2.96707 56.3322 3.75645 57.1215 4.72652 57.1215H6.5809C7.55109 57.1215 8.34035 56.3321 8.34035 55.362V31.3229H10.5477L11.7068 36.4596C12.1568 38.4535 13.8987 39.8462 15.9428 39.8462H17.0153L17.1816 41.2257H14.3762C12.3841 41.2257 10.7634 42.8464 10.7634 44.8385C10.7634 46.0139 11.7197 46.9701 12.8951 46.9701H19.3832V52.8628H17.5024C15.4997 52.8628 13.7023 54.0548 12.9234 55.8997C12.7344 56.3472 12.9441 56.8632 13.3916 57.0521C13.8375 57.2405 14.3544 57.0329 14.544 56.5839C15.0472 55.392 16.2086 54.6219 17.5025 54.6219H23.0603C24.3541 54.6219 25.5154 55.392 26.0188 56.5841C26.2079 57.0316 26.7237 57.241 27.1713 57.0521C27.6187 56.8631 27.8284 56.3471 27.6394 55.8996C26.8602 54.0548 25.063 52.8627 23.0604 52.8627H21.1425V46.9702H27.5524C28.7278 46.9702 29.6842 46.014 29.6842 44.8386C29.6842 42.8465 28.0635 41.2258 26.0714 41.2258H23.2659L23.4322 39.8463H24.5048C26.5489 39.8463 28.2908 38.4538 28.7407 36.4597L29.8998 31.323H38.1325V55.2138C38.1325 56.2658 38.9883 57.1216 40.0403 57.1216H54.9961C56.0481 57.1216 56.9039 56.2658 56.9039 55.2138V51.815C56.9039 51.3293 56.5102 50.9354 56.0243 50.9354C55.5384 50.9354 55.1447 51.3291 55.1447 51.815V55.2138C55.1447 55.2957 55.078 55.3625 54.996 55.3625H40.0404C39.9584 55.3625 39.8917 55.2958 39.8917 55.2138V44.1652H55.1448V47.709C55.1448 48.1947 55.5386 48.5886 56.0244 48.5886C56.5103 48.5886 56.904 48.1948 56.904 47.709V31.3229H58.1201C59.1318 31.3229 59.9547 30.4999 59.9547 29.4883V27.3014C59.9547 26.2897 59.1316 25.4668 58.1201 25.4668H50.4436L49.8362 22.6454H57.8228C59.0234 22.6454 60 21.6686 60 20.4682V5.05613C60 3.85555 59.0234 2.87891 57.8228 2.87891ZM6.58102 55.3624L4.72617 55.362V31.3229H6.58125L6.58102 55.3624ZM1.83457 29.5638C1.79297 29.5638 1.7591 29.5299 1.7591 29.4883V27.3014C1.7591 27.2598 1.79297 27.2259 1.83457 27.2259H9.62496C9.66539 27.418 9.90586 28.4757 10.1509 29.5638H1.83457ZM27.925 44.8385C27.925 45.0439 27.7579 45.211 27.5524 45.211H12.8953C12.6899 45.211 12.5228 45.0439 12.5228 44.8385C12.5228 43.8164 13.3543 42.9848 14.3764 42.9848H26.0714C27.0934 42.9848 27.925 43.8164 27.925 44.8385ZM21.4939 41.2257H18.9537L18.7874 39.8462H21.6602L21.4939 41.2257ZM27.0247 36.0724C26.7571 37.2586 25.7209 38.0871 24.5048 38.0871H15.9429C14.7268 38.0871 13.6905 37.2587 13.4229 36.0724L11.3588 26.9247C11.007 25.3671 11.4746 23.7958 12.492 22.6885C13.3939 21.7068 14.6265 21.1661 15.9627 21.1661H24.4848C25.821 21.1661 27.0537 21.7068 27.9555 22.6885C29.0155 23.8423 29.4265 25.4286 29.0887 26.9248L28.335 30.2649C28.3349 30.2655 28.3346 30.2662 28.3345 30.2668L27.0247 36.0724ZM55.1448 42.406H39.8917V31.323H55.1448V42.406ZM58.1955 27.3014V29.4883C58.1955 29.5299 58.1617 29.5638 58.1201 29.5638H30.2968C30.611 28.1684 30.7745 27.4556 30.8228 27.2259H58.1201C58.1616 27.2259 58.1955 27.2598 58.1955 27.3014ZM48.6441 25.4668H43.4303L44.0377 22.6454H48.0367L48.6441 25.4668ZM57.8228 20.8862C57.1893 20.8862 34.8845 20.8862 34.2518 20.8862C34.0213 20.8862 33.8337 20.6986 33.8337 20.468V18.9869H58.2409V20.468C58.2409 20.6987 58.0533 20.8862 57.8228 20.8862Z" fill="#484848"/>
</g>
<defs>
<clipPath id="clip0_3618_11891">
<rect width="60" height="60" fill="white"/>
</clipPath>
</defs>
</svg>
