<svg width="513" height="513" viewBox="0 0 513 513" fill="none" xmlns="http://www.w3.org/2000/svg">
<g clip-path="url(#clip0_3582_11573)">
<path d="M393.346 417.479C389.2 417.479 385.84 420.839 385.84 424.985C385.84 429.13 389.2 432.491 393.346 432.491H418.365C422.511 432.491 425.871 429.131 425.871 424.985C425.871 420.84 422.511 417.479 418.365 417.479H393.346Z" fill="black"/>
<path d="M393.346 322.904H418.365C422.511 322.904 425.871 319.544 425.871 315.398C425.871 311.253 422.511 307.892 418.365 307.892H393.346C389.2 307.892 385.84 311.252 385.84 315.398C385.841 319.544 389.201 322.904 393.346 322.904Z" fill="black"/>
<path d="M493.788 24.9004H292.648C282.403 24.9004 274.069 33.2344 274.069 43.4794V79.6644C274.069 83.8094 277.429 87.1704 281.575 87.1704C285.721 87.1704 289.081 83.8104 289.081 79.6644V43.4794C289.081 41.5124 290.682 39.9114 292.649 39.9114H493.788C495.755 39.9114 497.356 41.5114 497.356 43.4794V147.344H289.08V114.753C289.08 110.608 285.72 107.247 281.574 107.247C277.428 107.247 274.068 110.607 274.068 114.753V174.994C274.068 185.239 282.402 193.573 292.647 193.573H360.799L355.616 217.649H264.463C263.65 205.165 258.578 193.148 249.975 183.785C239.402 172.277 224.958 165.939 209.304 165.939H136.582C120.928 165.939 106.484 172.277 95.9112 183.785C87.3092 193.149 82.2362 205.165 81.4232 217.649H16.0222C7.39019 217.65 0.367188 224.673 0.367188 233.305V251.967C0.367188 260.6 7.39019 267.622 16.0222 267.622H25.6862V472.756C25.6862 481.035 32.4222 487.77 40.7002 487.77H56.5242C64.8032 487.77 71.5382 481.034 71.5382 472.756V267.622H90.3742L100.265 311.455C104.105 328.47 118.969 340.354 136.412 340.354H145.564L146.983 352.126H123.044C106.045 352.126 92.2152 365.956 92.2152 382.955C92.2152 392.985 100.375 401.145 110.405 401.145H165.77V451.429H149.721C132.631 451.429 117.293 461.601 110.647 477.344C109.034 481.163 110.823 485.566 114.642 487.178C118.447 488.786 122.858 487.014 124.476 483.183C128.77 473.012 138.68 466.44 149.722 466.44H197.148C208.189 466.44 218.098 473.012 222.394 483.184C224.008 487.003 228.409 488.79 232.229 487.178C236.047 485.565 237.836 481.162 236.223 477.343C229.574 461.601 214.238 451.428 197.149 451.428H180.783V401.146H235.481C245.511 401.146 253.672 392.986 253.672 382.956C253.672 365.957 239.842 352.127 222.843 352.127H198.903L200.322 340.355H209.475C226.918 340.355 241.782 328.472 245.621 311.456L255.512 267.623H325.764V471.491C325.764 480.468 333.067 487.771 342.044 487.771H469.667C478.644 487.771 485.947 480.468 485.947 471.491V442.488C485.947 438.343 482.587 434.982 478.441 434.982C474.295 434.982 470.935 438.342 470.935 442.488V471.491C470.935 472.19 470.366 472.76 469.666 472.76H342.045C341.345 472.76 340.776 472.191 340.776 471.491V377.21H470.936V407.45C470.936 411.595 474.296 414.956 478.442 414.956C482.588 414.956 485.948 411.596 485.948 407.45V267.622H496.325C504.958 267.622 511.98 260.599 511.98 251.967V233.305C511.98 224.672 504.957 217.65 496.325 217.65H430.819L425.636 193.574H493.788C504.033 193.574 512.367 185.239 512.367 174.995V43.4794C512.367 33.2344 504.033 24.9004 493.788 24.9004ZM56.5252 472.759L40.6972 472.756V267.622H56.5272L56.5252 472.759ZM16.0222 252.611C15.6672 252.611 15.3782 252.322 15.3782 251.967V233.305C15.3782 232.95 15.6672 232.661 16.0222 232.661H82.5002C82.8452 234.3 84.8972 243.326 86.9882 252.611H16.0222ZM238.66 382.955C238.66 384.708 237.234 386.134 235.481 386.134H110.407C108.654 386.134 107.228 384.708 107.228 382.955C107.228 374.233 114.324 367.137 123.046 367.137H222.843C231.564 367.137 238.66 374.233 238.66 382.955ZM183.782 352.126H162.105L160.686 340.354H185.201L183.782 352.126ZM230.978 308.151C228.694 318.273 219.852 325.343 209.475 325.343H136.413C126.036 325.343 117.193 318.274 114.909 308.151L97.2952 230.091C94.2932 216.799 98.2842 203.391 106.965 193.942C114.662 185.565 125.18 180.951 136.582 180.951H209.304C220.706 180.951 231.225 185.565 238.921 193.942C247.966 203.788 251.473 217.324 248.591 230.092L242.159 258.594C242.158 258.599 242.156 258.605 242.155 258.61L230.978 308.151ZM470.936 362.198H340.776V267.623H470.936V362.198ZM496.969 233.305V251.967C496.969 252.322 496.68 252.611 496.325 252.611H258.9C261.581 240.704 262.976 234.621 263.388 232.661H496.325C496.679 232.661 496.969 232.95 496.969 233.305ZM415.463 217.65H370.972L376.155 193.574H410.28L415.463 217.65ZM493.788 178.562C488.382 178.562 298.048 178.562 292.649 178.562C290.682 178.562 289.081 176.961 289.081 174.994V162.355H497.356V174.994C497.356 176.962 495.755 178.562 493.788 178.562Z" fill="black"/>
</g>
<defs>
<clipPath id="clip0_3582_11573">
<rect width="512" height="512" fill="white" transform="translate(0.367188 0.335938)"/>
</clipPath>
</defs>
</svg>
