<svg width="24" height="24" viewBox="0 0 24 24" fill="none" xmlns="http://www.w3.org/2000/svg">
<path d="M12.0012 1.5C11.6226 1.5 11.244 1.7546 11.2512 2.26171V4.6084L9.87282 3.22852C9.57809 2.92529 9.09018 2.92519 8.79912 3.22552C8.50821 3.52598 8.51578 4.0005 8.81232 4.289C9.6253 5.10198 10.4382 5.91494 11.2512 6.72796V10.7021L7.80893 8.71575C7.51129 7.60493 7.21449 6.49405 6.91687 5.38323C6.81527 4.98221 6.40849 4.73954 6.00283 4.84124C5.59722 4.94316 5.35295 5.36455 5.46817 5.77141L5.97353 7.65521L3.94039 6.48187C3.585 6.27014 3.12559 6.38525 2.91064 6.74407C2.69587 7.10299 2.82124 7.5735 3.19041 7.77972L5.22209 8.95306L3.33982 9.45696C2.92986 9.5606 2.68623 9.98344 2.80078 10.3857C2.91552 10.7879 3.32992 11.0182 3.72799 10.9057C4.83821 10.6082 5.94872 10.3111 7.05895 10.0136L10.5012 12.0014L7.05895 13.9877C5.94872 13.6902 4.83821 13.3931 3.72799 13.0956C3.32992 12.9831 2.91552 13.2135 2.80078 13.6157C2.68623 14.0179 2.92986 14.4407 3.33982 14.5444L5.22355 15.0483L3.19041 16.2216C2.82124 16.4278 2.69587 16.8983 2.91064 17.2573C3.12559 17.6161 3.585 17.7312 3.94039 17.5195L5.97353 16.3461L5.46817 18.2299C5.35295 18.6368 5.59721 19.0582 6.00283 19.1601C6.40849 19.2618 6.81527 19.0191 6.91687 18.6181C7.21449 17.5073 7.51129 16.3964 7.80893 15.2856L11.2512 13.2992V17.2734C10.4382 18.0864 9.6253 18.8993 8.81232 19.7123C8.5158 20.0008 8.50823 20.4753 8.79912 20.7758C9.09018 21.0762 9.57809 21.0761 9.87282 20.7728L11.2512 19.3944V21.7396C11.2452 22.1624 11.5888 22.5064 12.007 22.4999C12.4252 22.4931 12.7568 22.1533 12.7512 21.7396V19.3973L14.1281 20.7728C14.4228 21.076 14.9107 21.0761 15.2018 20.7758C15.4927 20.4753 15.4851 20.0008 15.1886 19.7123C14.3761 18.8998 13.5636 18.0874 12.7511 17.2748V13.3007L16.192 15.287C16.4895 16.3974 16.788 17.5077 17.0855 18.6181C17.1871 19.0191 17.5939 19.2618 17.9995 19.1601C18.4051 19.0582 18.6494 18.6368 18.5342 18.2299L18.0303 16.3476L20.0605 17.5195C20.9317 18.039 21.696 16.7149 20.8105 16.2201L18.7803 15.0483L20.6611 14.5444C21.071 14.4407 21.3147 14.0179 21.2001 13.6157C21.0854 13.2135 20.671 12.9831 20.2729 13.0956C19.1631 13.393 18.0532 13.6903 16.9434 13.9877L13.5011 12.0014L16.9434 10.0136C18.0532 10.311 19.1631 10.6083 20.2729 10.9057C20.671 11.0182 21.0854 10.7879 21.2001 10.3857C21.3147 9.98344 21.071 9.5606 20.6611 9.45696L18.7803 8.95306L20.8105 7.78118C21.696 7.28647 20.9317 5.96231 20.0605 6.48187L18.0288 7.65521L18.5342 5.77141C18.6494 5.36455 18.4051 4.94316 17.9995 4.84124C17.5939 4.73954 17.1871 4.98222 17.0855 5.38323C16.7879 6.49406 16.4896 7.60492 16.192 8.71575L12.7511 10.7021V6.7265C13.5636 5.91397 14.3761 5.10149 15.1886 4.289C15.4851 4.0005 15.4927 3.52598 15.2018 3.22552C14.9107 2.92513 14.4228 2.92523 14.1281 3.22852L12.7512 4.60547V2.26171C12.7587 1.7546 12.3798 1.5 12.0012 1.5Z" fill="#484848"/>
</svg>
