<svg width="32" height="32" viewBox="0 0 32 32" fill="none" xmlns="http://www.w3.org/2000/svg">
<g clip-path="url(#clip0_3295_18373)">
<path d="M29.6916 12.1172H27.5264V13.0547H29.6916V12.1172Z" fill="black"/>
<path d="M25.9986 12.1172H2.62109V13.0547H25.9986V12.1172Z" fill="black"/>
<path d="M23.3529 8.19713C23.1208 6.40288 22.2716 4.75163 20.9617 3.54756C19.6349 2.32794 17.9283 1.65625 16.1561 1.65625C14.3839 1.65625 12.6773 2.32794 11.3506 3.54756C10.0407 4.75169 9.19143 6.40294 8.9593 8.197C8.94662 8.29513 8.94043 8.39638 8.94043 8.50669H9.87793C9.87793 8.43713 9.88155 8.37525 9.88905 8.31738C10.3112 5.05444 13.0054 2.59381 16.1561 2.59381C19.3067 2.59381 22.0011 5.05444 22.4231 8.31769C22.4306 8.37519 22.4342 8.437 22.4342 8.50669H23.3717C23.3717 8.39613 23.3656 8.29475 23.3529 8.19713Z" fill="black"/>
<path d="M4.73828 15.8672V26.9781H10.7435V15.8672H4.73828ZM5.67578 26.0407V16.8047H9.80603V26.0407H5.67578Z" fill="black"/>
<path d="M21.5684 15.8672V26.9781H27.5736V15.8672H21.5684ZM26.6361 26.0407H22.5059V16.8047H26.6361V26.0407Z" fill="black"/>
<path d="M9.14844 19.5723H8.21094V25.0366H9.14844V19.5723Z" fill="black"/>
<path d="M9.14844 17.7578H8.21094V19.0025H9.14844V17.7578Z" fill="black"/>
<path d="M25.9785 19.4473H25.041V25.0366H25.9785V19.4473Z" fill="black"/>
<path d="M25.9785 17.7578H25.041V18.8774H25.9785V17.7578Z" fill="black"/>
<path d="M1.35934 31.0625H0.452148V32H1.35934V31.0625Z" fill="black"/>
<path d="M30.5931 31.0625V28.8088H29.9102V14.5686H31.2344V10.565H30.1604V7.67469H25.2008C24.4823 3.27069 20.6657 0 16.1567 0C11.6477 0 7.83123 3.27069 7.11266 7.67469H2.1531V10.565H1.0791V14.5686H2.40335V28.8089H1.72041V32H31.5478V31.0625H30.5931ZM3.0906 8.61219H7.93735L7.98585 8.19794C8.47041 4.05881 11.9832 0.9375 16.1568 0.9375C20.3304 0.9375 23.8431 4.05881 24.3277 8.19794L24.3762 8.61219H29.2229V10.565H3.0906V8.61219ZM2.0166 13.6311V11.5025H30.2969V13.6311H2.0166ZM16.1568 17.7951C14.0354 17.7951 12.3095 19.5209 12.3095 21.6424V28.8088H3.34085V14.5686H28.9727V28.8089H20.004V21.6424C20.004 19.521 18.2782 17.7951 16.1568 17.7951ZM19.0665 21.6424V28.8088H16.6255V18.7709C18.0078 18.9958 19.0665 20.1975 19.0665 21.6424ZM15.688 18.7709V28.8088H13.247V21.6424C13.247 20.1975 14.3057 18.9958 15.688 18.7709ZM29.6557 31.0625H2.65791V29.7463H29.6557V31.0625Z" fill="black"/>
<path d="M6.33719 5.24219H4.33594V6.17969H6.33719V5.24219Z" fill="black"/>
<path d="M3.5827 5.24219H1.4502V6.17969H3.5827V5.24219Z" fill="black"/>
<path d="M28.6062 5.24219H25.9756V6.17969H28.6062V5.24219Z" fill="black"/>
<path d="M30.8631 5.24219H29.2764V6.17969H30.8631V5.24219Z" fill="black"/>
<path d="M7.5884 2.44141H3.57715V3.37891H7.5884V2.44141Z" fill="black"/>
<path d="M2.51126 2.44141H1.4502V3.37891H2.51126V2.44141Z" fill="black"/>
<path d="M25.7271 2.44141H24.7246V3.37891H25.7271V2.44141Z" fill="black"/>
<path d="M30.8634 2.44141H26.2959V3.37891H30.8634V2.44141Z" fill="black"/>
<path d="M18.2314 23.3047H17.2939V25.2025H18.2314V23.3047Z" fill="black"/>
<path d="M15.0195 23.3047H14.082V25.2025H15.0195V23.3047Z" fill="black"/>
</g>
<defs>
<clipPath id="clip0_3295_18373">
<rect width="32" height="32" fill="white"/>
</clipPath>
</defs>
</svg>
