<svg width="60" height="60" viewBox="0 0 60 60" fill="none" xmlns="http://www.w3.org/2000/svg">
<path d="M52.9688 25.3125C52.9688 21.4355 49.8145 18.2812 45.9375 18.2812C42.0605 18.2812 38.9062 21.4355 38.9062 25.3125C38.9062 29.1895 42.0605 32.3438 45.9375 32.3438C49.8145 32.3438 52.9688 29.1895 52.9688 25.3125ZM39.8677 25.7812H41.25C41.5087 25.7812 41.7188 25.5712 41.7188 25.3125C41.7188 25.0538 41.5087 24.8438 41.25 24.8438H39.8677C40.0964 21.8578 42.4828 19.4714 45.4688 19.2427V20.625C45.4688 20.8837 45.6788 21.0938 45.9375 21.0938C46.1962 21.0938 46.4062 20.8837 46.4062 20.625V19.2427C49.3922 19.4714 51.7786 21.8578 52.0073 24.8438H50.625C50.3663 24.8438 50.1562 25.0538 50.1562 25.3125C50.1562 25.5712 50.3663 25.7812 50.625 25.7812H52.0073C51.7786 28.7672 49.3922 31.1536 46.4062 31.3823V30C46.4062 29.7413 46.1962 29.5312 45.9375 29.5312C45.6788 29.5312 45.4688 29.7413 45.4688 30V31.3823C42.4828 31.1536 40.0964 28.7672 39.8677 25.7812Z" fill="black"/>
<path d="M59.0625 50.1562H48.75V46.3397C49.4058 46.1691 49.9191 45.6558 50.0897 45H52.0312C52.6416 45 53.1572 44.6067 53.3512 44.0625H55.6744L55.3153 47.2922C55.3134 47.3095 55.3125 47.3264 55.3125 47.3438C55.3125 48.3778 56.1534 49.2188 57.1875 49.2188C58.2216 49.2188 59.0625 48.3778 59.0625 47.3438C59.0625 47.3264 59.0616 47.3091 59.0597 47.2922L58.6908 43.9706C59.2003 43.5403 59.5312 42.9052 59.5312 42.1875C59.5312 41.4698 59.2003 40.8347 58.6903 40.4044L59.0592 37.0833C59.0616 37.0659 59.0625 37.0486 59.0625 37.0312C59.0625 35.9972 58.2216 35.1562 57.1875 35.1562C56.1534 35.1562 55.3125 35.9972 55.3125 37.0312C55.3125 37.0486 55.3134 37.0659 55.3153 37.0828L55.6744 40.3125H53.3512C53.1572 39.7683 52.6416 39.375 52.0312 39.375H50.1562C50.1562 38.5041 49.5563 37.7761 48.75 37.5666V33.7566C52.2853 32.5758 54.8438 29.2402 54.8438 25.3125C54.8438 20.4014 50.8486 16.4062 45.9375 16.4062C41.0264 16.4062 37.0312 20.4014 37.0312 25.3125C37.0312 29.2402 39.5897 32.5753 43.125 33.7566V37.5666C42.3187 37.7761 41.7188 38.5041 41.7188 39.375V44.5312C41.7188 45.4022 42.3187 46.1302 43.125 46.3397V50.1562H40.237C40.0561 49.6134 39.5489 49.2188 38.9461 49.2188H37.9289C37.3261 49.2188 36.8194 49.6134 36.638 50.1562H31.875V44.4558C32.4178 44.2748 32.8125 43.7677 32.8125 43.1648V42.1477C32.8125 41.5448 32.4178 41.0381 31.875 40.8567V16.3308C32.4178 16.1498 32.8125 15.6427 32.8125 15.0398V14.0227C32.8125 13.4198 32.4178 12.9131 31.875 12.7317V0.9375C31.875 0.67875 31.665 0.46875 31.4062 0.46875H24.8438C24.585 0.46875 24.375 0.67875 24.375 0.9375V12.7317C23.8322 12.9127 23.4375 13.4198 23.4375 14.0227V15.0398C23.4375 15.6427 23.8322 16.1494 24.375 16.3308V23.9062H12.6562C12.398 23.9062 12.1875 23.6958 12.1875 23.4375V17.7483C12.7284 17.5814 13.125 17.0831 13.125 16.4883V15.3872C13.125 14.7923 12.7284 14.2941 12.1875 14.1272V7.96875C12.1875 3.83344 8.82281 0.46875 4.6875 0.46875H0.9375C0.67875 0.46875 0.46875 0.67875 0.46875 0.9375V7.5C0.46875 7.75875 0.67875 7.96875 0.9375 7.96875H4.21875C4.47703 7.96875 4.6875 8.17922 4.6875 8.4375V14.1267C4.14656 14.2936 3.75 14.7919 3.75 15.3867V16.4878C3.75 17.0827 4.14656 17.5809 4.6875 17.7478V23.9062C4.6875 28.0416 8.05219 31.4062 12.1875 31.4062H24.375V40.8567C23.8322 41.0377 23.4375 41.5448 23.4375 42.1477V43.1648C23.4375 43.7677 23.8322 44.2744 24.375 44.4558V50.1562H19.1433C18.9623 49.6134 18.4552 49.2188 17.8523 49.2188H16.8352C16.2323 49.2188 15.7256 49.6134 15.5442 50.1562H10.3125V48.2812C10.3125 47.6709 9.91922 47.1553 9.375 46.9613V44.6381L12.6047 44.9972C12.6216 44.9991 12.6389 45 12.6562 45C13.6903 45 14.5312 44.1591 14.5312 43.125C14.5312 42.0909 13.6903 41.25 12.6562 41.25C12.6389 41.25 12.6216 41.2509 12.6047 41.2528L9.28359 41.6217C8.85281 41.1122 8.21766 40.7812 7.5 40.7812C6.78234 40.7812 6.14719 41.1122 5.71688 41.6222L2.39531 41.2528C2.37844 41.2509 2.36109 41.25 2.34375 41.25C1.30969 41.25 0.46875 42.0909 0.46875 43.125C0.46875 44.1591 1.30969 45 2.34375 45C2.36109 45 2.37844 44.9991 2.39531 44.9972L5.625 44.6381V46.9613C5.08078 47.1553 4.6875 47.6709 4.6875 48.2812V50.1562H0.9375C0.67875 50.1562 0.46875 50.3662 0.46875 50.625V57.1875C0.46875 57.4463 0.67875 57.6562 0.9375 57.6562H15.5442C15.7252 58.1991 16.2323 58.5938 16.8352 58.5938H17.8523C18.4552 58.5938 18.9619 58.1991 19.1433 57.6562H36.6384C36.8194 58.1991 37.3266 58.5938 37.9294 58.5938H38.9466C39.5494 58.5938 40.0561 58.1991 40.2375 57.6562H59.0625C59.3213 57.6562 59.5312 57.4463 59.5312 57.1875V50.625C59.5312 50.3662 59.3213 50.1562 59.0625 50.1562ZM58.5938 42.1875C58.5938 42.9628 57.9628 43.5938 57.1875 43.5938C56.4122 43.5938 55.7812 42.9628 55.7812 42.1875C55.7812 41.4122 56.4122 40.7812 57.1875 40.7812C57.9628 40.7812 58.5938 41.4122 58.5938 42.1875ZM55.0425 43.125H53.4375V41.25H55.0425C54.9164 41.5378 54.8438 41.8537 54.8438 42.1875C54.8438 42.5213 54.9159 42.8372 55.0425 43.125ZM58.125 47.3672C58.1123 47.8734 57.6966 48.2812 57.1875 48.2812C56.6784 48.2812 56.2627 47.8734 56.25 47.3672L56.5753 44.4398C56.7717 44.4933 56.9742 44.5312 57.1875 44.5312C57.4008 44.5312 57.6033 44.4933 57.7997 44.4398L58.125 47.3672ZM57.1875 36.0938C57.6966 36.0938 58.1123 36.5016 58.125 37.0078L57.7997 39.9352C57.6033 39.8817 57.4008 39.8438 57.1875 39.8438C56.9742 39.8438 56.7717 39.8817 56.5753 39.9352L56.25 37.0078C56.2627 36.5016 56.6784 36.0938 57.1875 36.0938ZM52.0312 40.3125C52.2895 40.3125 52.5 40.523 52.5 40.7812V43.5938C52.5 43.852 52.2895 44.0625 52.0312 44.0625H50.1562V40.3125H52.0312ZM37.9688 25.3125C37.9688 20.9184 41.5434 17.3438 45.9375 17.3438C50.3316 17.3438 53.9062 20.9184 53.9062 25.3125C53.9062 29.7066 50.3316 33.2812 45.9375 33.2812C41.5434 33.2812 37.9688 29.7066 37.9688 25.3125ZM45.9375 34.2188C46.5811 34.2188 47.2073 34.1466 47.8125 34.0163V37.5H44.0625V34.0163C44.6677 34.1466 45.2939 34.2188 45.9375 34.2188ZM42.6562 44.5312V39.375C42.6562 38.858 43.0767 38.4375 43.5938 38.4375H48.2812C48.7983 38.4375 49.2188 38.858 49.2188 39.375V44.5312C49.2188 45.0483 48.7983 45.4688 48.2812 45.4688H43.5938C43.0767 45.4688 42.6562 45.0483 42.6562 44.5312ZM44.0625 46.4062H47.8125V50.1562H44.0625V46.4062ZM36.5625 51.0938V56.7188H19.2188V51.0938H36.5625ZM30.9375 16.4062V40.7812H25.3125V16.4062H30.9375ZM30.9375 1.40625V12.6562H25.3125V1.40625H30.9375ZM24.375 14.0227C24.375 13.7864 24.5677 13.5938 24.8039 13.5938H31.4461C31.6823 13.5938 31.875 13.7864 31.875 14.0227V15.0398C31.875 15.2761 31.6823 15.4688 31.4461 15.4688H24.8039C24.5677 15.4688 24.375 15.2761 24.375 15.0398V14.0227ZM4.21875 7.03125H1.40625V1.40625H4.6875C8.30625 1.40625 11.25 4.35 11.25 7.96875V14.0625H5.625V8.4375C5.625 7.66219 4.99406 7.03125 4.21875 7.03125ZM4.6875 15.3872C4.6875 15.1739 4.86141 15 5.07469 15H11.8008C12.0136 15 12.1875 15.1739 12.1875 15.3872V16.4883C12.1875 16.7011 12.0136 16.875 11.8003 16.875H5.07469C4.86141 16.875 4.6875 16.7011 4.6875 16.4878V15.3872ZM12.1875 30.4688C8.56875 30.4688 5.625 27.525 5.625 23.9062V17.8125H11.25V23.4375C11.25 24.2128 11.8809 24.8438 12.6562 24.8438H24.375V30.4688H12.1875ZM24.375 42.1477C24.375 41.9114 24.5677 41.7188 24.8039 41.7188H31.4461C31.6823 41.7188 31.875 41.9114 31.875 42.1477V43.1648C31.875 43.4011 31.6823 43.5938 31.4461 43.5938H24.8039C24.5677 43.5938 24.375 43.4011 24.375 43.1648V42.1477ZM25.3125 44.5312H30.9375V50.1562H25.3125V44.5312ZM7.5 45.4688C7.83375 45.4688 8.14969 45.3966 8.4375 45.27V46.875H6.5625V45.27C6.85031 45.3966 7.16625 45.4688 7.5 45.4688ZM12.6797 42.1875C13.1859 42.2002 13.5938 42.6159 13.5938 43.125C13.5938 43.6341 13.1859 44.0498 12.6797 44.0625L9.75234 43.7372C9.80578 43.5408 9.84375 43.3383 9.84375 43.125C9.84375 42.9117 9.80578 42.7092 9.75234 42.5128L12.6797 42.1875ZM7.5 41.7188C8.27531 41.7188 8.90625 42.3497 8.90625 43.125C8.90625 43.9003 8.27531 44.5312 7.5 44.5312C6.72469 44.5312 6.09375 43.9003 6.09375 43.125C6.09375 42.3497 6.72469 41.7188 7.5 41.7188ZM2.32031 44.0625C1.81406 44.0498 1.40625 43.6341 1.40625 43.125C1.40625 42.6159 1.81406 42.2002 2.32031 42.1875L5.24766 42.5128C5.19422 42.7092 5.15625 42.9117 5.15625 43.125C5.15625 43.3383 5.19422 43.5408 5.24766 43.7372L2.32031 44.0625ZM5.625 48.2812C5.625 48.023 5.83547 47.8125 6.09375 47.8125H8.90625C9.16453 47.8125 9.375 48.023 9.375 48.2812V50.1562H5.625V48.2812ZM1.40625 51.0938H15.4688V56.7188H1.40625V51.0938ZM18.2812 57.2273C18.2812 57.4636 18.0886 57.6562 17.8523 57.6562H16.8352C16.5989 57.6562 16.4062 57.4636 16.4062 57.2273V50.5852C16.4062 50.3489 16.5989 50.1562 16.8352 50.1562H17.8523C18.0886 50.1562 18.2812 50.3489 18.2812 50.5852V57.2273ZM39.375 57.2273C39.375 57.4636 39.1823 57.6562 38.9461 57.6562H37.9289C37.6927 57.6562 37.5 57.4636 37.5 57.2273V50.5852C37.5 50.3489 37.6927 50.1562 37.9289 50.1562H38.9461C39.1823 50.1562 39.375 50.3489 39.375 50.5852V57.2273ZM58.5938 56.7188H40.3125V51.0938H58.5938V56.7188Z" fill="black"/>
<path d="M45.9376 26.7189C46.1542 26.7189 46.3567 26.6659 46.54 26.5778L47.95 27.9878C48.0414 28.0792 48.1614 28.1251 48.2814 28.1251C48.4014 28.1251 48.5214 28.0792 48.6128 27.9878C48.7961 27.8045 48.7961 27.5082 48.6128 27.325L47.2028 25.915C47.2909 25.7317 47.3439 25.5292 47.3439 25.3126C47.3439 24.5373 46.7129 23.9064 45.9376 23.9064C45.7211 23.9064 45.5186 23.9593 45.3353 24.0475L43.9253 22.6375C43.742 22.4542 43.4457 22.4542 43.2625 22.6375C43.0792 22.8207 43.0792 23.117 43.2625 23.3003L44.6725 24.7103C44.5843 24.8936 44.5314 25.0961 44.5314 25.3126C44.5314 26.0879 45.1623 26.7189 45.9376 26.7189ZM46.4064 25.3126C46.4064 25.5709 46.1959 25.7814 45.9376 25.7814C45.6793 25.7814 45.4689 25.5709 45.4689 25.3126C45.4689 25.0543 45.6793 24.8439 45.9376 24.8439C46.1959 24.8439 46.4064 25.0543 46.4064 25.3126Z" fill="black"/>
</svg>
