<svg width="60" height="60" viewBox="0 0 60 60" fill="none" xmlns="http://www.w3.org/2000/svg">
<g clip-path="url(#clip0_3618_11850)">
<path d="M56.1722 29.4725V10.6139C56.1722 6.02676 52.4402 2.29492 47.8532 2.29492H11.9077C7.32047 2.29492 3.58863 6.02687 3.58863 10.6139V29.7157C1.36676 32.0386 0 35.1859 0 38.6465V52.9461C0 55.5709 2.13551 57.7066 4.76051 57.7066C7.38539 57.7066 9.5209 55.5709 9.5209 52.9461V51.4693H50.4792V52.9461C50.4792 55.5709 52.6147 57.7066 55.2396 57.7066C57.8645 57.7066 60 55.5711 60 52.9461V38.6465C60 35.0635 58.5347 31.8164 56.1722 29.4725ZM11.9077 4.63867H47.8532C51.148 4.63867 53.8284 7.31922 53.8284 10.6139V27.628C53.1107 27.1861 52.3468 26.8123 51.5457 26.5158V22.6189C51.5457 19.1642 48.7351 16.3536 45.2804 16.3536H35.0936C32.9964 16.3536 31.1379 17.3903 30.0001 18.9771C28.8623 17.3903 27.0039 16.3536 24.9067 16.3536H14.7198C11.2651 16.3536 8.45449 19.1641 8.45449 22.6189V26.5158C7.56375 26.8455 6.71895 27.2706 5.9325 27.7788V10.6139C5.93238 7.31922 8.61281 4.63867 11.9077 4.63867ZM12.9296 25.7168C12.2037 25.7168 11.4916 25.778 10.798 25.8936V22.6189C10.798 20.4565 12.5572 18.6973 14.7196 18.6973H24.9064C27.0688 18.6973 28.828 20.4565 28.828 22.6189V25.717H12.9296V25.7168ZM31.1719 22.6188C31.1719 20.4564 32.9311 18.6972 35.0934 18.6972H45.2803C47.4427 18.6972 49.2019 20.4564 49.2019 22.6188V25.8934C48.5081 25.7779 47.7962 25.7167 47.0702 25.7167H31.1719V22.6188ZM12.9296 28.0606H47.0702C52.9073 28.0606 57.6561 32.8094 57.6561 38.6465V42.1231H45.9027C45.2555 42.1231 44.7308 42.6479 44.7308 43.295C44.7308 43.9421 45.2555 44.4668 45.9027 44.4668H57.6562V49.1256H2.34375V44.4668H34.1839C34.8312 44.4668 35.3558 43.9421 35.3558 43.295C35.3558 42.6479 34.8312 42.1231 34.1839 42.1231H2.34375V38.6465C2.34375 32.8094 7.09254 28.0606 12.9296 28.0606ZM7.17715 52.9461C7.17715 54.2786 6.09305 55.3628 4.76051 55.3628C3.42797 55.3628 2.34375 54.2786 2.34375 52.9461V51.4693H7.17715V52.9461ZM55.2395 55.3628C53.907 55.3628 52.8229 54.2786 52.8229 52.9461V51.4693H57.6562V52.9461C57.6562 54.2786 56.5722 55.3628 55.2395 55.3628Z" fill="#484848"/>
<path d="M40.0426 44.468C40.6901 44.468 41.215 43.943 41.215 43.2955C41.215 42.648 40.6901 42.123 40.0426 42.123C39.395 42.123 38.8701 42.648 38.8701 43.2955C38.8701 43.943 39.395 44.468 40.0426 44.468Z" fill="#484848"/>
</g>
<defs>
<clipPath id="clip0_3618_11850">
<rect width="60" height="60" fill="white"/>
</clipPath>
</defs>
</svg>
