<svg width="32" height="32" viewBox="0 0 32 32" fill="none" xmlns="http://www.w3.org/2000/svg">
<g clip-path="url(#clip0_3289_15987)">
<path d="M31.4667 6.40039H21.8667C21.5721 6.40039 21.3333 6.63919 21.3333 6.93372V19.2004H9.6V17.6004C9.6 17.3059 9.3612 17.0671 9.06667 17.0671H7.46667V18.1337H8.53333V19.2004H6.4V17.0671H5.33333V19.2004H3.2V18.1337H4.26667V17.0671H2.66667C2.37214 17.0671 2.13333 17.3059 2.13333 17.6004V19.2004H0.533333C0.238802 19.2004 0 19.4392 0 19.7337V31.4671C0 31.7616 0.238802 32.0004 0.533333 32.0004H31.4667C31.7612 32.0004 32 31.7616 32 31.4671V6.93372C32 6.63919 31.7612 6.40039 31.4667 6.40039ZM22.4 7.46706H30.9333V13.8671H22.4V7.46706ZM21.3333 22.4004H11.7333V20.2671H21.3333V22.4004ZM1.06667 20.2671H10.6667V22.4004H1.06667V20.2671ZM1.06667 23.4671H10.6667V30.9337H1.06667V23.4671ZM11.7333 23.4671H16V30.9337H11.7333V23.4671ZM17.0667 23.4671H21.3333V30.9337H17.0667V23.4671ZM22.4 30.9337V14.9337H30.9333V30.9337H22.4Z" fill="black"/>
<path d="M23.4648 9.59961H24.5315V11.7329H23.4648V9.59961Z" fill="black"/>
<path d="M23.4648 17.0664H24.5315V19.1997H23.4648V17.0664Z" fill="black"/>
<path d="M3.19948 21.3331C3.19948 21.6277 2.96068 21.8665 2.66615 21.8665C2.37161 21.8665 2.13281 21.6277 2.13281 21.3331C2.13281 21.0386 2.37161 20.7998 2.66615 20.7998C2.96068 20.7998 3.19948 21.0386 3.19948 21.3331Z" fill="black"/>
<path d="M5.33229 21.3331C5.33229 21.6277 5.09349 21.8665 4.79896 21.8665C4.50443 21.8665 4.26562 21.6277 4.26562 21.3331C4.26562 21.0386 4.50443 20.7998 4.79896 20.7998C5.09349 20.7998 5.33229 21.0386 5.33229 21.3331Z" fill="black"/>
<path d="M7.4651 21.3331C7.4651 21.6277 7.2263 21.8665 6.93177 21.8665C6.63724 21.8665 6.39844 21.6277 6.39844 21.3331C6.39844 21.0386 6.63724 20.7998 6.93177 20.7998C7.2263 20.7998 7.4651 21.0386 7.4651 21.3331Z" fill="black"/>
<path d="M9.60182 21.3331C9.60182 21.6277 9.36302 21.8665 9.06849 21.8665C8.77396 21.8665 8.53516 21.6277 8.53516 21.3331C8.53516 21.0386 8.77396 20.7998 9.06849 20.7998C9.36302 20.7998 9.60182 21.0386 9.60182 21.3331Z" fill="black"/>
<path d="M0.533333 10.1333H11.2C11.4945 10.1333 11.7333 9.89453 11.7333 9.6V8C11.7333 7.85859 11.6771 7.72292 11.5771 7.62292L9.44375 5.48958C9.34375 5.38958 9.20807 5.33333 9.06667 5.33333H8.53333V0.533333C8.53333 0.238802 8.29453 0 8 0H3.73333C3.4388 0 3.2 0.238802 3.2 0.533333V5.33333H2.66667C2.52526 5.33333 2.38958 5.38958 2.28958 5.48958L0.15625 7.62292C0.05625 7.72292 0 7.85859 0 8V9.6C0 9.89453 0.238802 10.1333 0.533333 10.1333ZM4.26667 1.06667H7.46667V5.33333H4.26667V1.06667ZM1.06667 8.22083L2.8875 6.4H8.84583L10.6667 8.22083V9.06667H1.06667V8.22083Z" fill="black"/>
<path d="M9.06615 24.5332H2.66615C2.37161 24.5332 2.13281 24.772 2.13281 25.0665V29.3332C2.13281 29.6277 2.37161 29.8665 2.66615 29.8665H9.06615C9.36068 29.8665 9.59948 29.6277 9.59948 29.3332V25.0665C9.59948 24.772 9.36068 24.5332 9.06615 24.5332ZM8.53281 28.7999H3.19948V25.5999H8.53281V28.7999Z" fill="black"/>
<path d="M15.4648 20.7998H17.5982V21.8665H15.4648V20.7998Z" fill="black"/>
<path d="M13.8672 26.1338H14.9339V28.2671H13.8672V26.1338Z" fill="black"/>
<path d="M18.1328 26.1338H19.1995V28.2671H18.1328V26.1338Z" fill="black"/>
<path d="M12.799 13.3333H15.999C16.2935 13.3333 16.5323 13.0945 16.5323 12.8V12.2667C16.5286 11.2969 15.8714 10.4516 14.9323 10.2091V0H13.8656V10.2091C12.9266 10.4516 12.2693 11.2969 12.2656 12.2667V12.8C12.2656 13.0945 12.5044 13.3333 12.799 13.3333ZM14.399 11.2C14.988 11.2 15.4656 11.6776 15.4656 12.2667H13.3323C13.3323 11.6776 13.8099 11.2 14.399 11.2Z" fill="black"/>
<path d="M16.5333 9.06667H19.7333C20.0279 9.06667 20.2667 8.82786 20.2667 8.53333V8C20.263 7.03021 19.6057 6.1849 18.6667 5.94245V0H17.6V5.94245C16.6609 6.1849 16.0036 7.03021 16 8V8.53333C16 8.82786 16.2388 9.06667 16.5333 9.06667ZM18.1333 6.93333C18.7224 6.93333 19.2 7.41094 19.2 8H17.0667C17.0667 7.41094 17.5443 6.93333 18.1333 6.93333Z" fill="black"/>
</g>
<defs>
<clipPath id="clip0_3289_15987">
<rect width="32" height="32" fill="white"/>
</clipPath>
</defs>
</svg>
