<svg width="18" height="18" viewBox="0 0 18 18" fill="none" xmlns="http://www.w3.org/2000/svg">
<path d="M17.469 5.96524L15.6682 4.58636C15.6749 4.55859 15.6795 4.52999 15.6795 4.49999V1.38459C15.6795 1.19344 15.5357 1.03843 15.3583 1.03843H13.4308C13.2534 1.03843 13.1095 1.1934 13.1095 1.38459V2.62721L9.76194 0.063983C9.70759 0.0223884 9.64258 0 9.57586 0H8.25507C8.18722 0 8.12113 0.023146 8.06625 0.0661044L0.528409 5.96736C-0.0442155 6.41569 -0.17134 7.28293 0.24512 7.90068C0.446565 8.19942 0.744057 8.39599 1.08282 8.45414C1.15141 8.46588 1.21997 8.47171 1.28803 8.47171C1.37486 8.47171 1.46068 8.46126 1.54477 8.44262V16.6166C1.54477 17.3794 2.12221 18 2.83198 18H6.68468H11.1821H15.0348C15.7446 18 16.322 17.3793 16.322 16.6166V8.40451C16.5117 8.47046 16.7144 8.48884 16.9174 8.4541C17.2561 8.39595 17.5536 8.19938 17.7551 7.90056C18.1715 7.28289 18.0444 6.41566 17.469 5.96524ZM13.7521 3.11536V1.73076H15.037V4.10306L13.7517 3.11888C13.7517 3.11771 13.7521 3.11657 13.7521 3.11536ZM10.8608 17.3077H7.00594V12.1154H10.8608V17.3077ZM15.6795 16.6165C15.6795 16.9976 15.3903 17.3077 15.0348 17.3077H11.5033V11.7692C11.5033 11.5781 11.3595 11.423 11.1821 11.423H6.68468C6.50728 11.423 6.36342 11.578 6.36342 11.7692V17.3077H2.83198C2.47645 17.3077 2.18725 16.9976 2.18725 16.6165V8.09244L8.9351 2.84848L15.6795 7.99284V16.6165ZM17.2352 7.49375C17.1346 7.64308 16.9858 7.74134 16.8162 7.77044C16.6468 7.79983 16.4773 7.75601 16.3356 7.64512L9.11897 2.14057C9.00682 2.05503 8.85673 2.05564 8.74547 2.14235L1.66132 7.64759C1.52294 7.75593 1.35356 7.79972 1.18397 7.77048C1.01444 7.74142 0.865627 7.64312 0.764904 7.49378C0.556674 7.18489 0.61999 6.75144 0.906021 6.52748L8.35949 0.692297H9.47337L17.0941 6.52748C17.3801 6.75141 17.4435 7.18489 17.2352 7.49375Z" fill="#484848"/>
</svg>
