<svg width="24" height="24" viewBox="0 0 24 24" fill="none" xmlns="http://www.w3.org/2000/svg">
<g clip-path="url(#clip0_3296_18595)">
<path d="M23.4782 0H0.521755C0.233755 0 0 0.233755 0 0.521755V23.4782C0 23.7662 0.233755 24 0.521755 24H4.69565C4.98365 24 5.2174 23.7662 5.2174 23.4782V22.9565H18.7826V23.4782C18.7826 23.7662 19.0163 24 19.3043 24H23.4782C23.7662 24 24 23.7662 24 23.4782V0.521755C24 0.233755 23.7662 0 23.4782 0ZM22.9565 22.9565H19.8261V22.4347C19.8261 22.1467 19.5923 21.913 19.3043 21.913H4.69565C4.40765 21.913 4.17389 22.1467 4.17389 22.4347V22.9565H1.04346V1.04346H22.9565V22.9565Z" fill="#484848"/>
<path d="M19.3043 5.2168H4.69558C4.40758 5.2168 4.17383 5.45055 4.17383 5.73855V22.4342C4.17383 22.7222 4.40758 22.9559 4.69558 22.9559H19.3043C19.5923 22.9559 19.826 22.7222 19.826 22.4342V5.7385C19.826 5.4505 19.5923 5.2168 19.3043 5.2168ZM18.7825 21.9124H5.21734V6.26026H18.7825V21.9124Z" fill="#484848"/>
<path d="M12.0003 5.2168C11.7123 5.2168 11.4785 5.45055 11.4785 5.73855V22.4342C11.4785 22.7222 11.7123 22.9559 12.0003 22.9559C12.2883 22.9559 12.522 22.7222 12.522 22.4342V5.7385C12.522 5.4505 12.2883 5.2168 12.0003 5.2168Z" fill="#484848"/>
<path d="M21.3909 11.4791C21.6791 11.4791 21.9127 11.2455 21.9127 10.9573C21.9127 10.6691 21.6791 10.4355 21.3909 10.4355C21.1027 10.4355 20.8691 10.6691 20.8691 10.9573C20.8691 11.2455 21.1027 11.4791 21.3909 11.4791Z" fill="#484848"/>
<path d="M21.3909 13.565C21.6791 13.565 21.9127 13.3314 21.9127 13.0432C21.9127 12.7551 21.6791 12.5215 21.3909 12.5215C21.1027 12.5215 20.8691 12.7551 20.8691 13.0432C20.8691 13.3314 21.1027 13.565 21.3909 13.565Z" fill="#484848"/>
<path d="M10.282 3.28396L9.23851 2.2405C9.03503 2.03702 8.70424 2.03702 8.50076 2.2405L7.4573 3.28396C7.25382 3.48744 7.25382 3.81824 7.4573 4.02172C7.66077 4.22519 7.99157 4.22519 8.19505 4.02172L8.86912 3.34657L9.54319 4.02172C9.64547 4.12292 9.779 4.17408 9.91258 4.17408C10.0462 4.17408 10.1797 4.12297 10.282 4.02172C10.4855 3.81824 10.4855 3.48744 10.282 3.28396Z" fill="#484848"/>
<path d="M16.5418 2.2405C16.3383 2.03702 16.0075 2.03702 15.804 2.2405L15.13 2.91457L14.4548 2.2405C14.2513 2.03702 13.9205 2.03702 13.7171 2.2405C13.5136 2.44398 13.5136 2.77478 13.7171 2.97825L14.7605 4.02172C14.8628 4.12292 14.9963 4.17408 15.1299 4.17408C15.2635 4.17408 15.397 4.12297 15.4983 4.02172L16.5417 2.97825C16.7453 2.77473 16.7453 2.44398 16.5418 2.2405Z" fill="#484848"/>
</g>
<defs>
<clipPath id="clip0_3296_18595">
<rect width="24" height="24" fill="white"/>
</clipPath>
</defs>
</svg>
