<svg width="32" height="32" viewBox="0 0 32 32" fill="none" xmlns="http://www.w3.org/2000/svg">
<path fill-rule="evenodd" clip-rule="evenodd" d="M15.9981 31.998C15.9617 31.998 15.9278 31.9929 15.8939 31.985L15.3784 31.8574C9.82199 30.4827 3.84375 25.7986 3.84375 18.7554V6.53856C3.84375 6.34331 3.97397 6.17146 4.16147 6.11676L5.7237 5.67156C8.89246 4.7655 12.2669 3.04965 14.316 1.29984L15.7142 0.107367C15.8783 -0.0331848 16.1179 -0.0331848 16.2819 0.107367L17.6801 1.29984C19.7293 3.04958 23.1038 4.7655 26.2777 5.67156L27.8399 6.11676C28.0274 6.17146 28.1576 6.34331 28.1576 6.53856V18.7553C28.1576 25.7985 22.1794 30.4852 16.6229 31.8573L16.1075 31.985C16.0683 31.9929 16.0345 31.998 15.9981 31.998ZM4.71607 6.86669V18.7527C4.71607 25.3246 10.3505 29.7119 15.5867 31.006L15.9981 31.1075L16.4095 31.006C21.6456 29.7119 27.2801 25.3246 27.2801 18.7527V6.86669L26.0356 6.51258C22.7522 5.57515 19.2476 3.7891 17.1099 1.96643L15.9955 1.01601L14.8811 1.96643C12.7435 3.79168 9.2414 5.57515 5.95808 6.51258L4.71607 6.86669Z" fill="black"/>
<path fill-rule="evenodd" clip-rule="evenodd" d="M15.9997 29.7801C15.9633 29.7801 15.9294 29.7749 15.8955 29.7671C10.0684 28.3246 5.99609 23.7967 5.99609 18.7533V8.16122C5.99609 7.96597 6.12631 7.79412 6.31381 7.73942C9.76116 6.75526 13.4506 4.87014 15.7159 2.93549C15.8799 2.79494 16.1195 2.79494 16.2835 2.93549C18.5488 4.87014 22.2409 6.75526 25.6856 7.73942C25.8731 7.79412 26.0033 7.96597 26.0033 8.16122V18.7533C26.0033 23.7967 21.9336 28.3246 16.1039 29.7671C16.07 29.7775 16.0362 29.7801 15.9997 29.7801ZM6.871 8.48935V18.7533C6.871 23.3646 10.6203 27.5201 15.9997 28.8897C21.3816 27.5201 25.1284 23.3645 25.1284 18.7559V8.48935C21.8034 7.49213 18.2935 5.70334 15.9996 3.83904C13.7032 5.70592 10.1959 7.49213 6.871 8.48935Z" fill="black"/>
<path fill-rule="evenodd" clip-rule="evenodd" d="M21.0697 23.9424H10.9256C10.2018 23.9424 9.61328 23.354 9.61328 22.6302V15.5271C9.61328 14.8033 10.2018 14.2148 10.9256 14.2148L21.0724 14.2149C21.7962 14.2149 22.3847 14.8033 22.3847 15.5272V22.6303C22.3821 23.354 21.7936 23.9424 21.0697 23.9424ZM10.9256 15.0897C10.6834 15.0897 10.4882 15.285 10.4882 15.5271V22.6302C10.4882 22.8724 10.6834 23.0676 10.9256 23.0676H21.0724C21.3146 23.0676 21.5098 22.8724 21.5098 22.6302V15.5271C21.5098 15.285 21.3146 15.0897 21.0724 15.0897H10.9256Z" fill="black"/>
<path fill-rule="evenodd" clip-rule="evenodd" d="M19.9623 15.0893C19.7201 15.0893 19.5248 14.8941 19.5248 14.6519V12.4595C19.5248 10.5145 17.9418 8.93147 15.9967 8.93147C14.0517 8.93147 12.4687 10.5145 12.4687 12.4595V14.6519C12.4687 14.8941 12.2733 15.0893 12.0312 15.0893C11.789 15.0893 11.5938 14.8941 11.5938 14.6519V12.4595C11.5938 10.0329 13.57 8.05664 15.9966 8.05664C18.4233 8.05664 20.3996 10.0329 20.3996 12.4595V14.6519C20.3997 14.8941 20.2045 15.0893 19.9623 15.0893ZM17.9366 15.0893C17.6944 15.0893 17.4991 14.8941 17.4991 14.6519V12.4595C17.4991 11.6316 16.8248 10.9572 15.9968 10.9572C15.1688 10.9572 14.4945 11.6316 14.4945 12.4595V14.6519C14.4945 14.8941 14.2992 15.0893 14.057 15.0893C13.8148 15.0893 13.6196 14.8941 13.6196 14.6519V12.4595C13.6196 11.1472 14.6871 10.0823 15.9968 10.0823C17.3091 10.0823 18.374 11.1499 18.374 12.4595V14.6519C18.374 14.8941 18.1787 15.0893 17.9366 15.0893Z" fill="black"/>
<path fill-rule="evenodd" clip-rule="evenodd" d="M15.9983 20.2447C14.9335 20.2447 14.0664 19.3777 14.0664 18.3128C14.0664 17.2479 14.9335 16.3809 15.9983 16.3809C17.0632 16.3809 17.9303 17.2479 17.9303 18.3128C17.9303 19.3777 17.0632 20.2447 15.9983 20.2447ZM15.9983 17.2556C15.4152 17.2556 14.9412 17.7295 14.9412 18.3128C14.9412 18.896 15.4151 19.3699 15.9983 19.3699C16.5816 19.3699 17.0555 18.896 17.0555 18.3128C17.0555 17.7295 16.5816 17.2556 15.9983 17.2556Z" fill="black"/>
<path fill-rule="evenodd" clip-rule="evenodd" d="M15.9999 21.7785C15.7578 21.7785 15.5625 21.5833 15.5625 21.3411V19.8075C15.5625 19.5654 15.7578 19.3701 15.9999 19.3701C16.2421 19.3701 16.4373 19.5654 16.4373 19.8075V21.3411C16.4373 21.5807 16.242 21.7785 15.9999 21.7785Z" fill="black"/>
</svg>
