<svg width="32" height="32" viewBox="0 0 32 32" fill="none" xmlns="http://www.w3.org/2000/svg">
<g clip-path="url(#clip0_2363_22626)">
<path d="M0 17.0667V18.1333C0.00217995 18.843 0.47266 19.4661 1.15467 19.6624L3.3824 29.8971C3.64744 31.1225 4.73028 31.9978 5.984 32H26.016C27.2686 31.9978 28.3508 31.1242 28.6171 29.9003L30.8453 19.6603C31.5266 19.4642 31.9969 18.8422 32 18.1333V17.0667C32 16.183 31.2837 15.4667 30.4 15.4667H29.5371C29.0981 13.94 28.4933 12.4659 27.7333 11.0709V9.60001C27.7305 8.92439 27.3037 8.32334 26.6667 8.09814V5.54667L28.1824 3.96267L28.6448 4.42507C29.2765 5.02878 30.2713 5.02878 30.9029 4.42507L31.5323 3.79574C32.154 3.17143 32.154 2.16191 31.5323 1.5376L30.4656 0.470937C30.1664 0.168711 29.7586 -0.00092718 29.3333 3.8119e-06H18.6667C18.0776 3.8119e-06 17.6 0.477567 17.6 1.06667V2.66667C17.6 3.25577 18.0776 3.73334 18.6667 3.73334H19.2V5.6L18.24 6.32054C17.8381 6.62353 17.6013 7.09722 17.6 7.60054C17.6 8.20657 17.9424 8.7606 18.4845 9.03162C19.0265 9.30265 19.6752 9.24416 20.16 8.88054L21.7627 7.68C22.1628 7.37587 22.3985 6.90264 22.4 6.4V4.08907L23.4667 5.51094V8.09814C22.8297 8.32334 22.4028 8.92439 22.4 9.60001V11.1136L21.968 12.4139C21.5788 13.5806 20.902 14.6305 20 15.4667H18.1333V12.2667C18.1351 10.9924 17.6294 9.76996 16.728 8.86934C16.4971 8.64069 16.2441 8.43542 15.9728 8.25654C15.9878 8.21297 15.997 8.16759 16 8.1216V3.55574C15.9995 3.23826 15.83 2.94506 15.5552 2.78614C15.2837 2.62692 14.9473 2.62692 14.6757 2.78614C13.8195 3.15575 12.8487 3.15575 11.9925 2.78614C11.7206 2.6264 11.3834 2.6264 11.1115 2.78614C10.8366 2.94506 10.6672 3.23826 10.6667 3.55574V8.1216C10.6695 8.16962 10.679 8.217 10.6949 8.2624C10.3953 8.46092 10.1188 8.69221 9.8704 8.95201C9.84427 8.92481 9.82187 8.89867 9.79467 8.86934C9.56374 8.64069 9.31078 8.43542 9.03947 8.25654C9.05449 8.21297 9.06364 8.16759 9.06667 8.1216V4.26667C9.06667 2.79391 7.87276 1.6 6.4 1.6C4.92724 1.6 3.73333 2.79391 3.73333 4.26667V8.1216C3.73625 8.16927 3.74576 8.21629 3.7616 8.26134C2.41314 9.14779 1.60084 10.6529 1.6 12.2667V15.4667C1.17565 15.4667 0.768687 15.6352 0.468629 15.9353C0.168571 16.2354 0 16.6423 0 17.0667ZM1.06667 17.0667C1.06667 16.7721 1.30545 16.5333 1.6 16.5333H3.73333V18.6667H1.6C1.30545 18.6667 1.06667 18.4279 1.06667 18.1333V17.0667ZM9.06667 12.8C9.36122 12.8 9.6 13.0388 9.6 13.3333V21.8667C9.6 22.1612 9.36122 22.4 9.06667 22.4H5.33333C5.03878 22.4 4.8 22.1612 4.8 21.8667V13.3333C4.8 13.0388 5.03878 12.8 5.33333 12.8H9.06667ZM8.70347 28.1957C8.7415 28.4822 8.54451 28.7468 8.2592 28.7925C7.96649 28.8298 7.69663 28.6292 7.648 28.3381L6.9792 23.4667H8.05333L8.70347 28.1957ZM27.5733 29.6763C27.4138 30.409 26.7659 30.932 26.016 30.9333H5.984C5.23358 30.9304 4.586 30.4064 4.42667 29.6731L2.26187 19.7333H3.73333V21.8667C3.73333 22.7503 4.44968 23.4667 5.33333 23.4667H5.90347L6.59147 28.4848C6.70431 29.2744 7.37839 29.8623 8.176 29.8667C8.24735 29.8656 8.31857 29.8604 8.38933 29.8512C8.81035 29.795 9.19164 29.5735 9.44887 29.2355C9.7061 28.8975 9.81806 28.4709 9.76 28.0501L9.128 23.4603C9.98514 23.4274 10.6639 22.7244 10.6667 21.8667V19.7333H29.7381L27.5733 29.6763ZM30.9333 18.1333C30.9333 18.4279 30.6946 18.6667 30.4 18.6667H10.6667V16.5333H30.4C30.6946 16.5333 30.9333 16.7721 30.9333 17.0667V18.1333ZM24.5333 5.86667H25.6V8H24.5333V5.86667ZM18.6667 1.06667H20.2667V2.66667H18.6667V1.06667ZM21.12 6.82667L19.52 8.02667C19.3584 8.14788 19.1422 8.16738 18.9615 8.07703C18.7808 7.98669 18.6667 7.80202 18.6667 7.6C18.6672 7.43225 18.7461 7.27439 18.88 7.17334L20.0533 6.29334C20.1876 6.19262 20.2667 6.03454 20.2667 5.86667V3.73334H21.3333V6.4C21.332 6.56756 21.2533 6.72508 21.12 6.82667ZM22.4 2.66667H21.3333V1.06667L29.3333 1.06667C29.475 1.0662 29.611 1.12248 29.7109 1.22294L30.7776 2.2896C30.983 2.49737 30.983 2.8317 30.7776 3.03947L30.1483 3.66827C29.9386 3.86887 29.6081 3.86887 29.3984 3.66827L28.5504 2.82027C28.4501 2.72135 28.3147 2.66613 28.1739 2.66667H28.168C28.0246 2.66838 27.8879 2.72778 27.7888 2.83147L25.9051 4.8H24.2667L22.8267 2.88C22.7259 2.74571 22.5679 2.66667 22.4 2.66667ZM23.4667 9.60001C23.4667 9.30545 23.7055 9.06667 24 9.06667H26.1333C26.4279 9.06667 26.6667 9.30545 26.6667 9.60001V10.6667H23.4667V9.60001ZM22.9808 12.7493L23.3184 11.7333H26.8747C27.5127 12.9241 28.0325 14.1745 28.4267 15.4667H21.4699C22.1387 14.6632 22.6512 13.7415 22.9808 12.7493ZM11.7333 3.84534C12.7642 4.23629 13.9025 4.23629 14.9333 3.84534V7.7456C13.8992 7.37299 12.7675 7.37299 11.7333 7.7456V3.84534ZM13.3333 8.53334C14.324 8.53178 15.2744 8.92461 15.9749 9.62508C16.6754 10.3256 17.0682 11.2761 17.0667 12.2667L17.0667 15.4667H16V12.8C16 12.5055 15.7612 12.2667 15.4667 12.2667C15.1721 12.2667 14.9333 12.5055 14.9333 12.8V15.4667H10.6667V13.3333C10.6654 12.6693 10.2541 12.0751 9.63307 11.84C9.70162 11.2093 9.93139 10.6068 10.3003 10.0907C11.0025 9.11455 12.1309 8.53518 13.3333 8.53334ZM6.4 2.66667C7.28366 2.66667 8 3.38302 8 4.26667V4.8H4.8V4.26667C4.8 3.38302 5.51634 2.66667 6.4 2.66667ZM4.8 5.86667H8V7.74507C6.96581 7.37282 5.83419 7.37282 4.8 7.74507V5.86667ZM2.66667 12.2667C2.66526 10.7557 3.57471 9.39293 4.9705 8.81439C6.36628 8.23585 7.97316 8.55566 9.04107 9.62454C9.1056 9.68907 9.16427 9.75467 9.2208 9.82027C8.87062 10.4042 8.65016 11.0567 8.5744 11.7333H5.33333C4.44968 11.7333 3.73333 12.4497 3.73333 13.3333V15.4667H2.66667L2.66667 12.2667Z" fill="#484848"/>
<path d="M24.8487 20.8148C24.4281 20.7568 24.0018 20.8683 23.6635 21.1248C23.3252 21.3813 23.1027 21.7617 23.0449 22.1823L22.2396 28.0489C22.1562 28.618 22.3846 29.188 22.8378 29.542C23.2911 29.896 23.8994 29.9795 24.4313 29.7608C24.9632 29.542 25.3367 29.0546 25.4097 28.4841L26.2145 22.6175C26.3347 21.7426 25.7234 20.9358 24.8487 20.8148ZM24.3532 28.3391C24.3131 28.631 24.044 28.8351 23.7521 28.7951C23.4602 28.755 23.2561 28.4859 23.2961 28.194L24.1009 22.3273C24.1204 22.1865 24.1952 22.0592 24.3089 21.9737C24.401 21.904 24.5135 21.8665 24.6289 21.8671C24.6539 21.8671 24.6789 21.8687 24.7036 21.8719C24.8439 21.8909 24.9709 21.965 25.0565 22.0778C25.1421 22.1905 25.1794 22.3327 25.1601 22.4729L24.3532 28.3391Z" fill="#484848"/>
<path d="M14.023 21.2114C13.7114 20.9277 13.2998 20.7796 12.879 20.7997C12.4549 20.82 12.0563 21.008 11.7709 21.3222C11.4856 21.6365 11.3368 22.0514 11.3574 22.4754L11.64 28.3421C11.6813 29.1954 12.3857 29.8657 13.24 29.8647H13.3184C13.7424 29.8443 14.1408 29.6562 14.4261 29.342C14.7114 29.0277 14.8601 28.6129 14.8395 28.189L14.5568 22.3223C14.5357 21.8952 14.3432 21.4947 14.023 21.2114ZM13.2667 28.7997L13.2374 29.333V28.7997C12.9525 28.8 12.7177 28.5764 12.704 28.2919L12.4214 22.4253C12.4144 22.2829 12.4648 22.1437 12.5612 22.0386C12.6575 21.9336 12.792 21.8716 12.9344 21.8663H12.9611C13.0901 21.8679 13.2141 21.9168 13.3094 22.0039C13.4162 22.0984 13.4807 22.2317 13.4886 22.3741L13.7712 28.2407C13.7857 28.5342 13.5601 28.7842 13.2667 28.7997Z" fill="#484848"/>
<path d="M19.124 20.8C18.2449 20.7671 17.5007 21.4428 17.4488 22.321L17.1661 28.1877C17.1447 28.6125 17.2933 29.0284 17.5791 29.3435C17.8649 29.6585 18.2644 29.8468 18.6893 29.8666H18.7656C19.6189 29.8662 20.3217 29.1963 20.3629 28.344L20.6456 22.4773C20.6666 22.053 20.518 21.6378 20.2326 21.3231C19.9471 21.0085 19.5483 20.8203 19.124 20.8ZM19.2973 28.2906C19.2836 28.5752 19.0488 28.7987 18.764 28.7984V29.3317L18.7368 28.7984C18.4427 28.784 18.2159 28.5341 18.2301 28.24L18.5128 22.3733C18.5237 22.0876 18.7602 21.8625 19.0461 21.8656H19.0733C19.3674 21.88 19.5942 22.1299 19.58 22.424L19.2973 28.2906Z" fill="#484848"/>
<path d="M13.3341 6.39967C13.6287 6.39967 13.8674 6.16089 13.8674 5.86634C13.8674 5.57179 13.6287 5.33301 13.3341 5.33301C13.0396 5.33301 12.8008 5.57179 12.8008 5.86634C12.8008 6.16089 13.0396 6.39967 13.3341 6.39967Z" fill="#484848"/>
</g>
<defs>
<clipPath id="clip0_2363_22626">
<rect width="32" height="32" fill="white"/>
</clipPath>
</defs>
</svg>
