<svg width="24" height="24" viewBox="0 0 24 24" fill="none" xmlns="http://www.w3.org/2000/svg">
<path d="M23.25 3.75C23.3495 3.75 23.4448 3.71049 23.5152 3.64016C23.5855 3.56984 23.625 3.47446 23.625 3.375V1.875C23.625 1.77554 23.5855 1.68016 23.5152 1.60984C23.4448 1.53951 23.3495 1.5 23.25 1.5H0.75C0.650544 1.5 0.555161 1.53951 0.484835 1.60984C0.414509 1.68016 0.375 1.77554 0.375 1.875V3.375C0.375 3.47446 0.414509 3.56984 0.484835 3.64016C0.555161 3.71049 0.650544 3.75 0.75 3.75H1.125V20.25H0.75C0.650544 20.25 0.555161 20.2895 0.484835 20.3598C0.414509 20.4302 0.375 20.5255 0.375 20.625V22.125C0.375 22.2245 0.414509 22.3198 0.484835 22.3902C0.555161 22.4605 0.650544 22.5 0.75 22.5H23.25C23.3495 22.5 23.4448 22.4605 23.5152 22.3902C23.5855 22.3198 23.625 22.2245 23.625 22.125V20.625C23.625 20.5255 23.5855 20.4302 23.5152 20.3598C23.4448 20.2895 23.3495 20.25 23.25 20.25H22.875V3.75H23.25ZM1.125 2.25H22.875V3H1.125V2.25ZM15.4849 6.64013L15.75 6.90525V8.25H14.25V6.90525L14.5151 6.64013C14.5855 6.56982 14.625 6.47445 14.625 6.375V5.625H15.375V6.375C15.375 6.47445 15.4145 6.56982 15.4849 6.64013ZM22.125 9V9.75H12.375V9H22.125ZM20.25 6.375H20.625C20.7245 6.375 20.8198 6.41451 20.8902 6.48483C20.9605 6.55516 21 6.65054 21 6.75C21 6.84946 20.9605 6.94484 20.8902 7.01517C20.8198 7.08549 20.7245 7.125 20.625 7.125H20.25V6.375ZM19.5 8.25H18V5.625H19.5V8.25ZM22.125 15.75H12.375V15H22.125V15.75ZM15.8599 12.6401L16.125 12.9053V14.25H14.625V12.9053L14.8901 12.6401C14.9605 12.5698 15 12.4744 15 12.375V12H15.75V12.375C15.75 12.4744 15.7895 12.5698 15.8599 12.6401ZM19.6099 12.6401L19.875 12.9053V14.25H18.375V12.9053L18.6401 12.6401C18.7105 12.5698 18.75 12.4744 18.75 12.375V12H19.5V12.375C19.5 12.4744 19.5395 12.5698 19.6099 12.6401ZM22.125 14.25H20.625V12.75C20.625 12.6506 20.5855 12.5552 20.5151 12.4849L20.25 12.2197V11.625C20.25 11.5255 20.2105 11.4302 20.1402 11.3598C20.0698 11.2895 19.9745 11.25 19.875 11.25H18.375C18.2755 11.25 18.1802 11.2895 18.1098 11.3598C18.0395 11.4302 18 11.5255 18 11.625V12.2197L17.7349 12.4849C17.6645 12.5552 17.625 12.6506 17.625 12.75V14.25H16.875V12.75C16.875 12.6506 16.8355 12.5552 16.7651 12.4849L16.5 12.2197V11.625C16.5 11.5255 16.4605 11.4302 16.3902 11.3598C16.3198 11.2895 16.2245 11.25 16.125 11.25H14.625C14.5255 11.25 14.4302 11.2895 14.3598 11.3598C14.2895 11.4302 14.25 11.5255 14.25 11.625V12.2197L13.9849 12.4849C13.9145 12.5552 13.875 12.6506 13.875 12.75V14.25H12.375V10.5H22.125V14.25ZM1.875 3.75H11.625V20.25H1.875V3.75ZM22.875 21.75H1.125V21H22.875V21.75ZM13.9391 18H16.0609C15.9834 18.2195 15.8398 18.4095 15.6498 18.544C15.4598 18.6784 15.2328 18.7506 15 18.7506C14.7672 18.7506 14.5402 18.6784 14.3502 18.544C14.1602 18.4095 14.0166 18.2195 13.9391 18ZM13.9391 19.5H16.0609C15.9834 19.7195 15.8398 19.9095 15.6498 20.044C15.4598 20.1784 15.2328 20.2506 15 20.2506C14.7672 20.2506 14.5402 20.1784 14.3502 20.044C14.1602 19.9095 14.0166 19.7195 13.9391 19.5ZM18.4391 18H20.5609C20.4834 18.2195 20.3398 18.4095 20.1498 18.544C19.9598 18.6784 19.7328 18.7506 19.5 18.7506C19.2672 18.7506 19.0402 18.6784 18.8502 18.544C18.6602 18.4095 18.5166 18.2195 18.4391 18ZM18.4391 19.5H20.5609C20.4834 19.7195 20.3398 19.9095 20.1498 20.044C19.9598 20.1784 19.7328 20.2506 19.5 20.2506C19.2672 20.2506 19.0402 20.1784 18.8502 20.044C18.6602 19.9095 18.5166 19.7195 18.4391 19.5ZM20.9891 20.25C21.2377 19.9275 21.3733 19.5322 21.375 19.125C21.375 19.0255 21.3355 18.9302 21.2652 18.8598C21.1948 18.7895 21.0995 18.75 21 18.75H20.9902C21.2384 18.4274 21.3736 18.0321 21.375 17.625C21.375 17.5255 21.3355 17.4302 21.2652 17.3598C21.1948 17.2895 21.0995 17.25 21 17.25H18C17.9005 17.25 17.8052 17.2895 17.7348 17.3598C17.6645 17.4302 17.625 17.5255 17.625 17.625C17.6264 18.0321 17.7616 18.4274 18.0098 18.75H18C17.9005 18.75 17.8052 18.7895 17.7348 18.8598C17.6645 18.9302 17.625 19.0255 17.625 19.125C17.6264 19.5321 17.7616 19.9274 18.0098 20.25H16.4902C16.7384 19.9274 16.8736 19.5321 16.875 19.125C16.875 19.0255 16.8355 18.9302 16.7652 18.8598C16.6948 18.7895 16.5995 18.75 16.5 18.75H16.4902C16.7384 18.4274 16.8736 18.0321 16.875 17.625C16.875 17.5255 16.8355 17.4302 16.7652 17.3598C16.6948 17.2895 16.5995 17.25 16.5 17.25H13.5C13.4005 17.25 13.3052 17.2895 13.2348 17.3598C13.1645 17.4302 13.125 17.5255 13.125 17.625C13.1264 18.0321 13.2616 18.4274 13.5098 18.75H13.5C13.4005 18.75 13.3052 18.7895 13.2348 18.8598C13.1645 18.9302 13.125 19.0255 13.125 19.125C13.1264 19.5321 13.2616 19.9274 13.5098 20.25H12.375V16.5H22.125V20.25H20.9891ZM22.125 8.25H20.25V7.875H20.625C20.9234 7.875 21.2095 7.75647 21.4205 7.5455C21.6315 7.33452 21.75 7.04837 21.75 6.75C21.75 6.45163 21.6315 6.16548 21.4205 5.9545C21.2095 5.74353 20.9234 5.625 20.625 5.625H20.25V5.25C20.25 5.15054 20.2105 5.05516 20.1402 4.98484C20.0698 4.91451 19.9745 4.875 19.875 4.875H17.625C17.5255 4.875 17.4302 4.91451 17.3598 4.98484C17.2895 5.05516 17.25 5.15054 17.25 5.25V8.25H16.5V6.75C16.5 6.65055 16.4605 6.55518 16.3901 6.48487L16.125 6.21975V5.25C16.125 5.15054 16.0855 5.05516 16.0152 4.98484C15.9448 4.91451 15.8495 4.875 15.75 4.875H14.25C14.1505 4.875 14.0552 4.91451 13.9848 4.98484C13.9145 5.05516 13.875 5.15054 13.875 5.25V6.21975L13.6099 6.48487C13.5395 6.55518 13.5 6.65055 13.5 6.75V8.25H12.375V3.75H22.125V8.25Z" fill="#484848"/>
<path d="M10.875 10.5H10.125V13.5H10.875V10.5Z" fill="#484848"/>
<path d="M2.625 4.875V6H3.375V5.25H4.125V4.5H3C2.90054 4.5 2.80516 4.53951 2.73484 4.60984C2.66451 4.68016 2.625 4.77554 2.625 4.875Z" fill="#484848"/>
<path d="M3.375 18H2.625V19.125C2.625 19.2245 2.66451 19.3198 2.73484 19.3902C2.80516 19.4605 2.90054 19.5 3 19.5H4.125V18.75H3.375V18Z" fill="#484848"/>
<path d="M10.5 4.5H9.375V5.25H10.125V6H10.875V4.875C10.875 4.77554 10.8355 4.68016 10.7652 4.60984C10.6948 4.53951 10.5995 4.5 10.5 4.5Z" fill="#484848"/>
<path d="M10.125 18.75H9.375V19.5H10.5C10.5995 19.5 10.6948 19.4605 10.7652 19.3902C10.8355 19.3198 10.875 19.2245 10.875 19.125V18H10.125V18.75Z" fill="#484848"/>
</svg>
