<svg width="512" height="512" viewBox="0 0 512 512" fill="none" xmlns="http://www.w3.org/2000/svg">
<g clip-path="url(#clip0_3582_11649)">
<path d="M503.467 247.467H349.867V8.53333C349.867 3.8205 346.046 0 341.333 0C336.621 0 332.8 3.8205 332.8 8.53333V247.467H179.2V8.53333C179.2 3.8205 175.38 0 170.667 0C165.954 0 162.133 3.8205 162.133 8.53333V247.467H8.53333C3.8205 247.467 0 251.287 0 256C0 260.713 3.8205 264.533 8.53333 264.533H162.133V503.467C162.133 508.18 165.954 512 170.667 512C175.38 512 179.2 508.18 179.2 503.467V264.533H332.8V503.467C332.8 508.18 336.621 512 341.333 512C346.046 512 349.867 508.18 349.867 503.467V264.533H503.467C508.18 264.533 512 260.713 512 256C512 251.287 508.18 247.467 503.467 247.467Z" fill="black"/>
<path d="M110.933 230.4C129.784 230.4 145.066 215.118 145.066 196.266V59.7329C145.066 40.8816 129.784 25.5996 110.933 25.5996H59.7329C40.8816 25.5996 25.5996 40.8816 25.5996 59.7329V196.266C25.5996 215.118 40.8816 230.4 59.7329 230.4H110.933ZM42.6663 59.7329C42.6663 50.3073 50.3073 42.6663 59.7329 42.6663H110.933C120.359 42.6663 128 50.3073 128 59.7329V75.2209C114.264 70.5432 99.8432 68.1927 85.3329 68.2663C70.8227 68.1927 56.4021 70.5432 42.6663 75.2209V59.7329ZM42.6663 93.6615C56.1943 88.0794 70.6988 85.2481 85.3329 85.3329C99.9671 85.2481 114.472 88.0794 128 93.6615V110.933H42.6663V93.6615ZM42.6663 128H128V170.666H42.6663V128ZM42.6663 196.266V187.733H128V196.266C128 205.692 120.359 213.333 110.933 213.333H59.7329C50.3073 213.333 42.6663 205.692 42.6663 196.266Z" fill="black"/>
<path d="M281.601 486.4C300.452 486.4 315.734 471.118 315.734 452.266V315.733C315.734 296.882 300.452 281.6 281.601 281.6H230.401C211.55 281.6 196.268 296.882 196.268 315.733V452.266C196.268 471.118 211.55 486.4 230.401 486.4H281.601ZM213.334 315.733C213.334 306.307 220.975 298.666 230.401 298.666H281.601C291.027 298.666 298.668 306.307 298.668 315.733V324.266H213.334V315.733ZM213.334 341.333H298.668V384H213.334V341.333ZM213.334 401.066H298.668V418.338C271.306 429.438 240.696 429.438 213.334 418.338V401.066ZM213.334 452.266V436.778C241.023 446.051 270.979 446.051 298.668 436.778V452.266C298.668 461.692 291.027 469.333 281.601 469.333H230.401C220.975 469.333 213.334 461.692 213.334 452.266Z" fill="black"/>
<path d="M452.267 230.4C471.118 230.4 486.4 215.118 486.4 196.266V59.7329C486.4 40.8816 471.118 25.5996 452.267 25.5996H401.067C382.216 25.5996 366.934 40.8816 366.934 59.7329V196.266C366.934 215.118 382.216 230.4 401.067 230.4H452.267ZM384 59.7329C384 50.3073 391.641 42.6663 401.067 42.6663H452.267C461.693 42.6663 469.334 50.3073 469.334 59.7329V68.2663H384V59.7329ZM384 85.3329H469.334V128H384V85.3329ZM384 145.066H469.334V162.338C441.972 173.438 411.362 173.438 384 162.338V145.066ZM384 196.266V180.778C411.689 190.051 441.645 190.051 469.334 180.778V196.266C469.334 205.692 461.693 213.333 452.267 213.333H401.067C391.641 213.333 384 205.692 384 196.266Z" fill="black"/>
<path d="M401.067 486.4H452.267C471.118 486.4 486.4 471.118 486.4 452.266V315.733C486.4 296.882 471.118 281.6 452.267 281.6H401.067C382.216 281.6 366.934 296.882 366.934 315.733V452.266C366.934 471.118 382.216 486.4 401.067 486.4ZM384 315.733C384 306.307 391.641 298.666 401.067 298.666H452.267C461.693 298.666 469.334 306.307 469.334 315.733V331.221C441.645 321.948 411.689 321.948 384 331.221V315.733ZM384 349.661C411.362 338.561 441.972 338.561 469.334 349.661V366.933H384V349.661ZM384 384H469.334V426.666H384V384ZM384 443.733H469.334V452.266C469.334 461.692 461.693 469.333 452.267 469.333H401.067C391.641 469.333 384 461.692 384 452.266V443.733Z" fill="black"/>
<path d="M59.7327 460.8V409.6H76.7994C105.076 409.6 127.999 386.677 127.999 358.4C127.999 330.123 105.076 307.2 76.7994 307.2H51.1993C46.4865 307.2 42.666 311.021 42.666 315.734V460.8C42.666 465.513 46.4865 469.334 51.1993 469.334C55.9122 469.334 59.7327 465.513 59.7327 460.8ZM59.7327 324.267H76.7994C95.6507 324.267 110.933 339.549 110.933 358.4C110.933 377.252 95.6507 392.534 76.7994 392.534H59.7327V324.267Z" fill="black"/>
<path d="M230.401 196.267V145.067H247.467C275.744 145.067 298.667 122.144 298.667 93.867C298.667 65.59 275.744 42.667 247.467 42.667H221.867C217.154 42.667 213.334 46.4875 213.334 51.2003V196.267C213.334 200.98 217.154 204.8 221.867 204.8C226.58 204.8 230.401 200.98 230.401 196.267ZM230.401 59.7337H247.467C266.319 59.7337 281.601 75.0157 281.601 93.867C281.601 112.718 266.319 128 247.467 128H230.401V59.7337Z" fill="black"/>
</g>
<defs>
<clipPath id="clip0_3582_11649">
<rect width="512" height="512" fill="white"/>
</clipPath>
</defs>
</svg>
