<svg width="512" height="512" viewBox="0 0 512 512" fill="none" xmlns="http://www.w3.org/2000/svg">
<g clip-path="url(#clip0_3582_11618)">
<path d="M74.8032 64.1967C71.8742 61.2678 67.1252 61.2678 64.1972 64.1967C61.2682 67.1257 61.2682 71.8748 64.1972 74.8028L68.0822 78.6878C69.5462 80.1518 71.4662 80.8848 73.3852 80.8848C75.3042 80.8848 77.2242 80.1528 78.6882 78.6878C81.6172 75.7588 81.6172 71.0098 78.6882 68.0818L74.8032 64.1967Z" fill="black"/>
<path d="M437.197 447.804C438.661 449.268 440.581 450 442.5 450C444.419 450 446.339 449.268 447.804 447.803C450.733 444.874 450.733 440.125 447.803 437.197L443.917 433.312C440.989 430.383 436.24 430.383 433.311 433.313C430.382 436.242 430.382 440.991 433.312 443.919L437.197 447.804Z" fill="black"/>
<path d="M438.614 80.8852C440.533 80.8852 442.453 80.1532 443.917 78.6892L447.803 74.8042C450.733 71.8752 450.733 67.1262 447.804 64.1982C444.875 61.2692 440.126 61.2682 437.198 64.1972L433.312 68.0822C430.382 71.0112 430.382 75.7602 433.311 78.6882C434.775 80.1532 436.694 80.8852 438.614 80.8852Z" fill="black"/>
<path d="M68.0822 433.312L64.1972 437.197C61.2682 440.126 61.2682 444.875 64.1972 447.803C65.6612 449.268 67.5812 450 69.5002 450C71.4192 450 73.3392 449.268 74.8032 447.803L78.6882 443.918C81.6172 440.989 81.6172 436.24 78.6882 433.312C75.7602 430.383 71.0112 430.383 68.0822 433.312Z" fill="black"/>
<path d="M375.846 497H81.5C44.832 497 15 467.168 15 430.5V81.5C15 44.832 44.832 15 81.5 15H166.1C170.242 15 173.6 11.642 173.6 7.5C173.6 3.358 170.242 0 166.1 0H81.5C36.561 0 0 36.561 0 81.5V430.5C0 475.439 36.561 512 81.5 512H375.846C379.989 512 383.346 508.642 383.346 504.5C383.346 500.358 379.988 497 375.846 497Z" fill="black"/>
<path d="M430.5 0H200.705C196.563 0 193.205 3.358 193.205 7.5C193.205 11.642 196.563 15 200.705 15H430.5C467.168 15 497 44.832 497 81.5V430.5C497 467.168 467.168 497 430.5 497H410.844C406.701 497 403.344 500.358 403.344 504.5C403.344 508.642 406.701 512 410.844 512H430.5C475.439 512 512 475.439 512 430.5V81.5C512 36.561 475.439 0 430.5 0Z" fill="black"/>
<path d="M30 81.5V430.5C30 458.897 53.103 482 81.5 482H430.5C458.897 482 482 458.897 482 430.5V81.5C482 53.103 458.897 30 430.5 30H81.5C53.103 30 30 53.103 30 81.5ZM467 81.5V430.5C467 450.626 450.626 467 430.5 467H81.5C61.374 467 45 450.626 45 430.5V81.5C45 61.374 61.374 45 81.5 45H430.5C450.626 45 467 61.374 467 81.5Z" fill="black"/>
<path d="M138.447 369.413C153.611 369.413 165.947 357.077 165.947 341.913V269.322C179.134 269.254 194.113 269.188 202.513 269.188C227.142 269.188 250.487 259.665 268.246 242.374C286.282 224.812 296.215 201.51 296.215 176.758C296.215 152.006 286.282 128.703 268.246 111.142C250.486 93.8501 227.142 84.3281 202.513 84.3281H138.447C131.191 84.3281 124.093 87.2751 118.97 92.4141C114.346 97.0531 111.533 103.215 111.042 109.776C110.978 110.459 110.947 111.131 110.947 111.828V293.15C110.947 297.292 114.305 300.65 118.447 300.65C122.589 300.65 125.947 297.292 125.947 293.15V111.827C125.947 111.584 125.957 111.372 125.98 111.139C125.986 111.073 125.992 111.007 125.997 110.94C126.211 107.934 127.489 105.114 129.595 103.002C131.957 100.632 135.101 99.3271 138.448 99.3271H202.514C223.212 99.3271 242.84 107.34 257.783 121.889C272.894 136.602 281.217 156.089 281.217 176.758C281.217 197.427 272.895 216.913 257.783 231.627C242.841 246.176 223.213 254.189 202.514 254.189C192.44 254.189 172.968 254.284 158.407 254.363C154.281 254.385 150.948 257.737 150.948 261.863V341.914C150.948 348.807 145.341 354.414 138.448 354.414C131.555 354.414 125.948 348.807 125.948 341.914V327.97C125.948 323.828 122.59 320.47 118.448 320.47C114.306 320.47 110.948 323.828 110.948 327.97V341.913C110.947 357.076 123.283 369.413 138.447 369.413Z" fill="black"/>
<path d="M153.505 227.19C154.91 228.58 156.805 229.358 158.78 229.358H158.821C173.228 229.28 192.503 229.187 202.513 229.187C231.622 229.187 256.215 205.177 256.215 176.757C256.215 148.337 231.622 124.326 202.513 124.326H158.507C156.514 124.326 154.603 125.119 153.196 126.531C151.789 127.942 151.001 129.855 151.007 131.848C151.052 147.564 151.107 168.158 151.107 176.757C151.107 187.057 151.201 206.99 151.28 221.899C151.291 223.888 152.091 225.792 153.505 227.19ZM202.513 139.327C223.492 139.327 241.215 156.468 241.215 176.758C241.215 197.047 223.491 214.188 202.513 214.188C194.132 214.188 179.303 214.253 166.241 214.32C166.173 200.786 166.107 185.376 166.107 176.758C166.107 169.47 166.068 153.577 166.029 139.327H202.513Z" fill="black"/>
<path d="M272.459 304.385L264.228 342.469H254.4C245.236 342.469 237.781 349.924 237.781 359.088V388.849C237.781 396.954 243.616 403.713 251.304 405.169V415.128C251.304 424.138 258.634 431.469 267.645 431.469H281.963C290.974 431.469 298.304 424.138 298.304 415.128V405.469H348.257V415.128C348.257 424.138 355.587 431.469 364.598 431.469H376.916C385.927 431.469 393.257 424.138 393.257 415.128V405.169C400.945 403.713 406.78 396.955 406.78 388.849V359.088C406.78 349.924 399.325 342.469 390.161 342.469H380.333L372.102 304.385C371.356 300.933 368.302 298.469 364.771 298.469H279.791C276.259 298.47 273.205 300.934 272.459 304.385ZM283.304 415.129C283.304 415.868 282.702 416.47 281.963 416.47H267.645C266.906 416.47 266.304 415.868 266.304 415.129V405.47H283.304V415.129ZM378.257 415.129C378.257 415.868 377.655 416.47 376.916 416.47H364.598C363.859 416.47 363.257 415.868 363.257 415.129V405.47H378.257V415.129ZM391.78 359.089V388.85C391.78 389.743 391.053 390.47 390.161 390.47H254.399C253.506 390.47 252.78 389.743 252.78 388.85V359.089C252.78 358.196 253.507 357.47 254.399 357.47H390.161C391.054 357.47 391.78 358.196 391.78 359.089ZM358.719 313.47L364.987 342.47H279.575L285.843 313.47H358.719Z" fill="black"/>
<path d="M282.022 366.47H268.714C264.571 366.47 261.214 369.828 261.214 373.97C261.214 378.112 264.571 381.47 268.714 381.47H282.022C286.165 381.47 289.522 378.112 289.522 373.97C289.522 369.828 286.165 366.47 282.022 366.47Z" fill="black"/>
<path d="M355.037 373.97C355.037 378.112 358.394 381.47 362.537 381.47H375.846C379.989 381.47 383.346 378.112 383.346 373.97C383.346 369.828 379.989 366.47 375.846 366.47H362.537C358.395 366.47 355.037 369.828 355.037 373.97Z" fill="black"/>
</g>
<defs>
<clipPath id="clip0_3582_11618">
<rect width="512" height="512" fill="white"/>
</clipPath>
</defs>
</svg>
