<svg width="60" height="60" viewBox="0 0 60 60" fill="none" xmlns="http://www.w3.org/2000/svg">
<g clip-path="url(#clip0_3615_11523)">
<path d="M59 29H41V1C41 0.447715 40.5523 0 40 0C39.4477 0 39 0.447715 39 1V29H21V1C21 0.447715 20.5523 0 20 0C19.4477 0 19 0.447715 19 1V29H1C0.447715 29 0 29.4477 0 30C0 30.5523 0.447715 31 1 31H19V59C19 59.5523 19.4477 60 20 60C20.5523 60 21 59.5523 21 59V31H39V59C39 59.5523 39.4477 60 40 60C40.5523 60 41 59.5523 41 59V31H59C59.5523 31 60 30.5523 60 30C60 29.4477 59.5523 29 59 29Z" fill="#484848"/>
<path d="M13 27C15.2091 27 17 25.2091 17 23V7C17 4.79086 15.2091 3 13 3H7C4.79086 3 3 4.79086 3 7V23C3 25.2091 4.79086 27 7 27H13ZM5 7C5 5.89543 5.89543 5 7 5H13C14.1046 5 15 5.89543 15 7V8.815C13.3903 8.26683 11.7004 7.99138 10 8C8.29958 7.99138 6.60966 8.26683 5 8.815V7ZM5 10.976C6.58531 10.3218 8.28506 9.99006 10 10C11.7149 9.99006 13.4147 10.3218 15 10.976V13H5V10.976ZM5 15H15V20H5V15ZM5 23V22H15V23C15 24.1046 14.1046 25 13 25H7C5.89543 25 5 24.1046 5 23Z" fill="#484848"/>
<path d="M33 57C35.2091 57 37 55.2091 37 53V37C37 34.7909 35.2091 33 33 33H27C24.7909 33 23 34.7909 23 37V53C23 55.2091 24.7909 57 27 57H33ZM25 37C25 35.8954 25.8954 35 27 35H33C34.1046 35 35 35.8954 35 37V38H25V37ZM25 40H35V45H25V40ZM25 47H35V49.024C31.7936 50.3248 28.2064 50.3248 25 49.024V47ZM25 53V51.185C28.2448 52.2717 31.7552 52.2717 35 51.185V53C35 54.1046 34.1046 55 33 55H27C25.8954 55 25 54.1046 25 53Z" fill="#484848"/>
<path d="M53 27C55.2091 27 57 25.2091 57 23V7C57 4.79086 55.2091 3 53 3H47C44.7909 3 43 4.79086 43 7V23C43 25.2091 44.7909 27 47 27H53ZM45 7C45 5.89543 45.8954 5 47 5H53C54.1046 5 55 5.89543 55 7V8H45V7ZM45 10H55V15H45V10ZM45 17H55V19.024C51.7936 20.3248 48.2064 20.3248 45 19.024V17ZM45 23V21.185C48.2448 22.2717 51.7552 22.2717 55 21.185V23C55 24.1046 54.1046 25 53 25H47C45.8954 25 45 24.1046 45 23Z" fill="#484848"/>
<path d="M47 57H53C55.2091 57 57 55.2091 57 53V37C57 34.7909 55.2091 33 53 33H47C44.7909 33 43 34.7909 43 37V53C43 55.2091 44.7909 57 47 57ZM45 37C45 35.8954 45.8954 35 47 35H53C54.1046 35 55 35.8954 55 37V38.815C51.7552 37.7283 48.2448 37.7283 45 38.815V37ZM45 40.976C48.2064 39.6752 51.7936 39.6752 55 40.976V43H45V40.976ZM45 45H55V50H45V45ZM45 52H55V53C55 54.1046 54.1046 55 53 55H47C45.8954 55 45 54.1046 45 53V52Z" fill="#484848"/>
<path d="M7 54V48H9C12.3137 48 15 45.3137 15 42C15 38.6863 12.3137 36 9 36H6C5.44772 36 5 36.4477 5 37V54C5 54.5523 5.44772 55 6 55C6.55228 55 7 54.5523 7 54ZM7 38H9C11.2091 38 13 39.7909 13 42C13 44.2091 11.2091 46 9 46H7V38Z" fill="#484848"/>
<path d="M27 23V17H29C32.3137 17 35 14.3137 35 11C35 7.68629 32.3137 5 29 5H26C25.4477 5 25 5.44772 25 6V23C25 23.5523 25.4477 24 26 24C26.5523 24 27 23.5523 27 23ZM27 7H29C31.2091 7 33 8.79086 33 11C33 13.2091 31.2091 15 29 15H27V7Z" fill="#484848"/>
</g>
<defs>
<clipPath id="clip0_3615_11523">
<rect width="60" height="60" fill="white"/>
</clipPath>
</defs>
</svg>
