<svg width="60" height="60" viewBox="0 0 60 60" fill="none" xmlns="http://www.w3.org/2000/svg">
<g clip-path="url(#clip0_3618_11673)">
<path d="M0 6.83628V53.1637C0 56.9332 3.06677 60 6.83628 60H53.1637C56.9332 60 60 56.9332 60 53.1637V6.83628C60 3.06677 56.9332 0 53.1637 0H6.83628C3.06677 0 0 3.06677 0 6.83628ZM58.0089 6.83628V53.1637C58.0089 55.8353 55.8353 58.0089 53.1637 58.0089H6.83628C4.16469 58.0089 1.99115 55.8353 1.99115 53.1637V6.83628C1.99115 4.16469 4.16469 1.99115 6.83628 1.99115H53.1637C55.8353 1.99115 58.0089 4.16469 58.0089 6.83628Z" fill="#484848" stroke="#484848" stroke-width="0.3"/>
<path d="M14.3951 45.0541C16.408 45.0541 18.0455 43.4166 18.0455 41.4036V31.7677C19.796 31.7586 21.7844 31.7499 22.8994 31.7499C26.1687 31.7499 29.2676 30.4858 31.625 28.1905C34.0192 25.8593 35.3377 22.7661 35.3377 19.4804C35.3377 16.1947 34.0192 13.1014 31.625 10.7703C29.2675 8.47492 26.1687 7.21094 22.8994 7.21094H14.3951C13.4319 7.21094 12.4897 7.60213 11.8096 8.2843C11.1958 8.9001 10.8224 9.71806 10.7572 10.589C10.7487 10.6797 10.7446 10.7689 10.7446 10.8614V34.9307C10.7446 35.4805 11.1904 35.9262 11.7402 35.9262C12.29 35.9262 12.7358 35.4805 12.7358 34.9307V10.8612C12.7358 10.829 12.7371 10.8008 12.7402 10.7699C12.741 10.7612 12.7418 10.7524 12.7424 10.7435C12.7708 10.3445 12.9405 9.97014 13.22 9.68979C13.5336 9.37518 13.9509 9.20196 14.3952 9.20196H22.8995C25.6471 9.20196 28.2526 10.2656 30.2361 12.1969C32.242 14.15 33.3468 16.7367 33.3468 19.4804C33.3468 22.2241 32.2422 24.8107 30.2361 26.7639C28.2527 28.6952 25.6472 29.7589 22.8995 29.7589C21.5623 29.7589 18.9775 29.7715 17.0446 29.782C16.4969 29.7849 16.0545 30.2298 16.0545 30.7775V41.4038C16.0545 42.3188 15.3102 43.0631 14.3952 43.0631C13.4802 43.0631 12.7359 42.3188 12.7359 41.4038L12.7369 34.1467C12.7369 33.5969 12.2911 33.1511 11.7413 33.1511C11.1915 33.1511 10.7457 33.5969 10.7457 34.1467L10.7448 41.4036C10.7446 43.4164 12.3822 45.0541 14.3951 45.0541Z" fill="#484848"/>
<path d="M16.3946 26.176C16.5811 26.3605 16.8326 26.4638 17.0948 26.4638H17.1002C19.0127 26.4534 21.5713 26.4411 22.9001 26.4411C26.7641 26.4411 30.0287 23.2539 30.0287 19.4814C30.0287 15.7088 26.7641 12.5215 22.9001 12.5215H17.0586C16.794 12.5215 16.5403 12.6268 16.3536 12.8142C16.1668 13.0015 16.0622 13.2554 16.063 13.52C16.069 15.6062 16.0763 18.3399 16.0763 19.4814C16.0763 20.8486 16.0887 23.4946 16.0992 25.4737C16.1007 25.7377 16.2069 25.9904 16.3946 26.176ZM22.9001 14.5128C25.6849 14.5128 28.0375 16.7881 28.0375 19.4815C28.0375 22.1747 25.6848 24.4501 22.9001 24.4501C21.7875 24.4501 19.8191 24.4587 18.0852 24.4676C18.0762 22.671 18.0674 20.6255 18.0674 19.4815C18.0674 18.5141 18.0622 16.4044 18.0571 14.5128H22.9001Z" fill="#484848"/>
<path d="M32.1853 36.422L31.0927 41.4774H29.7881C28.5716 41.4774 27.582 42.467 27.582 43.6835V47.6341C27.582 48.7099 28.3566 49.6072 29.3771 49.8004V51.1224C29.3771 52.3184 30.3501 53.2916 31.5463 53.2916H33.4469C34.643 53.2916 35.6161 52.3184 35.6161 51.1224V49.8403H42.247V51.1224C42.247 52.3184 43.22 53.2916 44.4161 53.2916H46.0513C47.2474 53.2916 48.2204 52.3184 48.2204 51.1224V49.8004C49.241 49.6072 50.0155 48.7101 50.0155 47.6341V43.6835C50.0155 42.467 49.0259 41.4774 47.8095 41.4774H46.5049L45.4123 36.422C45.3132 35.9638 44.9078 35.6367 44.4391 35.6367H33.1586C32.6897 35.6369 32.2843 35.9639 32.1853 36.422ZM33.6249 51.1226C33.6249 51.2207 33.545 51.3006 33.4469 51.3006H31.5463C31.4482 51.3006 31.3683 51.2207 31.3683 51.1226V49.8404H33.6249V51.1226ZM46.2293 51.1226C46.2293 51.2207 46.1494 51.3006 46.0513 51.3006H44.4161C44.318 51.3006 44.2381 51.2207 44.2381 51.1226V49.8404H46.2293V51.1226ZM48.0244 43.6836V47.6342C48.0244 47.7527 47.9279 47.8492 47.8095 47.8492H29.788C29.6694 47.8492 29.573 47.7527 29.573 47.6342V43.6836C29.573 43.5651 29.6696 43.4687 29.788 43.4687H47.8095C47.928 43.4687 48.0244 43.5651 48.0244 43.6836ZM43.6357 37.628L44.4678 41.4776H33.1299L33.9619 37.628H43.6357Z" fill="#484848"/>
<path d="M33.4545 44.6641H31.688C31.138 44.6641 30.6924 45.1098 30.6924 45.6596C30.6924 46.2095 31.138 46.6552 31.688 46.6552H33.4545C34.0045 46.6552 34.4501 46.2095 34.4501 45.6596C34.4501 45.1098 34.0045 44.6641 33.4545 44.6641Z" fill="#484848"/>
<path d="M43.146 45.6596C43.146 46.2095 43.5916 46.6552 44.1416 46.6552H45.9083C46.4582 46.6552 46.9038 46.2095 46.9038 45.6596C46.9038 45.1098 46.4582 44.6641 45.9083 44.6641H44.1416C43.5917 44.6641 43.146 45.1098 43.146 45.6596Z" fill="#484848"/>
</g>
<defs>
<clipPath id="clip0_3618_11673">
<rect width="60" height="60" fill="white"/>
</clipPath>
</defs>
</svg>
