<svg width="60" height="60" viewBox="0 0 60 60" fill="none" xmlns="http://www.w3.org/2000/svg">
<path d="M22.8135 19.9219H36.5063C36.6927 19.9219 36.8716 19.8478 37.0034 19.7159C37.1353 19.5841 37.2094 19.4052 37.2094 19.2188C37.2094 19.0323 37.1353 18.8534 37.0034 18.7216C36.8716 18.5897 36.6927 18.5156 36.5063 18.5156H22.8135C22.627 18.5156 22.4482 18.5897 22.3163 18.7216C22.1844 18.8534 22.1104 19.0323 22.1104 19.2188C22.1104 19.4052 22.1844 19.5841 22.3163 19.7159C22.4482 19.8478 22.627 19.9219 22.8135 19.9219Z" fill="#484848"/>
<path d="M22.8135 16.0547H36.5063C36.6927 16.0547 36.8716 15.9806 37.0034 15.8487C37.1353 15.7169 37.2094 15.538 37.2094 15.3516C37.2094 15.1651 37.1353 14.9862 37.0034 14.8544C36.8716 14.7225 36.6927 14.6484 36.5063 14.6484H22.8135C22.627 14.6484 22.4482 14.7225 22.3163 14.8544C22.1844 14.9862 22.1104 15.1651 22.1104 15.3516C22.1104 15.538 22.1844 15.7169 22.3163 15.8487C22.4482 15.9806 22.627 16.0547 22.8135 16.0547Z" fill="#484848"/>
<path d="M40.2567 20.5082H45.731C46.5857 20.5082 47.4054 20.1687 48.0097 19.5643C48.6141 18.9599 48.9536 18.1402 48.9536 17.2855C48.9536 16.4308 48.6141 15.6111 48.0097 15.0068C47.4054 14.4024 46.5857 14.0629 45.731 14.0629H41.2466C41.0857 14.0575 40.9282 14.1092 40.8018 14.2088C40.6755 14.3084 40.5884 14.4496 40.5562 14.6072L39.5664 19.7158C39.5468 19.8141 39.5499 19.9155 39.5756 20.0124C39.6012 20.1093 39.6487 20.199 39.7144 20.2746C39.7816 20.3517 39.8652 20.4126 39.959 20.4531C40.0529 20.4935 40.1546 20.5123 40.2567 20.5082ZM41.827 15.4691H45.7312C46.2129 15.4691 46.675 15.6605 47.0156 16.0011C47.3562 16.3418 47.5476 16.8038 47.5476 17.2855C47.5476 17.7673 47.3562 18.2293 47.0156 18.5699C46.675 18.9106 46.2129 19.1019 45.7312 19.1019H41.1087L41.827 15.4691Z" fill="#484848"/>
<path d="M18.7641 14.6034C18.7317 14.4461 18.6445 14.3055 18.518 14.2066C18.3916 14.1076 18.2342 14.0568 18.0738 14.063H13.5894C12.7347 14.063 11.915 14.4025 11.3106 15.0069C10.7062 15.6113 10.3667 16.431 10.3667 17.2857C10.3667 18.1404 10.7062 18.9601 11.3106 19.5644C11.915 20.1688 12.7347 20.5083 13.5894 20.5083H19.0638C19.1663 20.5119 19.2683 20.4923 19.3622 20.4508C19.456 20.4094 19.5393 20.3472 19.6057 20.269C19.6721 20.1908 19.72 20.0985 19.7456 19.9992C19.7713 19.8999 19.7742 19.796 19.754 19.6954L18.7641 14.6034ZM13.5894 19.1021C13.1076 19.1021 12.6456 18.9107 12.305 18.5701C11.9643 18.2294 11.7729 17.7674 11.7729 17.2857C11.7729 16.8039 11.9643 16.3419 12.305 16.0013C12.6456 15.6606 13.1076 15.4693 13.5894 15.4693H17.4936L18.2117 19.1021H13.5894Z" fill="#484848"/>
<path d="M22.8135 18.0469H36.5063C36.6927 18.0469 36.8716 17.9728 37.0034 17.8409C37.1353 17.7091 37.2094 17.5302 37.2094 17.3438C37.2094 17.1573 37.1353 16.9784 37.0034 16.8466C36.8716 16.7147 36.6927 16.6406 36.5063 16.6406H22.8135C22.627 16.6406 22.4482 16.7147 22.3163 16.8466C22.1844 16.9784 22.1104 17.1573 22.1104 17.3438C22.1104 17.5302 22.1844 17.7091 22.3163 17.8409C22.4482 17.9728 22.627 18.0469 22.8135 18.0469Z" fill="#484848"/>
<path d="M31.9338 3.98438H20.0088C19.8223 3.98438 19.6435 4.05845 19.5116 4.19032C19.3797 4.32218 19.3057 4.50102 19.3057 4.6875C19.3057 4.87398 19.3797 5.05282 19.5116 5.18468C19.6435 5.31655 19.8223 5.39062 20.0088 5.39062H31.9338C32.1203 5.39062 32.2991 5.31655 32.431 5.18468C32.5628 5.05282 32.6369 4.87398 32.6369 4.6875C32.6369 4.50102 32.5628 4.32218 32.431 4.19032C32.2991 4.05845 32.1203 3.98438 31.9338 3.98438Z" fill="#484848"/>
<path d="M17.8189 3.98438H17.2466C17.0601 3.98438 16.8813 4.05845 16.7494 4.19032C16.6175 4.32218 16.5435 4.50102 16.5435 4.6875C16.5435 4.87398 16.6175 5.05282 16.7494 5.18468C16.8813 5.31655 17.0601 5.39062 17.2466 5.39062H17.8189C18.0054 5.39062 18.1842 5.31655 18.3161 5.18468C18.448 5.05282 18.5221 4.87398 18.5221 4.6875C18.5221 4.50102 18.448 4.32218 18.3161 4.19032C18.1842 4.05845 18.0054 3.98438 17.8189 3.98438Z" fill="#484848"/>
<path d="M55.9269 32.5781H51.9376C52.0483 32.3084 52.1041 32.0193 52.1016 31.7277L52.0745 28.3594H52.4831C52.6274 28.3561 52.7696 28.3244 52.9017 28.266C53.0337 28.2077 53.1529 28.1239 53.2525 28.0193C53.352 27.9148 53.43 27.7917 53.4818 27.657C53.5337 27.5223 53.5585 27.3787 53.5548 27.2344V24.5657C53.557 24.2809 53.448 24.0065 53.251 23.8008C53.0541 23.5951 52.7847 23.4743 52.5001 23.4641V15.6141C52.5003 14.6765 52.1497 13.7728 51.5174 13.0807C50.885 12.3886 50.0165 11.9581 49.0828 11.8739L46.1381 3.75551C45.8625 2.99953 45.3614 2.34639 44.7027 1.88433C44.0439 1.42228 43.2592 1.17359 42.4545 1.17188H17.5455C16.7404 1.17351 15.9552 1.42213 15.2959 1.88417C14.6365 2.34621 14.1349 2.99942 13.8586 3.75563L10.9171 11.8739C9.98344 11.9582 9.11505 12.3887 8.48271 13.0808C7.85037 13.7729 7.49985 14.6766 7.50007 15.6141V23.464C7.21547 23.4742 6.94605 23.5949 6.7491 23.8007C6.55215 24.0064 6.44319 24.2808 6.44538 24.5655V27.2344C6.44165 27.3787 6.46643 27.5223 6.5183 27.657C6.57018 27.7917 6.64813 27.9148 6.74769 28.0193C6.84725 28.1239 6.96646 28.2077 7.09849 28.266C7.23051 28.3244 7.37276 28.3561 7.51706 28.3594H7.90378L7.93132 31.7939C7.93362 32.0624 7.98526 32.3283 8.08367 32.5781H4.07328C3.68492 32.5781 3.39851 32.9371 3.39851 33.3254V37.1809C3.39594 37.27 3.41167 37.3587 3.44472 37.4415C3.47778 37.5243 3.52746 37.5995 3.59069 37.6623C3.65393 37.7252 3.72937 37.7744 3.81238 37.8069C3.89538 37.8395 3.98417 37.8547 4.07328 37.8516H5.7766L25.0557 45.5216L5.77648 53.2031H4.07328C3.88656 53.2115 3.71076 53.2935 3.58432 53.4312C3.45788 53.5688 3.39107 53.7509 3.39851 53.9377V58.125C3.39537 58.2158 3.41048 58.3063 3.44292 58.3912C3.47536 58.476 3.52449 58.5535 3.58739 58.6191C3.6503 58.6846 3.72571 58.7369 3.80916 58.7728C3.89262 58.8087 3.98243 58.8275 4.07328 58.8281H55.9269C56.0177 58.8275 56.1075 58.8087 56.191 58.7728C56.2744 58.7369 56.3498 58.6846 56.4128 58.6191C56.4757 58.5535 56.5248 58.476 56.5572 58.3912C56.5897 58.3063 56.6048 58.2158 56.6016 58.125V53.9377C56.6091 53.7509 56.5423 53.5688 56.4158 53.4312C56.2894 53.2935 56.1136 53.2115 55.9269 53.2031H54.2239L34.9591 45.5212L54.2237 37.8516H55.9269C56.016 37.8547 56.1048 37.8395 56.1878 37.8069C56.2708 37.7744 56.3462 37.7252 56.4095 37.6623C56.4727 37.5995 56.5224 37.5243 56.5554 37.4415C56.5885 37.3587 56.6042 37.27 56.6016 37.1809V33.3254C56.6016 32.9371 56.3152 32.5781 55.9269 32.5781ZM15.1803 4.22438C15.3582 3.74056 15.6805 3.32313 16.1036 3.02865C16.5266 2.73417 17.03 2.57689 17.5455 2.57812H42.4545C42.97 2.57689 43.4733 2.73416 43.8964 3.02861C44.3194 3.32307 44.6417 3.74047 44.8196 4.22426L47.5876 11.8359H12.4125L15.1803 4.22438ZM8.90632 15.6141C8.90319 14.9902 9.14718 14.3905 9.58495 13.9461C10.0227 13.5016 10.6186 13.2485 11.2425 13.2422H48.7577C49.3815 13.2485 49.9774 13.5016 50.4152 13.9461C50.853 14.3905 51.097 14.9902 51.0938 15.6141V23.4375H39.3385L37.436 20.9168C37.3711 20.8286 37.2869 20.7565 37.1898 20.7059C37.0927 20.6553 36.9854 20.6276 36.8759 20.625H22.3371C22.2276 20.6276 22.1203 20.6553 22.0232 20.7059C21.9261 20.7565 21.8419 20.8286 21.777 20.9168L19.8751 23.4375H8.90632V15.6141ZM37.5731 23.4375H21.6399L22.6862 22.0312H36.5274L37.5731 23.4375ZM7.85163 26.9531V24.8438H52.1485V26.9531H7.85163ZM50.6954 31.7323C50.697 31.9448 50.6146 32.1494 50.4661 32.3015C50.3176 32.4535 50.115 32.5408 49.9025 32.5443L45.833 32.5781H45.8271C45.6156 32.5741 45.4142 32.4871 45.2662 32.3359C45.1913 32.2633 45.1316 32.1764 45.0907 32.0804C45.0497 31.9844 45.0284 31.8812 45.028 31.7768L45.0001 28.3594H50.6676L50.6954 31.7323ZM16.3841 28.3594H43.5938L43.6214 31.7813C43.6237 32.0541 43.6762 32.3242 43.7763 32.5781H16.2451C16.3573 32.3077 16.4137 32.0174 16.411 31.7246L16.3841 28.3594ZM15.0048 31.7324C15.0058 31.8365 14.986 31.9399 14.9466 32.0363C14.9071 32.1327 14.8488 32.2202 14.775 32.2937C14.7014 32.3682 14.6139 32.4274 14.5173 32.4678C14.4208 32.5082 14.3171 32.5291 14.2125 32.5291L10.1431 32.5549C10.0387 32.5569 9.93484 32.5382 9.83768 32.4998C9.74051 32.4613 9.65193 32.4041 9.57706 32.3312C9.50218 32.2583 9.44251 32.1713 9.40148 32.0752C9.36045 31.9791 9.33889 31.8759 9.33804 31.7714L9.31003 28.3594H14.9777L15.0048 31.7324ZM26.9568 46.2942L28.1042 46.7428L11.8371 53.2031H9.57535L26.9568 46.2942ZM30.0068 47.4918L44.3635 53.2031H15.6428L30.0068 47.4918ZM55.1954 54.6094V57.4219H4.80476V54.6094H55.1954ZM50.427 53.2031H48.168L9.58097 37.8516H11.9281L50.427 53.2031ZM15.7251 37.8516H44.354L30.0133 43.5486L15.7251 37.8516ZM33.0596 44.7796L31.9143 44.3147L48.163 37.8516H50.4216L33.0596 44.7796ZM55.1954 36.4453H4.80476V33.9844H55.1954V36.4453Z" fill="#484848"/>
</svg>
