<svg width="24" height="24" viewBox="0 0 24 24" fill="none" xmlns="http://www.w3.org/2000/svg">
<g clip-path="url(#clip0_3295_17712)">
<path d="M23.5906 0H0.409409C0.183414 0 0 0.183148 0 0.409409V23.5903C0 23.8165 0.183414 23.9997 0.409409 23.9997H23.5906C23.8166 23.9997 24 23.8165 24 23.5903V0.409409C24 0.183414 23.8166 0 23.5906 0ZM23.1812 23.1812H0.818862V0.818862H23.1812V23.1812Z" fill="#484848"/>
<path d="M10.7677 14.218H12.4668C14.3603 14.2721 15.9453 13.2957 16.4448 11.5303C17.0382 9.60296 16.4707 7.36092 14.5581 6.49868C13.8722 6.16621 13.0332 6 12.0426 6H8.39844V18.0246H10.7676V14.218H10.7677ZM10.7677 8.28763H12.4668C13.6132 8.21503 14.3098 9.10623 14.2961 10.1172C14.289 11.0911 13.5174 11.9801 12.4507 11.9146H10.7674V8.28763H10.7677Z" fill="#484848"/>
</g>
<defs>
<clipPath id="clip0_3295_17712">
<rect width="24" height="24" fill="white"/>
</clipPath>
</defs>
</svg>
