<svg width="60" height="60" viewBox="0 0 60 60" fill="none" xmlns="http://www.w3.org/2000/svg">
<g clip-path="url(#clip0_3633_11166)">
<path d="M56.5 0H3.5C1.42893 0 0 1.84315 0 3.5V56.5C0 58.1569 1.42893 60 3.5 60H56.5C58.5711 60 60 58.1569 60 56.5V3.5C60 1.84315 58.5711 0 56.5 0ZM58 56.5C58 57.0523 57.1904 58 56.5 58H3.5C2.80964 58 2 57.0523 2 56.5V3.5C2 2.94772 2.80964 2 3.5 2H56.5C57.1904 2 58 2.94772 58 3.5V30V56.5Z" fill="#484848"/>
<path d="M7.13 55.324C7.30755 55.7418 7.63986 56 8 56H14C14.5523 56 15 55.403 15 54.6667C15 53.9303 14.5523 53.3333 14 53.3333H9.766L14.857 42.02C15.0426 41.6082 15.0476 41.095 14.8702 40.6769C14.6928 40.2587 14.3603 40.0001 14 40H8C7.44772 40 7 40.597 7 41.3333C7 42.0697 7.44772 42.6667 8 42.6667H12.234L7.143 53.98C6.95724 54.3921 6.95227 54.9056 7.13 55.324Z" fill="#484848"/>
<path d="M23.25 56C25.4581 55.9963 27.2476 53.3122 27.25 50V46C27.25 42.6863 25.4591 40 23.25 40C21.0409 40 19.25 42.6863 19.25 46V50C19.2524 53.3122 21.0419 55.9963 23.25 56ZM21.0278 46C21.0278 44.1591 22.0227 42.6667 23.25 42.6667C24.4773 42.6667 25.4722 44.1591 25.4722 46V50C25.4722 51.8409 24.4773 53.3333 23.25 53.3333C22.0227 53.3333 21.0278 51.8409 21.0278 50V46Z" fill="#484848"/>
<path d="M32.5 56C33.0523 56 33.5 55.403 33.5 54.6667V46.1467L37.643 55.3533C37.8238 55.7545 38.149 55.9999 38.5 56C38.5902 55.9997 38.68 55.9836 38.767 55.952C39.2002 55.792 39.5001 55.2661 39.5 54.6667V41.3333C39.5 40.597 39.0523 40 38.5 40C37.9477 40 37.5 40.597 37.5 41.3333V49.8533L33.357 40.6533C33.126 40.141 32.6675 39.8964 32.2352 40.0547C31.8028 40.213 31.5024 40.7356 31.5 41.3333V54.6667C31.5 55.403 31.9477 56 32.5 56Z" fill="#484848"/>
<path d="M50.6071 42.6667C51.2383 42.6667 51.75 42.0697 51.75 41.3333C51.75 40.597 51.2383 40 50.6071 40H44.8929C44.2617 40 43.75 40.597 43.75 41.3333V54.6667C43.75 55.403 44.2617 56 44.8929 56H50.6071C51.2383 56 51.75 55.403 51.75 54.6667C51.75 53.9303 51.2383 53.3333 50.6071 53.3333H46.0357V49.3333H49.5147C50.1459 49.3333 50.6071 48.7364 50.6071 48C50.6071 47.2636 50.1459 46.6667 49.5147 46.6667H46.0357V42.6667H50.6071Z" fill="#484848"/>
<path d="M32.3594 4.625H21.8594V34.625H24.8594V23.8558H32.3594C36.4949 23.8558 39.8594 19.5423 39.8594 14.2404C39.8594 8.93846 36.4949 4.625 32.3594 4.625ZM32.5 20.5H24.8594V8H32.3594C34.8407 8 36.8594 11.0592 36.8594 14.2404C36.8594 17.4215 34.9813 20.5 32.5 20.5Z" fill="#484848"/>
</g>
<defs>
<clipPath id="clip0_3633_11166">
<rect width="60" height="60" fill="white"/>
</clipPath>
</defs>
</svg>
