<svg width="480" height="480" viewBox="0 0 480 480" fill="none" xmlns="http://www.w3.org/2000/svg">
<g clip-path="url(#clip0_3582_11453)">
<path d="M312 368H440C444.418 368 448 364.418 448 360V312C448 307.582 444.418 304 440 304H312C307.582 304 304 307.582 304 312V360C304 364.418 307.582 368 312 368ZM320 320H432V352H320V320Z" fill="black"/>
<path d="M312 448H440C444.418 448 448 444.418 448 440V392C448 387.582 444.418 384 440 384H312C307.582 384 304 387.582 304 392V440C304 444.418 307.582 448 312 448ZM320 400H432V432H320V400Z" fill="black"/>
<path d="M384 328H368C363.582 328 360 331.582 360 336C360 340.418 363.582 344 368 344H384C388.418 344 392 340.418 392 336C392 331.582 388.418 328 384 328Z" fill="black"/>
<path d="M392 408H368C363.582 408 360 411.582 360 416C360 420.418 363.582 424 368 424H392C396.418 424 400 420.418 400 416C400 411.582 396.418 408 392 408Z" fill="black"/>
<path d="M472 0H8C3.582 0 0 3.582 0 8V472C0 476.418 3.582 480 8 480H472C476.418 480 480 476.418 480 472V8C480 3.582 476.418 0 472 0ZM176 16H368V40H176V16ZM336 104V208H320V104C320 99.582 323.582 96 328 96C332.418 96 336 99.582 336 104ZM280 104V224H264V104C264 99.582 267.582 96 272 96C276.418 96 280 99.582 280 104ZM224 104V224H208V104C208 99.582 211.582 96 216 96C220.418 96 224 99.582 224 104ZM176 56H208V81.472C198.445 84.85 192.042 93.866 192 104V232C192 236.418 195.582 240 200 240H232C236.418 240 240 236.418 240 232V104C239.958 93.866 233.555 84.85 224 81.472V56H264V81.472C254.445 84.85 248.042 93.866 248 104V232C248 236.418 251.582 240 256 240H288C292.418 240 296 236.418 296 232V104C295.958 93.866 289.555 84.85 280 81.472V56H320V81.472C310.445 84.85 304.042 93.866 304 104V216C304 220.418 307.582 224 312 224H344C348.418 224 352 220.418 352 216V104C351.958 93.866 345.555 84.85 336 81.472V56H368V272H176V56ZM160 464H16V16H160V464ZM272 464H176V288H272V464ZM464 464H288V288H464V464ZM464 272H384V208H464V272ZM464 192H384V96H464V192ZM464 80H384V16H464V80Z" fill="black"/>
<path d="M192 344H256C260.418 344 264 340.418 264 336V304C264 299.582 260.418 296 256 296H192C187.582 296 184 299.582 184 304V336C184 340.418 187.582 344 192 344ZM200 312H248V328H200V312Z" fill="black"/>
<path d="M192 400H256C260.418 400 264 396.418 264 392V360C264 355.582 260.418 352 256 352H192C187.582 352 184 355.582 184 360V392C184 396.418 187.582 400 192 400ZM200 368H248V384H200V368Z" fill="black"/>
<path d="M192 456H256C260.418 456 264 452.418 264 448V416C264 411.582 260.418 408 256 408H192C187.582 408 184 411.582 184 416V448C184 452.418 187.582 456 192 456ZM200 424H248V440H200V424Z" fill="black"/>
</g>
<defs>
<clipPath id="clip0_3582_11453">
<rect width="480" height="480" fill="white"/>
</clipPath>
</defs>
</svg>
