<svg width="24" height="24" viewBox="0 0 24 24" fill="none" xmlns="http://www.w3.org/2000/svg">
<path d="M14.3536 0.646447C14.1583 0.451184 13.8417 0.451184 13.6464 0.646447C13.4512 0.841709 13.4512 1.15829 13.6464 1.35355L14.3536 0.646447ZM22 9.5C22.2761 9.5 22.5 9.27614 22.5 9L22.5 4.5C22.5 4.22386 22.2761 4 22 4C21.7239 4 21.5 4.22386 21.5 4.5L21.5 8.5L17.5 8.5C17.2239 8.5 17 8.72386 17 9C17 9.27614 17.2239 9.5 17.5 9.5L22 9.5ZM13.6464 1.35355L21.6464 9.35355L22.3536 8.64645L14.3536 0.646447L13.6464 1.35355Z" fill="#484848"/>
<path d="M23.5 19H19.5V15.5H15.5V13H11V10H6.5V6.5H0.5V19" stroke="#484848" stroke-linecap="round" stroke-linejoin="round"/>
</svg>
