<svg width="32" height="32" viewBox="0 0 32 32" fill="none" xmlns="http://www.w3.org/2000/svg">
<path d="M26.25 5.75C23.5125 3.00625 19.875 1.5 16 1.5C12.125 1.5 8.4875 3.00625 5.75 5.75C3.0125 8.49375 1.5 12.125 1.5 16C1.5 19.875 3.00625 23.5125 5.75 26.25C8.49375 28.9875 12.1312 30.5 16 30.5C19.8688 30.5 23.5125 28.9938 26.25 26.25C28.9875 23.5062 30.5 19.8688 30.5 16C30.5 12.1312 28.9938 8.4875 26.25 5.75ZM28.525 21.0375C25.75 21.3188 23.1687 22.3687 20.9937 24.0938C20.6 23.1812 20.1188 22.3062 19.5438 21.4875C22.3188 19.5875 25.75 18.7937 29.1 19.2687C28.9438 19.8812 28.7562 20.4688 28.525 21.0375V21.0375ZM17.2125 20.2625C19.425 22.475 20.8 25.3937 21.1 28.5C20.4 28.7875 19.6688 29.0187 18.9188 29.1812C18.2875 26.6125 16.975 24.2688 15.0875 22.3813C11.8312 19.125 7.23125 17.6188 2.69375 18.2938C2.6375 17.9688 2.59375 17.6375 2.5625 17.3C7.61875 15.2437 13.3312 16.3813 17.2125 20.2625ZM18.9438 20.6938C18.625 20.3 18.2813 19.9187 17.9188 19.5562C17.575 19.2125 17.2125 18.8875 16.8438 18.5812C20.55 16.1 25.2875 15.6187 29.4375 17.3062C29.4062 17.6375 29.3625 17.9688 29.3062 18.2938C25.675 17.7563 21.95 18.6188 18.9438 20.6938ZM16 2.5C23.4437 2.5 29.5 8.55625 29.5 16C29.5 16.0875 29.5 16.1688 29.4937 16.2563C25.1937 14.6188 20.35 15.1313 16.5 17.6063V12.0688C17.3875 12.0313 19.2812 11.7875 20.5312 10.5312C22.2062 8.85625 22.075 6.0875 22.0688 5.975C22.0563 5.71875 21.85 5.51875 21.6 5.50625C21.5938 5.50625 21.5188 5.5 21.3875 5.5C20.7313 5.5 18.475 5.6125 17.0438 7.04375C16.1938 7.89375 15.8125 9.01875 15.6375 9.9375C15.45 9.61875 15.225 9.31875 14.95 9.04375C13.5187 7.6125 11.2625 7.5 10.6062 7.5C10.475 7.5 10.4 7.50625 10.3938 7.50625C10.1375 7.51875 9.9375 7.725 9.925 7.975C9.91875 8.09375 9.7875 10.8563 11.4625 12.5312C12.7187 13.7875 14.6187 14.025 15.5 14.0688V17.6063C13.9062 16.5813 12.125 15.8813 10.2375 15.5375C7.625 15.0688 4.9625 15.3188 2.50625 16.2563C2.50625 16.1688 2.5 16.0875 2.5 16C2.5 8.55625 8.55625 2.5 16 2.5V2.5ZM16.5063 11.0688C16.5438 10.2938 16.7563 8.74375 17.75 7.75C18.7437 6.75625 20.2938 6.55 21.0688 6.50625C21.0313 7.28125 20.8188 8.83125 19.825 9.825C18.8313 10.8187 17.2875 11.025 16.5063 11.0688ZM15.4875 13.0688C14.7125 13.0313 13.1625 12.8187 12.1687 11.825C11.1812 10.8375 10.9687 9.28125 10.9312 8.50625C11.7062 8.54375 13.2563 8.75625 14.25 9.75C15.2312 10.7375 15.4438 12.2875 15.4875 13.0688ZM3.9625 22.1063C6.825 22.525 9.49375 23.8563 11.5562 25.9188C12.575 26.9375 13.4125 28.0938 14.05 29.3563C9.64375 28.7188 5.9125 25.9375 3.9625 22.1063ZM15.2188 29.475C14.5 27.8875 13.5062 26.4562 12.2625 25.2125C9.9 22.85 6.79375 21.375 3.475 21.0438C3.24375 20.475 3.05 19.8875 2.9 19.2812C7.10625 18.675 11.3625 20.0812 14.3813 23.0938C16.1188 24.8312 17.3437 26.9937 17.9312 29.3625C17.3 29.4562 16.6562 29.5 15.9937 29.5C15.7375 29.5 15.475 29.4938 15.2188 29.475V29.475ZM22.0562 28.0625C21.9312 27.0438 21.7 26.0375 21.3687 25.075C23.2875 23.475 25.5688 22.4625 28.0375 22.1063C26.7313 24.6688 24.6312 26.7625 22.0562 28.0625Z" fill="#484848"/>
</svg>
