<svg width="32" height="32" viewBox="0 0 32 32" fill="none" xmlns="http://www.w3.org/2000/svg">
<path d="M27.2924 0H26.157H5.84313H4.70767C4.44521 0 4.23242 0.212784 4.23242 0.475248C4.23242 0.737711 4.44521 0.950495 4.70767 0.950495H5.36782V25.7026C5.36782 25.9651 5.5806 26.1778 5.84307 26.1778C6.10553 26.1778 6.31831 25.9651 6.31831 25.7026V24.2376H9.00638V31.0495H6.31838V27.6037C6.31838 27.3412 6.10559 27.1285 5.84313 27.1285C5.58067 27.1285 5.36788 27.3412 5.36788 27.6037V31.5248C5.36788 31.7872 5.58067 32 5.84313 32H26.157C26.4195 32 26.6323 31.7872 26.6323 31.5248V0.950495H27.2924C27.5549 0.950495 27.7677 0.737711 27.7677 0.475248C27.7677 0.212784 27.5549 0 27.2924 0ZM22.5184 12.472C22.7809 12.472 22.9937 12.2592 22.9937 11.9967V8.71287H25.6817V15.5248H22.9937V13.8978C22.9937 13.6354 22.7809 13.4226 22.5184 13.4226C22.256 13.4226 22.0432 13.6354 22.0432 13.8978V15.5248H18.5395V8.71287H22.0432V11.9967C22.0432 12.2592 22.256 12.472 22.5184 12.472ZM6.31838 8.71287H9.00644V15.5248H6.31838V8.71287ZM9.95694 8.71287H13.4602V15.5248H9.95694V8.71287ZM14.4106 23.2871V16.4752H17.5891V23.2871H14.4106ZM14.4106 15.5248V8.71287H17.5891V15.5248H14.4106ZM14.4106 7.76238V0.950495H17.5891V7.76238H14.4106ZM13.4601 7.76238H9.95687V0.950495H13.4601V7.76238ZM13.4601 16.4752V23.2871H9.95687V16.4752H13.4601ZM15.5248 24.2376V27.4588H14.5549C14.2925 27.4588 14.0797 27.6716 14.0797 27.934C14.0797 28.1965 14.2925 28.4093 14.5549 28.4093H15.5248V31.0495H12.3464V24.2376H15.5248ZM16.4753 28.4093H17.4451C17.7076 28.4093 17.9204 28.1965 17.9204 27.934C17.9204 27.6716 17.7076 27.4588 17.4451 27.4588H16.4753V24.2376H19.6536V31.0495H16.4753V28.4093ZM20.6041 24.2376H22.0432V31.0495H20.6041V24.2376ZM18.5396 23.2871V16.4752H22.0432V23.2871H18.5396ZM22.9937 16.4752H25.6817V23.2871H22.9937V16.4752ZM18.5396 7.76238V0.950495H22.0432V7.76238H18.5396ZM9.00644 0.950495V7.76238H6.31838V0.950495H9.00644ZM6.31838 23.2871V16.4752H9.00644V23.2871H6.31838ZM9.95694 24.2376H11.396V31.0495H9.95694V24.2376ZM22.9937 31.0495V24.2376H25.6817V31.0495H22.9937ZM25.6817 7.76238H22.9937V0.950495H25.6817V7.76238Z" fill="#484848"/>
</svg>
