<svg width="32" height="32" viewBox="0 0 32 32" fill="none" xmlns="http://www.w3.org/2000/svg">
<path d="M31.9531 9.67251L31.9316 9.53188C31.9277 9.51014 31.9258 9.48841 31.9219 9.46727L29.6777 3.12178V0H2.28513V3.12185L0.078125 9.46675C0.07325 9.49192 0.0703125 9.5171 0.066375 9.54161L0.045875 9.67251C0.015625 9.8995 0 10.1322 0 10.3694C0 12.0661 0.808625 13.541 2 14.295V32H30V14.295C31.1904 13.541 32 12.0661 32 10.3694C32 10.1322 31.9834 9.8995 31.9531 9.67251ZM30.4463 9.36614H25.5479L24.959 4.73166H28.834L30.4463 9.36614ZM3.61912 1.56063H28.3447V3.12185H3.61912V1.56063ZM24.3984 10.9268L24.4707 11.4933L24.0762 12.1078C23.6036 12.8452 22.8809 13.2682 22.0947 13.2682C21.3086 13.2682 20.5859 12.8452 20.1133 12.1078L19.7109 11.4801L19.6875 10.9268H24.3984ZM19.6221 9.36614L19.4277 4.73166H23.6104L24.2003 9.36614H19.6221ZM18.3526 10.9267L18.376 11.4927L17.9805 12.1078C17.5079 12.8452 16.7852 13.2682 16 13.2682C15.2129 13.2682 14.4912 12.8452 14.0176 12.1078L13.6132 11.4761L13.6367 10.9267H18.3526ZM13.7041 9.36614L13.9043 4.73166H18.0938L18.2871 9.36614H13.7041ZM7.80662 9.36614L8.38863 4.73166H12.5702L12.3691 9.36614H7.80662ZM12.3007 10.9268L12.2763 11.499L11.8857 12.1078C11.4121 12.8452 10.6904 13.2682 9.90425 13.2682C9.11812 13.2682 8.39644 12.8452 7.92281 12.1078L7.53806 11.5081L7.61131 10.9268H12.3007ZM3.16506 4.73166H7.04106L6.45906 9.36614H1.55281L3.16506 4.73166ZM1.37888 10.9268H6.26363L6.15912 11.5333L5.79094 12.1079C5.31731 12.8453 4.59562 13.2683 3.8085 13.2683C2.60644 13.2683 1.60156 12.2599 1.37888 10.9268ZM26 30.4405H20.666V24.9754H21.333C21.7012 24.9754 22 24.6267 22 24.1957C22 23.7647 21.7012 23.4159 21.333 23.4159H20.666V17.9508H26V30.4405ZM28.6661 30.4405H28.666H27.333V16.3913H19.333V30.4405H3.333V14.7947C3.48825 14.8175 3.64844 14.8296 3.80856 14.8296C5.05469 14.8296 6.16206 14.1287 6.85644 13.0454C7.55175 14.1287 8.65819 14.8296 9.90431 14.8296C11.1504 14.8296 12.2569 14.1287 12.9522 13.0454C13.6465 14.1287 14.7539 14.8296 16.0001 14.8296C17.2462 14.8296 18.3516 14.1287 19.0469 13.0454C19.7423 14.1287 20.8487 14.8296 22.0948 14.8296C23.3409 14.8296 24.4474 14.1287 25.1427 13.0454C25.838 14.1287 26.9434 14.8296 28.1896 14.8296C28.3517 14.8296 28.5099 14.8176 28.6661 14.7947V30.4405ZM28.1894 13.2683C27.4043 13.2683 26.6816 12.8453 26.2089 12.1079L25.8213 11.5054L25.7461 10.9268H30.6191C30.3965 12.2599 29.3926 13.2683 28.1894 13.2683Z" fill="black"/>
</svg>
