<svg width="32" height="32" viewBox="0 0 32 32" fill="none" xmlns="http://www.w3.org/2000/svg">
<path d="M31.1609 12.8608L29.8211 13.349V5.96486L31.5888 5.32074C31.9131 5.20256 32.0802 4.84387 31.962 4.51956C31.8439 4.19525 31.4852 4.02819 31.1609 4.14632C29.3569 4.80369 1.83983 14.8301 0.411159 15.3506C0.0869117 15.4688 -0.0802117 15.8275 0.0379122 16.1518C0.155224 16.4739 0.512595 16.644 0.839092 16.5251L2.1787 16.037V23.4211L0.411159 24.0652C0.164411 24.1551 0.000162562 24.3897 0.000162562 24.6524V27.2668C0.000162562 27.612 0.279972 27.8918 0.625157 27.8918H31.3749C31.72 27.8918 31.9998 27.612 31.9998 27.2668V13.448C31.9998 13.014 31.5679 12.7127 31.1609 12.8608ZM28.5711 13.8045L25.9619 14.7552V7.37104L28.5711 6.4203V13.8045ZM11.0227 20.1986V12.8145L13.5076 11.9091V19.2932L11.0227 20.1986ZM7.28803 21.5595V14.1753L9.77275 13.27V20.6541L7.28803 21.5595ZM14.7576 11.4536L17.2424 10.5482V17.9323L14.7576 18.8377V11.4536ZM18.4924 10.0928L20.9771 9.18739V16.5715L18.4924 17.4769V10.0928ZM22.2271 8.7319L24.7119 7.82647V15.2106L22.2271 16.116V8.7319ZM3.42869 15.5816L6.03804 14.6308V22.0149L3.42869 22.9657V15.5816ZM30.7498 26.6418H1.25009V25.0899C2.77089 24.5357 24.9386 16.4584 30.7498 14.341V26.6418Z" fill="#484848"/>
</svg>
