<svg width="32" height="32" viewBox="0 0 32 32" fill="none" xmlns="http://www.w3.org/2000/svg">
<g clip-path="url(#clip0_3295_18350)">
<path d="M6.5 24.5H5.5V12H26.5V21H25.5V13H6.5V24.5Z" fill="black"/>
<path d="M26.5 17H5.5V12H26.5V17ZM6.5 16H25.5V13H6.5V16Z" fill="black"/>
<path d="M5.5 14H26.5V15H5.5V14Z" fill="black"/>
<path d="M24.5 11H7.5V7H24.5V11ZM8.5 10H23.5V8H8.5V10Z" fill="black"/>
<path d="M0.5 30.5H31.5V31.5H0.5V30.5Z" fill="black"/>
<path d="M11.5 31.5H3.5V23.5H11.5V31.5ZM4.5 30.5H10.5V24.5H4.5V30.5Z" fill="black"/>
<path d="M9 29H9.5V29.5H9V29Z" fill="black"/>
<path d="M8 29H8.5V29.5H8V29Z" fill="black"/>
<path d="M28 31.5C27.6044 31.5 27.2178 31.3827 26.8889 31.1629C26.56 30.9432 26.3036 30.6308 26.1522 30.2654C26.0009 29.8999 25.9613 29.4978 26.0384 29.1098C26.1156 28.7219 26.3061 28.3655 26.5858 28.0858C26.8655 27.8061 27.2219 27.6156 27.6098 27.5384C27.9978 27.4613 28.3999 27.5009 28.7654 27.6522C29.1308 27.8036 29.4432 28.06 29.6629 28.3889C29.8827 28.7178 30 29.1044 30 29.5C30 30.0304 29.7893 30.5391 29.4142 30.9142C29.0391 31.2893 28.5304 31.5 28 31.5ZM28 28.5C27.8022 28.5 27.6089 28.5586 27.4444 28.6685C27.28 28.7784 27.1518 28.9346 27.0761 29.1173C27.0004 29.3 26.9806 29.5011 27.0192 29.6951C27.0578 29.8891 27.153 30.0673 27.2929 30.2071C27.4327 30.347 27.6109 30.4422 27.8049 30.4808C27.9989 30.5194 28.2 30.4996 28.3827 30.4239C28.5654 30.3482 28.7216 30.22 28.8315 30.0556C28.9414 29.8911 29 29.6978 29 29.5C29 29.2348 28.8946 28.9804 28.7071 28.7929C28.5196 28.6054 28.2652 28.5 28 28.5Z" fill="black"/>
<path d="M18.5 31.5C18.1044 31.5 17.7178 31.3827 17.3889 31.1629C17.06 30.9432 16.8036 30.6308 16.6522 30.2654C16.5009 29.8999 16.4613 29.4978 16.5384 29.1098C16.6156 28.7219 16.8061 28.3655 17.0858 28.0858C17.3655 27.8061 17.7219 27.6156 18.1098 27.5384C18.4978 27.4613 18.8999 27.5009 19.2654 27.6522C19.6308 27.8036 19.9432 28.06 20.1629 28.3889C20.3827 28.7178 20.5 29.1044 20.5 29.5C20.5 30.0304 20.2893 30.5391 19.9142 30.9142C19.5391 31.2893 19.0304 31.5 18.5 31.5ZM18.5 28.5C18.3022 28.5 18.1089 28.5586 17.9444 28.6685C17.78 28.7784 17.6518 28.9346 17.5761 29.1173C17.5004 29.3 17.4806 29.5011 17.5192 29.6951C17.5578 29.8891 17.653 30.0673 17.7929 30.2071C17.9327 30.347 18.1109 30.4422 18.3049 30.4808C18.4989 30.5194 18.7 30.4996 18.8827 30.4239C19.0654 30.3482 19.2216 30.22 19.3315 30.0556C19.4414 29.8911 19.5 29.6978 19.5 29.5C19.5 29.2348 19.3946 28.9804 19.2071 28.7929C19.0196 28.6054 18.7652 28.5 18.5 28.5Z" fill="black"/>
<path d="M24.5 26.5H16.5V18.5H24.5V26.5ZM17.5 25.5H23.5V19.5H17.5V25.5Z" fill="black"/>
<path d="M22 24H22.5V24.5H22V24Z" fill="black"/>
<path d="M21 24H21.5V24.5H21V24Z" fill="black"/>
<path d="M9 27H6V23.5H9V27ZM7 26H8V24.5H7V26Z" fill="black"/>
<path d="M22 22H19V18.5H22V22ZM20 21H21V19.5H20V21Z" fill="black"/>
<path d="M30.315 26H27C26.8674 26 26.7402 25.9473 26.6464 25.8536C26.5527 25.7598 26.5 25.6326 26.5 25.5V23.5C26.5 23.3674 26.5527 23.2402 26.6464 23.1464C26.7402 23.0527 26.8674 23 27 23H29.565C29.6668 22.9999 29.7662 23.0309 29.8499 23.0888C29.9336 23.1467 29.9977 23.2287 30.0335 23.324L30.7835 25.324C30.812 25.3997 30.8216 25.4812 30.8117 25.5614C30.8018 25.6417 30.7725 25.7183 30.7265 25.7848C30.6804 25.8513 30.6189 25.9056 30.5472 25.9431C30.4756 25.9805 30.3959 26.0001 30.315 26ZM27.5 25H29.5935L29.2185 24H27.5V25Z" fill="black"/>
<path d="M31 30H29.5V29H30V26.091L28.6535 22.5H26V26.5H16V29H17V30H15V25.5H25V21.5H29.3465L31 25.909V30Z" fill="black"/>
<path d="M20 29H26.5V30H20V29Z" fill="black"/>
<path d="M18.5 30C18.7761 30 19 29.7761 19 29.5C19 29.2239 18.7761 29 18.5 29C18.2239 29 18 29.2239 18 29.5C18 29.7761 18.2239 30 18.5 30Z" fill="black"/>
<path d="M28 30C28.2761 30 28.5 29.7761 28.5 29.5C28.5 29.2239 28.2761 29 28 29C27.7239 29 27.5 29.2239 27.5 29.5C27.5 29.7761 27.7239 30 28 30Z" fill="black"/>
<path d="M28.5 20.9994V7.80839L15.996 1.55639L3 7.81339V30.9994C3 31.132 2.94732 31.2592 2.85355 31.3529C2.75979 31.4467 2.63261 31.4994 2.5 31.4994C2.36739 31.4994 2.24021 31.4467 2.14645 31.3529C2.05268 31.2592 2 31.132 2 30.9994V7.49939C2.00009 7.40536 2.02668 7.31326 2.07674 7.23367C2.1268 7.15407 2.19829 7.0902 2.283 7.04939L15.783 0.549391C15.8518 0.516299 15.9273 0.499409 16.0037 0.500016C16.08 0.500622 16.1552 0.51871 16.2235 0.552891L29.2235 7.05289C29.3065 7.09435 29.3763 7.15806 29.4251 7.23692C29.4739 7.31577 29.4999 7.40665 29.5 7.49939V20.9994H28.5Z" fill="black"/>
</g>
<defs>
<clipPath id="clip0_3295_18350">
<rect width="32" height="32" fill="white"/>
</clipPath>
</defs>
</svg>
