<svg width="26" height="24" viewBox="0 0 26 24" fill="none" xmlns="http://www.w3.org/2000/svg">
<path d="M22.4708 4.70482H23.2154C23.3152 5.15459 23.7374 5.45686 24.1954 5.40674C24.6533 5.35642 24.9999 4.96959 24.9999 4.50892C24.9999 4.04824 24.6533 3.6616 24.1954 3.61129C23.7374 3.56097 23.3152 3.86344 23.2154 4.31302H22.6667V3.03965C22.6667 2.93156 22.5791 2.84375 22.4708 2.84375H1.1959C1.08762 2.84375 1 2.93156 1 3.03965V4.50892C1 4.6172 1.08762 4.70482 1.1959 4.70482H2.33018V5.19859H1.61124C1.50296 5.19859 1.41534 5.28621 1.41534 5.39449C1.41534 5.50258 1.50296 5.5904 1.61124 5.5904H2.33018V6.0174H1.61124C1.50296 6.0174 1.41534 6.10502 1.41534 6.2133C1.41534 6.32158 1.50296 6.4092 1.61124 6.4092H2.33018V6.94411H1.51329C1.22957 6.94507 1 7.1754 1 7.45931V20.6727C1 20.9567 1.22957 21.187 1.51329 21.1881H3.53697C3.65883 21.1876 3.7763 21.143 3.86794 21.0626C3.96589 21.1426 4.08833 21.187 4.21478 21.1881H6.1541C6.28075 21.1872 6.40318 21.143 6.50094 21.0626C6.59296 21.1424 6.71024 21.1868 6.83191 21.1881H8.85559C8.97746 21.1876 9.09511 21.143 9.18675 21.0626C9.2847 21.1426 9.40695 21.187 9.53341 21.1881H11.4729C11.5994 21.1872 11.7218 21.143 11.8198 21.0626C11.9116 21.1424 12.0291 21.1868 12.1507 21.1881H14.1744C14.2963 21.1876 14.4139 21.143 14.5056 21.0626C14.6035 21.1426 14.7258 21.187 14.8522 21.1881H16.7917C16.9182 21.1872 17.0406 21.143 17.1384 21.0626C17.2304 21.1424 17.3477 21.1868 17.4695 21.1881H19.4932C19.6151 21.1876 19.7326 21.143 19.8242 21.0626C19.9221 21.1426 20.0446 21.187 20.171 21.1881H22.1104C22.4176 21.1881 22.6667 20.9391 22.6667 20.6316V19.47H23.2154C23.3152 19.9197 23.7374 20.222 24.1954 20.1719C24.6533 20.1216 24.9999 19.7348 24.9999 19.2741C24.9999 18.8134 24.6533 18.4266 24.1954 18.3764C23.7374 18.3261 23.3152 18.6286 23.2154 19.0782H22.6667V7.5102C22.6667 7.20295 22.4176 6.95387 22.1104 6.95387H21.3267V6.4092H22.0457C22.154 6.4092 22.2416 6.32158 22.2416 6.2133C22.2416 6.10502 22.154 6.0174 22.0457 6.0174H21.3267V5.5904H22.0457C22.154 5.5904 22.2416 5.50258 22.2416 5.39449C22.2416 5.28621 22.154 5.19859 22.0457 5.19859H21.3267V4.70482H22.4708ZM24.0948 3.99774C24.3018 3.99678 24.4889 4.12094 24.5687 4.31187C24.6485 4.50299 24.6052 4.72318 24.4591 4.86973C24.3131 5.01646 24.0929 5.06047 23.9016 4.98145C23.7103 4.90244 23.5856 4.71592 23.5856 4.50892C23.5856 4.22731 23.8132 3.99869 24.0948 3.99774ZM24.0948 18.7627C24.3018 18.7619 24.4889 18.8861 24.5687 19.077C24.6485 19.2681 24.6052 19.4883 24.4591 19.6349C24.3131 19.7816 24.0929 19.8256 23.9016 19.7466C23.7103 19.6676 23.5856 19.4811 23.5856 19.2741C23.5856 18.9925 23.8132 18.7639 24.0948 18.7627ZM17.3481 3.23555H19.6166V4.31302H17.3481V3.23555ZM14.6877 3.23555H16.9563V4.31302H14.6877V3.23555ZM12.0292 3.23555H14.2959V4.31302H12.0292V3.23555ZM9.37098 3.23555H11.6374V4.31302H9.37098V3.23555ZM6.71062 3.23555H8.97918V4.31302H6.71062V3.23555ZM4.05217 3.23555H6.31882V4.31302H4.05217V3.23555ZM1.3918 4.31302V3.23555H3.66036V4.31302H1.3918ZM3.66036 20.6727C3.66036 20.741 3.60508 20.7963 3.53697 20.7963H1.51329C1.44594 20.7952 1.3918 20.7403 1.3918 20.6727V7.45931C1.3918 7.39178 1.44594 7.33687 1.51329 7.33591H3.53697C3.60508 7.33591 3.66036 7.39101 3.66036 7.45931V20.6727ZM3.86794 7.06942C3.7763 6.98907 3.65883 6.94449 3.53697 6.94411H2.72199V6.4092H3.43902C3.54711 6.4092 3.63492 6.32158 3.63492 6.2133C3.63492 6.10502 3.54711 6.0174 3.43902 6.0174H2.72199V5.5904H3.43902C3.54711 5.5904 3.63492 5.50258 3.63492 5.39449C3.63492 5.28621 3.54711 5.19859 3.43902 5.19859H2.72199V4.70482H4.98863V5.19859H4.2716C4.16332 5.19859 4.0757 5.28621 4.0757 5.39449C4.0757 5.50258 4.16332 5.5904 4.2716 5.5904H4.98863V6.0174H4.2716C4.16332 6.0174 4.0757 6.10502 4.0757 6.2133C4.0757 6.32158 4.16332 6.4092 4.2716 6.4092H4.98863V6.94411H4.21478C4.08833 6.94526 3.96589 6.98945 3.86794 7.06942ZM6.31882 20.6356C6.31882 20.7265 6.24497 20.8002 6.1541 20.8002H4.21478C4.12468 20.799 4.05217 20.7257 4.05217 20.6356V7.5102C4.05217 7.42009 4.12468 7.34663 4.21478 7.34567H6.1541C6.24497 7.34567 6.31882 7.41932 6.31882 7.5102V20.6356ZM6.1541 6.94794H5.38044V6.4092H6.09938C6.20747 6.4092 6.29528 6.32158 6.29528 6.2133C6.29528 6.10502 6.20747 6.0174 6.09938 6.0174H5.38044V5.5904H6.09938C6.20747 5.5904 6.29528 5.50258 6.29528 5.39449C6.29528 5.28621 6.20747 5.19859 6.09938 5.19859H5.38044V4.70482H7.649V5.19859H6.92604C6.81775 5.19859 6.73013 5.28621 6.73013 5.39449C6.73013 5.50258 6.81775 5.5904 6.92604 5.5904H7.64498V6.0174H6.92604C6.81775 6.0174 6.73013 6.10502 6.73013 6.2133C6.73013 6.32158 6.81775 6.4092 6.92604 6.4092H7.64498V6.94411H6.83191C6.71024 6.94526 6.59296 6.98964 6.50094 7.06942C6.40318 6.98907 6.28075 6.94487 6.1541 6.94411V6.94794ZM8.97918 20.6768C8.97918 20.7449 8.92389 20.8002 8.85559 20.8002H6.83191C6.76457 20.799 6.71062 20.7441 6.71062 20.6768V7.45931C6.71062 7.39178 6.76457 7.33687 6.83191 7.33591H8.85559C8.92389 7.33591 8.97918 7.39101 8.97918 7.45931V20.6768ZM8.85559 6.94794H8.0408V6.4092H8.75764C8.86592 6.4092 8.95355 6.32158 8.95355 6.2133C8.95355 6.10502 8.86592 6.0174 8.75764 6.0174H8.0408V5.5904H8.75764C8.86592 5.5904 8.95355 5.50258 8.95355 5.39449C8.95355 5.28621 8.86592 5.19859 8.75764 5.19859H8.0408V4.70482H10.3073V5.19859H9.59023C9.48214 5.19859 9.39432 5.28621 9.39432 5.39449C9.39432 5.50258 9.48214 5.5904 9.59023 5.5904H10.3073V6.0174H9.59023C9.48214 6.0174 9.39432 6.10502 9.39432 6.2133C9.39432 6.32158 9.48214 6.4092 9.59023 6.4092H10.3073V6.94411H9.53341C9.40695 6.94526 9.2847 6.98945 9.18675 7.06942C9.09511 6.98907 8.97746 6.94449 8.85559 6.94411V6.94794ZM11.6374 20.6356C11.6374 20.7265 11.5638 20.8002 11.4729 20.8002H9.53341C9.4433 20.799 9.37079 20.7257 9.37098 20.6356V7.5102C9.37079 7.42009 9.4433 7.34663 9.53341 7.34567H11.4729C11.5638 7.34567 11.6374 7.41932 11.6374 7.5102V20.6356ZM11.4729 6.94794H10.6893V6.4092H11.4083C11.5165 6.4092 11.6042 6.32158 11.6042 6.2133C11.6042 6.10502 11.5165 6.0174 11.4083 6.0174H10.6991V5.5904H11.418C11.5263 5.5904 11.6139 5.50258 11.6139 5.39449C11.6139 5.28621 11.5263 5.19859 11.418 5.19859H10.6991V4.70482H12.9676V5.19859H12.2487C12.1406 5.19859 12.0528 5.28621 12.0528 5.39449C12.0528 5.50258 12.1406 5.5904 12.2487 5.5904H12.9676V6.0174H12.2487C12.1406 6.0174 12.0528 6.10502 12.0528 6.2133C12.0528 6.32158 12.1406 6.4092 12.2487 6.4092H12.9676V6.94411H12.1507C12.0291 6.94526 11.9116 6.98964 11.8198 7.06942C11.722 6.98888 11.5996 6.94449 11.4729 6.94411V6.94794ZM14.2959 20.6768C14.2965 20.7093 14.2838 20.7407 14.2611 20.764C14.2381 20.7872 14.2069 20.8002 14.1744 20.8002H12.1507C12.0834 20.799 12.0292 20.7441 12.0292 20.6768V7.45931C12.0292 7.39178 12.0834 7.33687 12.1507 7.33591H14.1744C14.2069 7.33591 14.2381 7.34892 14.2611 7.37207C14.2838 7.39522 14.2965 7.42679 14.2959 7.45931V20.6768ZM14.5056 7.07324C14.4145 6.99155 14.2968 6.94564 14.1744 6.94411H13.3594V6.4092H14.0765C14.1847 6.4092 14.2724 6.32158 14.2724 6.2133C14.2724 6.10502 14.1847 6.0174 14.0765 6.0174H13.3594V5.5904H14.0765C14.1847 5.5904 14.2724 5.50258 14.2724 5.39449C14.2724 5.28621 14.1847 5.19859 14.0765 5.19859H13.3594V4.70482H15.6261V5.19859H14.909C14.8008 5.19859 14.7131 5.28621 14.7131 5.39449C14.7131 5.50258 14.8008 5.5904 14.909 5.5904H15.6261V6.0174H14.909C14.8008 6.0174 14.7131 6.10502 14.7131 6.2133C14.7131 6.32158 14.8008 6.4092 14.909 6.4092H15.6261V6.94411H14.8425C14.7193 6.94736 14.6008 6.99155 14.5056 7.06942V7.07324ZM16.9563 20.6356C16.9563 20.7265 16.8826 20.8002 16.7917 20.8002H14.8522C14.7617 20.7992 14.6887 20.7261 14.6877 20.6356V7.5102C14.6887 7.41971 14.7617 7.34663 14.8522 7.34567H16.7917C16.8826 7.34567 16.9563 7.41932 16.9563 7.5102V20.6356ZM16.7917 6.94794H16.0081V6.4092H16.7271C16.8352 6.4092 16.923 6.32158 16.923 6.2133C16.923 6.10502 16.8352 6.0174 16.7271 6.0174H16.0179V5.5904H16.7368C16.8449 5.5904 16.9327 5.50258 16.9327 5.39449C16.9327 5.28621 16.8449 5.19859 16.7368 5.19859H16.0179V4.70482H18.2884V5.19859H17.5675C17.4592 5.19859 17.3716 5.28621 17.3716 5.39449C17.3716 5.50258 17.4592 5.5904 17.5675 5.5904H18.2884V6.0174H17.5675C17.4592 6.0174 17.3716 6.10502 17.3716 6.2133C17.3716 6.32158 17.4592 6.4092 17.5675 6.4092H18.2884V6.94411H17.4695C17.3477 6.94526 17.2304 6.98964 17.1384 7.06942C17.0406 6.98907 16.9182 6.94487 16.7917 6.94411V6.94794ZM19.6166 20.6768C19.6166 20.7449 19.5613 20.8002 19.4932 20.8002H17.4695C17.402 20.799 17.3481 20.7441 17.3481 20.6768V7.45931C17.3481 7.39178 17.402 7.33687 17.4695 7.33591H19.4932C19.5613 7.33591 19.6166 7.39101 19.6166 7.45931V20.6768ZM19.8242 7.07324C19.7326 6.99289 19.6151 6.94851 19.4932 6.94794H18.6802V6.4092H19.3972C19.5053 6.4092 19.5931 6.32158 19.5931 6.2133C19.5931 6.10502 19.5053 6.0174 19.3972 6.0174H18.6802V5.5904H19.3972C19.5053 5.5904 19.5931 5.50258 19.5931 5.39449C19.5931 5.28621 19.5053 5.19859 19.3972 5.19859H18.6802V4.70482H20.9468V5.19859H20.2279C20.1196 5.19859 20.032 5.28621 20.032 5.39449C20.032 5.50258 20.1196 5.5904 20.2279 5.5904H20.9447V6.0174H20.2279C20.1196 6.0174 20.032 6.10502 20.032 6.2133C20.032 6.32158 20.1196 6.4092 20.2279 6.4092H20.9447V6.94411H20.1611C20.0381 6.94736 19.9197 6.99155 19.8242 7.06942V7.07324ZM22.1104 7.33974C22.2012 7.33974 22.2749 7.41339 22.2749 7.50427V20.6297C22.2749 20.7206 22.2012 20.7942 22.1104 20.7942H20.171C20.0809 20.7933 20.0084 20.7198 20.0084 20.6297V7.5102C20.0084 7.42009 20.0809 7.34663 20.171 7.34567L22.1104 7.33974ZM20.0084 4.31302V3.23555H22.2749V4.31302H20.0084Z" fill="#484848" stroke="#484848" stroke-width="0.3"/>
</svg>
