<svg width="32" height="32" viewBox="0 0 32 32" fill="none" xmlns="http://www.w3.org/2000/svg">
<path d="M28 0.5H4C3.86739 0.5 3.74021 0.552678 3.64645 0.646447C3.55268 0.740215 3.5 0.867392 3.5 1V31C3.5 31.1326 3.55268 31.2598 3.64645 31.3536C3.74021 31.4473 3.86739 31.5 4 31.5H28C28.1326 31.5 28.2598 31.4473 28.3536 31.3536C28.4473 31.2598 28.5 31.1326 28.5 31V1C28.5 0.867392 28.4473 0.740215 28.3536 0.646447C28.2598 0.552678 28.1326 0.5 28 0.5ZM7.5 12.5V1.5H9.5V12.5H7.5ZM10.5 13.5V14.5H6.5V13.5H10.5ZM10.5 15.5V18.5H6.5V15.5H10.5ZM9.5 19.5V30.5H7.5V19.5H9.5ZM10.5 19.5H11C11.1326 19.5 11.2598 19.4473 11.3536 19.3536C11.4473 19.2598 11.5 19.1326 11.5 19V13C11.5 12.8674 11.4473 12.7402 11.3536 12.6464C11.2598 12.5527 11.1326 12.5 11 12.5H10.5V1.5H12.5V30.5H10.5V19.5ZM19.5 2.5V1.5H21.5V2.5H19.5ZM18.5 2.5H16.5V1.5H18.5V2.5ZM15.5 2.5H13.5V1.5H15.5V2.5ZM15.5 17V15H16.5V17H15.5ZM15.5 14H15C14.8674 14 14.7402 14.0527 14.6464 14.1464C14.5527 14.2402 14.5 14.3674 14.5 14.5V17.5C14.5 17.6326 14.5527 17.7598 14.6464 17.8536C14.7402 17.9473 14.8674 18 15 18H15.5V18.5H13.5V13.5H15.5V14ZM13.5 29.5H15.5V30.5H13.5V29.5ZM16.5 29.5H18.5V30.5H16.5V29.5ZM19.5 29.5H21.5V30.5H19.5V29.5ZM22.5 29.5H24.5V30.5H22.5V29.5ZM13.5 28.5V23.5H25.5V28.5H13.5ZM25.5 22.5H13.5V21.5H25.5V22.5ZM13.5 20.5V19.5H16C16.1326 19.5 16.2598 19.4473 16.3536 19.3536C16.4473 19.2598 16.5 19.1326 16.5 19V18H17C17.1326 18 17.2598 17.9473 17.3536 17.8536C17.4473 17.7598 17.5 17.6326 17.5 17.5V14.5C17.5 14.3674 17.4473 14.2402 17.3536 14.1464C17.2598 14.0527 17.1326 14 17 14H16.5V13C16.5 12.8674 16.4473 12.7402 16.3536 12.6464C16.2598 12.5527 16.1326 12.5 16 12.5H13.5V3.5H25.5V20.5H13.5ZM22.5 2.5V1.5H24.5V2.5H22.5ZM4.5 1.5H6.5V12.5H6C5.86739 12.5 5.74021 12.5527 5.64645 12.6464C5.55268 12.7402 5.5 12.8674 5.5 13V19C5.5 19.1326 5.55268 19.2598 5.64645 19.3536C5.74021 19.4473 5.86739 19.5 6 19.5H6.5V30.5H4.5V1.5ZM27.5 30.5H25.5V29.5H26C26.1326 29.5 26.2598 29.4473 26.3536 29.3536C26.4473 29.2598 26.5 29.1326 26.5 29V3C26.5 2.86739 26.4473 2.74021 26.3536 2.64645C26.2598 2.55268 26.1326 2.5 26 2.5H25.5V1.5H27.5V30.5Z" fill="#484848"/>
<path d="M17 7.79269V7.61769C16.9995 7.37486 17.067 7.13673 17.1949 6.9303C17.3227 6.72387 17.5059 6.55737 17.7235 6.44969L17.2765 5.55469C16.8924 5.74516 16.5693 6.03934 16.3437 6.40392C16.1181 6.76851 15.9991 7.18895 16 7.61769V7.79269C15.9992 8.08264 16.0559 8.36987 16.1668 8.63774C16.2778 8.90561 16.4409 9.1488 16.6465 9.35319C16.872 9.58011 16.999 9.88676 17 10.2067V10.3817C17.001 10.6249 16.9337 10.8636 16.8058 11.0705C16.6779 11.2774 16.4945 11.4443 16.2765 11.5522L16.7235 12.4472C17.108 12.2565 17.4314 11.962 17.657 11.5969C17.8826 11.2318 18.0014 10.8108 18 10.3817V10.2067C18.0009 9.91674 17.9442 9.6295 17.8332 9.36163C17.7222 9.09376 17.5592 8.85058 17.3535 8.64619C17.128 8.41927 17.001 8.11261 17 7.79269Z" fill="black"/>
<path d="M19.5 6.79269V6.61769C19.4995 6.37486 19.567 6.13673 19.6949 5.9303C19.8227 5.72387 20.0059 5.55737 20.2235 5.44969L19.7765 4.55469C19.3924 4.74516 19.0693 5.03934 18.8437 5.40392C18.6181 5.76851 18.4991 6.18895 18.5 6.61769V6.79269C18.4992 7.08264 18.5559 7.36987 18.6668 7.63774C18.7778 7.90561 18.9409 8.1488 19.1465 8.35319C19.372 8.58011 19.499 8.88676 19.5 9.20669V9.38169C19.501 9.62494 19.4337 9.86359 19.3058 10.0705C19.1779 10.2774 18.9945 10.4443 18.7765 10.5522L19.2235 11.4472C19.608 11.2565 19.9314 10.962 20.157 10.5969C20.3826 10.2318 20.5014 9.81085 20.5 9.38169V9.20669C20.5009 8.91674 20.4442 8.6295 20.3332 8.36163C20.2222 8.09376 20.0592 7.85058 19.8535 7.64619C19.628 7.41927 19.501 7.11261 19.5 6.79269Z" fill="black"/>
<path d="M22.3535 8.64619C22.128 8.41927 22.001 8.11261 22 7.79269V7.61769C21.9995 7.37486 22.067 7.13673 22.1949 6.9303C22.3227 6.72387 22.5059 6.55737 22.7235 6.44969L22.2765 5.55469C21.8924 5.74516 21.5693 6.03934 21.3437 6.40392C21.1181 6.76851 20.9991 7.18895 21 7.61769V7.79269C20.9992 8.08264 21.0559 8.36987 21.1668 8.63774C21.2778 8.90561 21.4409 9.1488 21.6465 9.35319C21.872 9.58011 21.999 9.88676 22 10.2067V10.3817C22.001 10.6249 21.9337 10.8636 21.8058 11.0705C21.6779 11.2774 21.4945 11.4443 21.2765 11.5522L21.7235 12.4472C22.108 12.2565 22.4314 11.962 22.657 11.5969C22.8826 11.2318 23.0014 10.8108 23 10.3817V10.2067C23.0009 9.91674 22.9442 9.6295 22.8332 9.36163C22.7222 9.09376 22.5592 8.85058 22.3535 8.64619Z" fill="black"/>
</svg>
