<svg width="24" height="24" viewBox="0 0 24 24" fill="none" xmlns="http://www.w3.org/2000/svg">
<path d="M16.125 21.0002H15.75V10.3652L17.0486 11.1902C17.1052 11.2262 17.1704 11.2464 17.2375 11.2486C17.3045 11.2508 17.371 11.2351 17.4298 11.2029C17.4887 11.1707 17.5379 11.1233 17.5722 11.0657C17.6065 11.008 17.6248 10.9422 17.625 10.8752V9.37516C17.625 9.31205 17.6091 9.24996 17.5788 9.19464C17.5484 9.13931 17.5046 9.09254 17.4514 9.05866L9.20138 3.80866C9.1412 3.77035 9.07134 3.75 9 3.75C8.92866 3.75 8.8588 3.77035 8.79862 3.80866L0.548625 9.05866C0.495393 9.09254 0.451572 9.13931 0.421222 9.19464C0.390872 9.24996 0.374974 9.31205 0.375 9.37516V10.8752C0.374972 10.9424 0.393011 11.0084 0.427228 11.0662C0.461446 11.1241 0.510585 11.1717 0.569502 11.204C0.62842 11.2364 0.69495 11.2523 0.762131 11.2501C0.829311 11.2479 0.894673 11.2278 0.951375 11.1917L2.25 10.3652V21.0002H1.875C1.57663 21.0002 1.29048 21.1187 1.0795 21.3297C0.868527 21.5406 0.75 21.8268 0.75 22.1252C0.75 22.4235 0.868527 22.7097 1.0795 22.9206C1.29048 23.1316 1.57663 23.2502 1.875 23.2502H16.125C16.4234 23.2502 16.7095 23.1316 16.9205 22.9206C17.1315 22.7097 17.25 22.4235 17.25 22.1252C17.25 21.8268 17.1315 21.5406 16.9205 21.3297C16.7095 21.1187 16.4234 21.0002 16.125 21.0002ZM1.125 9.58103L9 4.56991L16.875 9.58103V10.1923L9.20138 5.30866C9.1412 5.27035 9.07134 5.25 9 5.25C8.92866 5.25 8.8588 5.27035 8.79862 5.30866L1.125 10.1923V9.58103ZM3 9.88778L9 6.06991L15 9.88778V21.0002H11.625V14.6252C11.625 14.5257 11.5855 14.4303 11.5152 14.36C11.4448 14.2897 11.3495 14.2502 11.25 14.2502H6.75C6.65054 14.2502 6.55516 14.2897 6.48483 14.36C6.41451 14.4303 6.375 14.5257 6.375 14.6252V21.0002H3V9.88778ZM10.875 21.0002H7.125V15.0002H10.875V21.0002ZM16.125 22.5002H1.875C1.77554 22.5002 1.68016 22.4606 1.60984 22.3903C1.53951 22.32 1.5 22.2246 1.5 22.1252C1.5 22.0257 1.53951 21.9303 1.60984 21.86C1.68016 21.7897 1.77554 21.7502 1.875 21.7502H16.125C16.2245 21.7502 16.3198 21.7897 16.3902 21.86C16.4605 21.9303 16.5 22.0257 16.5 22.1252C16.5 22.2246 16.4605 22.32 16.3902 22.3903C16.3198 22.4606 16.2245 22.5002 16.125 22.5002Z" fill="#484848"/>
<path d="M22.125 12H18.375C18.0766 12 17.7905 12.1185 17.5795 12.3295C17.3685 12.5405 17.25 12.8266 17.25 13.125V19.125C17.25 19.4234 17.3685 19.7095 17.5795 19.9205C17.7905 20.1315 18.0766 20.25 18.375 20.25H22.125C22.4234 20.25 22.7095 20.1315 22.9205 19.9205C23.1315 19.7095 23.25 19.4234 23.25 19.125V13.125C23.25 12.8266 23.1315 12.5405 22.9205 12.3295C22.7095 12.1185 22.4234 12 22.125 12ZM18.375 12.75H22.125C22.2245 12.75 22.3198 12.7895 22.3902 12.8598C22.4605 12.9302 22.5 13.0255 22.5 13.125V16.875H18V13.125C18 13.0255 18.0395 12.9302 18.1098 12.8598C18.1802 12.7895 18.2755 12.75 18.375 12.75ZM22.125 19.5H18.375C18.2755 19.5 18.1802 19.4605 18.1098 19.3902C18.0395 19.3198 18 19.2245 18 19.125V17.625H22.5V19.125C22.5 19.2245 22.4605 19.3198 22.3902 19.3902C22.3198 19.4605 22.2245 19.5 22.125 19.5Z" fill="#484848"/>
<path d="M16.5007 1.4997C17.1412 1.49866 17.7755 1.62433 18.3672 1.86948C18.8429 2.06652 19.2834 2.33764 19.6727 2.67206C19.8302 2.80732 20.0675 2.80852 20.214 2.66141C20.3598 2.51492 20.3604 2.27691 20.2048 2.14077C19.1827 1.24634 17.8673 0.749023 16.5007 0.749023C15.1341 0.749023 13.8187 1.24634 12.7966 2.14077C12.641 2.27691 12.6415 2.51492 12.7874 2.66141C12.9339 2.80852 13.1711 2.80732 13.3286 2.67206C13.718 2.33764 14.1585 2.06652 14.6341 1.86948C15.2258 1.62433 15.8602 1.49866 16.5007 1.4997Z" fill="#484848"/>
<path d="M16.4984 2.25001C15.9565 2.24867 15.4198 2.3548 14.9192 2.56226C14.5341 2.72184 14.1763 2.93894 13.8578 3.20554C13.6991 3.33837 13.7005 3.57706 13.8468 3.72341C13.9934 3.87003 14.23 3.86814 14.392 3.73872C14.9872 3.26327 15.7293 3.00073 16.4984 3.00073C17.2675 3.00073 18.0096 3.26327 18.6048 3.73872C18.7668 3.86814 19.0034 3.87003 19.15 3.72341C19.2964 3.57706 19.2977 3.33837 19.139 3.20554C18.8205 2.93894 18.4627 2.72184 18.0776 2.56226C17.577 2.3548 17.0403 2.24867 16.4984 2.25001Z" fill="#484848"/>
<path d="M18.09 4.78572C18.2374 4.6396 18.2395 4.39906 18.0735 4.27449C17.8989 4.14348 17.7083 4.0345 17.5058 3.95041C17.1872 3.8181 16.8457 3.75 16.5008 3.75C16.1559 3.75 15.8143 3.8181 15.4958 3.95041C15.2933 4.0345 15.1027 4.14348 14.9281 4.27449C14.7621 4.39906 14.7642 4.6396 14.9115 4.78572C15.0583 4.93125 15.2936 4.92681 15.4658 4.81244C15.566 4.74589 15.6726 4.68899 15.7842 4.64268C16.0114 4.54849 16.2549 4.5 16.5008 4.5C16.7467 4.5 16.9902 4.54849 17.2173 4.64268C17.329 4.68899 17.4356 4.74589 17.5358 4.81244C17.7079 4.92681 17.9432 4.93125 18.09 4.78572Z" fill="#484848"/>
<path d="M16 5.49902C16 5.59791 16.0293 5.69458 16.0843 5.77681C16.1392 5.85903 16.2173 5.92312 16.3087 5.96096C16.4 5.99881 16.5006 6.00871 16.5975 5.98942C16.6945 5.97012 16.7836 5.9225 16.8536 5.85258C16.9235 5.78265 16.9711 5.69356 16.9904 5.59657C17.0097 5.49958 16.9998 5.39904 16.9619 5.30768C16.9241 5.21632 16.86 5.13823 16.7778 5.08329C16.6956 5.02835 16.5989 4.99902 16.5 4.99902C16.3674 4.99902 16.2402 5.0517 16.1464 5.14547C16.0527 5.23924 16 5.36642 16 5.49902ZM16.6667 5.49902C16.6667 5.53199 16.6569 5.56421 16.6386 5.59162C16.6203 5.61903 16.5942 5.64039 16.5638 5.653C16.5333 5.66562 16.4998 5.66892 16.4675 5.66249C16.4352 5.65606 16.4055 5.64018 16.3821 5.61687C16.3588 5.59357 16.343 5.56387 16.3365 5.53154C16.3301 5.49921 16.3334 5.4657 16.346 5.43524C16.3586 5.40479 16.38 5.37876 16.4074 5.36044C16.4348 5.34213 16.467 5.33236 16.5 5.33236C16.5442 5.33236 16.5866 5.34992 16.6179 5.38117C16.6491 5.41243 16.6667 5.45482 16.6667 5.49902Z" fill="#484848"/>
<path d="M18.375 6.375C18.375 6.16789 18.5429 6 18.75 6C18.9571 6 19.125 6.16789 19.125 6.375C19.125 6.58211 18.9571 6.75 18.75 6.75C18.5429 6.75 18.375 6.58211 18.375 6.375Z" fill="#484848"/>
<path d="M19.875 6.375C19.875 6.16789 20.0429 6 20.25 6C20.4571 6 20.625 6.16789 20.625 6.375C20.625 6.58211 20.4571 6.75 20.25 6.75C20.0429 6.75 19.875 6.58211 19.875 6.375Z" fill="#484848"/>
<path d="M19.875 7.875C19.875 7.66789 20.0429 7.5 20.25 7.5C20.4571 7.5 20.625 7.66789 20.625 7.875C20.625 8.08211 20.4571 8.25 20.25 8.25C20.0429 8.25 19.875 8.08211 19.875 7.875Z" fill="#484848"/>
<path d="M19.875 9.375C19.875 9.16789 20.0429 9 20.25 9C20.4571 9 20.625 9.16789 20.625 9.375C20.625 9.58211 20.4571 9.75 20.25 9.75C20.0429 9.75 19.875 9.58211 19.875 9.375Z" fill="#484848"/>
<path d="M19.875 10.875C19.875 10.6679 20.0429 10.5 20.25 10.5C20.4571 10.5 20.625 10.6679 20.625 10.875C20.625 11.0821 20.4571 11.25 20.25 11.25C20.0429 11.25 19.875 11.0821 19.875 10.875Z" fill="#484848"/>
<path d="M19.875 18.375H20.625V19.125H19.875V18.375Z" fill="#484848"/>
<path d="M21.375 14.25H22.125V13.5C22.125 13.4005 22.0855 13.3052 22.0152 13.2348C21.9448 13.1645 21.8495 13.125 21.75 13.125H21V13.875H21.375V14.25Z" fill="#484848"/>
<path d="M9.375 17.625H10.125V18.375H9.375V17.625Z" fill="#484848"/>
</svg>
