<svg width="32" height="32" viewBox="0 0 32 32" fill="none" xmlns="http://www.w3.org/2000/svg">
<path d="M26.2876 0H5.71237C5.39822 0 5.14355 0.254666 5.14355 0.568817V31.4312C5.14355 31.7455 5.39809 32 5.71225 32H26.2875C26.6016 32 26.8562 31.7453 26.8562 31.4312V0.568817C26.8563 0.254666 26.6016 0 26.2876 0ZM6.28106 1.38463L15.4312 4.75716V27.2427L6.28106 30.6152V1.38463ZM25.7188 30.8625H8.90003L16.1967 28.1731C16.4203 28.0907 16.5687 27.8776 16.5687 27.6395V4.36063C16.5687 4.12244 16.4202 3.9094 16.1967 3.82691L8.90016 1.13751H25.7188V30.8625Z" fill="black"/>
<path d="M13.5847 14.0273C12.7739 14.0273 12.1387 14.8936 12.1387 15.9995C12.1387 17.1053 12.7739 17.9717 13.5847 17.9717C14.3956 17.9717 15.0307 17.1055 15.0307 15.9995C15.0307 14.8936 14.3956 14.0273 13.5847 14.0273ZM13.5845 16.8338C13.5105 16.8155 13.2762 16.5272 13.2762 15.9995C13.2762 15.4718 13.5105 15.1837 13.5845 15.1651C13.6587 15.1838 13.8932 15.4725 13.8932 15.9995C13.8932 16.5265 13.6587 16.8151 13.5845 16.8338Z" fill="black"/>
</svg>
