<svg width="60" height="61" viewBox="0 0 60 61" fill="none" xmlns="http://www.w3.org/2000/svg">
<g clip-path="url(#clip0_3582_11195)">
<path d="M29.9997 4.73242C27.5584 4.73242 25.5723 6.71852 25.5723 9.1599C25.5723 11.6013 27.5584 13.5873 29.9997 13.5873C32.4411 13.5873 34.4272 11.601 34.4272 9.1599C34.4273 6.71852 32.4411 4.73242 29.9997 4.73242ZM29.9997 11.8202C28.5328 11.8202 27.3392 10.6267 27.3392 9.15978C27.3392 7.69282 28.5327 6.49926 29.9997 6.49926C31.4668 6.49926 32.6603 7.69271 32.6603 9.15978C32.6603 10.6269 31.4668 11.8202 29.9997 11.8202Z" fill="black"/>
<path d="M29.9997 0.0078125C29.5116 0.0078125 29.1162 0.403439 29.1162 0.891293V2.07255C29.1162 2.56052 29.5117 2.95603 29.9997 2.95603C30.4877 2.95603 30.8832 2.5604 30.8832 2.07255V0.891293C30.8833 0.403439 30.4878 0.0078125 29.9997 0.0078125Z" fill="black"/>
<path d="M25.613 3.52359L24.7777 2.68839C24.4328 2.34339 23.8734 2.34351 23.5283 2.68839C23.1833 3.0334 23.1833 3.59285 23.5284 3.93797L24.3636 4.77329C24.5361 4.94579 24.7623 5.03204 24.9883 5.03204C25.2144 5.03204 25.4405 4.94579 25.6132 4.77317C25.9582 4.42805 25.9582 3.86859 25.613 3.52359Z" fill="black"/>
<path d="M22.9124 8.27637H21.7311C21.243 8.27637 20.8477 8.67199 20.8477 9.15985C20.8477 9.64782 21.2432 10.0433 21.7311 10.0433H22.9124C23.4005 10.0433 23.7959 9.6477 23.7959 9.15985C23.7959 8.67199 23.4004 8.27637 22.9124 8.27637Z" fill="black"/>
<path d="M25.6132 13.5468C25.2681 13.2018 24.7087 13.2018 24.3635 13.5468L23.5283 14.382C23.1833 14.727 23.1833 15.2865 23.5283 15.6315C23.7009 15.804 23.9271 15.8904 24.1531 15.8904C24.3792 15.8904 24.6054 15.8041 24.778 15.6315L25.6132 14.7963C25.9582 14.4513 25.9582 13.8918 25.6132 13.5468Z" fill="black"/>
<path d="M29.9997 15.3643C29.5116 15.3643 29.1162 15.7599 29.1162 16.2477V17.429C29.1162 17.917 29.5117 18.3125 29.9997 18.3125C30.4877 18.3125 30.8832 17.9168 30.8832 17.429V16.2477C30.8833 15.7599 30.4878 15.3643 29.9997 15.3643Z" fill="black"/>
<path d="M36.472 14.3831L35.6368 13.5479C35.2918 13.2029 34.7324 13.2028 34.3873 13.5478C34.0422 13.8928 34.0422 14.4522 34.3872 14.7973L35.2224 15.6325C35.395 15.805 35.621 15.8913 35.8472 15.8913C36.0733 15.8913 36.2994 15.805 36.4719 15.6325C36.817 15.2875 36.817 14.7281 36.472 14.3831Z" fill="black"/>
<path d="M38.2688 8.27637H37.0876C36.5995 8.27637 36.2041 8.67199 36.2041 9.15985C36.2041 9.6477 36.5996 10.0433 37.0876 10.0433H38.2688C38.7569 10.0433 39.1523 9.6477 39.1523 9.15985C39.1523 8.67199 38.7569 8.27637 38.2688 8.27637Z" fill="black"/>
<path d="M36.4718 2.68839C36.1269 2.34339 35.5675 2.34351 35.2224 2.68839L34.3872 3.52359C34.0422 3.86859 34.0422 4.42805 34.3873 4.77317C34.5597 4.94579 34.7858 5.03204 35.0119 5.03204C35.2379 5.03204 35.4641 4.94579 35.6367 4.77317L36.4719 3.93797C36.8169 3.59297 36.8169 3.03351 36.4718 2.68839Z" fill="black"/>
<path d="M54.507 45.2634C54.5062 45.2479 54.5061 45.2326 54.5046 45.2171C54.5016 45.186 54.4969 45.1554 54.4905 45.1254C54.4904 45.1247 54.4904 45.1242 54.4902 45.1235L52.9167 37.6494C52.9161 37.6467 52.9155 37.6442 52.9151 37.6415L51.3417 30.1679C51.3411 30.1652 51.3405 30.1627 51.3401 30.16L49.7652 22.679C49.6792 22.2702 49.3185 21.9775 48.9006 21.9775H11.0994C10.6815 21.9775 10.3209 22.2702 10.2347 22.679L8.66021 30.1591C8.65951 30.1623 8.6588 30.1653 8.65822 30.1685L7.08497 37.6422C7.0845 37.6443 7.08403 37.6465 7.08368 37.6486L5.51031 45.1227C5.50375 45.1543 5.49871 45.1865 5.49555 45.2191C5.49484 45.2266 5.49496 45.2343 5.49438 45.2418C5.49285 45.2628 5.49121 45.2838 5.49121 45.3052V48.8493C5.49121 49.3373 5.88672 49.7328 6.37469 49.7328H27.3443V54.6964H20.5495C20.0614 54.6964 19.666 55.092 19.666 55.5799V58.2405H11.0995C10.6114 58.2405 10.216 58.6362 10.216 59.124C10.216 59.6119 10.6115 60.0075 11.0995 60.0075H20.5496H39.4503H48.8992C49.3872 60.0075 49.7826 59.6119 49.7826 59.124C49.7826 58.6362 49.3871 58.2405 48.8992 58.2405H40.3339V55.5799C40.3339 55.0919 39.9384 54.6964 39.4504 54.6964H32.6556V49.7328H53.6253C54.1134 49.7328 54.5088 49.3372 54.5088 48.8493V45.321C54.5089 45.3199 54.5089 45.3185 54.5089 45.317V45.3056C54.5091 45.2911 54.5077 45.2774 54.507 45.2634ZM52.5368 44.4218H38.6991L38.298 38.7074H51.3337L52.5368 44.4218ZM49.7587 31.226L50.9619 36.9404H38.174L37.7729 31.226H49.7587ZM48.1837 23.7446L49.3869 29.4591H37.6489L37.2477 23.7446H48.1837ZM24.5235 23.7446H35.4764L35.8776 29.4591H24.1225L24.5235 23.7446ZM23.9986 31.226H36.0016L36.4027 36.9404H23.5976L23.9986 31.226ZM23.4737 38.7075H36.5267L36.9277 44.4218H23.0727L23.4737 38.7075ZM11.8163 23.7446H22.7522L22.3512 29.4591H10.6133L11.8163 23.7446ZM10.2414 31.226H22.2272L21.8262 36.9404H9.03837L10.2414 31.226ZM38.5669 56.4637V58.2408H21.4332V56.4637H28.228H31.7723H38.5669ZM29.1115 54.6967V49.733H30.8887V54.6967H29.1115ZM31.7824 47.966C31.7791 47.966 31.7757 47.9655 31.7723 47.9655H28.228C28.2246 47.9655 28.2212 47.966 28.2178 47.966H7.25817V46.1889H11.467C11.9551 46.1889 12.3505 45.7933 12.3505 45.3054C12.3505 44.8175 11.9549 44.422 11.467 44.422H7.46348L8.66642 38.7075H21.7022L21.3012 44.4218H15.2878H15.2877C14.7996 44.4218 14.4042 44.8175 14.4042 45.3053C14.4042 45.7933 14.7997 46.1888 15.2877 46.1888H15.2878H22.1242C22.1248 46.1888 22.1252 46.1888 22.1258 46.1888C22.1262 46.1888 22.1266 46.1888 22.127 46.1888H37.8732C37.8735 46.1888 37.874 46.1888 37.8743 46.1888C37.8749 46.1888 37.8754 46.1888 37.876 46.1888H52.7417V47.9658H31.7824V47.966Z" fill="black"/>
</g>
<defs>
<clipPath id="clip0_3582_11195">
<rect width="60" height="60" fill="white" transform="translate(0 0.0078125)"/>
</clipPath>
</defs>
</svg>
