<svg width="32" height="32" viewBox="0 0 32 32" fill="none" xmlns="http://www.w3.org/2000/svg">
<g clip-path="url(#clip0_3296_18685)">
<path d="M15.9862 0C7.14968 0.00762274 -0.00761666 7.17726 6.08318e-06 16.0138C0.00762882 24.8503 7.1772 32.0076 16.0138 32C24.845 31.9924 32 24.8312 32 16C31.9848 7.16434 24.8218 0.00755814 15.9862 0ZM15.9862 30.6219V30.6357C7.91079 30.628 1.37055 24.0755 1.37817 16C1.38579 7.92455 7.93838 1.3843 16.0138 1.39193C24.0785 1.39955 30.6143 7.93534 30.6219 16C30.6067 24.0746 24.0607 30.6143 15.9862 30.6219Z" fill="#484848"/>
<path d="M11.0384 14.8692C11.0337 14.8691 11.0292 14.8691 11.0245 14.8691C10.4004 14.8692 9.89447 15.3751 9.89453 15.9993C9.8946 16.6234 10.4005 17.1293 11.0247 17.1293C11.6434 17.1292 12.1471 16.6317 12.1546 16.013C12.1622 15.3889 11.6625 14.8768 11.0384 14.8692Z" fill="#484848"/>
<path d="M16.028 14.8692C16.014 14.869 16.0002 14.8692 15.9862 14.8695C15.3623 14.8847 14.8689 15.403 14.8841 16.0269C14.8994 16.6508 15.4176 17.1442 16.0415 17.1289C16.6492 17.1141 17.1362 16.6211 17.1438 16.0133C17.1516 15.3893 16.6521 14.877 16.028 14.8692Z" fill="#484848"/>
<path d="M20.9613 14.8692C20.3297 14.8616 19.8114 15.3675 19.8038 15.9992C19.8037 16.0039 19.8037 16.0084 19.8037 16.0131C19.8038 16.6448 20.3159 17.1569 20.9476 17.1568C21.5794 17.1568 22.0914 16.6446 22.0914 16.0129C22.0914 15.3865 21.5876 14.8768 20.9613 14.8692Z" fill="#484848"/>
</g>
<defs>
<clipPath id="clip0_3296_18685">
<rect width="32" height="32" fill="white"/>
</clipPath>
</defs>
</svg>
