<svg width="24" height="24" viewBox="0 0 24 24" fill="none" xmlns="http://www.w3.org/2000/svg">
<g clip-path="url(#clip0_3284_8874)">
<path d="M23.3432 22.8645V7.16439C23.3432 6.89894 23.1572 6.66642 22.8951 6.61348L18.8546 5.76343V1.86576C18.8546 1.59701 18.6653 1.36778 18.4032 1.31459L12.0952 0.00987844C12.0886 0.00987844 12.0787 0.00658558 12.0719 0.00658558C12.0653 0.00658558 12.0554 0.00329281 12.0488 0.00329281C12.0354 0.00329281 12.0222 0 12.0088 0C12.0022 0 11.9956 0 11.9891 0C11.969 0 11.9523 0 11.9326 0.00329281H11.9293C11.9093 0.00658558 11.8893 0.00658558 11.8662 0.0131712L1.13596 2.22442C1.1162 2.22771 1.09619 2.2343 1.07947 2.23759C1.06301 2.24418 1.04629 2.25101 1.02983 2.2576C1.02324 2.26089 1.01311 2.26419 1.00653 2.26748C0.996648 2.27077 0.990063 2.27406 0.979931 2.2809C0.970052 2.28749 0.960174 2.29407 0.950042 2.30066C0.943457 2.30395 0.940164 2.3075 0.933578 2.31079C0.923447 2.31738 0.913568 2.32396 0.90369 2.33384C0.900397 2.33713 0.893558 2.34068 0.890265 2.34397C0.880387 2.35056 0.873801 2.36044 0.86367 2.36702C0.860377 2.37057 0.853791 2.37715 0.850498 2.38045C0.843913 2.38703 0.837327 2.39691 0.830488 2.40375C0.823902 2.41034 0.82061 2.41692 0.814024 2.42021C0.807438 2.4268 0.804146 2.43364 0.797307 2.44022C0.790721 2.44681 0.784135 2.45669 0.780843 2.46353C0.77755 2.47011 0.774257 2.4767 0.770711 2.47999C0.764125 2.48987 0.75754 2.5 0.754247 2.50988C0.750954 2.51647 0.747661 2.51976 0.747661 2.5266C0.740822 2.53648 0.73753 2.54635 0.730944 2.55978C0.727651 2.56636 0.727651 2.57295 0.724358 2.57954C0.721066 2.58967 0.717773 2.59955 0.71448 2.61272C0.711187 2.62285 0.707641 2.63273 0.707641 2.64261C0.704348 2.64944 0.704348 2.65603 0.701055 2.66591C0.69447 2.70238 0.691177 2.7424 0.691177 2.78217V22.8713C0.385706 22.8779 0.136719 23.1269 0.136719 23.4357C0.136719 23.7477 0.388999 24 0.701055 24H23.3399C23.6519 24 23.9042 23.7477 23.9042 23.4357C23.8976 23.1203 23.6519 22.8713 23.3432 22.8645ZM22.2145 7.6226V9.50178L20.694 9.18314C20.4417 9.12994 20.196 9.29256 20.1428 9.54154C20.0896 9.79382 20.2522 10.0395 20.5015 10.0927L22.2112 10.4511V12.4298L20.6907 12.1112C20.4384 12.058 20.1927 12.2209 20.1395 12.4699C20.0863 12.7221 20.2489 12.9678 20.4979 13.0208L22.2079 13.3794V15.3582L20.6874 15.0395C20.4349 14.9863 20.1892 15.1489 20.1362 15.3979C20.083 15.6502 20.2456 15.8959 20.4946 15.9491L22.2046 16.3078V18.2862L20.6838 17.9676C20.4316 17.9144 20.1859 18.0773 20.1329 18.3263C20.0797 18.5785 20.2424 18.8242 20.4913 18.8774L22.2011 19.2358V22.8678H18.8546V6.9187L22.2145 7.6226ZM17.7259 4.19985L15.2292 3.68516C14.9769 3.63197 14.7312 3.79483 14.6816 4.04711C14.6284 4.29939 14.791 4.54509 15.0433 4.59473L17.7292 5.14919V6.21834V6.22163V7.12792L15.2292 6.61348C14.9769 6.56029 14.7312 6.7229 14.6816 6.97518C14.6284 7.22746 14.791 7.47316 15.0433 7.52305L17.7292 8.07751V10.0828L15.236 9.54154C14.9835 9.48835 14.7378 9.64793 14.6849 9.89691C14.6317 10.1492 14.791 10.3949 15.04 10.4478L17.7292 11.0289V13.0043L15.236 12.463C14.9835 12.4101 14.7378 12.5694 14.6849 12.8184C14.6317 13.0707 14.791 13.3164 15.04 13.3696L17.7292 13.9504V15.9258L15.236 15.3848C14.9835 15.3316 14.7378 15.4909 14.6849 15.7399C14.6317 15.9922 14.791 16.2379 15.04 16.291L17.7292 16.8721V18.8541L15.2325 18.3394C14.9802 18.2862 14.7345 18.4491 14.6849 18.7014C14.6317 18.9537 14.7943 19.1994 15.0466 19.2493L17.7325 19.8035V22.848H12.5468V1.25507L17.7292 2.32396V4.19985H17.7259ZM11.4179 11.9154L1.81326 13.924V11.9453L11.4179 9.93668V11.9154ZM11.4179 8.98709L1.81326 10.9957V9.01698L11.4179 7.01165V8.98709ZM1.81326 14.8734L11.4179 12.8647V14.8435L1.81326 16.8521V14.8734ZM11.4179 6.06231L1.81326 8.07093V6.06231L11.4179 4.08359V6.06231ZM1.81326 17.8017L11.4179 15.7931V17.7718L1.81326 19.7804V17.8017ZM11.4179 3.1307L1.81326 5.10943V3.23354L11.4179 1.25507V3.1307ZM1.81326 20.7297L11.4179 18.7214V22.8645H1.81326V20.7297Z" fill="#484848"/>
</g>
<defs>
<clipPath id="clip0_3284_8874">
<rect width="24" height="24" fill="white"/>
</clipPath>
</defs>
</svg>
