<svg width="513" height="512" viewBox="0 0 513 512" fill="none" xmlns="http://www.w3.org/2000/svg">
<path d="M336.641 96C354.289 96 368.641 81.648 368.641 64C368.641 46.352 354.289 32 336.641 32C318.993 32 304.641 46.352 304.641 64C304.641 81.648 318.993 96 336.641 96ZM352.641 64C352.641 72.824 345.465 80 336.641 80C327.817 80 320.641 72.824 320.641 64C320.641 62.576 320.889 61.224 321.241 59.912L330.985 69.656L342.297 58.344L332.553 48.6C333.865 48.248 335.217 48 336.641 48C345.465 48 352.641 55.176 352.641 64Z" fill="black"/>
<path d="M176.641 32C158.993 32 144.641 46.352 144.641 64C144.641 81.648 158.993 96 176.641 96C194.289 96 208.641 81.648 208.641 64C208.641 46.352 194.289 32 176.641 32ZM176.641 80C167.817 80 160.641 72.824 160.641 64C160.641 55.176 167.817 48 176.641 48C178.065 48 179.417 48.248 180.729 48.6L170.985 58.344L182.297 69.656L192.041 59.912C192.393 61.224 192.641 62.576 192.641 64C192.641 72.824 185.465 80 176.641 80Z" fill="black"/>
<path d="M408.641 96H424.641C437.873 96 448.641 85.232 448.641 72C448.641 58.768 437.873 48 424.641 48H408.641C395.409 48 384.641 58.768 384.641 72C384.641 85.232 395.409 96 408.641 96ZM408.641 64H424.641C429.049 64 432.641 67.592 432.641 72C432.641 76.408 429.049 80 424.641 80H408.641C404.233 80 400.641 76.408 400.641 72C400.641 67.592 404.233 64 408.641 64Z" fill="black"/>
<path d="M104.641 48H88.6406C75.4086 48 64.6406 58.768 64.6406 72C64.6406 85.232 75.4086 96 88.6406 96H104.641C117.873 96 128.641 85.232 128.641 72C128.641 58.768 117.873 48 104.641 48ZM104.641 80H88.6406C84.2326 80 80.6406 76.408 80.6406 72C80.6406 67.592 84.2326 64 88.6406 64H104.641C109.049 64 112.641 67.592 112.641 72C112.641 76.408 109.049 80 104.641 80Z" fill="black"/>
<path d="M504.617 464C504.617 462.696 504.321 461.392 503.681 460.208L480.641 417.416V112V32C480.641 18.768 469.873 8 456.641 8H56.6406C43.4086 8 32.6406 18.768 32.6406 32V112V417.416L9.60063 460.208C8.96063 461.392 8.66463 462.696 8.66463 464H8.64062V480C8.64062 493.232 19.4086 504 32.6406 504H480.641C493.873 504 504.641 493.232 504.641 480V464H504.617ZM448.641 357.992V120H464.641V387.704L448.641 357.992ZM113.193 336C114.705 348.016 119.529 359 126.753 368H104.641V336H113.193ZM408.641 336V368H386.521C393.753 359 398.577 348.016 400.081 336H408.641ZM363.121 368H360.641V348.944C363.857 345.264 366.241 340.872 367.505 336H383.921C381.665 349.328 373.953 360.808 363.121 368ZM296.641 354.48V336H305.777C309.353 349.768 321.777 360 336.641 360C339.417 360 342.065 359.536 344.641 358.864V368H310.161C304.801 364.44 300.201 359.84 296.641 354.48ZM322.865 320C325.641 315.24 330.745 312 336.641 312C342.537 312 347.641 315.24 350.417 320H322.865ZM344.641 336V341.776C342.281 343.152 339.569 344 336.641 344C330.745 344 325.641 340.76 322.865 336H344.641ZM367.505 320C363.929 306.232 351.505 296 336.641 296C321.777 296 309.353 306.232 305.777 320H289.361C293.185 297.336 312.897 280 336.641 280C360.385 280 380.089 297.336 383.921 320H367.505ZM273.705 263.328C277.809 240.992 297.377 224 320.881 224C333.761 224 345.401 229.048 354.025 237.28C346.241 233.896 337.657 232 328.641 232C305.297 232 284.889 244.608 273.705 263.328ZM280.641 296C280.641 269.528 302.169 248 328.641 248C347.321 248 363.497 258.744 371.425 274.352C361.401 267.832 349.465 264 336.641 264C312.609 264 291.649 277.336 280.705 296.976C280.697 296.648 280.641 296.328 280.641 296ZM273.193 336C274.225 344.216 276.785 351.968 280.641 358.912V368H232.641V358.912C236.497 351.96 239.057 344.216 240.089 336H273.193ZM168.641 368V358.864C171.217 359.536 173.865 360 176.641 360C191.505 360 203.929 349.768 207.505 336H216.641V354.48C213.081 359.84 208.481 364.44 203.121 368H168.641ZM168.641 336H190.417C187.641 340.76 182.537 344 176.641 344C173.713 344 171.001 343.152 168.641 341.776V336ZM162.865 320C165.641 315.24 170.745 312 176.641 312C182.537 312 187.641 315.24 190.417 320H162.865ZM232.577 296.976C221.633 277.336 200.673 264 176.641 264C163.817 264 151.881 267.832 141.857 274.352C149.785 258.744 165.961 248 184.641 248C211.113 248 232.641 269.528 232.641 296C232.641 296.328 232.585 296.648 232.577 296.976ZM184.641 232C175.793 232 167.361 233.808 159.689 237.072C168.297 228.952 179.865 224 192.641 224C216.329 224 236.017 241.264 239.897 263.864C228.793 244.84 208.209 232 184.641 232ZM176.641 280C200.377 280 220.089 297.336 223.921 320H207.505C203.929 306.232 191.505 296 176.641 296C161.777 296 149.353 306.232 145.777 320H129.361C133.193 297.336 152.905 280 176.641 280ZM145.777 336C147.041 340.872 149.425 345.256 152.641 348.944V368H150.161C139.329 360.808 131.609 349.328 129.361 336H145.777ZM104.641 384H145.729C147.953 385.232 150.265 386.32 152.641 387.288V416H104.641V384ZM168.641 391.448C171.265 391.776 173.929 392 176.641 392C187.849 392 198.385 389.088 207.553 384H216.641V416H168.641V391.448ZM232.641 384H280.641V416H232.641V384ZM296.641 384H305.729C314.905 389.088 325.433 392 336.641 392C339.353 392 342.017 391.776 344.641 391.448V416H296.641V384ZM360.641 387.288C363.017 386.32 365.329 385.232 367.553 384H408.641V416H360.641V387.288ZM424.385 326.712L424.537 326.688L402.345 193.544C400.649 183.376 391.937 176 381.633 176C370.057 176 360.641 185.416 360.641 196.992V208H376.641V196.992C376.641 194.24 378.881 192 381.633 192C384.089 192 386.153 193.752 386.561 196.168L407.201 320H400.089C399.057 311.76 396.481 304 392.617 297.04C392.617 296.688 392.641 296.352 392.641 296C392.641 284.64 389.633 273.992 384.425 264.736C380.769 232.304 353.697 208 320.881 208C285.593 208 256.881 236.712 256.881 272C256.881 282.984 259.793 293.704 265.129 303.232C265.785 309 267.217 314.632 269.385 320H243.889C245.993 314.8 247.425 309.36 248.105 303.776C253.641 294.112 256.641 283.184 256.641 272C256.641 236.712 227.929 208 192.641 208C160.001 208 133.057 232.048 129.169 264.216C123.777 273.592 120.641 284.424 120.641 296C120.641 296.352 120.665 296.688 120.673 297.04C116.801 304 114.233 311.76 113.193 320H106.081L126.721 196.168C127.129 193.752 129.193 192 131.649 192C134.401 192 136.641 194.24 136.641 196.992V208H152.641V196.992C152.641 185.416 143.225 176 131.649 176C121.345 176 112.633 183.376 110.945 193.536L88.7526 326.688L88.9046 326.712C88.8246 327.144 88.6406 327.544 88.6406 328V352H80.6406V168H432.641V352H424.641V328C424.641 327.544 424.457 327.144 424.385 326.712ZM432.641 120V152H80.6406V120H432.641ZM272.641 104H240.641V72C240.641 63.176 247.817 56 256.641 56C265.465 56 272.641 63.176 272.641 72V104ZM48.6406 32C48.6406 27.592 52.2326 24 56.6406 24H456.641C461.049 24 464.641 27.592 464.641 32V104H288.641V72C288.641 54.352 274.289 40 256.641 40C238.993 40 224.641 54.352 224.641 72V104H48.6406V32ZM48.6406 120H64.6406V357.992L48.6406 387.704V120ZM77.4166 368H88.6406V424C88.6406 428.424 92.2246 432 96.6406 432H416.641C421.057 432 424.641 428.424 424.641 424V368H435.865L483.249 456H30.0326L77.4166 368ZM480.641 488H32.6406C28.2326 488 24.6406 484.416 24.6406 480V472H488.641V480C488.641 484.416 485.049 488 480.641 488Z" fill="black"/>
<path d="M96.6406 128H128.641V144H96.6406V128Z" fill="black"/>
<path d="M384.641 128H416.641V144H384.641V128Z" fill="black"/>
<path d="M248.641 72H264.641V88H248.641V72Z" fill="black"/>
</svg>
