<svg width="60" height="60" viewBox="0 0 60 60" fill="none" xmlns="http://www.w3.org/2000/svg">
<g clip-path="url(#clip0_3582_11147)">
<path d="M12.2261 39.884C18.144 46.9581 25.268 52.528 33.3989 56.4691C36.4946 57.9362 40.6347 59.6768 45.2472 59.9751C45.5332 59.9876 45.8067 60 46.0927 60C49.1884 60 51.6749 58.9308 53.7014 56.7302C53.7139 56.7178 53.7387 56.6929 53.7512 56.668C54.4723 55.7978 55.2928 55.0145 56.1507 54.1815C56.735 53.622 57.3318 53.0377 57.9037 52.4409C60.5518 49.6809 60.5518 46.1749 57.8788 43.5019L50.4068 36.0298C49.1386 34.712 47.6219 34.0157 46.0305 34.0157C44.4391 34.0157 42.9099 34.712 41.6045 36.0174L37.1536 40.4683C36.7433 40.2321 36.3206 40.0207 35.9227 39.8218C35.4254 39.5731 34.9654 39.3369 34.5551 39.0758C30.5021 36.5023 26.822 33.1455 23.3036 28.8313C21.5257 26.581 20.3322 24.6913 19.4992 22.7642C20.6679 21.7074 21.7619 20.6009 22.8187 19.5193C23.1917 19.1339 23.5771 18.7484 23.9625 18.363C25.3052 17.0203 26.0263 15.4662 26.0263 13.8873C26.0263 12.3083 25.3177 10.7542 23.9625 9.41152L20.2576 5.70659C19.8224 5.27145 19.4122 4.84874 18.9895 4.41359C18.1689 3.56817 17.3111 2.69789 16.4656 1.91463C15.1851 0.658931 13.6807 0 12.0893 0C10.5104 0 8.9936 0.658931 7.66331 1.92706L3.0135 6.57688C1.32265 8.26772 0.36534 10.3191 0.166417 12.6937C-0.0698031 15.6651 0.477234 18.823 1.89456 22.6399C4.07027 28.5454 7.35249 34.0282 12.2261 39.884ZM3.19999 12.9548C3.34918 11.3013 3.98324 9.92126 5.17678 8.72772L9.80173 4.10278C10.5228 3.40655 11.3185 3.046 12.0893 3.046C12.8477 3.046 13.6186 3.40655 14.3272 4.12764C15.1602 4.89847 15.9435 5.70659 16.7889 6.56444C17.2116 6.99959 17.6467 7.43473 18.0819 7.8823L21.7868 11.5872C22.5576 12.3581 22.9555 13.1413 22.9555 13.9121C22.9555 14.683 22.5576 15.4662 21.7868 16.2371C21.4014 16.6225 21.016 17.0203 20.6306 17.4057C19.4743 18.5744 18.3927 19.6809 17.1992 20.7377C17.1743 20.7625 17.1619 20.775 17.137 20.7998C16.1051 21.8317 16.2667 22.8139 16.5154 23.5599C16.5278 23.5972 16.5402 23.622 16.5527 23.6593C17.51 25.9594 18.8403 28.1475 20.9165 30.7584C24.6463 35.3585 28.575 38.9266 32.9016 41.6743C33.4362 42.0224 34.0081 42.2959 34.5427 42.5694C35.04 42.8181 35.5 43.0543 35.9103 43.3154C35.96 43.3402 35.9973 43.3651 36.0471 43.39C36.4573 43.6013 36.8552 43.7008 37.253 43.7008C38.2476 43.7008 38.8941 43.0667 39.1055 42.8554L43.7553 38.2056C44.4764 37.4845 45.2597 37.099 46.0305 37.099C46.9754 37.099 47.7462 37.6834 48.2311 38.2056L55.728 45.69C57.2199 47.1819 57.2074 48.7982 55.6907 50.3771C55.1685 50.9366 54.6215 51.4712 54.0371 52.0307C53.1668 52.8761 52.2592 53.7464 51.4387 54.7286C50.0089 56.2702 48.3057 56.9913 46.1051 56.9913C45.8937 56.9913 45.6699 56.9789 45.4586 56.9664C41.3807 56.7053 37.5887 55.114 34.7416 53.7588C27.0085 50.0166 20.2203 44.7078 14.5883 37.9693C9.95092 32.3871 6.83032 27.1902 4.7665 21.6204C3.48594 18.2014 3.00106 15.4538 3.19999 12.9548Z" fill="black"/>
</g>
<defs>
<clipPath id="clip0_3582_11147">
<rect width="60" height="60" fill="white"/>
</clipPath>
</defs>
</svg>
