<svg width="24" height="24" viewBox="0 0 24 24" fill="none" xmlns="http://www.w3.org/2000/svg">
<path d="M22.5 13H18.5V3.908C19.0805 3.701 19.5 3.151 19.5 2.5C19.5 1.673 18.827 1 18 1H6C5.173 1 4.5 1.673 4.5 2.5C4.5 3.151 4.9195 3.701 5.5 3.908V13H1.5C1.2235 13 1 13.2235 1 13.5V22.5C1 22.7765 1.2235 23 1.5 23H22.5C22.7765 23 23 22.7765 23 22.5V13.5C23 13.2235 22.7765 13 22.5 13ZM12.5 4H17.5V9H12.5V4ZM11.5 9H6.5V4H11.5V9ZM17.5 10V13H12.5V10H17.5ZM6 2H18C18.653 2.0105 18.6605 2.988 18 3H6C5.347 2.9895 5.3395 2.012 6 2ZM6.5 10H11.5V13H6.5V10ZM22 22H2V14H22V22Z" fill="#484848"/>
<path d="M10.5 15C10.2235 15 10 15.2235 10 15.5V20.5C10 20.7765 10.2235 21 10.5 21C10.7765 21 11 20.7765 11 20.5V15.5C11 15.2235 10.7765 15 10.5 15Z" fill="#484848"/>
<path d="M7.5 15C7.2235 15 7 15.2235 7 15.5V20.5C7 20.7765 7.2235 21 7.5 21C7.7765 21 8 20.7765 8 20.5V15.5C8 15.2235 7.7765 15 7.5 15Z" fill="#484848"/>
<path d="M4.5 15C4.2235 15 4 15.2235 4 15.5V20.5C4 20.7765 4.2235 21 4.5 21C4.7765 21 5 20.7765 5 20.5V15.5C5 15.2235 4.7765 15 4.5 15Z" fill="#484848"/>
<path d="M13.5 15C13.2235 15 13 15.2235 13 15.5V20.5C13 20.7765 13.2235 21 13.5 21C13.7765 21 14 20.7765 14 20.5V15.5C14 15.2235 13.7765 15 13.5 15Z" fill="#484848"/>
<path d="M16.5 15C16.2235 15 16 15.2235 16 15.5V20.5C16 20.7765 16.2235 21 16.5 21C16.7765 21 17 20.7765 17 20.5V15.5C17 15.2235 16.7765 15 16.5 15Z" fill="#484848"/>
<path d="M19.5 21C19.7765 21 20 20.7765 20 20.5V15.5C20 15.2235 19.7765 15 19.5 15C19.2235 15 19 15.2235 19 15.5V20.5C19 20.7765 19.2235 21 19.5 21Z" fill="#484848"/>
</svg>
