<svg width="60" height="60" viewBox="0 0 60 60" fill="none" xmlns="http://www.w3.org/2000/svg">
<path d="M56.3156 24.2226H55.3954V21.72C55.3954 18.8343 53.0476 16.4867 50.1619 16.4867H48.8565C48.3026 14.4303 46.4224 12.9121 44.1934 12.9121C41.5304 12.9121 39.364 15.0784 39.364 17.7414V25.7332H20.6359V17.7414C20.6359 15.0784 18.4695 12.9121 15.8066 12.9121C13.5777 12.9121 11.6975 14.4303 11.1436 16.4867H9.83813C6.95238 16.4867 4.60465 18.8343 4.60465 21.72V24.2226H3.68438C1.65281 24.2226 0 25.8755 0 27.907V32.0799C0 34.1114 1.65281 35.7641 3.68438 35.7641H4.60477V38.28C4.60477 41.1658 6.9525 43.5134 9.83824 43.5134H11.1437C11.6977 45.5698 13.5778 47.088 15.8067 47.088C18.4697 47.088 20.636 44.9216 20.636 42.2587V34.2668H36.6906C37.1761 34.2668 37.5695 33.8734 37.5695 33.3879C37.5695 32.9024 37.1761 32.509 36.6906 32.509H20.6359V27.4909H39.364V42.2588C39.364 44.9218 41.5304 47.0881 44.1934 47.0881C46.4224 47.0881 48.3026 45.5699 48.8565 43.5135H50.1619C53.0476 43.5135 55.3954 41.1659 55.3954 38.2802V35.7643H56.3156C58.3472 35.7643 60 34.1116 60 32.08V27.9071C60 25.8754 58.3472 24.2226 56.3156 24.2226ZM4.60477 34.0066H3.68438V34.0064C2.62207 34.0064 1.75781 33.1422 1.75781 32.08V27.9071C1.75781 26.8448 2.62207 25.9805 3.68438 25.9805H4.60477V34.0066ZM18.8781 42.2588C18.8781 43.9524 17.5002 45.3303 15.8066 45.3303C14.1129 45.3303 12.7351 43.9524 12.7351 42.2588V24.5255C12.7351 24.04 12.3416 23.6466 11.8562 23.6466C11.3708 23.6466 10.9773 24.04 10.9773 24.5255V41.7558H9.83824C7.92176 41.7558 6.36258 40.1966 6.36258 38.2803V21.7199C6.36258 19.8034 7.92176 18.2444 9.83824 18.2444H10.9773V20.6317C10.9773 21.1172 11.3708 21.5106 11.8562 21.5106C12.3416 21.5106 12.7351 21.1172 12.7351 20.6317V17.7413C12.7351 16.0477 14.113 14.6698 15.8066 14.6698C17.5003 14.6698 18.8781 16.0477 18.8781 17.7413V42.2588ZM47.265 42.2588C47.265 43.9524 45.8871 45.3303 44.1934 45.3303C42.4997 45.3303 41.1218 43.9524 41.1218 42.2588V17.7413C41.1218 16.0477 42.4997 14.6698 44.1934 14.6698C45.8871 14.6698 47.265 16.0477 47.265 17.7413V42.2588ZM53.6375 38.2802C53.6375 40.1965 52.0784 41.7557 50.1619 41.7557H49.0228V18.2444H50.1619C52.0784 18.2444 53.6375 19.8036 53.6375 21.7199V38.2802ZM58.2422 32.08C58.2422 33.1422 57.3779 34.0064 56.3156 34.0064H55.3954V25.9804H56.3156C57.3779 25.9804 58.2422 26.8446 58.2422 27.907V32.08Z" fill="black"/>
</svg>
