<svg width="60" height="60" viewBox="0 0 60 60" fill="none" xmlns="http://www.w3.org/2000/svg">
<path d="M35.625 45H32.8125V26.25H45.9375C46.1861 26.25 46.4246 26.1512 46.6004 25.9754C46.7762 25.7996 46.875 25.5611 46.875 25.3125V21.5625C46.875 21.3139 46.7762 21.0754 46.6004 20.8996C46.4246 20.7238 46.1861 20.625 45.9375 20.625H14.0625C13.8139 20.625 13.5754 20.7238 13.3996 20.8996C13.2238 21.0754 13.125 21.3139 13.125 21.5625V25.3125C13.125 25.5611 13.2238 25.7996 13.3996 25.9754C13.5754 26.1512 13.8139 26.25 14.0625 26.25H27.1875V45H24.375C24.1264 45 23.8879 45.0988 23.7121 45.2746C23.5363 45.4504 23.4375 45.6889 23.4375 45.9375C23.4375 46.1861 23.5363 46.4246 23.7121 46.6004C23.8879 46.7762 24.1264 46.875 24.375 46.875H35.625C35.8736 46.875 36.1121 46.7762 36.2879 46.6004C36.4637 46.4246 36.5625 46.1861 36.5625 45.9375C36.5625 45.6889 36.4637 45.4504 36.2879 45.2746C36.1121 45.0988 35.8736 45 35.625 45ZM15 22.5H45V24.375H15V22.5ZM29.0625 45V26.25H30.9375V45H29.0625Z" fill="#484848"/>
<path d="M18.75 28.125H9.375V16.875C9.375 15.8804 8.97991 14.9266 8.27665 14.2233C7.57339 13.5201 6.61956 13.125 5.625 13.125C5.12772 13.125 4.65081 13.3225 4.29917 13.6742C3.94754 14.0258 3.75 14.5027 3.75 15V30.9375C3.75058 31.4981 3.91868 32.0457 4.23272 32.5101C4.54677 32.9745 4.99243 33.3345 5.5125 33.5438L3.90938 44.7375C3.87196 45.003 3.89193 45.2735 3.96795 45.5306C4.04396 45.7878 4.17424 46.0256 4.35 46.2281C4.53818 46.4408 4.77114 46.609 5.03212 46.7209C5.2931 46.8327 5.57562 46.8854 5.85938 46.875C6.26628 46.8744 6.66194 46.7415 6.98665 46.4963C7.31135 46.251 7.54748 45.9068 7.65938 45.5156L11.0156 33.75H14.4375L17.8125 45.5156C17.9347 45.9153 18.1839 46.2642 18.5222 46.5095C18.8606 46.7548 19.2697 46.8831 19.6875 46.875C19.9575 46.8777 20.2248 46.822 20.4713 46.7118C20.7177 46.6016 20.9375 46.4395 21.1155 46.2365C21.2936 46.0336 21.4257 45.7946 21.5028 45.5359C21.5799 45.2771 21.6003 45.0048 21.5625 44.7375L19.9781 33.75H20.625C21.1223 33.75 21.5992 33.5525 21.9508 33.2008C22.3025 32.8492 22.5 32.3723 22.5 31.875C22.5 30.8804 22.1049 29.9266 21.4016 29.2234C20.6984 28.5201 19.7446 28.125 18.75 28.125ZM5.76562 45L7.37812 33.75H9.05625L5.76562 45ZM19.6031 45L16.3875 33.75H18.075L19.6031 45ZM6.5625 31.875C6.31386 31.875 6.0754 31.7762 5.89959 31.6004C5.72377 31.4246 5.625 31.1861 5.625 30.9375V15C6.12228 15 6.59919 15.1975 6.95083 15.5492C7.30246 15.9008 7.5 16.3777 7.5 16.875V29.0625C7.5 29.3111 7.59877 29.5496 7.77459 29.7254C7.9504 29.9012 8.18886 30 8.4375 30H18.75C19.2473 30 19.7242 30.1975 20.0758 30.5492C20.4275 30.9008 20.625 31.3777 20.625 31.875H6.5625Z" fill="#484848"/>
<path d="M56.25 30.9375V15C56.25 14.5027 56.0525 14.0258 55.7008 13.6742C55.3492 13.3225 54.8723 13.125 54.375 13.125C53.3804 13.125 52.4266 13.5201 51.7234 14.2233C51.0201 14.9266 50.625 15.8804 50.625 16.875V28.125H41.25C40.2554 28.125 39.3016 28.5201 38.5984 29.2234C37.8951 29.9266 37.5 30.8804 37.5 31.875C37.5 32.3723 37.6975 32.8492 38.0492 33.2008C38.4008 33.5525 38.8777 33.75 39.375 33.75H40.0219L38.4375 44.7375C38.4001 45.003 38.4201 45.2735 38.4961 45.5306C38.5721 45.7878 38.7024 46.0256 38.8781 46.2281C39.1077 46.4838 39.4008 46.6742 39.7276 46.7802C40.0545 46.8862 40.4035 46.9039 40.7394 46.8316C41.0753 46.7593 41.3862 46.5995 41.6405 46.3684C41.8948 46.1373 42.0835 45.8431 42.1875 45.5156L45.5625 33.75H48.9844L52.3406 45.5156C52.4558 45.9194 52.7032 46.2729 53.0432 46.5194C53.3831 46.7659 53.796 46.8911 54.2156 46.875C54.4856 46.8777 54.7529 46.822 54.9994 46.7118C55.2459 46.6016 55.4656 46.4395 55.6437 46.2365C55.8217 46.0336 55.9538 45.7946 56.0309 45.5359C56.1081 45.2771 56.1284 45.0048 56.0906 44.7375L54.4875 33.5437C55.0076 33.3345 55.4532 32.9745 55.7673 32.5101C56.0813 32.0457 56.2494 31.4981 56.25 30.9375ZM41.25 30H51.5625C51.8111 30 52.0496 29.9012 52.2254 29.7254C52.4012 29.5496 52.5 29.3111 52.5 29.0625V16.875C52.5 16.3777 52.6975 15.9008 53.0492 15.5492C53.4008 15.1975 53.8777 15 54.375 15V30.9375C54.375 31.1861 54.2762 31.4246 54.1004 31.6004C53.9246 31.7762 53.6861 31.875 53.4375 31.875H39.375C39.375 31.3777 39.5725 30.9008 39.9242 30.5492C40.2758 30.1975 40.7527 30 41.25 30ZM40.3125 45L41.925 33.75H43.6031L40.3125 45ZM50.9344 33.75H52.6219L54.1406 45L50.9344 33.75Z" fill="#484848"/>
</svg>
