<svg width="512" height="513" viewBox="0 0 512 513" fill="none" xmlns="http://www.w3.org/2000/svg">
<path d="M496.964 74.376H15.036C6.732 74.376 0 81.108 0 89.412V366.304C0 374.608 6.732 381.34 15.036 381.34H202.98V408.863H162.416C154.112 408.863 147.38 415.595 147.38 423.899C147.38 432.203 154.112 438.935 162.416 438.935H349.583C357.887 438.935 364.619 432.203 364.619 423.899C364.619 415.595 357.887 408.863 349.583 408.863H309.02V381.34H496.964C505.268 381.34 512 374.608 512 366.304V89.412C512 81.108 505.268 74.376 496.964 74.376ZM278.948 408.864H233.052V381.341H278.948V408.864ZM481.928 351.269H30.072V104.449H481.928V351.269Z" fill="black"/>
</svg>
