<svg width="32" height="32" viewBox="0 0 32 32" fill="none" xmlns="http://www.w3.org/2000/svg">
<g clip-path="url(#clip0_3295_18437)">
<path d="M30.176 26.8526C29.8988 26.3639 29.4431 26.0108 28.9032 25.8725V18.5074C29.791 18.2766 30.4516 17.4756 30.4516 16.5161V14.8841L27.2108 5.16129H22.5223C21.8204 2.20697 19.1659 0 16 0C12.8341 0 10.1796 2.20697 9.47768 5.16129H4.78916L1.54839 14.8841V16.5161C1.54839 17.4756 2.20903 18.2766 3.09677 18.5074V25.8725C2.5569 26.0103 2.10116 26.3639 1.824 26.8526C0.798452 26.9724 0 27.8462 0 28.9032V32H32V28.9032C32 27.8462 31.2015 26.9724 30.176 26.8526ZM29.4194 16.5161C29.4194 17.0854 28.9564 17.5484 28.3871 17.5484C27.8178 17.5484 27.3548 17.0854 27.3548 16.5161V15.4839H29.4194V16.5161ZM26.4666 6.19355L29.2196 14.4516H27.2526L25.4173 6.19355H26.4666ZM24.3603 6.19355L26.1956 14.4516H24.1791L22.8026 6.19355H24.3603ZM26.3226 15.4839V16.5161C26.3226 17.0854 25.8596 17.5484 25.2903 17.5484C24.721 17.5484 24.2581 17.0854 24.2581 16.5161V15.4839H26.3226ZM23.1329 14.4516H21.1071L20.7706 11.4209C21.4085 10.7752 21.9117 9.99897 22.2477 9.1391L23.1329 14.4516ZM23.2258 15.4839V16.5161C23.2258 17.0854 22.7628 17.5484 22.1935 17.5484C21.6243 17.5484 21.1613 17.0854 21.1613 16.5161V15.4839H23.2258ZM16 1.03226C19.1303 1.03226 21.6774 3.57935 21.6774 6.70968C21.6774 8.69781 20.6483 10.4475 19.0968 11.4622V8.18477C19.9845 7.95406 20.6452 7.15303 20.6452 6.19355V3.6129H19.6129V6.19355C19.6129 6.57394 19.4039 6.90323 19.0968 7.08232V3.6129H18.0645V7.08232C17.7574 6.90323 17.5484 6.57394 17.5484 6.19355V3.6129H16.5161V6.19355C16.5161 7.15303 17.1768 7.95406 18.0645 8.18477V11.9928C17.4235 12.2441 16.7288 12.3871 16 12.3871C15.2712 12.3871 14.5765 12.2441 13.9355 11.9928V8.18477C14.8232 7.95406 15.4839 7.15303 15.4839 6.19355C15.4839 5.12981 14.6797 3.09677 13.4194 3.09677C12.159 3.09677 11.3548 5.12981 11.3548 6.19355C11.3548 7.15303 12.0155 7.95406 12.9032 8.18477V11.4622C11.3517 10.4475 10.3226 8.69781 10.3226 6.70968C10.3226 3.57935 12.8697 1.03226 16 1.03226ZM18.0645 15.4839H20.129V16.5161C20.129 17.0854 19.6661 17.5484 19.0968 17.5484C18.5275 17.5484 18.0645 17.0854 18.0645 16.5161V15.4839ZM18.0366 14.4516L17.9628 13.1252C18.6333 12.9192 19.2573 12.6101 19.8204 12.2183L20.0686 14.4516H18.0366ZM17.0323 15.4839V16.5161C17.0323 17.0854 16.5693 17.5484 16 17.5484C15.4307 17.5484 14.9677 17.0854 14.9677 16.5161V15.4839H17.0323ZM14.9972 14.4516L15.0586 13.3455C15.3672 13.3889 15.6795 13.4194 16 13.4194C16.3205 13.4194 16.6328 13.3889 16.9414 13.3455L17.0028 14.4516H14.9972ZM11.9314 14.4516L12.1796 12.2183C12.7427 12.6101 13.3667 12.9192 14.0372 13.1252L13.9634 14.4516H11.9314ZM13.9355 15.4839V16.5161C13.9355 17.0854 13.4725 17.5484 12.9032 17.5484C12.3339 17.5484 11.871 17.0854 11.871 16.5161V15.4839H13.9355ZM13.4194 7.22581C12.8501 7.22581 12.3871 6.76284 12.3871 6.19355C12.3871 5.42194 13.0333 4.12903 13.4194 4.12903C13.8054 4.12903 14.4516 5.42194 14.4516 6.19355C14.4516 6.76284 13.9886 7.22581 13.4194 7.22581ZM9.75226 9.13961C10.0877 9.99948 10.5915 10.7752 11.2294 11.4214L10.8929 14.4516H8.8671L9.75226 9.13961ZM10.8387 15.4839V16.5161C10.8387 17.0854 10.3757 17.5484 9.80645 17.5484C9.23716 17.5484 8.77419 17.0854 8.77419 16.5161V15.4839H10.8387ZM9.19742 6.19355L7.8209 14.4516H5.80439L7.63974 6.19355H9.19742ZM7.74194 15.4839V16.5161C7.74194 17.0854 7.27897 17.5484 6.70968 17.5484C6.14039 17.5484 5.67742 17.0854 5.67742 16.5161V15.4839H7.74194ZM5.53342 6.19355H6.58271L4.74735 14.4516H2.78039L5.53342 6.19355ZM2.58065 16.5161V15.4839H4.64516V16.5161C4.64516 17.0854 4.18219 17.5484 3.6129 17.5484C3.04361 17.5484 2.58065 17.0854 2.58065 16.5161ZM9.29032 30.9677H1.03226V29.9355H9.29032V30.9677ZM1.03226 28.9032C1.03226 28.3339 1.49523 27.871 2.0449 27.871L2.51664 27.8983L2.64361 27.5339C2.78865 27.1179 3.17832 26.8387 3.6129 26.8387C3.68464 26.8387 3.76155 26.8495 3.85445 26.8712L4.16723 26.9466L4.37264 26.6994C4.7711 26.2194 5.55097 26.2194 5.94994 26.6994L6.15535 26.9466L6.46813 26.8712C6.56103 26.8495 6.63794 26.8387 6.70968 26.8387C7.14426 26.8387 7.53394 27.1179 7.67845 27.5339L7.80542 27.8983L8.19097 27.8797C8.22039 27.8782 8.24877 27.8746 8.25806 27.871C8.82735 27.871 9.29032 28.3339 9.29032 28.9032H1.03226ZM19.6129 30.9677H12.3871V20.6452H19.6129V30.9677ZM21.6774 28.9032V30.9677H20.6452V19.6129H11.3548V30.9677H10.3226V28.9032C10.3226 27.8462 9.52413 26.9724 8.49858 26.8526C8.10787 26.1636 7.36568 25.7357 6.52748 25.8152C5.87768 25.2341 4.87535 25.1572 4.12903 25.5794V18.5084C4.53368 18.4031 4.8929 18.1843 5.16129 17.8797C5.53961 18.3097 6.09394 18.5806 6.70968 18.5806C7.32542 18.5806 7.87974 18.3097 8.25806 17.8803C8.63639 18.3097 9.19071 18.5806 9.80645 18.5806C10.4222 18.5806 10.9765 18.3097 11.3548 17.8803C11.7332 18.3097 12.2875 18.5806 12.9032 18.5806C13.519 18.5806 14.0733 18.3097 14.4516 17.8803C14.8299 18.3097 15.3843 18.5806 16 18.5806C16.6157 18.5806 17.1701 18.3097 17.5484 17.8803C17.9267 18.3097 18.481 18.5806 19.0968 18.5806C19.7125 18.5806 20.2668 18.3097 20.6452 17.8803C21.0235 18.3097 21.5778 18.5806 22.1935 18.5806C22.8093 18.5806 23.3636 18.3097 23.7419 17.8803C24.1203 18.3097 24.6746 18.5806 25.2903 18.5806C25.9061 18.5806 26.4604 18.3097 26.8387 17.8803C27.1071 18.1848 27.4663 18.4041 27.871 18.5089V25.5799C27.1246 25.1572 26.1223 25.2341 25.4725 25.8157C24.6364 25.7352 23.8916 26.1641 23.5014 26.8532C22.4759 26.9724 21.6774 27.8462 21.6774 28.9032ZM30.9677 30.9677H22.7097V29.9355H30.9677V30.9677ZM22.7097 28.9032C22.7097 28.3339 23.1726 27.871 23.7223 27.871L24.1941 27.8983L24.321 27.5339C24.4661 27.1179 24.8557 26.8387 25.2903 26.8387C25.3621 26.8387 25.439 26.8495 25.5319 26.8712L25.8446 26.9466L26.0501 26.6994C26.4485 26.2194 27.2284 26.2194 27.6274 26.6994L27.8328 26.9466L28.1455 26.8712C28.2385 26.8495 28.3154 26.8387 28.3871 26.8387C28.8217 26.8387 29.2114 27.1179 29.3559 27.5339L29.4828 27.8983L29.8684 27.8797C29.8978 27.8782 29.9262 27.8746 29.9355 27.871C30.5048 27.871 30.9677 28.3339 30.9677 28.9032H22.7097Z" fill="black"/>
<path d="M14.4517 25.291H13.4194V26.3233H14.4517V25.291Z" fill="black"/>
<path d="M5.67725 20.1289V24.2579H9.80628V20.1289H5.67725ZM8.77402 23.2257H6.7095V21.1612H8.77402V23.2257Z" fill="black"/>
<path d="M22.1934 20.1289V24.2579H26.3224V20.1289H22.1934ZM25.2901 23.2257H23.2256V21.1612H25.2901V23.2257Z" fill="black"/>
</g>
<defs>
<clipPath id="clip0_3295_18437">
<rect width="32" height="32" fill="white"/>
</clipPath>
</defs>
</svg>
