<svg width="32" height="32" viewBox="0 0 32 32" fill="none" xmlns="http://www.w3.org/2000/svg">
<path d="M31.5 16H19.5C19.2235 16 19 16.2235 19 16.5V31.5C19 31.7765 19.2235 32 19.5 32H31.5C31.7765 32 32 31.7765 32 31.5V16.5C32 16.2235 31.7765 16 31.5 16ZM31 31H20V17H31V31Z" fill="#484848"/>
<path d="M25.5 21C23.0185 21 21 23.0185 21 25.5C21 27.9815 23.0185 30 25.5 30C27.9815 30 30 27.9815 30 25.5C30 23.0185 27.9815 21 25.5 21ZM25.5 29C23.5705 29 22 27.4295 22 25.5C22 23.5705 23.5705 22 25.5 22C27.4295 22 29 23.5705 29 25.5C29 27.4295 27.4295 29 25.5 29Z" fill="#484848"/>
<path d="M25.5 22.5C23.8455 22.5 22.5 23.8455 22.5 25.5C22.5 26.325 22.835 27.073 23.3755 27.6155C23.376 27.616 23.376 27.6165 23.3765 27.617C23.3765 27.617 23.377 27.617 23.377 27.6175C23.9205 28.1625 24.6715 28.5 25.5 28.5C27.1545 28.5 28.5 27.1545 28.5 25.5C28.5 23.8455 27.1545 22.5 25.5 22.5ZM25.5 27.5C25.113 27.5 24.755 27.3845 24.4485 27.194L25.3915 26.173C25.579 25.97 25.5665 25.654 25.3635 25.4665C25.161 25.2795 24.845 25.2915 24.657 25.4945L23.7595 26.466C23.5995 26.1785 23.5 25.852 23.5 25.5C23.5 24.397 24.397 23.5 25.5 23.5C26.603 23.5 27.5 24.397 27.5 25.5C27.5 26.603 26.603 27.5 25.5 27.5Z" fill="#484848"/>
<path d="M21.75 20H25.75C26.4395 20 27 19.4395 27 18.75C27 18.0605 26.4395 17.5 25.75 17.5H21.75C21.0605 17.5 20.5 18.0605 20.5 18.75C20.5 19.4395 21.0605 20 21.75 20ZM21.75 18.5H25.75C25.8855 18.5 26 18.6145 26 18.75C26 18.8855 25.8855 19 25.75 19H21.75C21.6145 19 21.5 18.8855 21.5 18.75C21.5 18.6145 21.6145 18.5 21.75 18.5Z" fill="#484848"/>
<path d="M29 20.5C29.827 20.5 30.5 19.827 30.5 19C30.5 18.173 29.827 17.5 29 17.5C28.173 17.5 27.5 18.173 27.5 19C27.5 19.827 28.173 20.5 29 20.5ZM29 18.5C29.276 18.5 29.5 18.724 29.5 19C29.5 19.276 29.276 19.5 29 19.5C28.724 19.5 28.5 19.276 28.5 19C28.5 18.724 28.724 18.5 29 18.5Z" fill="#484848"/>
<path d="M10.5 32H17.5C17.7765 32 18 31.7765 18 31.5V24C18.2765 24 18.5 23.7765 18.5 23.5V21.5C18.5 21.2235 18.2765 21 18 21H16.361C16.1875 20.7025 15.8685 20.5 15.5 20.5H13C12.6315 20.5 12.3125 20.7025 12.139 21H10C9.724 21 9.5 21.2235 9.5 21.5V23.5C9.5 23.7765 9.724 24 10 24V31.5C10 31.7765 10.224 32 10.5 32ZM17.5 23H16.5V22H17.5V23ZM15.5 21.5L15.5005 23.4985C15.5005 23.499 15.5 23.4995 15.5 23.5C15.5 23.5005 15.5005 23.501 15.5005 23.5015V26.5H13V21.5H15.5ZM11.5 23.5C11.5 23.2235 11.276 23 11 23H10.5V22H12V26.5C12 27.0515 12.4485 27.5 13 27.5H15.5C16.0515 27.5 16.5 27.0515 16.5 26.5V24H17V31H11V24C11.276 24 11.5 23.7765 11.5 23.5Z" fill="#484848"/>
<path d="M0.5 24V31.5C0.5 31.7765 0.724 32 1 32H8C8.276 32 8.5 31.7765 8.5 31.5V24C8.776 24 9 23.7765 9 23.5V21.5C9 21.2235 8.776 21 8.5 21H0.5C0.224 21 0 21.2235 0 21.5V23.5C0 23.7765 0.224 24 0.5 24ZM1 22H8V23H5C4.724 23 4.5 23.2235 4.5 23.5C4.5 23.7765 4.724 24 5 24H7.5V31H1.5V24H3C3.276 24 3.5 23.7765 3.5 23.5C3.5 23.2235 3.276 23 3 23H1V22Z" fill="#484848"/>
<path d="M31.5 12H30.9705C30.9895 11.9195 31 11.836 31 11.75V10.25C31 9.965 30.887 9.708 30.7015 9.5C30.887 9.292 31 9.035 31 8.75V7.25C31 6.965 30.887 6.708 30.7015 6.5C30.887 6.292 31 6.035 31 5.75V4.25C31 3.549 30.3415 3 29.5 3H22C21.4485 3 21 3.4485 21 4V4.5C21 4.682 21.049 4.853 21.1345 5C21.049 5.147 21 5.318 21 5.5V6C21 6.183 21.053 6.3525 21.139 6.5C21.053 6.6475 21 6.817 21 7V7.5C21 7.682 21.049 7.853 21.1345 8C21.049 8.147 21 8.318 21 8.5V9C21 9.183 21.053 9.3525 21.139 9.5C21.053 9.6475 21 9.817 21 10V10.5C21 10.682 21.049 10.853 21.1345 11C21.049 11.147 21 11.318 21 11.5V12H20V5.5C20 5.2235 19.7765 5 19.5 5V3.5C19.5 3.2235 19.2765 3 19 3H17C16.7235 3 16.5 3.2235 16.5 3.5V5C16.224 5 16 5.2235 16 5.5V12H15V8.6875C15 6.9295 13.57 5.5 11.8125 5.5H11.5V4.5C11.5 4.2235 11.276 4 11 4H9.5C9.224 4 9 4.2235 9 4.5V5.5C8.724 5.5 8.5 5.7235 8.5 6V12H7.5V8.6875C7.5 6.9295 6.07 5.5 4.3125 5.5H4V4.5C4 4.2235 3.776 4 3.5 4H2C1.724 4 1.5 4.2235 1.5 4.5V5.5C1.224 5.5 1 5.7235 1 6V12H0.5C0.224 12 0 12.2235 0 12.5V14.5C0 14.7765 0.224 15 0.5 15H31.5C31.7765 15 32 14.7765 32 14.5V12.5C32 12.2235 31.7765 12 31.5 12ZM22 8.5H28.5C28.7765 8.5 29 8.2765 29 8C29 7.7235 28.7765 7.5 28.5 7.5H22V7H29.5C29.81 7 30 7.1615 30 7.25V8.75C30 8.8385 29.81 9 29.5 9H22V8.5ZM22 5.5H28.5C28.7765 5.5 29 5.2765 29 5C29 4.7235 28.7765 4.5 28.5 4.5H22V4H29.5C29.81 4 30 4.1615 30 4.25V5.75C30 5.8385 29.81 6 29.5 6H22V5.5ZM22 11.5H28.5C28.7765 11.5 29 11.2765 29 11C29 10.7235 28.7765 10.5 28.5 10.5H22V10H29.5C29.81 10 30 10.1615 30 10.25V11.75C30 11.8385 29.81 12 29.5 12H22V11.5ZM17.5 4H18.5V5H17.5V4ZM17 6H19V12H17V6ZM10 5H10.5V5.5H10V5ZM9.5 6.5H11H11.8125C13.019 6.5 14 7.4815 14 8.6875V12H9.5V6.5ZM2.5 5H3V5.5H2.5V5ZM2 6.5H3.5H4.3125C5.519 6.5 6.5 7.4815 6.5 8.6875V12H2V6.5ZM31 14H1V13H1.5H7H9H14.5H16.5H19.5H22H29.5H31V14Z" fill="#484848"/>
<path d="M3.5 7C3.224 7 3 7.2235 3 7.5V9.5C3 9.7765 3.224 10 3.5 10H5.5C5.776 10 6 9.7765 6 9.5C6 8.1215 4.8785 7 3.5 7ZM4 9V8.0855C4.4255 8.2365 4.7635 8.574 4.9145 9H4Z" fill="#484848"/>
<path d="M11 7C10.724 7 10.5 7.2235 10.5 7.5V9.5C10.5 9.7765 10.724 10 11 10H13C13.276 10 13.5 9.7765 13.5 9.5C13.5 8.1215 12.3785 7 11 7ZM11.5 9V8.0855C11.9255 8.2365 12.2635 8.5745 12.4145 9H11.5Z" fill="#484848"/>
<path d="M25.9681 24.0774L25.5391 24.5424C25.3516 24.7454 25.3641 25.0619 25.5671 25.2489C25.6631 25.3379 25.7851 25.3819 25.9066 25.3819C26.0416 25.3819 26.1756 25.3279 26.2736 25.2214L26.7026 24.7564C26.8901 24.5534 26.8776 24.2369 26.6746 24.0499C26.4716 23.8624 26.1546 23.8749 25.9681 24.0774Z" fill="#484848"/>
</svg>
