<svg width="512" height="513" viewBox="0 0 512 513" fill="none" xmlns="http://www.w3.org/2000/svg">
<g clip-path="url(#clip0_3582_11365)">
<path d="M43.008 512.664C40.0934 512.666 37.2971 511.512 35.2331 509.454C33.1692 507.396 32.0064 504.603 32 501.688V11.6401C32.0085 8.72611 33.172 5.93439 35.2355 3.87691C37.2989 1.81942 40.094 0.66405 43.008 0.664063L468.992 0.664063C471.906 0.66405 474.701 1.81942 476.765 3.87691C478.828 5.93439 479.992 8.72611 480 11.6401V501.688C479.994 504.603 478.831 507.396 476.767 509.454C474.703 511.512 471.907 512.666 468.992 512.664H43.008ZM59.392 120.664C58.6871 120.663 57.9888 120.801 57.3371 121.07C56.6855 121.338 56.0931 121.733 55.5939 122.231C55.0947 122.728 54.6984 123.32 54.4277 123.97C54.1569 124.621 54.017 125.319 54.016 126.024V485.352C54.016 486.058 54.1551 486.756 54.4254 487.408C54.6956 488.06 55.0918 488.652 55.5911 489.151C56.0904 489.649 56.6831 490.044 57.3353 490.314C57.9875 490.583 58.6864 490.721 59.392 490.72H452.608C453.314 490.721 454.013 490.583 454.665 490.314C455.317 490.044 455.91 489.649 456.409 489.151C456.908 488.652 457.304 488.06 457.575 487.408C457.845 486.756 457.984 486.058 457.984 485.352V125.984C457.983 125.279 457.843 124.581 457.572 123.93C457.302 123.28 456.905 122.688 456.406 122.191C455.907 121.693 455.315 121.298 454.663 121.03C454.011 120.761 453.313 120.623 452.608 120.624L59.392 120.664ZM223.2 22.6161C222.495 22.614 221.796 22.751 221.144 23.0195C220.492 23.2879 219.899 23.6824 219.4 24.1803C218.9 24.6782 218.504 25.2698 218.234 25.9212C217.963 26.5725 217.824 27.2708 217.824 27.9761V93.3121C217.825 94.017 217.965 94.7148 218.236 95.3657C218.506 96.0166 218.903 96.6077 219.402 97.1055C219.901 97.6032 220.493 97.9977 221.145 98.2665C221.797 98.5353 222.495 98.6731 223.2 98.6721H452.608C453.313 98.6731 454.011 98.5353 454.663 98.2665C455.315 97.9977 455.907 97.6032 456.406 97.1055C456.905 96.6077 457.302 96.0166 457.572 95.3657C457.843 94.7148 457.983 94.017 457.984 93.3121V27.9761C457.984 27.2708 457.845 26.5725 457.574 25.9212C457.304 25.2698 456.908 24.6782 456.408 24.1803C455.909 23.6824 455.316 23.2879 454.664 23.0195C454.012 22.751 453.313 22.614 452.608 22.6161H223.2ZM59.36 22.6161C58.6548 22.614 57.9561 22.751 57.3039 23.0195C56.6517 23.2879 56.059 23.6824 55.5596 24.1803C55.0601 24.6782 54.6639 25.2698 54.3935 25.9212C54.1232 26.5725 53.984 27.2708 53.984 27.9761V93.3121C53.9851 94.017 54.1249 94.7148 54.3957 95.3657C54.6664 96.0166 55.0627 96.6077 55.5619 97.1055C56.0611 97.6032 56.6535 97.9977 57.3051 98.2665C57.9568 98.5353 58.6551 98.6731 59.36 98.6721H190.464C191.169 98.6731 191.867 98.5353 192.519 98.2665C193.171 97.9977 193.763 97.6032 194.262 97.1055C194.761 96.6077 195.158 96.0166 195.428 95.3657C195.699 94.7148 195.839 94.017 195.84 93.3121V27.9761C195.84 27.2708 195.701 26.5725 195.43 25.9212C195.16 25.2698 194.764 24.6782 194.264 24.1803C193.765 23.6824 193.172 23.2879 192.52 23.0195C191.868 22.751 191.169 22.614 190.464 22.6161H59.36Z" fill="black"/>
<path d="M256 463.656C224.772 463.563 194.272 454.217 168.352 436.8C142.432 419.383 122.256 394.675 110.37 365.797C98.4847 336.919 95.4237 305.167 101.574 274.55C107.724 243.934 122.809 215.826 144.924 193.778C167.039 171.73 195.192 156.73 225.827 150.673C256.462 144.616 288.205 147.774 317.047 159.747C345.888 171.72 370.535 191.971 387.873 217.944C405.212 243.916 414.465 274.444 414.464 305.672C414.353 347.621 397.607 387.814 367.9 417.432C338.192 447.049 297.949 463.673 256 463.656ZM256 169.624C229.109 169.703 202.845 177.75 180.525 192.747C158.204 207.744 140.829 229.019 130.593 253.885C120.357 278.752 117.72 306.094 123.015 332.458C128.309 358.823 141.298 383.027 160.34 402.013C179.383 421 203.625 433.918 230.005 439.135C256.384 444.352 283.719 441.634 308.555 431.325C333.391 421.017 354.615 403.579 369.547 381.215C384.478 358.85 392.447 332.563 392.448 305.672C392.354 269.549 377.936 234.939 352.356 209.433C326.775 183.928 292.122 169.611 256 169.624Z" fill="black"/>
<path d="M256 398.32C243.191 398.345 230.515 395.71 218.776 390.584C217.402 390.042 216.152 389.23 215.099 388.194C214.047 387.158 213.214 385.921 212.651 384.556C212.087 383.191 211.805 381.726 211.82 380.25C211.836 378.773 212.149 377.315 212.741 375.962C213.333 374.609 214.192 373.39 215.266 372.376C216.34 371.363 217.607 370.576 218.992 370.064C220.377 369.551 221.851 369.323 223.325 369.393C224.8 369.464 226.246 369.83 227.576 370.472C242.658 377.011 259.548 378.082 275.334 373.499C291.121 368.917 304.813 358.97 314.05 345.373C323.287 331.775 327.489 315.381 325.931 299.017C324.374 282.653 317.155 267.345 305.519 255.735C293.882 244.124 278.559 236.938 262.192 235.417C245.825 233.895 229.439 238.133 215.862 247.399C202.285 256.666 192.368 270.38 187.82 286.176C183.273 301.973 184.38 318.861 190.952 333.928C192.104 336.593 192.151 339.606 191.083 342.306C190.015 345.006 187.919 347.172 185.256 348.328C183.881 348.948 182.389 349.27 180.88 349.272C178.732 349.27 176.631 348.643 174.834 347.466C173.037 346.29 171.621 344.616 170.76 342.648C165.65 330.978 163.024 318.372 163.048 305.632C163.001 287.243 168.41 269.254 178.591 253.941C188.772 238.628 203.267 226.68 220.242 219.609C237.217 212.538 255.908 210.662 273.949 214.219C291.991 217.775 308.571 226.604 321.592 239.589C334.614 252.573 343.49 269.128 347.098 287.159C350.706 305.191 348.883 323.887 341.86 340.882C334.837 357.876 322.93 372.406 307.646 382.63C292.363 392.855 274.389 398.315 256 398.32Z" fill="black"/>
<path d="M108.544 71.616C107.078 71.6556 105.619 71.401 104.253 70.8674C102.888 70.3338 101.643 69.532 100.592 68.5092C99.541 67.4865 98.7058 66.2635 98.1356 64.9127C97.5653 63.5618 97.2715 62.1103 97.2715 60.644C97.2715 59.1776 97.5653 57.7262 98.1356 56.3753C98.7058 55.0244 99.541 53.8015 100.592 52.7787C101.643 51.7559 102.888 50.9541 104.253 50.4205C105.619 49.8869 107.078 49.6324 108.544 49.672H141.344C142.81 49.6324 144.268 49.8869 145.634 50.4205C147 50.9541 148.245 51.7559 149.296 52.7787C150.347 53.8015 151.182 55.0244 151.752 56.3753C152.322 57.7262 152.616 59.1776 152.616 60.644C152.616 62.1103 152.322 63.5618 151.752 64.9127C151.182 66.2635 150.347 67.4865 149.296 68.5092C148.245 69.532 147 70.3338 145.634 70.8674C144.268 71.401 142.81 71.6556 141.344 71.616H108.544Z" fill="black"/>
<path d="M258.52 74.0239C265.912 74.0239 271.904 68.0316 271.904 60.6399C271.904 53.2481 265.912 47.2559 258.52 47.2559C251.128 47.2559 245.136 53.2481 245.136 60.6399C245.136 68.0316 251.128 74.0239 258.52 74.0239Z" fill="black"/>
<path d="M305.064 74.0239C312.455 74.0239 318.448 68.0316 318.448 60.6399C318.448 53.2481 312.455 47.2559 305.064 47.2559C297.672 47.2559 291.68 53.2481 291.68 60.6399C291.68 68.0316 297.672 74.0239 305.064 74.0239Z" fill="black"/>
<path d="M351.608 74.0239C358.999 74.0239 364.992 68.0316 364.992 60.6399C364.992 53.2481 358.999 47.2559 351.608 47.2559C344.216 47.2559 338.224 53.2481 338.224 60.6399C338.224 68.0316 344.216 74.0239 351.608 74.0239Z" fill="black"/>
<path d="M258.52 74.0239C265.912 74.0239 271.904 68.0316 271.904 60.6399C271.904 53.2481 265.912 47.2559 258.52 47.2559C251.128 47.2559 245.136 53.2481 245.136 60.6399C245.136 68.0316 251.128 74.0239 258.52 74.0239Z" fill="black"/>
<path d="M305.064 74.0239C312.455 74.0239 318.448 68.0316 318.448 60.6399C318.448 53.2481 312.455 47.2559 305.064 47.2559C297.672 47.2559 291.68 53.2481 291.68 60.6399C291.68 68.0316 297.672 74.0239 305.064 74.0239Z" fill="black"/>
<path d="M351.608 74.0239C358.999 74.0239 364.992 68.0316 364.992 60.6399C364.992 53.2481 358.999 47.2559 351.608 47.2559C344.216 47.2559 338.224 53.2481 338.224 60.6399C338.224 68.0316 344.216 74.0239 351.608 74.0239Z" fill="black"/>
</g>
<defs>
<clipPath id="clip0_3582_11365">
<rect width="512" height="512" fill="white" transform="translate(0 0.664062)"/>
</clipPath>
</defs>
</svg>
