<svg width="60" height="60" viewBox="0 0 60 60" fill="none" xmlns="http://www.w3.org/2000/svg">
<g clip-path="url(#clip0_3618_11729)">
<path d="M54.8808 16.4297C55.3662 16.4297 55.7597 16.0364 55.7597 15.5509V5.72863C55.7597 2.56984 53.1897 0 50.0311 0H9.96899C6.81032 0 4.24048 2.56984 4.24048 5.72863V54.2713C4.24048 57.43 6.81032 60 9.9691 60H50.0312C53.19 60 55.7598 57.43 55.7598 54.2713V19.2961C55.7598 18.8107 55.3663 18.4173 54.881 18.4173C54.3956 18.4173 54.0021 18.8107 54.0021 19.2961V44.7429H46.1858C45.7005 44.7429 45.307 45.1362 45.307 45.6217C45.307 46.1072 45.7005 46.5006 46.1858 46.5006H54.0021V54.2311H5.99816V46.5006H13.8144C14.2998 46.5006 14.6933 46.1072 14.6933 45.6217C14.6933 45.1362 14.2998 44.7429 13.8144 44.7429H5.99816V12.8555H10.3591C10.8444 12.8555 11.2379 12.4622 11.2379 11.9767C11.2379 11.4912 10.8444 11.0979 10.3591 11.0979H5.99816V5.72863C5.99816 3.53903 7.77951 1.75768 9.96899 1.75768H50.0311C52.2207 1.75768 54.002 3.53903 54.002 5.72863V11.0979H14.1043C13.619 11.0979 13.2255 11.4912 13.2255 11.9767C13.2255 12.4622 13.619 12.8555 14.1043 12.8555H54.0019V15.5509C54.002 16.0364 54.3954 16.4297 54.8808 16.4297ZM50.0311 58.2423H9.96899C8.39422 58.2423 7.03062 57.3208 6.38906 55.9887H53.611C52.9694 57.3208 51.6058 58.2423 50.0311 58.2423Z" fill="#484848"/>
<path d="M32.9333 6.5134C32.9333 4.86365 31.5911 3.52148 29.9414 3.52148C28.2916 3.52148 26.9495 4.86365 26.9495 6.5134C26.9495 8.16316 28.2916 9.50533 29.9414 9.50533C31.5911 9.50533 32.9333 8.16316 32.9333 6.5134ZM28.707 6.5134C28.707 5.83283 29.2607 5.27916 29.9413 5.27916C30.6218 5.27916 31.1755 5.83295 31.1755 6.5134C31.1755 7.19386 30.6218 7.74765 29.9413 7.74765C29.2607 7.74765 28.707 7.19386 28.707 6.5134Z" fill="#484848"/>
<path d="M24.7675 6.5134C24.7675 4.86365 23.4254 3.52148 21.7756 3.52148C20.1259 3.52148 18.7837 4.86365 18.7837 6.5134C18.7837 8.16316 20.1259 9.50533 21.7756 9.50533C23.4254 9.50533 24.7675 8.16316 24.7675 6.5134ZM20.5413 6.5134C20.5413 5.83283 21.0949 5.27916 21.7755 5.27916C22.4561 5.27916 23.0097 5.83295 23.0097 6.5134C23.0097 7.19386 22.4561 7.74765 21.7755 7.74765C21.0949 7.74765 20.5413 7.19386 20.5413 6.5134Z" fill="#484848"/>
<path d="M16.6016 6.5134C16.6016 4.86365 15.2595 3.52148 13.6097 3.52148C11.96 3.52148 10.6177 4.86365 10.6177 6.5134C10.6177 8.16316 11.9598 9.50533 13.6096 9.50533C15.2594 9.50533 16.6016 8.16316 16.6016 6.5134ZM12.3754 6.5134C12.3754 5.83283 12.929 5.27916 13.6096 5.27916C14.2902 5.27916 14.8438 5.83295 14.8438 6.5134C14.8438 7.19386 14.2902 7.74765 13.6096 7.74765C12.929 7.74765 12.3754 7.19386 12.3754 6.5134Z" fill="#484848"/>
<path d="M41.0993 6.5134C41.0993 4.86365 39.7572 3.52148 38.1074 3.52148C36.4576 3.52148 35.1155 4.86365 35.1155 6.5134C35.1155 8.16316 36.4576 9.50533 38.1074 9.50533C39.7572 9.50533 41.0993 8.16316 41.0993 6.5134ZM36.873 6.5134C36.873 5.83283 37.4267 5.27916 38.1073 5.27916C38.7879 5.27916 39.3415 5.83295 39.3415 6.5134C39.3415 7.19386 38.7879 7.74765 38.1073 7.74765C37.4267 7.74765 36.873 7.19386 36.873 6.5134Z" fill="#484848"/>
<path d="M49.2653 6.5134C49.2653 4.86365 47.9232 3.52148 46.2734 3.52148C44.6237 3.52148 43.2815 4.86365 43.2815 6.5134C43.2815 8.16316 44.6237 9.50533 46.2734 9.50533C47.9232 9.50533 49.2653 8.16316 49.2653 6.5134ZM45.0391 6.5134C45.0391 5.83283 45.5927 5.27916 46.2733 5.27916C46.9539 5.27916 47.5075 5.83295 47.5075 6.5134C47.5075 7.19386 46.9539 7.74765 46.2733 7.74765C45.5927 7.74765 45.0391 7.19386 45.0391 6.5134Z" fill="#484848"/>
<path d="M12.987 34.179C12.5047 34.2337 12.1581 34.669 12.2128 35.1512C13.235 44.1662 20.8568 50.9644 29.9414 50.9644C39.7809 50.9644 47.7859 42.9594 47.7859 33.1199C47.7859 23.2804 39.7809 15.2754 29.9415 15.2754C25.508 15.2754 21.2573 16.9125 17.9727 19.885C14.7119 22.836 12.6612 26.8593 12.1986 31.2141C12.1473 31.6967 12.4969 32.1297 12.9797 32.1809C13.4618 32.232 13.8952 31.8824 13.9464 31.3997C14.3635 27.4754 16.2122 23.8489 19.1521 21.1882C22.113 18.5087 25.9447 17.0331 29.9415 17.0331C38.8118 17.0331 46.0283 24.2495 46.0283 33.1198C46.0283 41.9901 38.8117 49.2067 29.9415 49.2067C21.7516 49.2067 14.8808 43.0791 13.9593 34.9532C13.9046 34.4709 13.4691 34.1246 12.987 34.179Z" fill="#484848"/>
<path d="M29.387 18.8016C21.9599 19.0837 15.9144 25.122 15.6236 32.5484C15.4698 36.4806 16.8875 40.2086 19.6159 43.046C22.3464 45.8853 26.0134 47.4491 29.9416 47.4491C35.1641 47.4491 39.9776 44.5977 42.5037 40.0075C42.7235 39.608 42.7523 39.1359 42.5826 38.7121C42.4128 38.2884 42.0657 37.9669 41.6304 37.8297L40.5346 37.4846C40.3026 37.4115 40.1468 37.199 40.1468 36.9559V29.2841C40.1468 29.0409 40.3026 28.8285 40.5345 28.7554L41.6304 28.4103C42.0654 28.2733 42.4123 27.9517 42.5821 27.5283C42.7521 27.104 42.7232 26.6309 42.5026 26.2305C39.8657 21.4411 34.8404 18.5942 29.387 18.8016ZM40.8185 39.4168C38.5656 43.2949 34.4249 45.6915 29.9414 45.6915C26.4959 45.6915 23.2788 44.3194 20.8827 41.8277C18.9913 39.8607 17.8185 37.4059 17.4758 34.7604L22.9123 32.5171C25.2095 31.5694 27.7524 31.5382 30.0722 32.4297L31.7922 33.0907C33.8905 33.8973 36.2012 34.0616 38.389 33.5741V36.956C38.389 37.97 39.039 38.8563 40.0063 39.161H40.0064L40.8185 39.4168ZM40.0064 27.0791C39.0391 27.384 38.3891 28.2701 38.3891 29.2842V31.7653C36.4263 32.2885 34.3218 32.1799 32.4228 31.4499L30.7029 30.7889C27.9617 29.7356 24.9569 29.7721 22.242 30.8923L17.3724 32.9017C17.374 32.8069 17.3763 32.7121 17.38 32.6171C17.635 26.1024 22.9384 20.8054 29.4537 20.5579C29.6173 20.5517 29.7797 20.5486 29.9423 20.5486C34.4399 20.5486 38.5506 22.9149 40.8187 26.8233L40.0064 27.0791Z" fill="#484848"/>
<path d="M42.1238 30.6718V35.6851C42.1238 36.1705 42.5173 36.5639 43.0026 36.5639C43.488 36.5639 43.8815 36.1705 43.8815 35.6851V30.6718C43.8815 30.1863 43.488 29.793 43.0026 29.793C42.5173 29.793 42.1238 30.1863 42.1238 30.6718Z" fill="#484848"/>
<path d="M51.9927 18.5875V16.2582C51.9927 15.3717 51.2715 14.6504 50.3849 14.6504H46.3881C45.5015 14.6504 44.7803 15.3716 44.7803 16.2582V18.5875C44.7803 19.4739 45.5015 20.1953 46.3881 20.1953H50.3849C51.2714 20.1953 51.9927 19.4739 51.9927 18.5875ZM50.2351 18.4376H46.5378V16.4082H50.2351V18.4376Z" fill="#484848"/>
</g>
<defs>
<clipPath id="clip0_3618_11729">
<rect width="60" height="60" fill="white"/>
</clipPath>
</defs>
</svg>
