<svg width="24" height="24" viewBox="0 0 24 24" fill="none" xmlns="http://www.w3.org/2000/svg">
<g clip-path="url(#clip0_1536_20282)">
<path d="M23.9915 9.889C23.9819 9.66967 23.8597 9.26308 23.1489 9.00437L4.19669 2.11314C3.2252 1.75965 2.14708 2.26225 1.79345 3.23378L1.28041 4.64326C1.28041 4.64326 1.28036 4.6434 1.28031 4.6435L0.126109 7.81473C-0.227469 8.78631 0.275219 9.86434 1.24689 10.218L6.77045 12.2261C6.6655 12.8645 6.84058 13.4953 7.22167 13.9779L6.04502 17.2105C5.99087 17.3593 5.848 17.4593 5.68952 17.4593H2.24219V16.3343C2.24219 15.714 1.73753 15.2093 1.11719 15.2093H0.367188C0.160094 15.2093 -0.0078125 15.3772 -0.0078125 15.5843V21.5843C-0.0078125 21.7914 0.160094 21.9593 0.367188 21.9593H1.11719C1.73753 21.9593 2.24219 21.4546 2.24219 20.8343V19.7093H5.68952C6.79052 19.7093 7.78305 19.0142 8.15931 17.9798L9.31122 14.8151C9.97042 14.7226 10.5695 14.3377 10.9251 13.7365L17.3799 16.0832C17.5909 16.16 17.8068 16.1964 18.0193 16.1964C18.6639 16.1964 19.2764 15.8613 19.6194 15.302L20.3601 15.5716C20.4438 15.602 20.5305 15.6172 20.617 15.6172C20.7249 15.6172 20.8325 15.5936 20.9332 15.5466C21.1147 15.462 21.2523 15.3118 21.3207 15.1237L22.3472 12.3036C22.472 11.9606 22.3295 11.5847 22.027 11.4042L23.2292 10.8437C23.9148 10.524 24.001 10.1083 23.9915 9.889ZM1.49219 20.8343C1.49219 21.0411 1.32395 21.2093 1.11719 21.2093H0.742188V15.9593H1.11719C1.32395 15.9593 1.49219 16.1275 1.49219 16.3343V20.8343ZM7.45455 17.7234C7.18563 18.4626 6.47631 18.9593 5.68952 18.9593H2.24219V18.2093H5.68952C6.16211 18.2093 6.58816 17.911 6.74978 17.4671L7.82627 14.5096C7.94978 14.5838 8.08211 14.6475 8.22264 14.6986C8.32239 14.7349 8.42303 14.7637 8.52386 14.7855L7.45455 17.7234ZM9.04394 14.0852C9.03527 14.0851 9.02664 14.0851 9.01801 14.0856C8.83942 14.088 8.65722 14.0587 8.47914 13.9938C8.27069 13.918 8.08891 13.8012 7.93998 13.6557C7.92634 13.6391 7.9112 13.6238 7.89466 13.6097C7.61538 13.3122 7.46584 12.9084 7.49416 12.4892L10.2016 13.4735C9.92762 13.8497 9.49881 14.0711 9.04394 14.0852ZM21.6425 12.0471L20.6167 14.8669L19.9114 14.6102L20.8844 11.9371L21.0835 11.8442L21.6425 12.0471ZM22.9123 10.1639L20.9076 11.0987C20.9074 11.0988 20.9072 11.0989 20.907 11.099L20.4269 11.3229C20.4267 11.323 20.4266 11.323 20.4264 11.3231L19.8635 11.5855C19.203 11.8936 18.0662 11.9432 17.3811 11.6938L6.53383 7.75253C6.33925 7.68189 6.12405 7.7823 6.05331 7.97692C5.98258 8.17159 6.08303 8.3867 6.2777 8.45748L17.1248 12.3987C17.5023 12.5361 17.9675 12.603 18.4422 12.603C18.9613 12.603 19.4913 12.5226 19.9299 12.3669L19.0785 14.706C18.8664 15.289 18.2195 15.5905 17.6365 15.3783L1.50325 9.5132C0.920313 9.30105 0.618719 8.65422 0.830875 8.07128L1.4725 6.3084C1.68648 6.63737 2.00472 6.90226 2.40109 7.04655L2.75359 7.1748C2.94803 7.24567 3.16338 7.14526 3.2342 6.95064C3.30503 6.75606 3.20467 6.54086 3.01005 6.47003L2.65759 6.34178C2.07475 6.12962 1.77311 5.48294 1.98512 4.90004L2.11347 4.5474L2.11352 4.54726L2.49822 3.49028C2.71042 2.90734 3.35725 2.60561 3.94028 2.8179L22.8925 9.70919C23.1332 9.7968 23.2223 9.88811 23.2404 9.92176C23.2253 9.95692 23.1445 10.0556 22.9123 10.1639Z" fill="#484848"/>
<path d="M6.76494 7.83547L3.07369 6.48662C2.87911 6.4157 2.66391 6.51615 2.59303 6.71073C2.5222 6.9053 2.62251 7.12051 2.81714 7.19138L6.5084 8.54025C6.55072 8.55567 6.59404 8.56294 6.63665 8.56294C6.78983 8.56294 6.9336 8.46834 6.98905 8.31609C7.05993 8.12156 6.95957 7.90635 6.76494 7.83547Z" fill="#484848"/>
</g>
<defs>
<clipPath id="clip0_1536_20282">
<rect width="24" height="24" fill="white"/>
</clipPath>
</defs>
</svg>
