<svg width="32" height="30" viewBox="0 0 32 30" fill="none" xmlns="http://www.w3.org/2000/svg">
<path d="M31.9878 13.3025C31.9276 12.7355 31.6502 12.2267 31.1889 11.855L28.2668 9.69239V4.40021H24.0002V6.53511L16.0318 0.638672L0.83314 11.334C0.381414 11.6812 0.0918189 12.1841 0.0182202 12.7489C-0.0553786 13.3142 0.0955522 13.8737 0.442746 14.3254C1.1606 15.2576 2.50138 15.4326 3.41283 14.7318L3.73389 14.5094V15.7878C3.10564 16.0885 2.66724 16.7253 2.66724 17.4672C2.66724 18.209 3.10564 18.8458 3.73389 19.1466V21.121C3.10564 21.4218 2.66724 22.0586 2.66724 22.8004C2.66724 23.5423 3.10564 24.1791 3.73389 24.4799V26.4542C3.10564 26.755 2.66724 27.3918 2.66724 28.1337C2.66724 29.163 3.50456 30.0003 4.53388 30.0003H12.2671H13.3337H18.667H19.7336H27.4668C28.4961 30.0003 29.3335 29.163 29.3335 28.1337C29.3335 27.1961 28.6359 26.4249 27.7335 26.2942V24.6399C28.6359 24.5092 29.3335 23.738 29.3335 22.8004C29.3335 21.8629 28.6359 21.0917 27.7335 20.961V19.3066C28.6359 19.176 29.3335 18.4048 29.3335 17.4672C29.3335 16.5296 28.6359 15.7584 27.7335 15.6278V14.6107L28.5372 15.1968C28.9287 15.5094 29.3975 15.6608 29.8641 15.6608C30.487 15.6608 31.1052 15.3899 31.5265 14.8688C31.8844 14.4256 32.0486 13.8694 31.9878 13.3025ZM25.0669 5.46739H27.2002V8.90307L25.0669 7.32443V5.46739ZM12.2671 24.6671V26.267H4.80054V24.6671H12.2671ZM4.80054 20.9338V19.3338H12.2671V20.9338H4.80054ZM4.53388 22.0005H12.2671V23.6004H4.53388C4.09282 23.6004 3.73389 23.2415 3.73389 22.8004C3.73389 22.3594 4.09282 22.0005 4.53388 22.0005ZM12.2671 28.9337H4.53388C4.09282 28.9337 3.73389 28.5747 3.73389 28.1337C3.73389 27.6926 4.09282 27.3337 4.53388 27.3337H12.2671V28.9337ZM18.667 28.9337H13.3337V26.8004V26.267V24.6671V24.1337V21.4671V20.9338V19.3338H18.667V20.9338V21.4671V24.1337V24.6671V26.267V26.8004V28.9337ZM19.7336 20.9338V19.3338H26.6668V20.9338H19.7336ZM19.7336 26.267V24.6671H26.6668V26.267H19.7336ZM28.2668 28.1337C28.2668 28.5747 27.9079 28.9337 27.4668 28.9337H19.7336V27.3337H27.4668C27.9079 27.3337 28.2668 27.6926 28.2668 28.1337ZM28.2668 22.8004C28.2668 23.2415 27.9079 23.6004 27.4668 23.6004H19.7336V22.0005H27.4668C27.9079 22.0005 28.2668 22.3594 28.2668 22.8004ZM28.2668 17.4672C28.2668 17.9083 27.9079 18.2672 27.4668 18.2672H19.7336H12.2671H4.53388C4.09282 18.2672 3.73389 17.9083 3.73389 17.4672C3.73389 17.0261 4.09282 16.6672 4.53388 16.6672H12.8004H19.2003H27.4668C27.9079 16.6672 28.2668 17.0261 28.2668 17.4672ZM18.1337 15.6006H16.5337V14.0006H18.1337V15.6006ZM18.1337 12.9339H16.5337V11.334H18.1337V12.9339ZM15.467 12.9339H13.8671V11.334H15.467V12.9339ZM13.8671 14.0006H15.467V15.6006H13.8671V14.0006ZM21.3336 14.0006H26.6668V15.6006H19.2003V10.2673H12.8004V15.6006H4.80054V14.0006H10.6671C10.962 14.0006 11.2004 13.7622 11.2004 13.4673C11.2004 13.1723 10.962 12.9339 10.6671 12.9339H6.00585L8.31355 11.334H11.2004V10.2673H9.85219L12.1599 8.66734H19.5886L20.8664 9.59959L21.7816 10.2673H20.8008V11.334H23.2434L25.4365 12.9339H21.3341C21.0392 12.9339 20.8008 13.1723 20.8008 13.4673C20.8008 13.7622 21.0387 14.0006 21.3336 14.0006ZM13.698 7.60069L15.9689 6.02632L18.1267 7.60069H13.698ZM30.6961 14.199C30.327 14.6555 29.6535 14.7286 29.1959 14.3584L27.7026 13.2689L27.246 12.9339H27.2439L25.0514 11.334H25.0525L19.9358 7.60069L15.9838 4.717L11.8255 7.60069L6.44105 11.334H6.44211L4.10135 12.9569L4.09815 12.9574L3.90936 13.0902L2.78404 13.8705C2.31685 14.2288 1.64593 14.1414 1.28807 13.6758C1.1142 13.4497 1.039 13.1697 1.0758 12.887C1.1126 12.6043 1.25767 12.3531 1.4646 12.1926L16.0164 1.95438L24.0002 7.86202L25.1719 8.7292L30.5372 12.6993C30.7585 12.8779 30.8977 13.1329 30.927 13.4161C30.9574 13.6987 30.8753 13.9771 30.6961 14.199Z" fill="black"/>
</svg>
