<svg width="32" height="32" viewBox="0 0 32 32" fill="none" xmlns="http://www.w3.org/2000/svg">
<path d="M31.056 10.6049L27.8546 8.15353C27.8664 8.10417 27.8747 8.05332 27.8747 7.99998V2.4615C27.8747 2.12167 27.619 1.84609 27.3036 1.84609H23.877C23.5616 1.84609 23.3059 2.12161 23.3059 2.4615V4.67059L17.3546 0.113748C17.2579 0.0398015 17.1424 0 17.0237 0H14.6757C14.5551 0 14.4376 0.0411484 14.34 0.117519L0.939393 10.6086C-0.0786054 11.4057 -0.304605 12.9474 0.435769 14.0456C0.793893 14.5767 1.32277 14.9262 1.92502 15.0296C2.04695 15.0505 2.16883 15.0608 2.28983 15.0608C2.4442 15.0608 2.59677 15.0422 2.74627 15.0091V29.5406C2.74627 30.8967 3.77283 32 5.03464 32H11.8839H19.8793H26.7285C27.9904 32 29.0169 30.8966 29.0169 29.5406V14.9414C29.3542 15.0586 29.7145 15.0913 30.0753 15.0295C30.6776 14.9261 31.2065 14.5767 31.5646 14.0454C32.3048 12.9474 32.079 11.4056 31.056 10.6049ZM24.4481 5.53841V3.07691H26.7325V7.29433L24.4475 5.54468C24.4475 5.54259 24.4481 5.54057 24.4481 5.53841ZM19.3082 30.7692H12.455V21.5384H19.3082V30.7692ZM27.8747 29.5405C27.8747 30.218 27.3605 30.7692 26.7285 30.7692H20.4504V20.923C20.4504 20.5832 20.1947 20.3076 19.8792 20.3076H11.8839C11.5685 20.3076 11.3128 20.5831 11.3128 20.923V30.7692H5.03464C4.40258 30.7692 3.88845 30.218 3.88845 29.5405V14.3866L15.8846 5.06396L27.8747 14.2095V29.5405ZM30.6404 13.3222C30.4615 13.5877 30.1969 13.7624 29.8955 13.8141C29.5943 13.8664 29.2929 13.7885 29.0411 13.5913L16.2115 3.80546C16.0121 3.65339 15.7453 3.65447 15.5475 3.80863L2.95345 13.5957C2.70745 13.7883 2.40633 13.8662 2.10483 13.8142C1.80345 13.7625 1.53889 13.5878 1.35983 13.3223C0.989643 12.7731 1.10221 12.0026 1.6107 11.6044L14.8613 1.23075H16.8416L30.3896 11.6044C30.898 12.0025 31.0106 12.7731 30.6404 13.3222Z" fill="#484848"/>
</svg>
