<svg width="24" height="22" viewBox="0 0 24 22" fill="none" xmlns="http://www.w3.org/2000/svg">
<path d="M23.2 5H6.8C6.57909 5 6.4 5.17909 6.4 5.4C6.4 5.62091 6.57909 5.8 6.8 5.8H9.218C7.44284 6.92958 6.37716 8.89604 6.4 11C6.37716 13.104 7.44284 15.0704 9.218 16.2H0.8V5.8H4.8C5.02091 5.8 5.2 5.62091 5.2 5.4C5.2 5.17909 5.02091 5 4.8 5H0.8C0.358172 5 0 5.35817 0 5.8V16.2C0 16.6418 0.358172 17 0.8 17H23.2C23.6418 17 24 16.6418 24 16.2V5.8C24 5.35817 23.6418 5 23.2 5ZM7.2 11C7.2 8.1328 9.3532 5.8 12 5.8C14.6468 5.8 16.8 8.1328 16.8 11C16.8 13.8672 14.6468 16.2 12 16.2C9.3532 16.2 7.2 13.8672 7.2 11ZM23.2 16.2H14.782C16.5572 15.0704 17.6228 13.104 17.6 11C17.6228 8.89604 16.5572 6.92958 14.782 5.8H23.2V16.2Z" fill="#8FE381"/>
<path d="M21.093 0.684196C20.9036 0.589427 20.6844 0.573605 20.4834 0.640196L11.8674 3.5278C11.6575 3.59805 11.5443 3.82513 11.6146 4.035C11.6848 4.24486 11.9119 4.35805 12.1218 4.2878L20.7354 1.4002L21.6194 4.0358C21.6648 4.17156 21.7791 4.2728 21.9194 4.30139C22.0596 4.32997 22.2045 4.28156 22.2994 4.17439C22.3943 4.06721 22.4248 3.91756 22.3794 3.7818L21.495 1.1478C21.4291 0.945317 21.2841 0.778102 21.093 0.684196Z" fill="#8FE381"/>
<path d="M11.876 17.7126L3.26243 20.5998L2.37843 17.9642C2.30829 17.7543 2.08129 17.6411 1.87143 17.7112C1.66156 17.7813 1.54829 18.0083 1.61843 18.2182L2.50123 20.8514C2.56665 21.0535 2.71088 21.2207 2.90123 21.315C3.01197 21.3701 3.13394 21.3988 3.25763 21.399C3.34361 21.3991 3.42907 21.3856 3.51083 21.359L12.1268 18.4714C12.3367 18.4011 12.4499 18.1741 12.3796 17.9642C12.3094 17.7543 12.0823 17.6411 11.8724 17.7114L11.876 17.7126Z" fill="#8FE381"/>
<path d="M13.2 9.60039C13.2 9.8213 13.3791 10.0004 13.6 10.0004C13.8209 10.0004 14 9.8213 14 9.60039C13.9614 8.70375 13.2887 7.96224 12.4 7.83679V7.80039C12.4 7.57948 12.2209 7.40039 12 7.40039C11.7791 7.40039 11.6 7.57948 11.6 7.80039V7.83679C10.7113 7.96224 10.0386 8.70375 10 9.60039C10.0386 10.497 10.7113 11.2385 11.6 11.364V13.3388C11.1549 13.2378 10.8293 12.8559 10.8 12.4004C10.8 12.1795 10.6209 12.0004 10.4 12.0004C10.1791 12.0004 10 12.1795 10 12.4004C10.0386 13.297 10.7113 14.0385 11.6 14.164V14.2004C11.6 14.4213 11.7791 14.6004 12 14.6004C12.2209 14.6004 12.4 14.4213 12.4 14.2004V14.164C13.2887 14.0385 13.9614 13.297 14 12.4004C13.9614 11.5038 13.2887 10.7622 12.4 10.6368V8.66199C12.8451 8.76298 13.1707 9.14488 13.2 9.60039ZM10.8 9.60039C10.8293 9.14488 11.1549 8.76298 11.6 8.66199V10.5388C11.1549 10.4378 10.8293 10.0559 10.8 9.60039ZM13.2 12.4004C13.1707 12.8559 12.8451 13.2378 12.4 13.3388V11.462C12.8451 11.563 13.1707 11.9449 13.2 12.4004Z" fill="#8FE381"/>
<path d="M20.4 15.4H22C22.2209 15.4 22.4 15.2209 22.4 15V13.4C22.4 13.1791 22.2209 13 22 13C21.7791 13 21.6 13.1791 21.6 13.4V14.6H20.4C20.1791 14.6 20 14.7791 20 15C20 15.2209 20.1791 15.4 20.4 15.4Z" fill="#8FE381"/>
<path d="M2.00156 13C1.78065 13 1.60156 13.1791 1.60156 13.4V15C1.60156 15.2209 1.78065 15.4 2.00156 15.4H3.60156C3.82248 15.4 4.00156 15.2209 4.00156 15C4.00156 14.7791 3.82248 14.6 3.60156 14.6H2.40156V13.4C2.40156 13.1791 2.22248 13 2.00156 13Z" fill="#8FE381"/>
<path d="M3.60156 6.60059H2.00156C1.78065 6.60059 1.60156 6.77967 1.60156 7.00059V8.60059C1.60156 8.8215 1.78065 9.00059 2.00156 9.00059C2.22248 9.00059 2.40156 8.8215 2.40156 8.60059V7.40059H3.60156C3.82248 7.40059 4.00156 7.2215 4.00156 7.00059C4.00156 6.77967 3.82248 6.60059 3.60156 6.60059Z" fill="#8FE381"/>
<path d="M20.4 7.40059H21.6V8.60059C21.6 8.8215 21.7791 9.00059 22 9.00059C22.2209 9.00059 22.4 8.8215 22.4 8.60059V7.00059C22.4 6.77967 22.2209 6.60059 22 6.60059H20.4C20.1791 6.60059 20 6.77967 20 7.00059C20 7.2215 20.1791 7.40059 20.4 7.40059Z" fill="#8FE381"/>
</svg>
