<svg width="24" height="24" viewBox="0 0 24 24" fill="#5cb85c" xmlns="http://www.w3.org/2000/svg">
<path d="M4.16397 16.3491C3.97197 16.3491 3.78034 16.2759 3.63372 16.1293C3.34084 15.8364 3.34084 15.3617 3.63372 15.0688L15.354 3.34856C15.6465 3.05569 16.1216 3.05569 16.4145 3.34856C16.7073 3.64144 16.7073 4.11619 16.4145 4.40906L4.69422 16.1293C4.54797 16.2756 4.35597 16.3491 4.16397 16.3491Z" fill="#8C8C8C"/>
<path d="M3.00466 21.7499C2.95253 21.7499 2.89966 21.7443 2.84678 21.733C2.44178 21.646 2.18378 21.2474 2.27078 20.8424L3.42953 15.4413C3.51653 15.0363 3.91703 14.779 4.32016 14.8653C4.72516 14.9523 4.98316 15.3509 4.89616 15.7559L3.73741 21.157C3.66203 21.5092 3.35078 21.7499 3.00466 21.7499Z" fill="#8C8C8C"/>
<path d="M8.40616 20.5909C8.21416 20.5909 8.02253 20.5178 7.87591 20.3711C7.58303 20.0783 7.58303 19.6035 7.87591 19.3106L19.5962 7.59075C19.8887 7.29787 20.3638 7.29787 20.6567 7.59075C20.9495 7.88363 20.9495 8.35837 20.6567 8.65125L8.93678 20.3711C8.79016 20.5178 8.59816 20.5909 8.40616 20.5909Z" fill="#8C8C8C"/>
<path d="M3.00342 21.7496C2.65729 21.7496 2.34642 21.5088 2.27067 21.1567C2.18404 20.7517 2.44167 20.3531 2.84667 20.2661L8.24779 19.1073C8.65317 19.0215 9.0518 19.2787 9.13842 19.6833C9.22504 20.0883 8.96742 20.487 8.56242 20.574L3.16129 21.7327C3.10842 21.7443 3.05554 21.7496 3.00342 21.7496Z" fill="#8C8C8C"/>
<path d="M18.004 10.9923C17.812 10.9923 17.62 10.9192 17.4738 10.7725L13.2314 6.53016C12.9385 6.23728 12.9385 5.76253 13.2314 5.46966C13.5239 5.17678 13.9994 5.17678 14.2919 5.46966L18.5343 9.71203C18.8271 10.0049 18.8271 10.4797 18.5343 10.7725C18.388 10.9192 18.196 10.9923 18.004 10.9923Z" fill="#8C8C8C"/>
<path d="M20.1258 8.87147C19.9338 8.87147 19.7418 8.79834 19.5952 8.65172C19.3023 8.35884 19.3023 7.88409 19.5952 7.59084C20.0126 7.17347 20.2425 6.60834 20.2425 6.00009C20.2425 5.39184 20.0126 4.82672 19.5952 4.40934C19.1775 3.99159 18.6123 3.76172 18.0041 3.76172C17.3958 3.76172 16.8307 3.99159 16.4133 4.40934C16.1208 4.70222 15.6461 4.70259 15.3525 4.40934C15.0596 4.11647 15.0596 3.64172 15.3525 3.34847C16.053 2.64759 16.9946 2.26172 18.0041 2.26172C19.0132 2.26172 19.9552 2.64759 20.6557 3.34847C21.3566 4.04897 21.7425 4.99059 21.7425 6.00009C21.7425 7.00959 21.3566 7.95122 20.6557 8.65172C20.5098 8.79797 20.3178 8.87147 20.1258 8.87147Z" fill="#8C8C8C"/>
</svg>
