<svg width="512" height="513" viewBox="0 0 512 513" fill="none" xmlns="http://www.w3.org/2000/svg">
<g clip-path="url(#clip0_1349_32413)">
<path fill-rule="evenodd" clip-rule="evenodd" d="M256 512.664C114.841 512.664 0 397.823 0 256.664C0 115.505 114.841 0.664062 256 0.664062C397.159 0.664062 512 115.505 512 256.664C512 397.823 397.159 512.664 256 512.664ZM388.758 346.595C391.914 346.595 394.483 344.027 394.483 340.87V180.153L264.233 283.585C261.823 285.5 258.91 286.457 255.999 286.457C253.088 286.457 250.176 285.499 247.765 283.585L117.516 180.153V340.87C117.516 344.027 120.085 346.595 123.241 346.595H388.758ZM368.798 166.733L256 256.308L143.201 166.733H368.798ZM420.966 172.458V340.872C420.966 358.631 406.517 373.08 388.758 373.08H123.241C105.481 373.08 91.034 358.631 91.034 340.872V172.458C91.034 154.699 105.482 140.251 123.241 140.251H388.758C406.517 140.25 420.966 154.699 420.966 172.458Z" fill="black"/>
</g>
<defs>
<clipPath id="clip0_1349_32413">
<rect width="512" height="512" fill="white" transform="translate(0 0.664062)"/>
</clipPath>
</defs>
</svg>
