<svg width="32" height="32" viewBox="0 0 32 32" fill="none" xmlns="http://www.w3.org/2000/svg">
<g clip-path="url(#clip0_2331_25130)">
<path fill-rule="evenodd" clip-rule="evenodd" d="M16 32C7.17756 32 0 24.8224 0 16C0 7.17756 7.17756 0 16 0C24.8224 0 32 7.17756 32 16C32 24.8224 24.8224 32 16 32ZM24.2974 21.6207C24.4946 21.6207 24.6552 21.4602 24.6552 21.2629V11.2181L16.5146 17.6826C16.3639 17.8022 16.1819 17.8621 15.9999 17.8621C15.818 17.8621 15.636 17.8022 15.4853 17.6826L7.34475 11.2181V21.2629C7.34475 21.4602 7.50531 21.6207 7.70256 21.6207H24.2974ZM23.0499 10.3793L16 15.9777L8.95006 10.3793H23.0499ZM26.3104 10.7371V21.263C26.3104 22.3729 25.4073 23.276 24.2974 23.276H7.70256C6.59256 23.276 5.68962 22.3729 5.68962 21.263V10.7371C5.68962 9.62719 6.59262 8.72419 7.70256 8.72419H24.2974C25.4073 8.72412 26.3104 9.62719 26.3104 10.7371Z" fill="#00A6BD"/>
</g>
<defs>
<clipPath id="clip0_2331_25130">
<rect width="32" height="32" fill="white"/>
</clipPath>
</defs>
</svg>
