<svg width="312" height="312" viewBox="0 0 312 312" fill="none" xmlns="http://www.w3.org/2000/svg">
<g clip-path="url(#clip0_1071_63447)">
<path d="M156 312C242.156 312 312 242.156 312 156C312 69.8436 242.156 0 156 0C69.8436 0 0 69.8436 0 156C0 242.156 69.8436 312 156 312Z" fill="#3B5998"/>
<path d="M195.217 162.111H167.381V264.09H125.207V162.111H105.148V126.271H125.207V103.079C125.207 86.4938 133.085 60.5234 167.756 60.5234L198.996 60.6541V95.4425H176.33C172.612 95.4425 167.384 97.3001 167.384 105.212V126.304H198.902L195.217 162.111Z" fill="white"/>
</g>
<defs>
<clipPath id="clip0_1071_63447">
<rect width="312" height="312" fill="white"/>
</clipPath>
</defs>
</svg>
