<svg width="64" height="64" viewBox="0 0 64 64" fill="none" xmlns="http://www.w3.org/2000/svg">
<rect width="64" height="64" rx="5" fill="#F66C6C"/>
<g clip-path="url(#clip0_2095_25600)">
<path d="M32.3064 25.8135C29.6024 25.8135 27.4102 28.0056 27.4102 30.7098C27.4102 33.4138 29.6022 35.606 32.3064 35.606C35.0105 35.606 37.2027 33.414 37.2027 30.7098C37.2027 28.0056 35.0106 25.8135 32.3064 25.8135ZM32.3064 33.2744C30.89 33.2744 29.7417 32.1261 29.7417 30.7096C29.7417 29.2932 30.89 28.1449 32.3064 28.1449C33.7229 28.1449 34.8712 29.2932 34.8712 30.7096C34.8712 32.1261 33.7229 33.2744 32.3064 33.2744Z" fill="white"/>
<path d="M51.8347 14.6222L20.0091 11.0084C18.7739 10.8328 17.5225 11.1934 16.5701 11.9993C15.6179 12.7377 15.0075 13.8322 14.8798 15.0303L14.2969 19.81H12.4899C9.92512 19.81 8.00158 22.0832 8.00158 24.6479V48.4879C7.93698 50.9336 9.86722 52.9688 12.313 53.0333C12.3719 53.0349 12.4309 53.0352 12.4899 53.0345H44.4903C47.055 53.0345 49.3866 51.0527 49.3866 48.4879V47.5553C50.1817 47.4017 50.936 47.0841 51.6015 46.6228C52.546 45.8276 53.1507 44.7015 53.2919 43.4752L55.9732 19.81C56.2466 17.2394 54.4018 14.9269 51.8347 14.6222ZM47.055 48.4879C47.055 49.7703 45.7727 50.7029 44.4903 50.7029H12.4899C11.3314 50.7369 10.3648 49.8254 10.3308 48.667C10.329 48.6073 10.3298 48.5476 10.3331 48.4879V44.1746L19.3679 37.5297C20.4533 36.6964 21.982 36.7705 22.9818 37.7045L29.3353 43.3003C30.3002 44.1103 31.5147 44.5632 32.7744 44.5826C33.7593 44.5947 34.7281 44.3324 35.5723 43.8248L47.0551 37.18V48.4879H47.055ZM47.055 34.4404L34.3481 41.8431C33.2569 42.4895 31.8758 42.3724 30.909 41.5516L24.4973 35.8976C22.6596 34.3186 19.9737 34.2217 18.0272 35.6644L10.3331 41.2601V24.6479C10.3331 23.3656 11.2075 22.1416 12.4899 22.1416H44.4903C45.8604 22.1983 46.9668 23.2797 47.055 24.6479V34.4404ZM53.6439 19.4953C53.6431 19.503 53.6425 19.5108 53.6416 19.5185L50.902 43.1837C50.9067 43.7973 50.6269 44.3784 50.1442 44.7574C49.9111 44.9906 49.3865 45.1072 49.3865 45.2238V24.6479C49.2944 21.9925 47.1465 19.8701 44.4902 19.81H16.6284L17.153 15.2635C17.2668 14.6747 17.5746 14.1412 18.0273 13.7479C18.5385 13.3945 19.1566 13.2297 19.776 13.2816L51.5434 16.9537C52.8251 17.0755 53.7656 18.2134 53.6439 19.4953Z" fill="white"/>
</g>
<defs>
<clipPath id="clip0_2095_25600">
<rect width="48" height="48" fill="white" transform="translate(8 8)"/>
</clipPath>
</defs>
</svg>
