<svg width="56" height="56" viewBox="0 0 56 56" fill="none" xmlns="http://www.w3.org/2000/svg">
<g clip-path="url(#clip0_2173_27062)">
<path d="M14.9757 0H2.02864C1.1707 0 0.46875 0.70195 0.46875 1.55989V14.507C0.46875 15.3649 1.1707 16.0669 2.02864 16.0669H14.9757C15.8337 16.0669 16.5356 15.3649 16.5356 14.507V1.55989C16.5356 0.70195 15.8337 0 14.9757 0ZM13.5718 13.1031H3.58853V3.11978H13.5718V13.1031Z" fill="#455A64"/>
<path d="M34.4718 0H21.5247C20.6668 0 19.9648 0.70195 19.9648 1.55989V14.507C19.9648 15.3649 20.6668 16.0669 21.5247 16.0669H34.4718C35.3297 16.0669 36.0317 15.3649 36.0317 14.507V1.55989C36.0317 0.70195 35.3297 0 34.4718 0ZM33.0679 13.1031H23.0846V3.11978H33.0679V13.1031Z" fill="#455A64"/>
<path d="M14.9757 19.6545H2.02864C1.1707 19.6545 0.46875 20.3565 0.46875 21.2144V34.1615C0.46875 35.0194 1.1707 35.7214 2.02864 35.7214H14.9757C15.8337 35.7214 16.5356 35.0194 16.5356 34.1615V21.2144C16.5356 20.3565 15.8337 19.6545 14.9757 19.6545ZM13.5718 32.6016H3.58853V22.7743H13.5718V32.6016Z" fill="#455A64"/>
<path d="M34.4718 19.6545H21.5247C20.6668 19.6545 19.9648 20.3565 19.9648 21.2144V34.1615C19.9648 35.0194 20.6668 35.7214 21.5247 35.7214H34.4718C35.3297 35.7214 36.0317 35.0194 36.0317 34.1615V21.2144C36.0317 20.3565 35.3297 19.6545 34.4718 19.6545ZM33.0679 32.6016H23.0846V22.7743H33.0679V32.6016Z" fill="#455A64"/>
<path d="M53.9718 0H41.0247C40.1668 0 39.4648 0.70195 39.4648 1.55989V14.507C39.4648 15.3649 40.1668 16.0669 41.0247 16.0669H53.9718C54.8297 16.0669 55.5317 15.3649 55.5317 14.507V1.55989C55.5317 0.70195 54.8297 0 53.9718 0ZM52.5679 13.1031H42.5846V3.11978H52.5679V13.1031Z" fill="#455A64"/>
<path d="M53.9718 19.6545H41.0247C40.1668 19.6545 39.4648 20.3565 39.4648 21.2144V34.1615C39.4648 35.0194 40.1668 35.7214 41.0247 35.7214H53.9718C54.8297 35.7214 55.5317 35.0194 55.5317 34.1615V21.2144C55.5317 20.3565 54.8297 19.6545 53.9718 19.6545ZM52.5679 32.6016H42.5846V22.7743H52.5679V32.6016Z" fill="#455A64"/>
<path d="M14.9757 39.9331H2.02864C1.1707 39.9331 0.46875 40.6351 0.46875 41.493V54.4401C0.46875 55.298 1.1707 56 2.02864 56H14.9757C15.8337 56 16.5356 55.298 16.5356 54.4401V41.493C16.5356 40.6351 15.8337 39.9331 14.9757 39.9331ZM13.5718 53.0362H3.58853V43.0529H13.5718V53.0362Z" fill="#455A64"/>
<path d="M34.4718 39.9331H21.5247C20.6668 39.9331 19.9648 40.6351 19.9648 41.493V54.4401C19.9648 55.298 20.6668 56 21.5247 56H34.4718C35.3297 56 36.0317 55.298 36.0317 54.4401V41.493C36.0317 40.6351 35.3297 39.9331 34.4718 39.9331ZM33.0679 53.0362H23.0846V43.0529H33.0679V53.0362Z" fill="#455A64"/>
<path d="M53.9718 39.9331H41.0247C40.1668 39.9331 39.4648 40.6351 39.4648 41.493V54.4401C39.4648 55.298 40.1668 56 41.0247 56H53.9718C54.8297 56 55.5317 55.298 55.5317 54.4401V41.493C55.5317 40.6351 54.8297 39.9331 53.9718 39.9331ZM52.5679 53.0362H42.5846V43.0529H52.5679V53.0362Z" fill="#455A64"/>
</g>
<defs>
<clipPath id="clip0_2173_27062">
<rect width="56" height="56" fill="white"/>
</clipPath>
</defs>
</svg>
