<svg width="16" height="16" viewBox="0 0 16 16" fill="none" xmlns="http://www.w3.org/2000/svg">
<g clip-path="url(#clip0_2034_26998)">
<path d="M4.27766 0H0.578495C0.33337 0 0.132812 0.200557 0.132812 0.445682V4.14485C0.132812 4.38997 0.33337 4.59053 0.578495 4.59053H4.27766C4.52278 4.59053 4.72334 4.38997 4.72334 4.14485V0.445682C4.72334 0.200557 4.52278 0 4.27766 0ZM3.87655 3.74373H1.02418V0.891365H3.87655V3.74373Z" fill="white"/>
<path d="M9.84797 0H6.14881C5.90368 0 5.70312 0.200557 5.70312 0.445682V4.14485C5.70312 4.38997 5.90368 4.59053 6.14881 4.59053H9.84797C10.0931 4.59053 10.2937 4.38997 10.2937 4.14485V0.445682C10.2937 0.200557 10.0931 0 9.84797 0ZM9.44686 3.74373H6.59449V0.891365H9.44686V3.74373Z" fill="white"/>
<path d="M4.27766 5.61523H0.578495C0.33337 5.61523 0.132812 5.81579 0.132812 6.06092V9.76008C0.132812 10.0052 0.33337 10.2058 0.578495 10.2058H4.27766C4.52278 10.2058 4.72334 10.0052 4.72334 9.76008V6.06092C4.72334 5.81579 4.52278 5.61523 4.27766 5.61523ZM3.87655 9.3144H1.02418V6.5066H3.87655V9.3144Z" fill="white"/>
<path d="M9.84797 5.61523H6.14881C5.90368 5.61523 5.70312 5.81579 5.70312 6.06092V9.76008C5.70312 10.0052 5.90368 10.2058 6.14881 10.2058H9.84797C10.0931 10.2058 10.2937 10.0052 10.2937 9.76008V6.06092C10.2937 5.81579 10.0931 5.61523 9.84797 5.61523ZM9.44686 9.3144H6.59449V6.5066H9.44686V9.3144Z" fill="white"/>
<path d="M15.4222 0H11.723C11.4779 0 11.2773 0.200557 11.2773 0.445682V4.14485C11.2773 4.38997 11.4779 4.59053 11.723 4.59053H15.4222C15.6673 4.59053 15.8679 4.38997 15.8679 4.14485V0.445682C15.8679 0.200557 15.6673 0 15.4222 0ZM15.0211 3.74373H12.1687V0.891365H15.0211V3.74373Z" fill="white"/>
<path d="M15.4222 5.61523H11.723C11.4779 5.61523 11.2773 5.81579 11.2773 6.06092V9.76008C11.2773 10.0052 11.4779 10.2058 11.723 10.2058H15.4222C15.6673 10.2058 15.8679 10.0052 15.8679 9.76008V6.06092C15.8679 5.81579 15.6673 5.61523 15.4222 5.61523ZM15.0211 9.3144H12.1687V6.5066H15.0211V9.3144Z" fill="white"/>
<path d="M4.27766 11.4092H0.578495C0.33337 11.4092 0.132812 11.6097 0.132812 11.8549V15.554C0.132812 15.7992 0.33337 15.9997 0.578495 15.9997H4.27766C4.52278 15.9997 4.72334 15.7992 4.72334 15.554V11.8549C4.72334 11.6097 4.52278 11.4092 4.27766 11.4092ZM3.87655 15.1529H1.02418V12.3005H3.87655V15.1529Z" fill="white"/>
<path d="M9.84797 11.4092H6.14881C5.90368 11.4092 5.70312 11.6097 5.70312 11.8549V15.554C5.70312 15.7992 5.90368 15.9997 6.14881 15.9997H9.84797C10.0931 15.9997 10.2937 15.7992 10.2937 15.554V11.8549C10.2937 11.6097 10.0931 11.4092 9.84797 11.4092ZM9.44686 15.1529H6.59449V12.3005H9.44686V15.1529Z" fill="white"/>
<path d="M15.4222 11.4092H11.723C11.4779 11.4092 11.2773 11.6097 11.2773 11.8549V15.554C11.2773 15.7992 11.4779 15.9997 11.723 15.9997H15.4222C15.6673 15.9997 15.8679 15.7992 15.8679 15.554V11.8549C15.8679 11.6097 15.6673 11.4092 15.4222 11.4092ZM15.0211 15.1529H12.1687V12.3005H15.0211V15.1529Z" fill="white"/>
</g>
<defs>
<clipPath id="clip0_2034_26998">
<rect width="16" height="16" fill="white"/>
</clipPath>
</defs>
</svg>
