<svg width="40" height="40" viewBox="0 0 40 40" fill="none" xmlns="http://www.w3.org/2000/svg">
<g clip-path="url(#clip0_2527_15470)">
<path d="M33.4 40H6.6C3 40 0 36.96 0 33.32V18.72C0 16.88 0.8 15.08 2.2 13.84L15.6 1.68C18.2 -0.56 21.8 -0.56 24.4 1.68L37.8 13.84C39.2 15.04 40 16.88 40 18.72V33.32C39.8 37.16 37 40 33.4 40ZM20 4.12C19.4 4.12 18.8 4.32 18.2 4.72L4.8 16.88C4.2 17.28 4 18.08 4 18.92V33.52C4 34.92 5.2 36.16 6.6 36.16H33.2C34.6 36.16 35.8 34.96 35.8 33.52V18.92C35.8 18.12 35.4 17.52 35 16.88L21.6 4.72C21.2 4.32 20.6 4.12 20 4.12Z" fill="white"/>
</g>
<defs>
<clipPath id="clip0_2527_15470">
<rect width="40" height="40" fill="white"/>
</clipPath>
</defs>
</svg>
