<svg width="32" height="32" viewBox="0 0 32 32" fill="none" xmlns="http://www.w3.org/2000/svg">
<g clip-path="url(#clip0_2331_25116)">
<path d="M16 19.2812C17.8122 19.2812 19.2812 17.8122 19.2812 16C19.2812 14.1878 17.8122 12.7188 16 12.7188C14.1878 12.7188 12.7188 14.1878 12.7188 16C12.7188 17.8122 14.1878 19.2812 16 19.2812Z" fill="#00A6BD"/>
<path d="M16 0.375C7.37056 0.375 0.375 7.37056 0.375 16C0.375 24.6294 7.37056 31.625 16 31.625C24.6294 31.625 31.625 24.6294 31.625 16C31.625 7.37056 24.6294 0.375 16 0.375ZM25.6536 19.9713C25.5786 21.4568 25.1612 22.9216 24.0786 23.9927C22.9856 25.0739 21.5138 25.4768 20.0139 25.5511H11.9861C10.4861 25.4768 9.0145 25.0742 7.92144 23.9927C6.83881 22.9216 6.42144 21.4568 6.34644 19.9713V12.0288C6.42144 10.5433 6.83887 9.07837 7.92144 8.00725C9.0145 6.926 10.4863 6.52312 11.9861 6.44894H20.0139C21.5139 6.52312 22.9855 6.92581 24.0786 8.00725C25.1612 9.07837 25.5786 10.5433 25.6536 12.0288L25.6536 19.9713Z" fill="#00A6BD"/>
<path d="M19.9117 8.25897C17.9563 8.20534 14.0426 8.20534 12.0872 8.25897C11.0696 8.28691 9.91606 8.54022 9.19106 9.31459C8.43768 10.1195 8.15299 11.092 8.12412 12.18C8.07337 14.0895 8.12412 19.8207 8.12412 19.8207C8.15718 20.9085 8.43768 21.8812 9.19106 22.6861C9.91606 23.4607 11.0696 23.7138 12.0872 23.7417C14.0426 23.7953 17.9563 23.7953 19.9117 23.7417C20.9292 23.7138 22.0828 23.4605 22.8078 22.6861C23.5612 21.8812 23.8459 20.9087 23.8747 19.8207V12.18C23.8459 11.092 23.5612 10.1195 22.8078 9.31459C22.0826 8.53997 20.929 8.28691 19.9117 8.25897ZM15.9992 21.0863C14.9933 21.0863 14.01 20.788 13.1736 20.2291C12.3372 19.6703 11.6853 18.876 11.3004 17.9466C10.9154 17.0173 10.8147 15.9947 11.011 15.0081C11.2072 14.0216 11.6916 13.1153 12.4029 12.404C13.1142 11.6928 14.0204 11.2084 15.007 11.0121C15.9935 10.8159 17.0162 10.9166 17.9455 11.3016C18.8748 11.6865 19.6691 12.3384 20.228 13.1747C20.7868 14.0111 21.0851 14.9944 21.0851 16.0003C21.0851 17.3492 20.5493 18.6428 19.5955 19.5966C18.6417 20.5504 17.3481 21.0863 15.9992 21.0863ZM21.1067 11.9642C20.9056 11.9642 20.7089 11.9045 20.5417 11.7927C20.3744 11.6809 20.2441 11.522 20.1672 11.3361C20.0902 11.1502 20.0701 10.9457 20.1094 10.7484C20.1487 10.5511 20.2456 10.3699 20.3878 10.2277C20.5301 10.0855 20.7113 9.9886 20.9086 9.94937C21.1059 9.91014 21.3105 9.9303 21.4963 10.0073C21.6822 10.0843 21.841 10.2147 21.9528 10.3819C22.0645 10.5492 22.1242 10.7459 22.1242 10.947C22.1242 11.0806 22.0979 11.2129 22.0467 11.3363C21.9956 11.4598 21.9206 11.5719 21.8262 11.6664C21.7317 11.7608 21.6195 11.8358 21.4961 11.8869C21.3726 11.938 21.2403 11.9643 21.1067 11.9642Z" fill="#00A6BD"/>
</g>
<defs>
<clipPath id="clip0_2331_25116">
<rect width="32" height="32" fill="white"/>
</clipPath>
</defs>
</svg>
