<svg width="513" height="513" viewBox="0 0 513 513" fill="none" xmlns="http://www.w3.org/2000/svg">
<path d="M256.938 506.648C395.009 506.648 506.938 394.72 506.938 256.648C506.938 118.577 395.009 6.64844 256.938 6.64844C118.866 6.64844 6.9375 118.577 6.9375 256.648C6.9375 394.72 118.866 506.648 256.938 506.648Z" fill="url(#paint0_linear_1349_33332)"/>
<path opacity="0.49" d="M506.825 249.393L386.194 128.761C368.705 111.461 345.156 105.015 321.159 103.828H192.715C168.715 105.015 145.169 111.458 127.68 128.761C110.358 145.899 103.68 169.337 102.48 193.105V320.185C103.68 343.953 110.359 367.391 127.68 384.528L249.685 506.533C252.094 506.601 254.511 506.645 256.937 506.645C395.008 506.645 506.937 394.716 506.937 256.645C506.937 254.218 506.893 251.802 506.825 249.393ZM194.337 380.507C178.056 380.06 159.599 376.007 147.999 363.617C135.945 350.737 131.457 335.176 130.928 317.771C130.928 317.771 130.116 226.071 130.928 195.518C131.39 178.112 135.945 162.552 147.999 149.673C159.599 137.279 178.056 133.23 194.337 132.783C225.623 131.924 288.243 131.924 319.529 132.783C335.81 133.23 354.267 137.283 365.867 149.673C377.921 162.552 382.476 178.112 382.938 195.518V197.059L350.167 164.284C348.656 162.773 346.862 161.574 344.888 160.756C342.913 159.938 340.797 159.517 338.659 159.517C336.522 159.517 334.406 159.938 332.431 160.756C330.456 161.574 328.662 162.772 327.151 164.284C325.64 165.795 324.441 167.589 323.623 169.564C322.805 171.538 322.384 173.654 322.384 175.792C322.384 180.108 324.098 184.248 327.15 187.3L382.942 243.092V267.568L314.478 199.104C299.2 183.927 278.529 175.424 256.994 175.46C235.458 175.496 214.815 184.066 199.587 199.294C184.36 214.522 175.789 235.165 175.753 256.7C175.718 278.236 184.22 298.907 199.397 314.185L266.35 381.139C239.888 381.204 212.079 380.993 194.337 380.507Z" fill="url(#paint1_linear_1349_33332)"/>
<path d="M411.395 193.105C410.195 169.337 403.516 145.899 386.195 128.761C368.706 111.461 345.157 105.015 321.16 103.828H192.715C168.715 105.015 145.169 111.458 127.68 128.761C110.358 145.899 103.68 169.337 102.48 193.105V320.184C103.68 343.953 110.359 367.391 127.68 384.528C145.169 401.828 168.718 408.274 192.715 409.462H321.159C345.159 408.274 368.705 401.832 386.194 384.528C403.516 367.391 410.194 343.953 411.394 320.184L411.395 193.105ZM130.937 195.519C131.399 178.112 135.954 162.552 148.008 149.673C159.608 137.279 178.065 133.23 194.346 132.783C225.632 131.925 288.252 131.925 319.538 132.783C335.819 133.23 354.276 137.283 365.876 149.673C377.93 162.552 382.485 178.112 382.947 195.519V317.771C382.485 335.178 377.93 350.738 365.876 363.617C354.276 376.011 335.819 380.06 319.538 380.507C288.252 381.365 225.632 381.365 194.346 380.507C178.065 380.06 159.608 376.007 148.008 363.617C135.954 350.738 131.466 335.176 130.937 317.771C130.937 317.771 130.12 226.071 130.937 195.519Z" fill="white"/>
<path d="M338.66 192.066C347.648 192.066 354.935 184.779 354.935 175.791C354.935 166.802 347.648 159.516 338.66 159.516C329.671 159.516 322.385 166.802 322.385 175.791C322.385 184.779 329.671 192.066 338.66 192.066Z" fill="white"/>
<path d="M256.938 175.266C240.843 175.266 225.11 180.038 211.728 188.98C198.346 197.921 187.916 210.63 181.757 225.5C175.598 240.369 173.986 256.731 177.126 272.516C180.266 288.301 188.016 302.801 199.396 314.181C210.777 325.562 225.276 333.312 241.061 336.452C256.847 339.592 273.208 337.981 288.078 331.822C302.947 325.663 315.656 315.233 324.598 301.851C333.54 288.469 338.312 272.736 338.313 256.642C338.313 245.955 336.208 235.373 332.119 225.5C328.029 215.627 322.035 206.657 314.479 199.1C306.922 191.544 297.952 185.55 288.079 181.46C278.206 177.37 267.624 175.266 256.938 175.266ZM256.938 309.142C246.554 309.142 236.404 306.063 227.77 300.294C219.137 294.525 212.407 286.326 208.434 276.733C204.46 267.139 203.421 256.583 205.446 246.399C207.472 236.215 212.472 226.861 219.814 219.519C227.157 212.176 236.511 207.176 246.695 205.15C256.879 203.125 267.435 204.164 277.028 208.138C286.622 212.112 294.821 218.841 300.59 227.474C306.358 236.108 309.438 246.258 309.438 256.642C309.438 270.565 303.906 283.919 294.061 293.765C284.215 303.61 270.861 309.142 256.938 309.142Z" fill="white"/>
<defs>
<linearGradient id="paint0_linear_1349_33332" x1="80.1605" y1="433.425" x2="433.714" y2="79.8714" gradientUnits="userSpaceOnUse">
<stop stop-color="#D6B43D"/>
<stop offset="0.051" stop-color="#DBA93F"/>
<stop offset="0.143" stop-color="#E88A45"/>
<stop offset="0.164" stop-color="#EB8246"/>
<stop offset="0.211" stop-color="#E7774D"/>
<stop offset="0.294" stop-color="#DD5860"/>
<stop offset="0.31" stop-color="#DB5164"/>
<stop offset="0.464" stop-color="#D2466C"/>
<stop offset="0.567" stop-color="#C93B73"/>
<stop offset="0.607" stop-color="#CB3179"/>
<stop offset="0.733" stop-color="#A23394"/>
<stop offset="0.856" stop-color="#7F35AB"/>
<stop offset="0.91" stop-color="#7D35AB"/>
<stop offset="0.94" stop-color="#7537AA"/>
<stop offset="0.964" stop-color="#673AA9"/>
<stop offset="0.985" stop-color="#533DA8"/>
<stop offset="1" stop-color="#4041A6"/>
</linearGradient>
<linearGradient id="paint1_linear_1349_33332" x1="128.366" y1="128.074" x2="433.713" y2="433.422" gradientUnits="userSpaceOnUse">
<stop stop-color="#1D1D1B"/>
<stop offset="0.369" stop-color="#1D1D1B" stop-opacity="0.856"/>
<stop offset="0.75" stop-color="#1D1D1B" stop-opacity="0.429"/>
<stop offset="1" stop-color="#1D1D1B" stop-opacity="0"/>
</linearGradient>
</defs>
</svg>
