<svg width="513" height="512" viewBox="0 0 513 512" fill="none" xmlns="http://www.w3.org/2000/svg">
<g clip-path="url(#clip0_1349_33510)">
<path d="M256.199 512C397.584 512 512.199 397.385 512.199 256C512.199 114.615 397.584 0 256.199 0C114.814 0 0.199219 114.615 0.199219 256C0.199219 397.385 114.814 512 256.199 512Z" fill="#4875B4"/>
<path d="M390.936 390.741V291.912C390.936 243.541 380.528 206.32 324.006 206.32C296.822 206.32 278.599 221.209 271.155 235.356H270.38V210.834H216.789V390.741H272.57V301.647C272.57 278.068 277.016 255.499 306.254 255.499C335.492 255.499 335.29 282.447 335.29 303.162V390.741H390.936Z" fill="white"/>
<path d="M125.909 210.836H181.757V390.743H125.909V210.836Z" fill="white"/>
<path d="M153.799 121.266C147.357 121.239 141.053 123.127 135.686 126.69C130.32 130.253 126.132 135.33 123.657 141.277C121.181 147.224 120.528 153.773 121.78 160.092C123.033 166.411 126.135 172.215 130.692 176.768C135.25 181.32 141.057 184.416 147.377 185.662C153.697 186.908 160.245 186.248 166.19 183.766C172.134 181.284 177.207 177.092 180.764 171.721C184.322 166.351 186.203 160.044 186.17 153.603C186.17 149.353 185.332 145.146 183.705 141.22C182.078 137.295 179.693 133.728 176.687 130.725C173.68 127.722 170.112 125.341 166.184 123.718C162.257 122.095 158.049 121.261 153.799 121.266V121.266Z" fill="white"/>
</g>
<defs>
<clipPath id="clip0_1349_33510">
<rect width="512" height="512" fill="white" transform="translate(0.199219)"/>
</clipPath>
</defs>
</svg>
