<svg width="16" height="16" viewBox="0 0 16 16" fill="none" xmlns="http://www.w3.org/2000/svg">
<g clip-path="url(#clip0_2034_27131)">
<path d="M15.3746 7.375H4.50781C4.16262 7.375 3.88281 7.65481 3.88281 8C3.88281 8.34519 4.16262 8.625 4.50781 8.625H15.3746C15.7198 8.625 15.9996 8.34519 15.9996 8C15.9996 7.65481 15.7198 7.375 15.3746 7.375Z" fill="white"/>
<path d="M15.3746 2.6875H4.50781C4.16262 2.6875 3.88281 2.96731 3.88281 3.3125C3.88281 3.65769 4.16262 3.9375 4.50781 3.9375H15.3746C15.7198 3.9375 15.9996 3.65769 15.9996 3.3125C15.9996 2.96731 15.7198 2.6875 15.3746 2.6875Z" fill="white"/>
<path d="M15.3746 12.0625H4.50781C4.16262 12.0625 3.88281 12.3423 3.88281 12.6875C3.88281 13.0327 4.16262 13.3125 4.50781 13.3125H15.3746C15.7198 13.3125 15.9996 13.0327 15.9996 12.6875C15.9996 12.3423 15.7198 12.0625 15.3746 12.0625Z" fill="white"/>
<path d="M0.84375 4.15625C1.30974 4.15625 1.6875 3.77849 1.6875 3.3125C1.6875 2.84651 1.30974 2.46875 0.84375 2.46875C0.37776 2.46875 0 2.84651 0 3.3125C0 3.77849 0.37776 4.15625 0.84375 4.15625Z" fill="white"/>
<path d="M0.84375 8.84375C1.30974 8.84375 1.6875 8.46599 1.6875 8C1.6875 7.53401 1.30974 7.15625 0.84375 7.15625C0.37776 7.15625 0 7.53401 0 8C0 8.46599 0.37776 8.84375 0.84375 8.84375Z" fill="white"/>
<path d="M0.84375 13.5312C1.30974 13.5312 1.6875 13.1535 1.6875 12.6875C1.6875 12.2215 1.30974 11.8438 0.84375 11.8438C0.37776 11.8438 0 12.2215 0 12.6875C0 13.1535 0.37776 13.5312 0.84375 13.5312Z" fill="white"/>
</g>
<defs>
<clipPath id="clip0_2034_27131">
<rect width="16" height="16" fill="white"/>
</clipPath>
</defs>
</svg>
