<svg width="16" height="20" viewBox="0 0 16 20" fill="none" xmlns="http://www.w3.org/2000/svg">
<path d="M15.2266 5.63379V19.1952C15.2266 19.6398 14.8672 20 14.4236 20H1.57641C1.13277 20 0.773438 19.6398 0.773438 19.1952V0.804844C0.773438 0.360156 1.13277 0 1.57641 0H9.60594L15.2266 5.63379Z" fill="#8C8C8C"/>
<path d="M14.0217 4.42676V19.1954C14.0217 19.64 13.6624 20.0002 13.2188 20.0002H14.4232C14.8668 20.0002 15.2261 19.64 15.2261 19.1954V5.63398L14.0217 4.42676Z" fill="#8C8C8C"/>
<path d="M15.2261 5.63379H10.4084C9.96496 5.63379 9.60547 5.27344 9.60547 4.82895V0L15.2261 5.63379Z" fill="#D2D2D2"/>
<path d="M4.09582 9.75854C4.4292 9.75854 4.69945 9.48828 4.69945 9.1549C4.69945 8.82153 4.4292 8.55127 4.09582 8.55127C3.76244 8.55127 3.49219 8.82153 3.49219 9.1549C3.49219 9.48828 3.76244 9.75854 4.09582 9.75854Z" fill="#D2D2D2"/>
<path d="M11.9045 9.75854H6.8341C6.50074 9.75854 6.23047 9.4883 6.23047 9.1549C6.23047 8.82154 6.5007 8.55127 6.8341 8.55127H11.9045C12.2379 8.55127 12.5082 8.8215 12.5082 9.1549C12.5081 9.48826 12.2379 9.75854 11.9045 9.75854Z" fill="#D2D2D2"/>
<path d="M4.09582 12.1731C4.4292 12.1731 4.69945 11.9028 4.69945 11.5695C4.69945 11.2361 4.4292 10.9658 4.09582 10.9658C3.76244 10.9658 3.49219 11.2361 3.49219 11.5695C3.49219 11.9028 3.76244 12.1731 4.09582 12.1731Z" fill="#D2D2D2"/>
<path d="M11.9045 12.1731H6.8341C6.50074 12.1731 6.23047 11.9029 6.23047 11.5695C6.23047 11.2361 6.5007 10.9658 6.8341 10.9658H11.9045C12.2379 10.9658 12.5082 11.2361 12.5082 11.5695C12.5081 11.9028 12.2379 12.1731 11.9045 12.1731Z" fill="#D2D2D2"/>
<path d="M4.09582 14.5876C4.4292 14.5876 4.69945 14.3174 4.69945 13.984C4.69945 13.6506 4.4292 13.3804 4.09582 13.3804C3.76244 13.3804 3.49219 13.6506 3.49219 13.984C3.49219 14.3174 3.76244 14.5876 4.09582 14.5876Z" fill="#D2D2D2"/>
<path d="M11.9045 14.5876H6.8341C6.50074 14.5876 6.23047 14.3174 6.23047 13.984C6.23047 13.6506 6.5007 13.3804 6.8341 13.3804H11.9045C12.2379 13.3804 12.5082 13.6506 12.5082 13.984C12.5081 14.3174 12.2379 14.5876 11.9045 14.5876Z" fill="#D2D2D2"/>
</svg>
