<svg width="56" height="56" viewBox="0 0 56 56" fill="none" xmlns="http://www.w3.org/2000/svg">
<g clip-path="url(#clip0_2173_27043)">
<path d="M53.8112 25.8125H15.7773C14.5692 25.8125 13.5898 26.7918 13.5898 28C13.5898 29.2082 14.5692 30.1875 15.7773 30.1875H53.8112C55.0193 30.1875 55.9987 29.2082 55.9987 28C55.9987 26.7918 55.0193 25.8125 53.8112 25.8125Z" fill="#455A64"/>
<path d="M53.8112 9.40625H15.7773C14.5692 9.40625 13.5898 10.3856 13.5898 11.5938C13.5898 12.8019 14.5692 13.7812 15.7773 13.7812H53.8112C55.0193 13.7812 55.9987 12.8019 55.9987 11.5938C55.9987 10.3856 55.0193 9.40625 53.8112 9.40625Z" fill="#455A64"/>
<path d="M53.8112 42.2188H15.7773C14.5692 42.2188 13.5898 43.1981 13.5898 44.4062C13.5898 45.6144 14.5692 46.5938 15.7773 46.5938H53.8112C55.0193 46.5938 55.9987 45.6144 55.9987 44.4062C55.9987 43.1981 55.0193 42.2188 53.8112 42.2188Z" fill="#455A64"/>
<path d="M2.95312 14.5469C4.58409 14.5469 5.90625 13.2247 5.90625 11.5938C5.90625 9.96278 4.58409 8.64062 2.95312 8.64062C1.32216 8.64062 0 9.96278 0 11.5938C0 13.2247 1.32216 14.5469 2.95312 14.5469Z" fill="#455A64"/>
<path d="M2.95312 30.9531C4.58409 30.9531 5.90625 29.631 5.90625 28C5.90625 26.369 4.58409 25.0469 2.95312 25.0469C1.32216 25.0469 0 26.369 0 28C0 29.631 1.32216 30.9531 2.95312 30.9531Z" fill="#455A64"/>
<path d="M2.95312 47.3594C4.58409 47.3594 5.90625 46.0372 5.90625 44.4062C5.90625 42.7753 4.58409 41.4531 2.95312 41.4531C1.32216 41.4531 0 42.7753 0 44.4062C0 46.0372 1.32216 47.3594 2.95312 47.3594Z" fill="#455A64"/>
</g>
<defs>
<clipPath id="clip0_2173_27043">
<rect width="56" height="56" fill="white"/>
</clipPath>
</defs>
</svg>
