<svg width="20" height="20" viewBox="0 0 20 20" fill="none" xmlns="http://www.w3.org/2000/svg">
<g clip-path="url(#clip0_2067_27936)">
<path d="M11.1802 17.0587H8.03739C7.82053 17.0587 7.64453 16.883 7.64453 16.6665C7.64453 16.4501 7.82053 16.2744 8.03739 16.2744H11.1802C11.83 16.2744 12.3588 15.7465 12.3588 15.0979V11.1763C12.3588 10.9599 12.5348 10.7842 12.7517 10.7842C12.9685 10.7842 13.1445 10.9599 13.1445 11.1763V15.0979C13.1445 16.1787 12.2637 17.0587 11.1802 17.0587Z" fill="white" stroke="white" stroke-width="0.5"/>
<path d="M19.0352 9.21595H11.178C10.9612 9.21595 10.7852 9.04027 10.7852 8.8238C10.7852 8.60733 10.9612 8.43164 11.178 8.43164H19.0352C19.252 8.43164 19.428 8.60733 19.428 8.8238C19.428 9.04027 19.252 9.21595 19.0352 9.21595Z" fill="white" stroke="white" stroke-width="0.5"/>
<path d="M6.85603 19.4114C6.68317 19.4114 6.51424 19.3824 6.35474 19.3259L1.64831 17.7597C1.00403 17.5455 0.570312 16.9479 0.570312 16.2742V2.15652C0.570312 1.29142 1.2751 0.587891 2.14174 0.587891C2.31617 0.587891 2.48588 0.61691 2.64381 0.674165L7.34946 2.23966C7.99374 2.45299 8.42746 3.05064 8.42746 3.72515V17.8428C8.42746 18.7079 7.72267 19.4114 6.85603 19.4114ZM2.14174 1.3722C1.70803 1.3722 1.35603 1.72436 1.35603 2.15652V16.2742C1.35603 16.6098 1.57288 16.9079 1.8966 17.0161L6.61088 18.5848C7.12631 18.7675 7.64174 18.3557 7.64174 17.8428V3.72515C7.64174 3.38867 7.42489 3.09064 7.10117 2.98397L2.38688 1.41534C2.30596 1.38632 2.22346 1.3722 2.14174 1.3722Z" fill="white" stroke="white" stroke-width="0.5"/>
<path d="M12.75 6.8624C12.5331 6.8624 12.3571 6.68671 12.3571 6.47024V2.54867C12.3571 1.90005 11.8284 1.3722 11.1786 1.3722H2.14286C1.926 1.3722 1.75 1.19652 1.75 0.980047C1.75 0.763577 1.926 0.587891 2.14286 0.587891H11.1786C12.2621 0.587891 13.1429 1.46789 13.1429 2.54867V6.47024C13.1429 6.68671 12.9669 6.8624 12.75 6.8624Z" fill="white" stroke="white" stroke-width="0.5"/>
<path d="M15.8931 12.3533C15.7925 12.3533 15.6919 12.3149 15.6149 12.2388C15.4617 12.0859 15.4617 11.8373 15.6149 11.6843L18.4796 8.82472L15.6149 5.96511C15.4617 5.81217 15.4617 5.56355 15.6149 5.4106C15.7681 5.25766 16.0172 5.25766 16.1704 5.4106L19.3133 8.54786C19.4665 8.7008 19.4665 8.94943 19.3133 9.10237L16.1704 12.2396C16.0942 12.3149 15.9936 12.3533 15.8931 12.3533Z" fill="white" stroke="white" stroke-width="0.5"/>
</g>
<defs>
<clipPath id="clip0_2067_27936">
<rect width="20" height="20" fill="white"/>
</clipPath>
</defs>
</svg>
