<svg width="56" height="56" viewBox="0 0 56 56" fill="none" xmlns="http://www.w3.org/2000/svg">
<path d="M37.3489 36.9999C43.308 27.6491 42.5589 28.8157 42.7306 28.5719C44.9002 25.5118 46.0469 21.9102 46.0469 18.1562C46.0469 8.20094 37.9683 0 28 0C18.0642 0 9.95312 8.18475 9.95312 18.1562C9.95312 21.9078 11.1239 25.6037 13.3645 28.705L18.6508 37C12.9989 37.8686 3.39062 40.4569 3.39062 46.1562C3.39062 48.2338 4.74666 51.1946 11.2068 53.5018C15.7176 55.1128 21.6815 56 28 56C39.8152 56 52.6094 52.6671 52.6094 46.1562C52.6094 40.456 43.0124 37.8703 37.3489 36.9999ZM16.1054 26.9002C16.0873 26.872 16.0685 26.8445 16.0488 26.8173C14.1843 24.2523 13.2344 21.2123 13.2344 18.1562C13.2344 9.95116 19.8413 3.28125 28 3.28125C36.1418 3.28125 42.7656 9.95411 42.7656 18.1562C42.7656 21.2172 41.8336 24.154 40.07 26.6515C39.9119 26.86 40.7365 25.579 28 45.5644L16.1054 26.9002ZM28 52.7188C15.0944 52.7188 6.67188 48.9253 6.67188 46.1562C6.67188 44.2951 10.9996 41.2349 20.5896 40.0421L26.6164 49.499C26.9176 49.9717 27.4393 50.2578 27.9999 50.2578C28.5604 50.2578 29.0823 49.9716 29.3834 49.499L35.41 40.0421C45.0003 41.2349 49.3281 44.2951 49.3281 46.1562C49.3281 48.9018 40.9814 52.7188 28 52.7188Z" fill="#455A64"/>
<path d="M28 9.95312C23.4768 9.95312 19.7969 13.633 19.7969 18.1562C19.7969 22.6795 23.4768 26.3594 28 26.3594C32.5232 26.3594 36.2031 22.6795 36.2031 18.1562C36.2031 13.633 32.5232 9.95312 28 9.95312ZM28 23.0781C25.2861 23.0781 23.0781 20.8702 23.0781 18.1562C23.0781 15.4423 25.2861 13.2344 28 13.2344C30.7139 13.2344 32.9219 15.4423 32.9219 18.1562C32.9219 20.8702 30.7139 23.0781 28 23.0781Z" fill="#455A64"/>
</svg>
