<svg width="24" height="24" viewBox="0 0 24 24" fill="none" xmlns="http://www.w3.org/2000/svg">
<path fill-rule="evenodd" clip-rule="evenodd" d="M8.12103 2.86081C7.89647 2.86081 7.7131 2.67744 7.7131 2.45288V1.83767H7.09921C6.87332 1.83767 6.69128 1.65563 6.69128 1.42974C6.69128 1.20518 6.87332 1.02314 7.09921 1.02314H7.7131V0.407928C7.7131 0.18204 7.89647 0 8.12103 0C8.34691 0 8.52895 0.18204 8.52895 0.407928V1.02314H9.14417C9.36873 1.02314 9.55077 1.20518 9.55077 1.42974C9.55077 1.65563 9.36873 1.83767 9.14417 1.83767H8.52895V2.45288C8.52895 2.67744 8.34691 2.86081 8.12103 2.86081ZM23.3778 24H0.618866C0.394306 24 0.210938 23.818 0.210938 23.5921V10.4852C0.210938 10.2607 0.394306 10.0786 0.618866 10.0786H9.53881L9.61455 9.52187L7.98815 7.82106C7.76492 7.58853 7.89248 7.19655 8.21005 7.13941L10.5247 6.71952L11.6396 4.64666C11.7924 4.36364 12.2043 4.36364 12.3571 4.64666L13.4719 6.71952L15.7866 7.13941C16.1042 7.19655 16.2318 7.58853 16.0085 7.82106L14.3821 9.52187L14.4579 10.0786H23.3778C23.6037 10.0786 23.7857 10.2607 23.7857 10.4852V23.5921C23.7857 23.818 23.6037 24 23.3778 24ZM1.02679 13.0152H22.9712V10.8931H14.5682L14.6984 11.8538C14.7435 12.182 14.4034 12.4119 14.1177 12.2751L11.9983 11.2546L9.87897 12.2751C9.56671 12.4252 9.26376 12.1608 9.2983 11.8538L9.42852 10.8931H1.02679V13.0152ZM1.02679 23.1855H22.9712V13.8297H1.02679V23.1855ZM10.2072 11.212L11.8216 10.4347C11.9332 10.3802 12.0634 10.3802 12.1751 10.4347L13.7895 11.212L13.549 9.43683C13.5317 9.31458 13.5716 9.18968 13.658 9.10065L14.8964 7.80512L13.1331 7.48621C13.0108 7.46362 12.9059 7.38789 12.8474 7.2776L11.9983 5.70037L11.1493 7.2776C11.0908 7.38789 10.9858 7.46362 10.8636 7.48621L9.10032 7.80512L10.3387 9.10065C10.4251 9.18968 10.465 9.31458 10.4477 9.43683L10.2072 11.212ZM22.1779 8.86812C22.1168 8.86812 22.057 8.85483 22.0012 8.82826L20.2353 7.97785L18.4694 8.82826C18.1784 8.96778 17.8449 8.72594 17.8887 8.40704L18.1518 6.4644L16.7978 5.04795C16.5746 4.81408 16.7021 4.4221 17.0184 4.36496L18.9477 4.0155L19.8765 2.28945C20.0293 2.00509 20.4413 2.00509 20.5941 2.28945L21.5229 4.0155L23.4509 4.36496C23.7685 4.4221 23.896 4.81408 23.6728 5.04795L22.3175 6.4644L22.5819 8.40704C22.6138 8.64888 22.4184 8.86812 22.1779 8.86812ZM17.91 5.032L18.876 6.04318C18.9624 6.13221 19.0022 6.25579 18.9863 6.37936L18.7976 7.76525L20.0586 7.15801C20.1702 7.10486 20.3004 7.10486 20.412 7.15801L21.6717 7.76525L21.4843 6.37936C21.4671 6.25579 21.5069 6.13221 21.5933 6.04318L22.5606 5.032L21.184 4.78219C21.0618 4.75961 20.9568 4.68387 20.897 4.57491L20.2353 3.34315L19.5723 4.57491C19.5138 4.68387 19.4088 4.75961 19.2866 4.78219L17.91 5.032ZM5.52729 8.82826L3.76137 7.97785L1.99679 8.82826C1.70579 8.96778 1.37227 8.72594 1.41612 8.40704L1.67921 6.4644L0.323882 5.04795C0.101979 4.81408 0.228211 4.4221 0.545784 4.36496L2.47514 4.0155L3.40261 2.28945C3.55542 2.00509 3.96866 2.00509 4.12147 2.28945L5.04894 4.0155L6.97829 4.36496C7.29587 4.4221 7.4221 4.81408 7.2002 5.04795L5.84487 6.4644L6.10796 8.40704C6.15181 8.72594 5.81563 8.96645 5.52729 8.82826ZM3.93943 7.15801L5.19909 7.76525L5.01173 6.37936C4.99446 6.25579 5.03432 6.13221 5.12069 6.04318L6.0867 5.032L4.71144 4.78219C4.58919 4.75961 4.48289 4.68387 4.42442 4.57491L3.76137 3.34315L3.09965 4.57491C3.04119 4.68387 2.93489 4.75961 2.81264 4.78219L1.43738 5.032L2.40339 6.04318C2.48975 6.13221 2.52962 6.25579 2.51234 6.37936L2.32499 7.76525L3.58465 7.15801C3.69627 7.10486 3.82781 7.10486 3.93943 7.15801ZM7.5975 21.3784H2.86845C2.64389 21.3784 2.46185 21.195 2.46185 20.9704V16.0447C2.46185 15.8188 2.64389 15.6368 2.86845 15.6368H7.5975C7.82338 15.6368 8.00542 15.8188 8.00542 16.0447V20.9704C8.00542 21.195 7.82338 21.3784 7.5975 21.3784ZM3.27638 20.5625H7.1909V16.4527L3.27638 16.4513V20.5625ZM19.345 16.4527H11.4788C11.2529 16.4527 11.0709 16.2693 11.0709 16.0447C11.0709 15.8188 11.2529 15.6368 11.4788 15.6368H19.345C19.5696 15.6368 19.753 15.8188 19.753 16.0447C19.753 16.2693 19.5696 16.4527 19.345 16.4527ZM21.1282 18.9148H9.6956C9.47104 18.9148 9.28767 18.7328 9.28767 18.5069C9.28767 18.2824 9.47104 18.1003 9.6956 18.1003H21.1282C21.3528 18.1003 21.5348 18.2824 21.5348 18.5069C21.5348 18.7328 21.3528 18.9148 21.1282 18.9148ZM21.1282 21.3784H9.6956C9.47104 21.3784 9.28767 21.195 9.28767 20.9704C9.28767 20.7459 9.47104 20.5625 9.6956 20.5625H21.1282C21.3528 20.5625 21.5348 20.7459 21.5348 20.9704C21.5348 21.195 21.3528 21.3784 21.1282 21.3784ZM16.8975 2.57513H15.8916V3.581C15.8916 3.80689 15.7096 3.98893 15.4837 3.98893C15.2591 3.98893 15.0771 3.80689 15.0771 3.581V2.57513H14.0699C13.8453 2.57513 13.6619 2.39176 13.6619 2.1672C13.6619 1.94264 13.8453 1.75927 14.0699 1.75927H15.0771V0.753405C15.0771 0.527516 15.2591 0.345477 15.4837 0.345477C15.7096 0.345477 15.8916 0.527516 15.8916 0.753405V1.75927H16.8975C17.1234 1.75927 17.3054 1.94264 17.3054 2.1672C17.3054 2.39176 17.1234 2.57513 16.8975 2.57513Z" fill="#EBB223"/>
</svg>
