<svg width="16" height="16" viewBox="0 0 16 16" fill="none" xmlns="http://www.w3.org/2000/svg">
<path d="M0.5 3.22426H8.64103C8.86559 4.3572 9.68634 5.19979 10.6621 5.19979C11.6378 5.19979 12.4585 4.3572 12.6831 3.22426H15.5C15.7761 3.22426 16 2.94471 16 2.59991C16 2.25512 15.7761 1.97557 15.5 1.97557H12.6831C12.4585 0.842627 11.6378 0 10.662 0C9.68628 0 8.86553 0.842627 8.641 1.97557H0.5C0.223875 1.97557 0 2.25512 0 2.59991C0 2.94471 0.223875 3.22426 0.5 3.22426ZM10.6621 1.24868C11.2587 1.24868 11.7442 1.85484 11.7442 2.59988C11.7442 3.34495 11.2587 3.95111 10.6621 3.95111C10.0654 3.95111 9.57994 3.34495 9.57994 2.59988C9.57994 1.85484 10.0654 1.24868 10.6621 1.24868ZM0.5 8.62434H3.31694C3.5415 9.75729 4.36222 10.5999 5.33797 10.5999C6.31372 10.5999 7.13444 9.75729 7.359 8.62434H15.5C15.7761 8.62434 16 8.34479 16 8C16 7.65521 15.7761 7.37566 15.5 7.37566H7.35897C7.13441 6.24271 6.31369 5.40009 5.33794 5.40009C4.36219 5.40009 3.54147 6.24271 3.31691 7.37566H0.5C0.223875 7.37566 0 7.65521 0 8C0 8.34479 0.223844 8.62434 0.5 8.62434ZM5.33794 6.64877C5.93462 6.64877 6.42006 7.25493 6.42006 8C6.42006 8.74503 5.93462 9.35119 5.33794 9.35119C4.74125 9.35119 4.25581 8.74503 4.25581 8C4.25581 7.25493 4.74125 6.64877 5.33794 6.64877ZM15.5 12.7757H12.6831C12.4585 11.6428 11.6378 10.8002 10.662 10.8002C9.68628 10.8002 8.86556 11.6428 8.641 12.7757H0.5C0.223875 12.7757 0 13.0553 0 13.4001C0 13.7449 0.223875 14.0244 0.5 14.0244H8.64103C8.86559 15.1574 9.68631 16 10.6621 16C11.6378 16 12.4585 15.1574 12.6831 14.0244H15.5C15.7761 14.0244 16 13.7449 16 13.4001C16 13.0553 15.7762 12.7757 15.5 12.7757ZM10.6621 14.7513C10.0654 14.7513 9.57994 14.1452 9.57994 13.4001C9.57994 12.655 10.0654 12.0489 10.6621 12.0489C11.2587 12.0489 11.7442 12.655 11.7442 13.4001C11.7442 14.1452 11.2587 14.7513 10.6621 14.7513Z" fill="white"/>
</svg>
