<svg width="48" height="44" viewBox="0 0 48 44" fill="none" xmlns="http://www.w3.org/2000/svg">
<path d="M24.3064 15.8145C21.6024 15.8145 19.4102 18.0065 19.4102 20.7107C19.4102 23.4148 21.6022 25.607 24.3064 25.607C27.0105 25.607 29.2027 23.4149 29.2027 20.7107C29.2027 18.0065 27.0106 15.8145 24.3064 15.8145ZM24.3064 23.2754C22.89 23.2754 21.7417 22.1271 21.7417 20.7106C21.7417 19.2942 22.89 18.1459 24.3064 18.1459C25.7229 18.1459 26.8712 19.2942 26.8712 20.7106C26.8712 22.1271 25.7229 23.2754 24.3064 23.2754Z" fill="white"/>
<path d="M43.8347 4.62219L12.0091 1.00839C10.7739 0.832777 9.52247 1.19337 8.57013 1.99933C7.61789 2.73769 7.0075 3.83218 6.87976 5.03031L6.29692 9.81H4.48985C1.92512 9.81 0.00157522 12.0832 0.00157522 14.6479V38.4879C-0.0630228 40.9336 1.86722 42.9688 4.31302 43.0333C4.37193 43.0349 4.43094 43.0352 4.48985 43.0345H36.4903C39.055 43.0345 41.3866 41.0527 41.3866 38.4879V37.5553C42.1817 37.4017 42.936 37.0841 43.6015 36.6228C44.546 35.8276 45.1507 34.7015 45.2919 33.4752L47.9732 9.81C48.2466 7.23936 46.4018 4.92689 43.8347 4.62219ZM39.055 38.4879C39.055 39.7703 37.7727 40.7029 36.4903 40.7029H4.48985C3.33144 40.7369 2.36481 39.8254 2.33079 38.667C2.329 38.6073 2.32978 38.5476 2.33313 38.4879V34.1746L11.3679 27.5297C12.4533 26.6964 13.982 26.7705 14.9818 27.7045L21.3353 33.3003C22.3002 34.1103 23.5147 34.5632 24.7744 34.5826C25.7593 34.5947 26.7281 34.3324 27.5723 33.8248L39.0551 27.18V38.4879H39.055ZM39.055 24.4404L26.3481 31.8431C25.2569 32.4895 23.8758 32.3724 22.909 31.5516L16.4973 25.8976C14.6596 24.3186 11.9737 24.2217 10.0272 25.6644L2.33313 31.2601V14.6479C2.33313 13.3656 3.20749 12.1416 4.48985 12.1416H36.4903C37.8604 12.1983 38.9668 13.2797 39.055 14.6479V24.4404ZM45.6439 9.49527C45.6431 9.50297 45.6425 9.51078 45.6416 9.51847L42.902 33.1837C42.9067 33.7973 42.6269 34.3784 42.1442 34.7574C41.9111 34.9906 41.3865 35.1072 41.3865 35.2238V14.6479C41.2944 11.9925 39.1465 9.87014 36.4902 9.81H8.62836L9.15296 5.26349C9.26676 4.67474 9.57458 4.14122 10.0273 3.74794C10.5385 3.3945 11.1566 3.22971 11.776 3.28159L43.5434 6.95374C44.8251 7.07547 45.7656 8.21335 45.6439 9.49527Z" fill="white"/>
</svg>
