<svg width="513" height="513" viewBox="0 0 513 513" fill="none" xmlns="http://www.w3.org/2000/svg">
<g clip-path="url(#clip0_1349_34459)">
<path d="M437.324 75.6174C337.335 -24.3416 175.244 -24.3176 75.2849 75.6724C-24.6741 175.662 -24.6501 337.752 75.3399 437.711C175.33 537.67 337.42 537.646 437.379 437.656C485.385 389.635 512.347 324.51 512.332 256.609C512.318 188.719 485.337 123.615 437.324 75.6174ZM388.035 357.269C388.024 357.28 388.013 357.292 388.001 357.303V357.218L375.03 370.103C358.255 387.09 333.824 394.079 310.603 388.535C287.208 382.273 264.968 372.305 244.726 359.01C225.92 346.991 208.492 332.941 192.758 317.111C178.281 302.74 165.275 286.96 153.931 270.007C141.523 251.765 131.702 231.893 124.747 210.956C116.774 186.36 123.381 159.371 141.814 141.239L157.003 126.05C161.226 121.808 168.088 121.793 172.329 126.016C172.34 126.027 172.352 126.038 172.363 126.05L220.32 174.007C224.562 178.23 224.577 185.092 220.354 189.333C220.343 189.344 220.332 189.355 220.32 189.367L192.16 217.527C184.08 225.519 183.064 238.219 189.771 247.394C199.956 261.372 211.227 274.525 223.478 286.733C237.137 300.451 251.986 312.93 267.851 324.024C277.018 330.418 289.446 329.34 297.376 321.464L324.597 293.816C328.82 289.574 335.682 289.559 339.923 293.782C339.934 293.793 339.945 293.804 339.957 293.816L388 341.944C392.243 346.166 392.258 353.027 388.035 357.269Z" fill="black"/>
</g>
<defs>
<clipPath id="clip0_1349_34459">
<rect width="512" height="512" fill="white" transform="translate(0.332031 0.664062)"/>
</clipPath>
</defs>
</svg>
