<svg width="32" height="32" viewBox="0 0 32 32" fill="none" xmlns="http://www.w3.org/2000/svg">
<path d="M29.8284 8.5H27.9926C28.0034 8.36287 28.0001 8.87806 28.0001 2.17156C28 0.974125 27.0259 0 25.8284 0H6.17156C4.97412 0 4 0.974125 4 2.17156C4 8.86362 3.99656 8.36187 4.00744 8.5H2.17156C0.974125 8.5 0 9.47412 0 10.6716V22.3284C0 23.5259 0.974125 24.5 2.17156 24.5H7.5V29.8284C7.5 31.0259 8.47412 32 9.67156 32H22.3284C23.5259 32 24.5 31.0259 24.5 29.8284V24.5H29.8284C31.0259 24.5 32 23.5259 32 22.3284V10.6716C32 9.47412 31.0259 8.5 29.8284 8.5ZM6 8.32844V2.17156C6 2.07694 6.07694 2 6.17156 2H25.8284C25.9231 2 26 2.07694 26 2.17156V8.32844C26 8.42306 25.9231 8.5 25.8284 8.5H6.17156C6.07694 8.5 6 8.42306 6 8.32844ZM22.5 29.8284C22.5 29.9231 22.4231 30 22.3284 30H9.67156C9.57694 30 9.5 29.9231 9.5 29.8284V19.6716C9.5 19.5769 9.57694 19.5 9.67156 19.5H22.3284C22.4231 19.5 22.5 19.5769 22.5 19.6716V29.8284ZM30 22.3284C30 22.4231 29.9231 22.5 29.8284 22.5H24.5V19.6716C24.5 18.4741 23.5259 17.5 22.3284 17.5H9.67156C8.47412 17.5 7.5 18.4741 7.5 19.6716V22.5H2.17156C2.07694 22.5 2 22.4231 2 22.3284V10.6716C2 10.5769 2.07694 10.5 2.17156 10.5H29.8284C29.9231 10.5 30 10.5769 30 10.6716V22.3284Z" fill="#00A6BD"/>
</svg>
