<svg class="bi" width="20" height="20" viewBox="0 0 20 20" fill="none" xmlns="http://www.w3.org/2000/svg">
              <path d="M16.875 1.25H3.125C2.09125 1.25 1.25 2.09125 1.25 3.125V16.875C1.25 17.9088 2.09125 18.75 3.125 18.75H16.875C17.9088 18.75 18.75 17.9088 18.75 16.875V3.125C18.75 2.09125 17.9088 1.25 16.875 1.25ZM17.5 16.875C17.5 17.22 17.2194 17.5 16.875 17.5H3.125C2.78062 17.5 2.5 17.22 2.5 16.875V6.25H17.5V16.875ZM17.5 5H2.5V3.125C2.5 2.78 2.78062 2.5 3.125 2.5H16.875C17.2194 2.5 17.5 2.78 17.5 3.125V5ZM13.75 3.75C13.75 4.095 13.47 4.375 13.125 4.375C12.78 4.375 12.5 4.095 12.5 3.75C12.5 3.405 12.78 3.125 13.125 3.125C13.47 3.125 13.75 3.405 13.75 3.75ZM16.25 3.75C16.25 4.095 15.97 4.375 15.625 4.375C15.28 4.375 15 4.095 15 3.75C15 3.405 15.28 3.125 15.625 3.125C15.97 3.125 16.25 3.405 16.25 3.75ZM4.81125 15.5956C5.13625 15.7 5.485 15.5212 5.5925 15.1975L6.075 13.75H7.72187L8.15063 15.1794C8.23188 15.4506 8.48 15.625 8.74937 15.625C8.80875 15.625 8.86937 15.6163 8.92937 15.5988C9.26 15.4994 9.44812 15.1506 9.34875 14.8206L7.47375 8.57063C7.39438 8.30625 7.15063 8.125 6.875 8.125C6.59937 8.125 6.35562 8.30625 6.27625 8.57063L4.40125 14.8206C4.30312 15.1475 4.48563 15.4925 4.81125 15.5956ZM6.875 10.925L7.3475 12.5H6.4025L6.875 10.925ZM11.25 15.625H12.5C14.2231 15.625 15.625 14.2231 15.625 12.5V11.25C15.625 9.52687 14.2231 8.125 12.5 8.125H11.25C10.905 8.125 10.625 8.40438 10.625 8.75V15C10.625 15.3456 10.905 15.625 11.25 15.625ZM11.875 9.375H12.5C13.5337 9.375 14.375 10.2163 14.375 11.25V12.5C14.375 13.5337 13.5337 14.375 12.5 14.375H11.875V9.375Z" fill="white"/>
            </svg>
