<svg width="17" height="19" viewBox="0 0 17 19" fill="none" xmlns="http://www.w3.org/2000/svg">
<path fill-rule="evenodd" clip-rule="evenodd" d="M12.918 14.7177V17.7899C12.918 17.9623 12.7783 18.102 12.6059 18.102H1.36994C1.19753 18.102 1.05781 17.9623 1.05781 17.7899C1.05781 17.7898 1.05781 2.1844 1.05781 2.1844C1.05781 2.10159 1.09073 2.0222 1.14921 1.96372C1.20775 1.90518 1.28713 1.87226 1.36994 1.87226H8.43899L12.918 5.45552V9.12895C12.918 9.30125 13.0579 9.44108 13.2301 9.44108C13.4024 9.44108 13.5422 9.30125 13.5422 9.12895V5.30546C13.5422 5.21069 13.4991 5.12102 13.4251 5.06175L8.74343 1.31647C8.68809 1.2722 8.61932 1.24805 8.54848 1.24805C8.54848 1.24805 3.22045 1.24805 1.36994 1.24805C1.12163 1.24805 0.883425 1.3467 0.707863 1.52232C0.532245 1.69788 0.433594 1.93608 0.433594 2.1844V17.7899C0.433594 18.307 0.852807 18.7262 1.36994 18.7262H12.6059C13.123 18.7262 13.5422 18.307 13.5422 17.7899C13.5422 16.7361 13.5422 14.7177 13.5422 14.7177C13.5422 14.5455 13.4024 14.4056 13.2301 14.4056C13.0579 14.4056 12.918 14.5455 12.918 14.7177Z" fill="white" stroke="white" stroke-width="0.5"/>
<path fill-rule="evenodd" clip-rule="evenodd" d="M2.61682 5.92993H6.67424C6.84649 5.92993 6.98637 5.79005 6.98637 5.6178C6.98637 5.44555 6.84649 5.30566 6.67424 5.30566H2.61682C2.44458 5.30566 2.30469 5.44555 2.30469 5.6178C2.30469 5.79005 2.44458 5.92993 2.61682 5.92993Z" fill="white"/>
<path fill-rule="evenodd" clip-rule="evenodd" d="M2.61682 7.80195H10.1074C10.2797 7.80195 10.4196 7.66212 10.4196 7.48981C10.4196 7.31757 10.2797 7.17773 10.1074 7.17773H2.61682C2.44458 7.17773 2.30469 7.31757 2.30469 7.48981C2.30469 7.66212 2.44458 7.80195 2.61682 7.80195Z" fill="white"/>
<path fill-rule="evenodd" clip-rule="evenodd" d="M2.61682 9.675H9.48323C9.65547 9.675 9.79536 9.53516 9.79536 9.36292C9.79536 9.19061 9.65547 9.05078 9.48323 9.05078H2.61682C2.44458 9.05078 2.30469 9.19061 2.30469 9.36292C2.30469 9.53516 2.44458 9.675 2.61682 9.675Z" fill="white"/>
<path fill-rule="evenodd" clip-rule="evenodd" d="M2.61682 11.5481H8.2348C8.40705 11.5481 8.54693 11.4082 8.54693 11.236C8.54693 11.0637 8.40705 10.9238 8.2348 10.9238H2.61682C2.44458 10.9238 2.30469 11.0637 2.30469 11.236C2.30469 11.4082 2.44458 11.5481 2.61682 11.5481Z" fill="white"/>
<path fill-rule="evenodd" clip-rule="evenodd" d="M2.61682 13.4201H8.54694C8.71918 13.4201 8.85901 13.2803 8.85901 13.108C8.85901 12.9357 8.71918 12.7959 8.54694 12.7959H2.61682C2.44458 12.7959 2.30469 12.9357 2.30469 13.108C2.30469 13.2803 2.44458 13.4201 2.61682 13.4201Z" fill="white"/>
<path fill-rule="evenodd" clip-rule="evenodd" d="M2.61682 15.2932H6.67424C6.84649 15.2932 6.98637 15.1533 6.98637 14.9811C6.98637 14.8088 6.84649 14.6689 6.67424 14.6689H2.61682C2.44458 14.6689 2.30469 14.8088 2.30469 14.9811C2.30469 15.1533 2.44458 15.2932 2.61682 15.2932Z" fill="white"/>
<path fill-rule="evenodd" clip-rule="evenodd" d="M11.359 8.42676C9.46415 8.42676 7.92578 9.96513 7.92578 11.86C7.92578 13.7548 9.46415 15.2932 11.359 15.2932C13.2539 15.2932 14.7922 13.7548 14.7922 11.86C14.7922 9.96513 13.2539 8.42676 11.359 8.42676ZM11.359 9.05097C12.9093 9.05097 14.168 10.3096 14.168 11.86C14.168 13.4103 12.9093 14.6689 11.359 14.6689C9.8087 14.6689 8.55005 13.4103 8.55005 11.86C8.55005 10.3096 9.8087 9.05097 11.359 9.05097Z" fill="white" stroke="white" stroke-width="0.5"/>
<path fill-rule="evenodd" clip-rule="evenodd" d="M14.1812 13.36C14.115 13.2938 14.0225 13.2607 13.9294 13.2701C13.8362 13.2795 13.7521 13.3302 13.7004 13.4083C13.4915 13.7236 13.2207 13.9943 12.9053 14.2033C12.8273 14.255 12.7766 14.3391 12.7672 14.4323C12.7579 14.5255 12.7908 14.6179 12.8571 14.6842L14.4402 16.2673C14.8056 16.6327 15.3989 16.6327 15.7643 16.2673C16.1298 15.9019 16.1298 15.3085 15.7643 14.9431L14.1812 13.36ZM13.9948 14.0564L15.323 15.3844C15.4448 15.5063 15.4448 15.7041 15.323 15.8259C15.2011 15.9477 15.0034 15.9477 14.8816 15.8259L13.5534 14.4978C13.7136 14.3643 13.8613 14.2165 13.9948 14.0564Z" fill="white" stroke="white" stroke-width="0.5"/>
<path fill-rule="evenodd" clip-rule="evenodd" d="M8.74536 1.31646C8.65165 1.24152 8.52334 1.22685 8.41519 1.27888C8.30705 1.33084 8.23828 1.44017 8.23828 1.56017V4.68124C8.23828 5.19837 8.6575 5.61758 9.17463 5.61758H13.232C13.3646 5.61758 13.4827 5.53388 13.5265 5.40876C13.5704 5.28371 13.5305 5.14455 13.427 5.06174L8.74536 1.31646ZM8.86249 2.20955L12.3423 4.99337H9.17463C9.00227 4.99337 8.86249 4.85365 8.86249 4.68129V2.20955Z" fill="white" stroke="white" stroke-width="0.5"/>
</svg>
