<svg width="18" height="18" viewBox="0 0 18 18" fill="none" xmlns="http://www.w3.org/2000/svg">
<path d="M17.5669 16.6831L13.03 12.1461C14.0247 10.9534 14.625 9.42094 14.625 7.75C14.625 3.95906 11.5409 0.875 7.75 0.875C3.95906 0.875 0.875 3.95906 0.875 7.75C0.875 11.5409 3.95906 14.625 7.75 14.625C9.42094 14.625 10.9534 14.0247 12.1461 13.03L16.6831 17.567C16.8052 17.6891 16.9652 17.7502 17.125 17.7502C17.2848 17.7502 17.4448 17.6891 17.5669 17.567C17.8111 17.3228 17.8111 16.9272 17.5669 16.6831ZM2.125 7.75C2.125 4.64844 4.64813 2.125 7.75 2.125C10.8519 2.125 13.375 4.64844 13.375 7.75C13.375 10.8516 10.8519 13.375 7.75 13.375C4.64813 13.375 2.125 10.8516 2.125 7.75Z" fill="#00A6BD" stroke="#00A6BD" stroke-width="0.5"/>
</svg>
