<svg width="24" height="24" viewBox="0 0 24 24" fill="none" xmlns="http://www.w3.org/2000/svg">
<path d="M21.5923 3.8877C20.3866 3.47351 19.4207 2.50214 19.0084 1.28925C18.7462 0.518005 18.0242 0 17.2115 0H6.74158C5.92914 0 5.20697 0.518005 4.94476 1.28925C4.53241 2.50214 3.56653 3.47351 2.36078 3.8877C1.59357 4.15137 1.07812 4.87555 1.07812 5.68982V8.33844C1.07812 11.7947 2.11377 15.1227 4.07318 17.9626C5.86597 20.5611 8.33643 22.5945 11.2178 23.8433C11.4589 23.9478 11.7177 24 11.9766 24C12.2353 24 12.494 23.9478 12.7352 23.8433C15.6165 22.5947 18.087 20.5611 19.8798 17.9626C21.8392 15.1227 22.875 11.7946 22.875 8.33844V5.68982C22.875 4.87555 22.3596 4.15137 21.5923 3.8877ZM21.4688 8.33844C21.4688 11.508 20.519 14.5598 18.7222 17.1641C17.0792 19.5456 14.8154 21.4091 12.176 22.5529C12.0494 22.6078 11.9039 22.608 11.777 22.5529C9.13733 21.4091 6.87378 19.5456 5.23077 17.1641C3.43414 14.56 2.48438 11.5082 2.48438 8.33844V5.68982C2.48438 5.47595 2.61841 5.28625 2.81781 5.21777C4.43188 4.66315 5.72479 3.36383 6.27612 1.74188C6.34442 1.5412 6.53137 1.40625 6.74158 1.40625H17.2115C17.4216 1.40625 17.6087 1.5412 17.677 1.74188C18.2283 3.36383 19.5212 4.66315 21.1353 5.21777C21.3347 5.28625 21.4688 5.47595 21.4688 5.68982V8.33844Z" fill="#00A6BD"/>
<path d="M14.9655 9.11621H14.9177V7.11377C14.9177 5.49274 13.5988 4.17383 11.9778 4.17383C10.3568 4.17383 9.03784 5.49274 9.03784 7.11377V9.11621H8.99005C8.0564 9.11621 7.29688 9.87592 7.29688 10.8096V14.8562C7.29688 16.595 8.71155 18.0098 10.4501 18.0098H13.5054C15.2442 18.0098 16.6587 16.595 16.6587 14.8562V10.8096C16.6587 9.87592 15.8992 9.11621 14.9655 9.11621ZM10.4441 7.11377C10.4441 6.26819 11.1322 5.58008 11.9778 5.58008C12.8234 5.58008 13.5115 6.26819 13.5115 7.11377V9.11639H10.4441V7.11377ZM15.2524 14.8562C15.2524 15.8197 14.4688 16.6034 13.5054 16.6034H10.4501C9.48682 16.6034 8.70312 15.8197 8.70312 14.8562V10.8096C8.70312 10.6514 8.83185 10.5226 8.99005 10.5226H14.9655C15.1237 10.5226 15.2524 10.6514 15.2524 10.8096V14.8562Z" fill="#00A6BD"/>
<path d="M11.9766 12.1963C11.5882 12.1963 11.2734 12.511 11.2734 12.8994V14.2278C11.2734 14.6162 11.5882 14.931 11.9766 14.931C12.3649 14.931 12.6797 14.6162 12.6797 14.2278V12.8994C12.6797 12.511 12.3649 12.1963 11.9766 12.1963Z" fill="#00A6BD"/>
</svg>
