<svg width="28" height="32" viewBox="0 0 28 32" fill="none" xmlns="http://www.w3.org/2000/svg">
<path d="M22.6765 21.5246C21.1433 21.5246 19.7619 22.1867 18.8032 23.2399L10.1799 17.8991C10.4101 17.3098 10.5378 16.6696 10.5378 16C10.5378 15.33 10.4101 14.6899 10.1799 14.1008L18.8032 8.75975C19.7619 9.81297 21.1433 10.4753 22.6765 10.4753C25.5646 10.4753 27.9142 8.12572 27.9142 5.23754C27.9142 2.34936 25.5646 0 22.6765 0C19.7883 0 17.4387 2.3496 17.4387 5.23778C17.4387 5.90746 17.5666 6.54759 17.7966 7.13695L9.17356 12.4778C8.21483 11.4245 6.83348 10.7622 5.30028 10.7622C2.4121 10.7622 0.0625 13.112 0.0625 16C0.0625 18.8881 2.4121 21.2377 5.30028 21.2377C6.83348 21.2377 8.21483 20.5756 9.17356 19.5222L17.7966 24.863C17.5666 25.4523 17.4387 26.0925 17.4387 26.7624C17.4387 29.6503 19.7883 31.9999 22.6765 31.9999C25.5646 31.9999 27.9142 29.6503 27.9142 26.7624C27.9142 23.8742 25.5646 21.5246 22.6765 21.5246ZM19.3486 5.23778C19.3486 3.40282 20.8415 1.90991 22.6765 1.90991C24.5114 1.90991 26.0043 3.40282 26.0043 5.23778C26.0043 7.07274 24.5114 8.56566 22.6765 8.56566C20.8415 8.56566 19.3486 7.07274 19.3486 5.23778ZM5.30028 19.3278C3.46508 19.3278 1.97216 17.8349 1.97216 16C1.97216 14.165 3.46508 12.6721 5.30028 12.6721C7.13524 12.6721 8.62791 14.165 8.62791 16C8.62791 17.8349 7.13524 19.3278 5.30028 19.3278ZM19.3486 26.7622C19.3486 24.9272 20.8415 23.4343 22.6765 23.4343C24.5114 23.4343 26.0043 24.9272 26.0043 26.7622C26.0043 28.5971 24.5114 30.09 22.6765 30.09C20.8415 30.09 19.3486 28.5971 19.3486 26.7622Z" fill="#00A6BD"/>
</svg>
