<svg width="32" height="32" viewBox="0 0 32 32" fill="none" xmlns="http://www.w3.org/2000/svg">
<path d="M24.6765 21.5246C23.1433 21.5246 21.7619 22.1867 20.8032 23.2399L12.1799 17.8991C12.4101 17.3098 12.5378 16.6696 12.5378 16C12.5378 15.33 12.4101 14.6899 12.1799 14.1008L20.8032 8.75975C21.7619 9.81297 23.1433 10.4753 24.6765 10.4753C27.5646 10.4753 29.9142 8.12572 29.9142 5.23754C29.9142 2.34936 27.5646 0 24.6765 0C21.7883 0 19.4387 2.3496 19.4387 5.23778C19.4387 5.90746 19.5666 6.54759 19.7966 7.13695L11.1736 12.4778C10.2148 11.4245 8.83348 10.7622 7.30028 10.7622C4.4121 10.7622 2.0625 13.112 2.0625 16C2.0625 18.8881 4.4121 21.2377 7.30028 21.2377C8.83348 21.2377 10.2148 20.5756 11.1736 19.5222L19.7966 24.863C19.5666 25.4523 19.4387 26.0925 19.4387 26.7624C19.4387 29.6503 21.7883 31.9999 24.6765 31.9999C27.5646 31.9999 29.9142 29.6503 29.9142 26.7624C29.9142 23.8742 27.5646 21.5246 24.6765 21.5246ZM21.3486 5.23778C21.3486 3.40282 22.8415 1.90991 24.6765 1.90991C26.5114 1.90991 28.0043 3.40282 28.0043 5.23778C28.0043 7.07274 26.5114 8.56566 24.6765 8.56566C22.8415 8.56566 21.3486 7.07274 21.3486 5.23778ZM7.30028 19.3278C5.46508 19.3278 3.97216 17.8349 3.97216 16C3.97216 14.165 5.46508 12.6721 7.30028 12.6721C9.13524 12.6721 10.6279 14.165 10.6279 16C10.6279 17.8349 9.13524 19.3278 7.30028 19.3278ZM21.3486 26.7622C21.3486 24.9272 22.8415 23.4343 24.6765 23.4343C26.5114 23.4343 28.0043 24.9272 28.0043 26.7622C28.0043 28.5971 26.5114 30.09 24.6765 30.09C22.8415 30.09 21.3486 28.5971 21.3486 26.7622Z" fill="white"/>
</svg>
