<svg width="16" height="16" viewBox="0 0 16 16" fill="none" xmlns="http://www.w3.org/2000/svg">
<g clip-path="url(#clip0_2205_27764)">
<path d="M4.96067 4.5974L5.90704 3.65103L2.95352 0.69751L0 3.65103L0.946371 4.5974L2.28447 3.2593V12.7404L0.946371 11.4023L0 12.3487L2.95352 15.3022L5.90704 12.3487L4.96067 11.4023L3.62257 12.7404V3.2593L4.96067 4.5974Z" fill="#484848"/>
<path d="M15.9984 0.640381H7.30078V1.97848H15.9984V0.640381Z" fill="#484848"/>
<path d="M15.9984 7.33081H7.30078V8.66891H15.9984V7.33081Z" fill="#484848"/>
<path d="M13.3222 3.9856H7.30078V5.3237H13.3222V3.9856Z" fill="#484848"/>
<path d="M13.3222 10.676H7.30078V12.0141H13.3222V10.676Z" fill="#484848"/>
<path d="M15.9984 14.0215H7.30078V15.3596H15.9984V14.0215Z" fill="#484848"/>
</g>
<defs>
<clipPath id="clip0_2205_27764">
<rect width="16" height="16" fill="white"/>
</clipPath>
</defs>
</svg>
