<svg width="16" height="16" viewBox="0 0 16 16" fill="none" xmlns="http://www.w3.org/2000/svg">
<g clip-path="url(#clip0_2242_24726)">
<path d="M4.96067 4.59911L5.90704 3.65274L2.95352 0.699219L0 3.65274L0.946371 4.59911L2.28447 3.26101V12.7421L0.946371 11.404L0 12.3504L2.95352 15.3039L5.90704 12.3504L4.96067 11.404L3.62257 12.7421V3.26101L4.96067 4.59911Z" fill="#00A6BD"/>
<path d="M15.9984 0.640625H7.30078V1.97873H15.9984V0.640625Z" fill="#00A6BD"/>
<path d="M15.9984 7.33203H7.30078V8.67013H15.9984V7.33203Z" fill="#00A6BD"/>
<path d="M13.3222 3.98438H7.30078V5.32248H13.3222V3.98438Z" fill="#00A6BD"/>
<path d="M13.3222 10.6758H7.30078V12.0139H13.3222V10.6758Z" fill="#00A6BD"/>
<path d="M15.9984 14.0234H7.30078V15.3615H15.9984V14.0234Z" fill="#00A6BD"/>
</g>
<defs>
<clipPath id="clip0_2242_24726">
<rect width="16" height="16" fill="white"/>
</clipPath>
</defs>
</svg>
