<svg width="16" height="17" viewBox="0 0 16 17" fill="none" xmlns="http://www.w3.org/2000/svg">
<path d="M8.00049 3.34505C8.15893 3.3395 8.31516 3.39372 8.43227 3.51039L12.0456 7.1275C12.2978 7.38061 12.3129 7.77194 12.0789 8.00594L11.542 8.54372C11.308 8.77772 10.9169 8.76239 10.6649 8.51039L9.15538 6.9995V12.4495C9.15538 12.7564 8.9276 13.0019 8.64405 13.0019H7.37671C7.09294 13.0019 6.8636 12.7564 6.8636 12.4495V6.9995L5.35582 8.51039C5.10227 8.76261 4.71093 8.77772 4.47738 8.54372L3.94005 8.00594C3.70649 7.77194 3.72249 7.38061 3.97471 7.1275L7.5536 3.54416C7.67982 3.41794 7.84205 3.35061 8.00049 3.34505ZM8.0096 0.189941C5.89494 0.189941 3.86627 1.03105 2.37071 2.52794C0.875379 4.02572 0.0351562 6.05572 0.0351562 8.17416C0.0351562 10.2904 0.875379 12.3217 2.37071 13.8186C3.86627 15.3155 5.89494 16.1566 8.0096 16.1566C10.1254 16.1566 12.1532 15.3155 13.6485 13.8186C15.144 12.3217 15.9845 10.2904 15.9845 8.17416C15.9845 6.05572 15.1443 4.02572 13.6485 2.52794C12.1532 1.03127 10.1254 0.189941 8.0096 0.189941Z" fill="#8C8C8C"/>
</svg>
