<svg width="16" height="16" viewBox="0 0 16 16" fill="none" xmlns="http://www.w3.org/2000/svg">
<path d="M6.71875 15.375C6.71875 15.7202 6.43896 16 6.09375 16H3.34375C1.96521 16 0.84375 14.8785 0.84375 13.5V2.5C0.84375 1.12146 1.96521 0 3.34375 0H11.0278C12.4062 0 13.5278 1.12146 13.5278 2.5V8.46875C13.5278 8.81396 13.2479 9.09375 12.9028 9.09375C12.5576 9.09375 12.2778 8.81396 12.2778 8.46875V2.5C12.2778 1.81079 11.717 1.25 11.0278 1.25H3.34375C2.65454 1.25 2.09375 1.81079 2.09375 2.5V13.5C2.09375 14.1892 2.65454 14.75 3.34375 14.75H6.09375C6.43896 14.75 6.71875 15.0298 6.71875 15.375ZM10.4028 3.75H3.96533C3.62012 3.75 3.34033 4.02979 3.34033 4.375C3.34033 4.72021 3.62012 5 3.96533 5H10.4028C10.7479 5 11.0278 4.72021 11.0278 4.375C11.0278 4.02979 10.7479 3.75 10.4028 3.75ZM11.0278 6.875C11.0278 6.52979 10.7479 6.25 10.4028 6.25H3.96533C3.62012 6.25 3.34033 6.52979 3.34033 6.875C3.34033 7.22021 3.62012 7.5 3.96533 7.5H10.4028C10.7479 7.5 11.0278 7.22021 11.0278 6.875ZM3.96533 8.75C3.62012 8.75 3.34033 9.02979 3.34033 9.375C3.34033 9.72021 3.62012 10 3.96533 10H7.25C7.59521 10 7.875 9.72021 7.875 9.375C7.875 9.02979 7.59521 8.75 7.25 8.75H3.96533ZM15.0738 13.328C15.0519 13.3594 14.9766 13.4659 14.9298 13.5249C14.7205 13.7882 14.2305 14.4045 13.5487 14.9486C12.6746 15.6462 11.775 16 10.875 16C9.97497 16 9.07544 15.6462 8.20129 14.9486C7.51953 14.4045 7.02954 13.7881 6.82031 13.5249C6.77343 13.4659 6.69812 13.3593 6.67614 13.328C6.52466 13.1124 6.52466 12.825 6.67614 12.6094C6.69812 12.5781 6.77343 12.4714 6.82031 12.4125C7.02954 12.1493 7.51953 11.533 8.20129 10.9889C9.07544 10.2913 9.97497 9.9375 10.875 9.9375C11.775 9.9375 12.6746 10.2913 13.5487 10.9889C14.2305 11.533 14.7205 12.1494 14.9297 12.4126C14.9766 12.4716 15.0519 12.5782 15.0738 12.6095C15.2253 12.8251 15.2253 13.1124 15.0738 13.328ZM13.7701 12.9688C12.7764 11.7865 11.8033 11.1875 10.875 11.1875C9.94677 11.1875 8.97363 11.7864 7.97985 12.9688C8.97363 14.151 9.94665 14.75 10.875 14.75C11.8033 14.75 12.7764 14.1511 13.7701 12.9688V12.9688ZM10.9062 11.7812C10.2504 11.7812 9.71875 12.3129 9.71875 12.9688C9.71875 13.6246 10.2504 14.1562 10.9062 14.1562C11.5621 14.1562 12.0937 13.6246 12.0937 12.9688C12.0937 12.3129 11.5621 11.7812 10.9062 11.7812Z" fill="#484848"/>
</svg>
