<svg width="513" height="513" viewBox="0 0 513 513" fill="none" xmlns="http://www.w3.org/2000/svg">
<g clip-path="url(#clip0_1349_36391)">
<path d="M256.633 512.664C398.018 512.664 512.633 398.049 512.633 256.664C512.633 115.279 398.018 0.664062 256.633 0.664062C115.248 0.664062 0.632812 115.279 0.632812 256.664C0.632812 398.049 115.248 512.664 256.633 512.664Z" fill="#FF0000"/>
<path d="M340.406 160.359H172.86C166.165 160.359 159.535 161.679 153.349 164.242C147.164 166.805 141.544 170.562 136.811 175.298C132.078 180.034 128.325 185.657 125.766 191.844C123.207 198.031 121.892 204.662 121.896 211.357V301.968C121.892 308.663 123.207 315.294 125.766 321.481C128.325 327.668 132.078 333.291 136.811 338.027C141.544 342.763 147.164 346.52 153.349 349.083C159.535 351.646 166.165 352.966 172.86 352.966H340.406C347.101 352.966 353.731 351.646 359.916 349.083C366.102 346.52 371.722 342.763 376.455 338.027C381.187 333.291 384.941 327.668 387.5 321.481C390.059 315.294 391.374 308.663 391.37 301.968V211.357C391.374 204.662 390.059 198.031 387.5 191.844C384.941 185.657 381.187 180.034 376.455 175.298C371.722 170.562 366.102 166.805 359.916 164.242C353.731 161.679 347.101 160.359 340.406 160.359ZM221.13 297.959V215.366L292.136 256.663L221.13 297.959Z" fill="white"/>
</g>
<defs>
<clipPath id="clip0_1349_36391">
<rect width="512" height="512" fill="white" transform="translate(0.632812 0.664062)"/>
</clipPath>
</defs>
</svg>
