<svg width="24" height="24" viewBox="0 0 24 24" fill="none" xmlns="http://www.w3.org/2000/svg">
<path d="M12 0C5.39255 0 0 5.39297 0 12C0 18.6075 5.39297 24 12 24C18.6075 24 24 18.607 24 12C24 5.39255 18.607 0 12 0ZM8.43998 2.02233C7.6192 3.07111 7.0268 4.36856 6.61772 5.625H3.54478C4.77989 3.99089 6.47695 2.72484 8.43998 2.02233ZM2.64623 7.03078H6.22538C5.91206 8.36302 5.72714 9.80536 5.68275 11.2969H1.43016C1.53113 9.76373 1.95952 8.31877 2.64623 7.03078ZM1.43016 12.7031H5.68275C5.72658 14.1772 5.90789 15.6031 6.21459 16.9219H2.62144C1.94925 15.6462 1.52991 14.2177 1.43016 12.7031ZM3.50902 18.3281H6.60244C7.01339 19.6034 7.61119 20.9186 8.43998 21.9777C6.45811 21.2684 4.74703 19.985 3.50902 18.3281ZM11.2969 22.4735C9.72094 21.9393 8.64863 19.8967 8.08673 18.3281H11.2969V22.4735ZM11.2969 16.9219H7.66017C7.3312 15.6215 7.1363 14.192 7.08952 12.7031H11.2969V16.9219ZM11.2969 11.2969H7.08952C7.13686 9.79008 7.33603 8.34412 7.67227 7.03125H11.2969V11.2969ZM11.2969 5.625H8.10356C8.66602 4.07241 9.73336 2.05645 11.2969 1.52653V5.625ZM20.4552 5.625H17.3823C16.9733 4.36884 16.3809 3.0713 15.56 2.02233C17.523 2.72484 19.2201 3.99089 20.4552 5.625ZM12.7031 1.52653C14.2668 2.05655 15.3341 4.07278 15.8964 5.625H12.7031V1.52653ZM12.7031 7.03125H16.3277C16.6639 8.34412 16.8631 9.79008 16.9105 11.2969H12.7031V7.03125ZM12.7031 12.7027H16.9105C16.8637 14.192 16.6688 15.6215 16.3398 16.9219H12.7031V12.7027ZM12.7031 22.4735V18.3277H15.9133C15.3518 19.8958 14.2795 21.9392 12.7031 22.4735ZM15.56 21.9777C16.3889 20.9185 16.9867 19.6032 17.3976 18.3277H20.491C19.253 19.985 17.5419 21.2684 15.56 21.9777ZM21.3786 16.9219H17.7855C18.0922 15.6031 18.2735 14.1772 18.3173 12.7027H22.5699C22.4701 14.2177 22.0507 15.6462 21.3786 16.9219ZM22.5698 11.2969H18.3172C18.2729 9.80536 18.0879 8.36302 17.7746 7.03125H21.3538C22.0405 8.31877 22.4689 9.76373 22.5698 11.2969Z" fill="#484848"/>
</svg>
