<svg width="18" height="18" viewBox="0 0 18 18" fill="none" xmlns="http://www.w3.org/2000/svg">
<path d="M15.3502 0H14.7115H3.28493H2.64623C2.4986 0 2.37891 0.119691 2.37891 0.267327C2.37891 0.414962 2.4986 0.534653 2.64623 0.534653H3.01757V14.4577C3.01757 14.6053 3.13726 14.725 3.28489 14.725C3.43253 14.725 3.55222 14.6053 3.55222 14.4577V13.6337H5.06426V17.4653H3.55226V15.5271C3.55226 15.3794 3.43257 15.2598 3.28493 15.2598C3.13729 15.2598 3.0176 15.3794 3.0176 15.5271V17.7327C3.0176 17.8803 3.13729 18 3.28493 18H14.7115C14.8591 18 14.9788 17.8803 14.9788 17.7327V0.534653H15.3502C15.4978 0.534653 15.6175 0.414962 15.6175 0.267327C15.6175 0.119691 15.4978 0 15.3502 0ZM12.6648 7.01547C12.8124 7.01547 12.9321 6.89578 12.9321 6.74815V4.90099H14.4441V8.73267H12.9321V7.81752C12.9321 7.66989 12.8124 7.5502 12.6648 7.5502C12.5171 7.5502 12.3975 7.66989 12.3975 7.81752V8.73267H10.4267V4.90099H12.3975V6.74815C12.3975 6.89578 12.5171 7.01547 12.6648 7.01547ZM3.55226 4.90099H5.06429V8.73267H3.55226V4.90099ZM5.59895 4.90099H7.56954V8.73267H5.59895V4.90099ZM8.10415 13.099V9.26733H9.89203V13.099H8.10415ZM8.10415 8.73267V4.90099H9.89203V8.73267H8.10415ZM8.10415 4.36634V0.534653H9.89203V4.36634H8.10415ZM7.5695 4.36634H5.59891V0.534653H7.5695V4.36634ZM7.5695 9.26733V13.099H5.59891V9.26733H7.5695ZM8.73087 13.6337V15.4456H8.18531C8.03768 15.4456 7.91799 15.5653 7.91799 15.7129C7.91799 15.8605 8.03768 15.9802 8.18531 15.9802H8.73087V17.4653H6.94303V13.6337H8.73087ZM9.26553 15.9802H9.81105C9.95869 15.9802 10.0784 15.8605 10.0784 15.7129C10.0784 15.5653 9.95869 15.4456 9.81105 15.4456H9.26553V13.6337H11.0533V17.4653H9.26553V15.9802ZM11.588 13.6337H12.3975V17.4653H11.588V13.6337ZM10.4267 13.099V9.26733H12.3975V13.099H10.4267ZM12.9321 9.26733H14.4441V13.099H12.9321V9.26733ZM10.4267 4.36634V0.534653H12.3975V4.36634H10.4267ZM5.06429 0.534653V4.36634H3.55226V0.534653H5.06429ZM3.55226 13.099V9.26733H5.06429V13.099H3.55226ZM5.59895 13.6337H6.40841V17.4653H5.59895V13.6337ZM12.9321 17.4653V13.6337H14.4441V17.4653H12.9321ZM14.4441 4.36634H12.9321V0.534653H14.4441V4.36634Z" fill="white"/>
</svg>
