<svg width="19" height="18" viewBox="0 0 19 18" fill="black" xmlns="http://www.w3.org/2000/svg">
<path d="M18.4787 1.99414H3.38477C3.14168 1.99414 2.94531 2.18798 2.94531 2.42794V17.5162C2.94531 17.756 3.14168 17.9498 3.38477 17.9498H15.0701C15.313 17.9498 15.5093 17.756 15.5093 17.5162V13.6644H18.4787C18.7216 13.6644 18.9179 13.4706 18.9179 13.2308V2.42794C18.9179 2.18798 18.7216 1.99414 18.4787 1.99414V1.99414ZM18.0392 12.797H15.0701C14.8272 12.797 14.6308 12.9908 14.6308 13.2308V17.0824H3.82403V2.86154H18.0392V12.797Z" fill="#484848"/>
<path d="M2.5267 2.7153C2.75737 2.7153 2.94579 2.55299 2.94579 2.35472C2.94579 2.15625 2.75737 1.99414 2.5267 1.99414H1.36831C1.13787 1.99414 0.949219 2.15625 0.949219 2.35472C0.949219 2.55299 1.13787 2.7153 1.36831 2.7153H1.52407V17.2287H1.36831C1.13787 17.2287 0.949219 17.3908 0.949219 17.5892C0.949219 17.7875 1.13787 17.9498 1.36831 17.9498H2.5267C2.75737 17.9498 2.94579 17.7875 2.94579 17.5892C2.94579 17.3908 2.75737 17.2287 2.5267 17.2287H2.35906V2.7153H2.5267Z" fill="#484848"/>
<path d="M3.31215 1.99446C3.51376 1.99446 3.6788 1.80603 3.6788 1.57563V1.40819H18.1846V1.57563C18.1846 1.80603 18.3497 1.99446 18.5513 1.99446C18.7531 1.99446 18.9179 1.80603 18.9179 1.57563V0.418602C18.9179 0.188428 18.7531 0 18.5513 0C18.3497 0 18.1846 0.188428 18.1846 0.418602V0.57418H3.6788V0.418602C3.6788 0.188428 3.51376 0 3.31215 0C3.11035 0 2.94531 0.188428 2.94531 0.418602V1.57563C2.94531 1.80603 3.10775 1.99446 3.31215 1.99446V1.99446Z" fill="#484848"/>
<path d="M7.80727 11.9649V9.26355C8.06183 8.93095 8.321 8.75965 8.57297 8.75965C8.73047 8.75965 8.83713 8.80502 8.89777 8.89827C8.9462 8.97132 9.00185 9.13263 9.00185 9.47523V11.9649H9.86681V9.26355C10.1238 8.92845 10.3829 8.75965 10.6375 8.75965C10.7924 8.75965 10.8967 8.80502 10.9573 8.89827C11.0057 8.97132 11.0614 9.13263 11.0614 9.47523V11.9649H11.9289V9.45004C11.9289 8.23287 11.2771 7.97852 10.7272 7.97852C10.5526 7.97852 10.3757 8.0212 10.1964 8.10444C10.0461 8.175 9.87901 8.31612 9.68768 8.53279C9.50097 8.16481 9.15935 7.97852 8.66743 7.97852C8.35742 7.97852 8.06904 8.09944 7.80487 8.3413V8.06157H6.9375V11.9674H7.80727V11.9649Z" fill="#484848"/>
<path d="M13.9263 7.37323H12.821C12.8837 7.31163 12.9722 7.22942 13.098 7.12079C13.4179 6.84773 13.6264 6.63628 13.7378 6.47769C13.8576 6.30454 13.9206 6.10496 13.9206 5.87895C13.9206 5.62628 13.835 5.41214 13.6691 5.24168C13.5035 5.07145 13.2692 4.98633 12.9722 4.98633C12.6952 4.98633 12.4638 5.06853 12.2897 5.23295C12.1154 5.39736 12.0153 5.61755 11.9924 5.88769L11.9811 6.04628H12.6124L12.6209 5.91121C12.6294 5.78487 12.6667 5.69393 12.7295 5.63524C12.7953 5.57656 12.8722 5.54699 12.9665 5.54699C13.0779 5.54699 13.1579 5.57342 13.2121 5.6292C13.2664 5.6852 13.2921 5.76427 13.2921 5.86999C13.2921 6.00215 13.2551 6.1137 13.1779 6.21943C13.0895 6.3368 12.918 6.50412 12.6667 6.70975C12.3923 6.93576 12.2067 7.1237 12.1012 7.2852C11.9868 7.45544 11.9297 7.64046 11.9297 7.8313V7.97802H13.9263V7.37323Z" fill="#484848"/>
</svg>
