<svg width="22" height="14" viewBox="0 0 22 14" fill="none" xmlns="http://www.w3.org/2000/svg">
<path d="M10.9999 13.25C13.0477 13.2243 15.0511 12.6494 16.801 11.5853C18.5509 10.5213 19.9831 9.00714 20.9483 7.20083C20.9821 7.13931 20.9999 7.07022 20.9999 7C20.9999 6.92978 20.9821 6.86069 20.9483 6.79917C19.9831 4.99286 18.5509 3.47869 16.801 2.41466C15.0511 1.35063 13.0477 0.775749 10.9999 0.75C8.95211 0.775749 6.94873 1.35063 5.19885 2.41466C3.44897 3.47869 2.01673 4.99286 1.0516 6.79917C1.01775 6.86069 1 6.92978 1 7C1 7.07022 1.01775 7.13931 1.0516 7.20083C2.01673 9.00714 3.44897 10.5213 5.19885 11.5853C6.94873 12.6494 8.95211 13.2243 10.9999 13.25ZM10.9999 1.58333C12.8595 1.60745 14.68 2.12073 16.2783 3.07158C17.8766 4.02242 19.1964 5.3773 20.1049 7C19.1964 8.6227 17.8766 9.97758 16.2783 10.9284C14.68 11.8793 12.8595 12.3926 10.9999 12.4167C9.14034 12.3926 7.31988 11.8793 5.72158 10.9284C4.12329 9.97758 2.8035 8.6227 1.89493 7C2.8035 5.3773 4.12329 4.02242 5.72158 3.07158C7.31988 2.12073 9.14034 1.60745 10.9999 1.58333ZM10.9999 10.3333C11.6592 10.3333 12.3037 10.1378 12.8518 9.77157C13.4 9.40529 13.8272 8.8847 14.0795 8.27561C14.3318 7.66652 14.3978 6.9963 14.2692 6.3497C14.1406 5.7031 13.8231 5.10915 13.3569 4.64298C12.8908 4.1768 12.2968 3.85933 11.6502 3.73072C11.0036 3.6021 10.3334 3.66811 9.72432 3.9204C9.11523 4.17269 8.59463 4.59994 8.22836 5.1481C7.86209 5.69626 7.66659 6.34073 7.66659 7C7.66659 7.88406 8.01778 8.7319 8.6429 9.35702C9.26803 9.98214 10.1159 10.3333 10.9999 10.3333ZM10.9999 4.5C11.4944 4.5 11.9777 4.64662 12.3889 4.92133C12.8 5.19603 13.1204 5.58648 13.3096 6.04329C13.4988 6.50011 13.5484 7.00277 13.4519 7.48773C13.3554 7.97268 13.1173 8.41814 12.7677 8.76777C12.4181 9.1174 11.9726 9.3555 11.4877 9.45196C11.0027 9.54843 10.5 9.49892 10.0432 9.3097C9.5864 9.12048 9.19596 8.80005 8.92125 8.38893C8.64655 7.9778 8.49993 7.49445 8.49993 7C8.49993 6.33696 8.76332 5.70107 9.23216 5.23223C9.701 4.76339 10.3369 4.5 10.9999 4.5Z" fill="white" stroke="white" stroke-width="0.5"/>
</svg>
