<svg width="16" height="16" viewBox="0 0 16 16" fill="none" xmlns="http://www.w3.org/2000/svg">
<g clip-path="url(#clip0_1505_39015)">
<path d="M8.06664 1.29785C6.88797 1.29785 5.70742 1.63242 4.65262 2.26547C3.98359 2.66801 3.38242 3.17391 2.87172 3.76465L4.63387 3.70652C4.84082 3.69961 5.01414 3.86191 5.02094 4.06898C5.02773 4.27594 4.86555 4.44938 4.65848 4.45606L2.22039 4.53656C2.08035 4.59422 1.91933 4.56199 1.81223 4.45477C1.70523 4.34754 1.67324 4.18652 1.73113 4.04648L1.81141 1.60898C1.81609 1.40191 1.98777 1.23785 2.19484 1.24242C2.4018 1.24711 2.56609 1.41879 2.56141 1.62574C2.56141 1.62855 2.56141 1.63113 2.56117 1.63383L2.51476 3.04008C3.03062 2.48883 3.62019 2.01152 4.26672 1.62211C5.43801 0.919336 6.75203 0.547852 8.06664 0.547852C10.1666 0.547852 12.1028 1.41375 13.5177 2.98594C14.7712 4.37871 15.5195 6.25336 15.5195 8.00074C15.5195 8.20781 15.3517 8.37574 15.1445 8.37574C14.9373 8.37574 14.7695 8.20781 14.7695 8.00074C14.7695 6.43359 14.0932 4.74645 12.9603 3.48773C11.6893 2.07574 9.95148 1.29785 8.06664 1.29785Z" fill="white" stroke="white" stroke-width="0.3"/>
<path d="M0.894055 7.625C1.10124 7.625 1.26906 7.79281 1.26906 8C1.26906 9.56703 1.94534 11.2543 3.07831 12.5131C4.34933 13.9251 6.0871 14.7028 7.97195 14.7028C9.15062 14.7028 10.3312 14.3684 11.386 13.7354C12.055 13.3327 12.6562 12.8268 13.1669 12.2362L11.4047 12.2943C11.1978 12.301 11.0244 12.1387 11.0177 11.9318C11.0109 11.7248 11.173 11.5515 11.3801 11.5446L13.8182 11.4642C13.9582 11.4065 14.1193 11.4389 14.2264 11.546C14.3334 11.6532 14.3653 11.8141 14.3075 11.9541L14.2272 14.3916C14.2225 14.5988 14.0508 14.763 13.8437 14.7583C13.6368 14.7538 13.4725 14.5821 13.4772 14.375C13.4772 14.3723 13.4772 14.3697 13.4774 14.3669L13.5238 12.9607C13.008 13.512 12.4184 13.9891 11.7719 14.3788C10.6006 15.0816 9.28656 15.453 7.97195 15.453C5.87195 15.453 3.93577 14.5872 2.52085 13.015C1.26742 11.6221 0.519055 9.7475 0.519055 8C0.519055 7.79281 0.686868 7.625 0.894055 7.625Z" fill="white" stroke="white" stroke-width="0.3"/>
</g>
<defs>
<clipPath id="clip0_1505_39015">
<rect width="16" height="16" fill="white" transform="matrix(-1 0 0 1 16 0)"/>
</clipPath>
</defs>
</svg>
