<svg width="12" height="18" viewBox="0 0 12 18" fill="none" xmlns="http://www.w3.org/2000/svg">
<path d="M6 17.2501C4.40926 17.2483 2.88419 16.6156 1.75937 15.4907C0.634541 14.3659 0.0018163 12.8408 0 11.2501C0 6.03543 5.5155 1.05479 5.75044 0.845318C5.81907 0.783935 5.90792 0.75 6 0.75C6.09208 0.75 6.18093 0.783935 6.24956 0.845318C6.4845 1.05479 12 6.03543 12 11.2501C11.9982 12.8408 11.3655 14.3659 10.2406 15.4907C9.11581 16.6156 7.59074 17.2483 6 17.2501ZM6 1.63964C4.92499 2.67656 0.75 6.97953 0.75 11.2501C0.75 12.6425 1.30312 13.9779 2.28769 14.9624C3.27226 15.947 4.60761 16.5001 6 16.5001C7.39239 16.5001 8.72775 15.947 9.71231 14.9624C10.6969 13.9779 11.25 12.6425 11.25 11.2501C11.25 6.97953 7.07501 2.67656 6 1.63964Z" fill="white"/>
<path d="M3.9366 15.1977C3.87075 15.1978 3.80606 15.1804 3.7491 15.1474C3.06628 14.751 2.4993 14.1826 2.10467 13.4987C1.71004 12.8149 1.50155 12.0395 1.5 11.25C1.5 11.1505 1.53951 11.0552 1.60984 10.9848C1.68016 10.9145 1.77554 10.875 1.875 10.875C1.97446 10.875 2.06984 10.9145 2.14017 10.9848C2.21049 11.0552 2.25 11.1505 2.25 11.25C2.25132 11.9081 2.42515 12.5543 2.75414 13.1242C3.08314 13.6941 3.5558 14.1678 4.125 14.4981C4.19648 14.5394 4.25233 14.6032 4.28386 14.6795C4.3154 14.7558 4.32087 14.8404 4.29942 14.9202C4.27796 14.9999 4.2308 15.0703 4.16523 15.1205C4.09966 15.1707 4.01936 15.1978 3.93679 15.1977H3.9366Z" fill="white"/>
</svg>
