<svg width="19" height="18" viewBox="0 0 19 18" fill="black" xmlns="http://www.w3.org/2000/svg">
                          <path d="M17.9778 4.90081L9.39932 0.0534634C9.27565 -0.0178211 9.12313 -0.0178211 8.99946 0.0534634L0.42515 4.90081C0.293237 4.97629 0.214914 5.11466 0.214914 5.26562V17.5391C0.210792 17.7656 0.388049 17.9501 0.610652 17.9501C0.614774 17.9501 0.618896 17.9501 0.618896 17.9501H17.7799C18.0025 17.9543 18.1839 17.774 18.1839 17.5475C18.1839 17.5433 18.1839 17.5391 18.1839 17.5391V5.26981C18.188 5.11466 18.1097 4.97629 17.9778 4.90081ZM14.9726 17.1156H3.43028V15.3964H14.9726V17.1156ZM14.9726 14.5578H3.43028V12.9643H14.9726V14.5578ZM14.9726 12.1257H3.43028V10.5323H14.9726V12.1257ZM14.9726 9.69364H3.43028V8.10023H14.9726V9.69364ZM17.3635 17.1156H15.7971V7.69348C15.7971 7.46286 15.6281 7.26158 15.3972 7.26158H3.00569C2.77896 7.26158 2.60583 7.46286 2.60583 7.69348V17.1156H1.03937V5.51302L9.20145 0.896298L17.3635 5.51302V17.1156Z" fill="#484848"/>
                          </svg>
