<svg width="24" height="24" viewBox="0 0 24 24" fill="none" xmlns="http://www.w3.org/2000/svg">
<path d="M15.3867 4.23535H16.375V19.3883H15.3867V4.23535Z" fill="#484848"/>
<path d="M15.9072 20.376C15.766 20.376 15.6719 20.329 15.5778 20.2349L12.6602 17.3172L13.366 16.6113L15.9543 19.1996L18.5425 16.6113L19.2484 17.3172L16.2366 20.2349C16.1425 20.329 16.0013 20.376 15.9072 20.376Z" fill="#484848"/>
<path d="M7.57812 4.75293H8.56636V19.9059H7.57812V4.75293Z" fill="#484848"/>
<path d="M10.6363 7.52935L8.04802 4.94112L5.45979 7.52935L4.75391 6.82347L7.67155 3.90582C7.85979 3.71759 8.1892 3.71759 8.37744 3.90582L11.2951 6.82347L10.6363 7.52935Z" fill="#484848"/>
</svg>
