<svg width="19" height="18" viewBox="0 0 19 18" fill="black" xmlns="http://www.w3.org/2000/svg">
                          <path d="M18.8134 5.12716L16.5655 3.81081V1.79501H16.8649C16.9444 1.79501 17.0205 1.76349 17.0767 1.70739C17.1329 1.65128 17.1644 1.57519 17.1644 1.49584V0.299169C17.1644 0.219824 17.1329 0.14373 17.0767 0.0876245C17.0205 0.0315195 16.9444 0 16.8649 0H13.8701C13.7907 0 13.7145 0.0315195 13.6583 0.0876245C13.6022 0.14373 13.5706 0.219824 13.5706 0.299169V1.49584C13.5706 1.57519 13.6022 1.65128 13.6583 1.70739C13.7145 1.76349 13.7907 1.79501 13.8701 1.79501H14.1696V2.40771L10.1283 0.0412853C10.0824 0.0143562 10.0301 0.000159631 9.97678 0.000159631C9.9235 0.000159631 9.87119 0.0143562 9.82524 0.0412853L1.14016 5.12716C1.09514 5.15354 1.05781 5.19121 1.03186 5.23645C1.00591 5.28168 0.992241 5.3329 0.992213 5.38504V6.88089C0.992241 6.93356 1.00619 6.9853 1.03266 7.03086C1.05912 7.07643 1.09716 7.1142 1.14293 7.14037C1.18869 7.16654 1.24057 7.18017 1.2933 7.17989C1.34603 7.17961 1.39775 7.16542 1.44324 7.13877L2.19016 6.70138V14.5264C2.00866 14.6307 1.85779 14.7807 1.75266 14.9616C1.64753 15.1424 1.59185 15.3477 1.59118 15.5568C1.59117 15.6096 1.59477 15.6624 1.60197 15.7147C1.37133 15.8442 1.1902 16.0465 1.08696 16.2898C0.983726 16.5332 0.964206 16.8039 1.03146 17.0595C1.09872 17.3151 1.24896 17.5412 1.45863 17.7023C1.66831 17.8635 1.92558 17.9507 2.19016 17.9501H17.7634C18.028 17.9507 18.2852 17.8635 18.4949 17.7023C18.7046 17.5412 18.8548 17.3151 18.9221 17.0595C18.9893 16.8039 18.9698 16.5332 18.8666 16.2898C18.7633 16.0465 18.5822 15.8442 18.3516 15.7147C18.3588 15.6624 18.3624 15.6096 18.3624 15.5568C18.3617 15.3477 18.306 15.1424 18.2009 14.9616C18.0958 14.7807 17.9449 14.6307 17.7634 14.5264V6.70138L18.5103 7.13877C18.5558 7.16542 18.6075 7.17961 18.6603 7.17989C18.713 7.18017 18.7649 7.16654 18.8106 7.14037C18.8564 7.1142 18.8944 7.07643 18.9209 7.03086C18.9474 6.9853 18.9613 6.93356 18.9613 6.88089V5.38504C18.9613 5.3329 18.9476 5.28168 18.9217 5.23645C18.8957 5.19121 18.8584 5.15354 18.8134 5.12716ZM14.1696 0.598338H16.5655V1.19668H14.1696V0.598338ZM14.7685 1.79501H15.9665V3.45989L14.7685 2.75834V1.79501ZM2.19016 17.3518C2.04521 17.352 1.90514 17.2995 1.79607 17.2042C1.68699 17.1088 1.61636 16.9771 1.59733 16.8336C1.57831 16.69 1.6122 16.5445 1.69267 16.424C1.77315 16.3036 1.89472 16.2165 2.03472 16.1791C2.07553 16.168 2.11353 16.1484 2.14622 16.1216C2.17892 16.0949 2.20556 16.0615 2.2244 16.0236C2.24324 15.9858 2.25386 15.9445 2.25554 15.9022C2.25723 15.86 2.24995 15.818 2.23418 15.7788C2.20353 15.7033 2.18869 15.6223 2.19057 15.5409C2.19245 15.4595 2.21101 15.3793 2.24511 15.3053C2.27921 15.2313 2.32812 15.1651 2.38883 15.1107C2.44954 15.0564 2.52076 15.015 2.59809 14.9892C2.67542 14.9633 2.75723 14.9536 2.83847 14.9606C2.9197 14.9676 2.99865 14.9911 3.07043 15.0298C3.1422 15.0684 3.2053 15.1213 3.25581 15.1853C3.30633 15.2492 3.3432 15.3228 3.36414 15.4015C3.37521 15.4423 3.3948 15.4802 3.42162 15.5129C3.44843 15.5456 3.48187 15.5722 3.51972 15.591C3.55757 15.6098 3.59899 15.6204 3.64124 15.6221C3.68349 15.6238 3.72562 15.6165 3.76485 15.6008C3.84317 15.5705 3.92696 15.5569 4.01086 15.5608C4.09475 15.5648 4.17688 15.5863 4.25196 15.6239C4.32705 15.6615 4.39343 15.7144 4.44684 15.7791C4.50025 15.8438 4.5395 15.919 4.56208 15.9999C4.57315 16.0406 4.59274 16.0786 4.61956 16.1112C4.64637 16.1439 4.67981 16.1705 4.71766 16.1893C4.75551 16.2082 4.79693 16.2188 4.83918 16.2204C4.88143 16.2221 4.92356 16.2149 4.96279 16.1991C5.04481 16.1658 5.13319 16.1511 5.22158 16.1561C5.30996 16.161 5.39616 16.1854 5.47395 16.2276C5.55175 16.2698 5.61922 16.3287 5.6715 16.4001C5.72378 16.4714 5.75958 16.5535 5.77632 16.6403C5.79306 16.7272 5.79033 16.8166 5.76831 16.9023C5.7463 16.9879 5.70555 17.0676 5.649 17.1357C5.59246 17.2037 5.52152 17.2584 5.44129 17.2958C5.36106 17.3331 5.27353 17.3523 5.18501 17.3518H2.19016ZM6.38295 16.7535H13.5706C13.5718 16.9642 13.6293 17.1707 13.7371 17.3518H6.21644C6.32423 17.1707 6.38171 16.9642 6.38295 16.7535ZM11.4742 14.9584H8.47935V9.57341H11.4742V14.9584ZM12.0732 15.5568V16.1551H7.88038V15.5568H12.0732ZM17.9188 16.1791C18.0588 16.2165 18.1804 16.3036 18.2609 16.424C18.3414 16.5445 18.3752 16.69 18.3562 16.8336C18.3372 16.9771 18.2666 17.1088 18.1575 17.2042C18.0484 17.2995 17.9083 17.352 17.7634 17.3518H14.7685C14.68 17.3523 14.5925 17.3331 14.5123 17.2958C14.432 17.2584 14.3611 17.2037 14.3045 17.1357C14.248 17.0676 14.2073 16.9879 14.1852 16.9023C14.1632 16.8166 14.1605 16.7272 14.1772 16.6403C14.194 16.5535 14.2298 16.4714 14.2821 16.4001C14.3343 16.3287 14.4018 16.2698 14.4796 16.2276C14.5574 16.1854 14.6436 16.161 14.732 16.1561C14.8204 16.1511 14.9087 16.1658 14.9908 16.1991C15.03 16.2149 15.0721 16.2221 15.1144 16.2204C15.1566 16.2188 15.198 16.2082 15.2359 16.1893C15.2737 16.1705 15.3072 16.1439 15.334 16.1112C15.3608 16.0786 15.3804 16.0406 15.3915 15.9999C15.414 15.919 15.4532 15.8438 15.5066 15.779C15.56 15.7142 15.6264 15.6614 15.7015 15.6238C15.7766 15.5862 15.8588 15.5647 15.9427 15.5607C16.0266 15.5568 16.1104 15.5704 16.1887 15.6008C16.2279 15.6165 16.2701 15.6238 16.3123 15.6221C16.3546 15.6204 16.396 15.6098 16.4338 15.591C16.4717 15.5722 16.5051 15.5456 16.5319 15.5129C16.5588 15.4802 16.5783 15.4423 16.5894 15.4015C16.6104 15.3228 16.6472 15.2492 16.6977 15.1853C16.7483 15.1213 16.8113 15.0684 16.8831 15.0298C16.9549 14.9911 17.0338 14.9676 17.1151 14.9606C17.1963 14.9536 17.2781 14.9633 17.3555 14.9892C17.4328 15.015 17.504 15.0564 17.5647 15.1107C17.6254 15.1651 17.6743 15.2313 17.7084 15.3053C17.7425 15.3793 17.7611 15.4595 17.763 15.5409C17.7649 15.6223 17.75 15.7033 17.7194 15.7788C17.7036 15.818 17.6963 15.86 17.698 15.9022C17.6997 15.9445 17.7103 15.9858 17.7291 16.0236C17.748 16.0615 17.7746 16.0949 17.8073 16.1216C17.84 16.1484 17.878 16.168 17.9188 16.1791ZM17.1644 14.3601C16.9527 14.3608 16.7449 14.4175 16.5622 14.5245C16.3796 14.6315 16.2286 14.7849 16.1246 14.9692C15.888 14.9389 15.6478 14.9796 15.4344 15.0862C15.2211 15.1927 15.0443 15.3603 14.9267 15.5676C14.8743 15.5604 14.8214 15.5568 14.7685 15.5568C14.5592 15.5574 14.3537 15.6131 14.1727 15.7181C13.9917 15.8231 13.8414 15.9738 13.7371 16.1551H12.6721V15.2576C12.6721 15.1783 12.6406 15.1022 12.5844 15.0461C12.5283 14.99 12.4521 14.9584 12.3727 14.9584H12.0732V9.27424C12.0732 9.19489 12.0416 9.1188 11.9855 9.06269C11.9293 9.00659 11.8531 8.97507 11.7737 8.97507H8.17986C8.10044 8.97507 8.02426 9.00659 7.9681 9.06269C7.91193 9.1188 7.88038 9.19489 7.88038 9.27424V14.9584H7.58089C7.50146 14.9584 7.42529 14.99 7.36912 15.0461C7.31296 15.1022 7.28141 15.1783 7.28141 15.2576V16.1551H6.21644C6.11211 15.9738 5.9619 15.8231 5.78087 15.7181C5.59984 15.6131 5.39435 15.5574 5.18501 15.5568C5.13212 15.5568 5.07928 15.5604 5.02688 15.5676C4.90908 15.3604 4.7323 15.1929 4.519 15.0864C4.3057 14.9799 4.0655 14.9391 3.82894 14.9692C3.72497 14.7849 3.57397 14.6315 3.39131 14.5245C3.20866 14.4175 3.00087 14.3608 2.78913 14.3601V6.35076L9.97678 2.14175L17.1644 6.35076V14.3601ZM17.7212 5.98338L10.1283 1.53713C10.0824 1.5102 10.0301 1.496 9.97678 1.496C9.9235 1.496 9.87119 1.5102 9.82524 1.53713L2.23238 5.98338L2.19016 6.00791L1.59118 6.35884V5.55646L9.97678 0.645906L18.3624 5.55646V6.35884L17.7634 6.00791L17.7212 5.98338Z" fill="#484848"/>
                          <path d="M8.17969 5.98251V7.47836C8.17969 7.5577 8.21124 7.6338 8.2674 7.6899C8.32357 7.74601 8.39974 7.77753 8.47917 7.77753H11.474C11.5535 7.77753 11.6296 7.74601 11.6858 7.6899C11.742 7.6338 11.7735 7.5577 11.7735 7.47836V5.98251C11.7735 5.50645 11.5842 5.04988 11.2472 4.71325C10.9102 4.37662 10.4532 4.1875 9.9766 4.1875C9.50003 4.1875 9.04298 4.37662 8.70599 4.71325C8.369 5.04988 8.17969 5.50645 8.17969 5.98251ZM9.67711 4.82832V5.68334H8.82119C8.87475 5.47762 8.98232 5.2899 9.13279 5.13959C9.28326 4.98928 9.47117 4.88182 9.67711 4.82832ZM8.77866 6.28168H9.67711V7.17919H8.77866V6.28168ZM10.2761 7.17919V6.28168H11.1745V7.17919H10.2761ZM11.132 5.68334H10.2761V4.82832C10.482 4.88182 10.6699 4.98928 10.8204 5.13959C10.9709 5.2899 11.0785 5.47762 11.132 5.68334Z" fill="#484848"/>
                          <path d="M13.2682 12.5646H16.2631C16.3425 12.5646 16.4187 12.5331 16.4749 12.477C16.531 12.4209 16.5626 12.3448 16.5626 12.2655V9.27378C16.5626 9.19443 16.531 9.11834 16.4749 9.06223C16.4187 9.00613 16.3425 8.97461 16.2631 8.97461H13.2682C13.1888 8.97461 13.1126 9.00613 13.0565 9.06223C13.0003 9.11834 12.9688 9.19443 12.9688 9.27378V12.2655C12.9688 12.3448 13.0003 12.4209 13.0565 12.477C13.1126 12.5331 13.1888 12.5646 13.2682 12.5646ZM13.5677 11.9663V11.368H15.9636V11.9663H13.5677ZM15.9636 9.57295V10.7696H13.5677V9.57295H15.9636Z" fill="#484848"/>
                          <path d="M6.68496 8.97461H3.69011C3.61068 8.97461 3.53451 9.00613 3.47834 9.06223C3.42218 9.11834 3.39062 9.19443 3.39062 9.27378V12.2655C3.39062 12.3448 3.42218 12.4209 3.47834 12.477C3.53451 12.5331 3.61068 12.5646 3.69011 12.5646H6.68496C6.76439 12.5646 6.84057 12.5331 6.89673 12.477C6.9529 12.4209 6.98445 12.3448 6.98445 12.2655V9.27378C6.98445 9.19443 6.9529 9.11834 6.89673 9.06223C6.84057 9.00613 6.76439 8.97461 6.68496 8.97461ZM6.38548 9.57295V10.7696H3.9896V9.57295H6.38548ZM3.9896 11.9663V11.368H6.38548V11.9663H3.9896Z" fill="#484848"/>
                          </svg>
