<svg width="18" height="18" viewBox="0 0 18 18" fill="none" xmlns="http://www.w3.org/2000/svg">
<path d="M11.5236 3.53476C11.4645 3.50101 11.3886 3.51226 11.3464 3.5657L6.43579 9.36789C6.39923 9.41007 6.3936 9.46913 6.4161 9.51695C6.4386 9.56757 6.48923 9.59851 6.54267 9.59851H8.1486L6.41048 14.2926C6.38798 14.3573 6.41329 14.4276 6.47235 14.4641C6.49485 14.4782 6.52017 14.4838 6.54267 14.4838C6.58204 14.4838 6.62142 14.4669 6.64954 14.4332L11.5574 8.6282C11.5939 8.58601 11.5995 8.52695 11.577 8.47914C11.5545 8.42851 11.5039 8.39757 11.4505 8.39757H9.84454L11.5827 3.70351C11.608 3.64164 11.5827 3.56851 11.5236 3.53476Z" fill="white"/>
<path d="M3.81144 3.75714C3.92394 3.75432 4.028 3.7037 4.10675 3.62214C4.96456 2.69964 6.05862 2.0162 7.27081 1.64776C9.99331 0.818074 12.9099 1.67026 14.7464 3.7712L14.1277 3.66151C14.018 3.63901 13.9027 3.66432 13.8099 3.7262C13.7171 3.79089 13.6524 3.88932 13.6327 4.00182C13.5933 4.22964 13.7452 4.44901 13.9758 4.4912L15.6577 4.78651L15.728 4.79214C15.8208 4.79214 15.908 4.7612 15.9811 4.70776C16.0739 4.63745 16.1358 4.53057 16.1471 4.41526L16.3214 2.71932C16.3327 2.60682 16.2989 2.49714 16.2286 2.40995C16.1583 2.32276 16.0571 2.26932 15.9502 2.25807C15.8405 2.24682 15.728 2.27495 15.638 2.34807C15.5508 2.41839 15.4917 2.52245 15.4805 2.63495L15.4158 3.26214C13.3627 0.882762 10.0777 -0.0847381 7.02331 0.843387C5.66769 1.25682 4.44425 2.01901 3.488 3.0512C3.41206 3.13276 3.36987 3.24245 3.3755 3.35495C3.37831 3.46745 3.42894 3.57151 3.50769 3.64745C3.59206 3.72057 3.70175 3.76557 3.81144 3.75714Z" fill="white"/>
<path d="M7.74964 15.4941C5.25777 14.9175 3.24683 13.0388 2.50152 10.5947C2.05996 9.1463 2.08808 7.61067 2.57183 6.19598L2.79121 6.79505C2.86996 7.00598 3.11464 7.12411 3.33121 7.04536C3.55058 6.96661 3.66308 6.72192 3.58152 6.50536L2.99652 4.90223C2.95714 4.79255 2.86996 4.70255 2.76589 4.66036C2.65902 4.61536 2.53527 4.61536 2.42839 4.66317L0.873082 5.36348C0.662144 5.45911 0.566519 5.70942 0.662144 5.92317C0.709957 6.02723 0.791519 6.10598 0.898394 6.14536C1.00527 6.18473 1.11777 6.18192 1.21902 6.13411L1.78996 5.87817C1.23589 7.47005 1.19933 9.20817 1.69433 10.8394C2.52683 13.5704 4.77402 15.6685 7.55839 16.3154C7.58933 16.3238 7.62027 16.3266 7.65402 16.3266C7.85089 16.3266 8.01964 16.1916 8.06464 16.0004C8.11527 15.7725 7.97464 15.5475 7.74964 15.4941Z" fill="white"/>
<path d="M17.0236 6.17344C16.9561 5.95125 16.7227 5.82469 16.4977 5.89219C16.2755 5.95969 16.1489 6.19594 16.2164 6.41812C16.7733 8.24625 16.582 10.1869 15.682 11.8772C14.7792 13.5703 13.2745 14.8078 11.4464 15.3647C11.2158 15.435 10.9795 15.4941 10.7433 15.5391L11.1511 15.0525C11.2242 14.9653 11.258 14.8556 11.2467 14.7431C11.2355 14.6306 11.1848 14.5294 11.0977 14.4591C11.0105 14.3859 10.9008 14.3522 10.7911 14.3606C10.6786 14.3691 10.5773 14.4225 10.5014 14.5097L9.40734 15.8147C9.3314 15.9047 9.29765 16.0228 9.31171 16.1409C9.32578 16.2562 9.39046 16.3631 9.48328 16.4306L10.8642 17.4262C10.9373 17.4797 11.0217 17.5078 11.1117 17.5078C11.2467 17.5078 11.3761 17.4431 11.452 17.3334C11.5195 17.2406 11.5448 17.1309 11.528 17.0184C11.5111 16.9059 11.4492 16.8103 11.3592 16.7428L10.8502 16.3772C11.1342 16.3237 11.4127 16.2534 11.6883 16.1719C15.9183 14.8866 18.3089 10.3978 17.0236 6.17344Z" fill="white"/>
</svg>
