<svg width="16" height="16" viewBox="0 0 16 16" fill="none" xmlns="http://www.w3.org/2000/svg">
<path d="M2.19966 12.2108C2.12052 12.1702 2.02853 12.1627 1.94386 12.1899C1.85919 12.2171 1.78875 12.2767 1.74798 12.3557V12.3558C1.71769 12.4148 1.70556 12.4814 1.71313 12.5473C1.72071 12.6132 1.74765 12.6753 1.79054 12.7259C1.83344 12.7765 1.89036 12.8132 1.95412 12.8314C2.01789 12.8496 2.08562 12.8485 2.14876 12.8283C2.2119 12.808 2.26761 12.7695 2.30886 12.7175C2.3501 12.6656 2.37502 12.6026 2.38047 12.5365C2.38592 12.4704 2.37165 12.4042 2.33946 12.3462C2.30728 12.2883 2.25863 12.2411 2.19966 12.2108Z" fill="white"/>
<path d="M3.05315 12.7612C2.99 12.7815 2.93428 12.82 2.89304 12.872C2.8518 12.9239 2.82688 12.9869 2.82144 13.053C2.816 13.1191 2.83028 13.1854 2.86248 13.2434C2.89467 13.3014 2.94334 13.3485 3.00232 13.3789C3.06131 13.4092 3.12796 13.4214 3.19386 13.4139C3.25977 13.4063 3.32196 13.3794 3.37258 13.3366C3.4232 13.2937 3.45997 13.2368 3.47826 13.173C3.49654 13.1093 3.49551 13.0415 3.4753 12.9783C3.46185 12.9364 3.44026 12.8974 3.41176 12.8638C3.38327 12.8302 3.34842 12.8025 3.30922 12.7823C3.27002 12.7621 3.22722 12.7499 3.18329 12.7463C3.13935 12.7426 3.09513 12.7477 3.05315 12.7612Z" fill="white"/>
<path d="M7.76244 7.50938C7.78834 7.54071 7.82073 7.56605 7.85737 7.58366C7.89401 7.60127 7.93404 7.61073 7.97468 7.61139C8.01533 7.61204 8.05564 7.60388 8.09283 7.58746C8.13002 7.57104 8.16321 7.54676 8.19011 7.51628C8.27313 7.42219 10.2276 5.19961 10.5935 4.12727C11.0167 2.88743 10.9363 1.87428 10.3546 1.11597C9.69167 0.251793 8.53447 -0.00950944 7.96043 0.0290288C6.87636 0.101539 6.08548 0.497991 5.6098 1.20736C5.05853 2.02945 5.06522 3.15557 5.3164 3.90691C5.67325 4.97427 7.67729 7.40637 7.76244 7.50938ZM6.077 1.52065C6.45053 0.96357 7.09687 0.650546 7.99799 0.590275C8.57532 0.55159 9.45377 0.865839 9.90827 1.45833C10.3683 2.05807 10.4198 2.8949 10.0612 3.94559C9.81839 4.65699 8.63152 6.13638 7.98594 6.89291C7.32473 6.07005 6.08991 4.4465 5.84985 3.72857C5.69498 3.26527 5.56854 2.27889 6.077 1.52065Z" fill="white"/>
<path d="M14.9512 9.76589C9.39364 7.28929 10.4052 7.74556 9.38681 7.272C9.35332 7.25639 9.31708 7.24754 9.28016 7.24595C9.24325 7.24435 9.20638 7.25005 9.17166 7.26271C9.13695 7.27537 9.10507 7.29475 9.07785 7.31974C9.05063 7.34473 9.0286 7.37484 9.01302 7.40834C8.99744 7.44185 8.98861 7.4781 8.98705 7.51501C8.98548 7.55193 8.99121 7.5888 9.0039 7.6235C9.01659 7.65821 9.03599 7.69007 9.061 7.71727C9.08601 7.74447 9.11613 7.76648 9.14965 7.78204L9.36587 7.88258L8.0054 8.58151L6.58739 7.85302L6.80736 7.7499C6.84084 7.73425 6.87092 7.71216 6.89585 7.68488C6.92079 7.6576 6.94011 7.62568 6.9527 7.59093C6.96529 7.55618 6.97091 7.51929 6.96924 7.48237C6.96757 7.44545 6.95863 7.40922 6.94295 7.37575C6.92726 7.34229 6.90513 7.31224 6.87783 7.28733C6.85052 7.26242 6.81858 7.24314 6.78381 7.23059C6.74905 7.21803 6.71216 7.21246 6.67524 7.21417C6.63832 7.21588 6.6021 7.22486 6.56865 7.24058L1.0473 9.76933C0.998362 9.79188 0.956885 9.82795 0.927746 9.87327C0.898607 9.9186 0.883018 9.9713 0.882812 10.0252V12.0199C0.882812 12.0945 0.912444 12.166 0.965189 12.2188C1.01793 12.2715 1.08947 12.3012 1.16406 12.3012C1.23865 12.3012 1.31019 12.2715 1.36294 12.2188C1.41568 12.166 1.44531 12.0945 1.44531 12.0199V10.4859L7.645 13.6708V15.0332L4.3491 13.34C4.31625 13.3231 4.28039 13.3128 4.24357 13.3098C4.20674 13.3068 4.16969 13.311 4.13451 13.3223C4.09933 13.3336 4.06672 13.3517 4.03855 13.3756C4.01037 13.3995 3.98718 13.4287 3.9703 13.4616C3.95342 13.4944 3.94318 13.5303 3.94016 13.5671C3.93714 13.6039 3.94141 13.641 3.95272 13.6762C3.96404 13.7113 3.98216 13.7439 4.00608 13.7721C4.02999 13.8003 4.05922 13.8234 4.09209 13.8403L7.79774 15.744C7.83718 15.764 7.88075 15.7746 7.92498 15.7748C7.96921 15.775 8.01287 15.7649 8.05249 15.7452L14.9683 12.2712C15.0149 12.2478 15.0541 12.2119 15.0815 12.1676C15.1089 12.1232 15.1234 12.0721 15.1234 12.0199V10.0252C15.1231 9.96989 15.1066 9.91589 15.076 9.86982C15.0454 9.82375 15.002 9.78763 14.9512 9.76589ZM7.92769 13.1837L6.32907 12.3624L8.00984 11.499L9.62388 12.3317L7.92769 13.1837ZM4.10285 11.2187L5.78834 10.3528L7.39569 11.1821L5.71361 12.0462L4.10285 11.2187ZM10.0145 8.18174L11.7396 8.95052L10.2316 9.72519L8.62085 8.89768L10.0145 8.18174ZM8.0054 9.21386L9.61617 10.0414L8.0104 10.8663L6.40305 10.037L8.0054 9.21386ZM10.2455 12.0194L8.62455 11.1832L10.2316 10.3576L11.8741 11.2013L10.2455 12.0194ZM12.4965 10.8887L10.8471 10.0414L12.3987 9.24425L14.1853 10.0404L12.4965 10.8887ZM7.38995 8.89768L5.7889 9.7202L4.24981 8.92616L5.94211 8.15389L7.38995 8.89768ZM3.59882 9.22324L5.17419 10.036L3.48739 10.9026L1.80869 10.0402L3.59882 9.22324ZM8.2075 15.0379V13.6726L14.5609 10.4812V11.8464L8.2075 15.0379Z" fill="white"/>
<path d="M8.00219 4.10011C8.2344 4.10011 8.46139 4.03126 8.65447 3.90225C8.84755 3.77324 8.99804 3.58988 9.0869 3.37534C9.17577 3.16081 9.19902 2.92474 9.15372 2.69699C9.10842 2.46924 8.9966 2.26004 8.83241 2.09584C8.66821 1.93164 8.45901 1.81982 8.23126 1.77451C8.00351 1.72921 7.76744 1.75246 7.55291 1.84132C7.33837 1.93019 7.155 2.08067 7.02599 2.27375C6.89698 2.46682 6.82813 2.69382 6.82812 2.92603C6.82848 3.23731 6.95228 3.53573 7.17239 3.75584C7.39249 3.97594 7.69091 4.09975 8.00219 4.10011ZM8.00219 2.31445C8.12315 2.31445 8.24139 2.35032 8.34196 2.41751C8.44254 2.48471 8.52093 2.58023 8.56722 2.69198C8.61351 2.80373 8.62563 2.9267 8.60203 3.04533C8.57844 3.16397 8.52019 3.27294 8.43466 3.35848C8.34913 3.44401 8.24016 3.50226 8.12152 3.52586C8.00289 3.54946 7.87992 3.53735 7.76817 3.49106C7.65641 3.44477 7.5609 3.36638 7.4937 3.26581C7.42649 3.16523 7.39062 3.04699 7.39062 2.92603C7.39081 2.76389 7.4553 2.60844 7.56995 2.49379C7.6846 2.37913 7.84004 2.31464 8.00219 2.31445V2.31445Z" fill="white"/>
</svg>
