<svg width="35" height="32" viewBox="0 0 35 32" fill="#00A6BD" xmlns="http://www.w3.org/2000/svg">
<path d="M17.7998 5.86249L16.2702 4.29023C12.6798 0.599569 6.09637 1.87317 3.71984 6.51316C2.6041 8.69556 2.35237 11.8465 4.3897 15.8678C6.35237 19.7398 10.4356 24.3777 17.7998 29.4294C25.1641 24.3777 29.2451 19.7398 31.2099 15.8678C33.2473 11.8443 32.9977 8.69556 31.8798 6.51316C29.5033 1.87317 22.9198 0.597436 19.3294 4.2881L17.7998 5.86249ZM17.7998 32C-14.9105 10.3852 7.72836 -6.48522 17.4243 2.4385C17.5523 2.55583 17.6782 2.67743 17.7998 2.8033C17.9202 2.67755 18.0454 2.55657 18.1753 2.44063C27.8691 -6.48948 50.5102 10.383 17.7998 32Z" fill="00A6BD"/>
<path d="M17.9783 14.3803L17.7999 14.5563L17.6207 14.3803C17.2877 14.0516 16.8386 13.8673 16.3707 13.8673C15.9027 13.8673 15.4536 14.0516 15.1207 14.3803C14.9554 14.5393 14.8239 14.73 14.7341 14.9411C14.6443 15.1521 14.598 15.379 14.598 15.6084C14.598 15.8377 14.6443 16.0646 14.7341 16.2757C14.8239 16.4867 14.9554 16.6774 15.1207 16.8364L17.7999 19.4676L20.4791 16.8364C20.6444 16.6774 20.7758 16.4867 20.8656 16.2757C20.9554 16.0646 21.0017 15.8377 21.0017 15.6084C21.0017 15.379 20.9554 15.1521 20.8656 14.9411C20.7758 14.73 20.6444 14.5393 20.4791 14.3803C20.146 14.0515 19.6968 13.8672 19.2287 13.8672C18.7606 13.8672 18.3114 14.0515 17.9783 14.3803Z" fill="00A6BD"/>
<path d="M25.5655 14.1006L18.3654 6.90058C18.2912 6.82622 18.203 6.76723 18.106 6.72698C18.0089 6.68673 17.9049 6.66602 17.7998 6.66602C17.6948 6.66602 17.5907 6.68673 17.4937 6.72698C17.3966 6.76723 17.3084 6.82622 17.2342 6.90058L10.0342 14.1006C9.92231 14.2125 9.84614 14.355 9.81529 14.5102C9.78444 14.6654 9.80028 14.8262 9.86081 14.9724C9.92135 15.1185 10.0239 15.2435 10.1554 15.3314C10.2869 15.4193 10.4416 15.4662 10.5998 15.4662H11.3998V21.0663C11.3998 21.9487 12.1174 22.6663 12.9998 22.6663H22.5999C23.4823 22.6663 24.1999 21.9487 24.1999 21.0663V15.4662H24.9999C25.1581 15.4662 25.3127 15.4193 25.4442 15.3314C25.5758 15.2435 25.6783 15.1185 25.7388 14.9724C25.7994 14.8262 25.8152 14.6654 25.7843 14.5102C25.7535 14.355 25.6773 14.2125 25.5655 14.1006ZM22.6007 21.0663H12.9998V13.3982L17.7998 8.59819L22.5999 13.3982V17.0663L22.6007 21.0663Z" fill="00A6BD"/>
</svg>
