<svg width="567" height="284" viewBox="0 0 567 284" fill="none" xmlns="http://www.w3.org/2000/svg">
<g clip-path="url(#clip0_3577_11175)">
<mask id="mask0_3577_11175" style="mask-type:luminance" maskUnits="userSpaceOnUse" x="0" y="0" width="567" height="284">
<path d="M566.93 0H0V283.46H566.93V0Z" fill="white"/>
</mask>
<g mask="url(#mask0_3577_11175)">
<path d="M138.18 194.74C135.72 196.02 133.29 197.34 130.8 198.55C129.08 199.38 127.32 200.2 125.5 200.75C122.55 201.64 119.55 202.37 116.54 203.03C112.42 203.93 108.21 203.8 104.04 203.62C99.3704 203.42 94.7704 202.53 90.3704 200.88C87.8004 199.92 85.2204 198.95 82.7804 197.72C79.3904 196 76.2004 193.89 73.3304 191.37C71.9104 190.13 70.4404 188.9 69.2204 187.49C66.2604 184.08 63.6404 180.42 61.6604 176.32C59.2204 171.28 57.8104 165.98 57.1504 160.45C56.9804 158.99 56.9104 157.51 56.9004 156.03C56.8704 151.36 56.8904 146.68 56.8904 142.01C56.8904 140.62 56.6704 140.39 55.2804 140.38C52.5004 140.37 49.7104 140.38 46.9304 140.38C46.5504 140.38 46.1704 140.39 45.8004 140.33C44.1804 140.03 42.6504 139.52 42.1904 137.72C41.6704 135.67 42.1704 133.82 43.7904 132.39C45.2004 131.14 46.6604 129.94 48.1004 128.72C51.2604 126.04 54.4204 123.36 57.5704 120.67C62.2104 116.71 66.8504 112.74 71.4904 108.78C73.9404 106.69 76.3904 104.59 78.8504 102.5C82.9004 99.0596 86.9504 95.6296 91.0004 92.1796C94.5004 89.1996 97.9204 86.1396 101.49 83.2596C103.02 82.0296 104.72 80.8796 106.53 80.1596C108.97 79.1996 111.38 79.9996 113.45 81.4296C115.28 82.6996 116.97 84.1596 118.67 85.5996C122.62 88.9396 126.52 92.3396 130.47 95.6896C133.98 98.6596 137.53 101.57 141.04 104.54C145.42 108.26 149.78 112.02 154.15 115.76C158.08 119.13 162.03 122.49 165.95 125.87C168.63 128.17 171.35 130.43 173.9 132.87C174.68 133.61 175.27 134.84 175.39 135.91C175.69 138.65 173.79 140.34 170.61 140.37C167.38 140.4 164.15 140.37 160.92 140.38C159.27 140.38 159.14 140.52 159.14 142.13C159.14 146.12 159.27 150.11 159.1 154.09C158.95 157.54 158.65 161.01 158.06 164.41C157.57 167.23 156.75 170.03 155.74 172.71C154.81 175.16 153.42 177.44 152.24 179.79C151.8 180.67 151.35 181.54 150.73 182.75C148.58 180.5 146.57 178.37 144.51 176.26C143.89 175.63 143.19 175.06 142.49 174.51C140.8 173.2 138.9 173.28 137 173.88C136.38 174.08 136.01 174.01 135.56 173.57C133.61 171.69 133.59 171.69 135.18 169.52C138.61 164.84 140.62 159.6 141.25 153.86C142.04 146.69 140.66 139.89 137 133.68C133.61 127.93 128.89 123.48 122.87 120.54C117.68 118.01 112.13 116.88 106.38 117.33C99.0904 117.9 92.6004 120.56 87.0404 125.38C82.3604 129.44 79.1204 134.42 77.2104 140.31C75.6004 145.28 75.3204 150.37 76.1004 155.45C76.9704 161.17 79.3104 166.39 83.0104 170.88C85.9604 174.46 89.4904 177.34 93.6604 179.48C96.6604 181.01 99.8004 182.04 103.09 182.61C109.92 183.8 116.48 182.82 122.74 179.86C124.22 179.16 125.63 178.29 127.37 177.33C128.13 178.18 129 179.1 129.8 180.07C129.97 180.28 130 180.73 129.9 181C128.95 183.58 129.55 185.79 131.42 187.7C133.44 189.76 135.5 191.77 137.56 193.8C137.75 193.99 138.01 194.12 138.23 194.28C138.19 194.43 138.19 194.58 138.18 194.74Z" fill="#5F7D8A"/>
</g>
<mask id="mask1_3577_11175" style="mask-type:luminance" maskUnits="userSpaceOnUse" x="0" y="0" width="567" height="284">
<path d="M566.93 0H0V283.46H566.93V0Z" fill="white"/>
</mask>
<g mask="url(#mask1_3577_11175)">
<path d="M108.69 169.46C119.38 169.46 128.06 160.79 128.06 150.09C128.06 139.4 119.39 130.73 108.69 130.73C97.9903 130.73 89.3203 139.4 89.3203 150.09C89.3303 160.79 98.0003 169.46 108.69 169.46Z" fill="#009BC2"/>
</g>
<mask id="mask2_3577_11175" style="mask-type:luminance" maskUnits="userSpaceOnUse" x="0" y="0" width="567" height="284">
<path d="M566.93 0H0V283.46H566.93V0Z" fill="white"/>
</mask>
<g mask="url(#mask2_3577_11175)">
<path d="M251.78 171.04C252.97 169.8 253.56 168.05 253.56 165.79V118.75C253.56 116.43 252.95 114.67 251.74 113.45C250.52 112.24 248.79 111.63 246.53 111.63C244.55 111.63 242.98 112.01 241.83 112.77C240.67 113.53 239.58 114.79 238.57 116.54L221.91 146.58L205.17 116.54C204.21 114.79 203.15 113.53 201.99 112.77C200.83 112.01 199.26 111.63 197.29 111.63C194.92 111.63 193.08 112.24 191.78 113.45C190.48 114.67 189.83 116.43 189.83 118.75V165.79C189.83 168.05 190.44 169.8 191.65 171.04C192.86 172.28 194.6 172.91 196.86 172.91C199.18 172.91 200.93 172.29 202.11 171.04C203.3 169.8 203.89 168.05 203.89 165.79V139.93L215.67 160.36C216.4 161.6 217.22 162.53 218.13 163.16C219.03 163.78 220.19 164.09 221.61 164.09C223.08 164.09 224.25 163.78 225.13 163.16C226.01 162.54 226.84 161.61 227.63 160.36L239.5 139.72V165.78C239.5 168.04 240.11 169.79 241.32 171.03C242.53 172.27 244.27 172.9 246.53 172.9C248.84 172.9 250.59 172.28 251.78 171.04ZM289.5 151.29C289.5 153.78 289.17 155.8 288.52 157.35C287.87 158.9 286.95 160.06 285.77 160.82C284.58 161.58 283.23 161.96 281.7 161.96C279.38 161.96 277.49 161.11 276.02 159.42C274.55 157.72 273.82 155.01 273.82 151.28C273.82 148.74 274.16 146.69 274.84 145.14C275.52 143.59 276.45 142.44 277.64 141.71C278.83 140.98 280.18 140.61 281.71 140.61C283.97 140.61 285.83 141.44 287.3 143.11C288.76 144.78 289.5 147.51 289.5 151.29ZM303.06 160.36C304.13 157.65 304.67 154.62 304.67 151.29C304.67 146.77 303.72 142.89 301.83 139.64C299.94 136.39 297.27 133.89 293.82 132.14C290.37 130.39 286.33 129.51 281.7 129.51C278.2 129.51 275.03 130.01 272.21 130.99C269.38 131.98 266.96 133.42 264.92 135.31C262.89 137.2 261.33 139.49 260.26 142.17C259.19 144.85 258.65 147.89 258.65 151.28C258.65 155.74 259.61 159.61 261.53 162.89C263.45 166.17 266.14 168.68 269.58 170.43C273.02 172.18 277.06 173.06 281.7 173.06C285.15 173.06 288.3 172.56 291.15 171.58C294 170.59 296.43 169.15 298.44 167.26C300.44 165.37 301.98 163.07 303.06 160.36ZM310.11 171.89C310.11 173.7 309.69 175.04 308.84 175.92C307.99 176.8 306.64 177.29 304.77 177.4C303.64 177.51 302.71 177.95 301.97 178.71C301.24 179.47 300.77 180.38 300.57 181.42C300.37 182.46 300.47 183.5 300.87 184.51C301.27 185.53 301.99 186.37 303.03 187.05C304.08 187.73 305.47 188.04 307.23 187.98C311.35 187.87 314.73 187.15 317.36 185.82C319.99 184.49 321.95 182.54 323.25 179.97C324.55 177.4 325.2 174.22 325.2 170.44V137.22C325.2 134.79 324.55 132.93 323.25 131.63C321.95 130.33 320.08 129.68 317.66 129.68C315.23 129.68 313.37 130.33 312.07 131.63C310.77 132.93 310.12 134.79 310.12 137.22V171.89H310.11ZM323.8 121.8C325.24 120.56 325.96 118.75 325.96 116.38C325.96 114.06 325.24 112.28 323.8 111.04C322.36 109.8 320.28 109.18 317.57 109.18C314.86 109.18 312.78 109.8 311.34 111.04C309.9 112.28 309.18 114.06 309.18 116.38C309.18 118.75 309.9 120.56 311.34 121.8C312.78 123.04 314.86 123.66 317.57 123.66C320.28 123.66 322.36 123.04 323.8 121.8ZM388.83 142.22C388.83 145.16 388.48 147.7 387.77 149.85C387.06 152 385.99 153.78 384.55 155.19C383.11 156.6 381.3 157.68 379.13 158.41C376.95 159.15 374.37 159.51 371.37 159.51H363.23V125.02H371.37C377.25 125.02 381.63 126.42 384.51 129.22C387.39 132.01 388.83 136.35 388.83 142.22ZM402.81 154.89C404.28 151.19 405.01 146.97 405.01 142.22C405.01 132.73 402.17 125.38 396.49 120.18C390.81 114.98 382.77 112.38 372.38 112.38H355.77C353.11 112.38 351.09 113.07 349.71 114.46C348.32 115.84 347.63 117.84 347.63 120.43V164.08C347.63 166.68 348.32 168.67 349.71 170.05C351.09 171.44 353.11 172.13 355.77 172.13H372.38C377.58 172.13 382.2 171.47 386.24 170.14C390.28 168.81 393.68 166.86 396.45 164.29C399.22 161.73 401.34 158.59 402.81 154.89ZM438.64 151.29C438.64 153.78 438.31 155.8 437.67 157.35C437.02 158.9 436.1 160.06 434.92 160.82C433.73 161.58 432.38 161.96 430.85 161.96C428.53 161.96 426.64 161.11 425.17 159.42C423.7 157.72 422.97 155.01 422.97 151.28C422.97 148.74 423.31 146.69 423.99 145.14C424.67 143.59 425.6 142.44 426.79 141.71C427.98 140.98 429.33 140.61 430.86 140.61C433.12 140.61 434.98 141.44 436.45 143.11C437.9 144.78 438.64 147.51 438.64 151.29ZM452.2 160.36C453.27 157.65 453.81 154.62 453.81 151.29C453.81 146.77 452.86 142.89 450.97 139.64C449.08 136.39 446.41 133.89 442.96 132.14C439.51 130.39 435.47 129.51 430.84 129.51C427.34 129.51 424.17 130.01 421.35 130.99C418.52 131.98 416.1 133.42 414.06 135.31C412.03 137.2 410.47 139.49 409.4 142.17C408.33 144.85 407.79 147.89 407.79 151.28C407.79 155.74 408.75 159.61 410.67 162.89C412.59 166.17 415.27 168.68 418.72 170.43C422.17 172.18 426.21 173.06 430.84 173.06C434.29 173.06 437.44 172.56 440.29 171.58C443.14 170.59 445.57 169.15 447.58 167.26C449.58 165.37 451.12 163.07 452.2 160.36ZM524.94 165.27V147.47C524.94 143.4 524.42 140.03 523.37 137.34C522.32 134.66 520.76 132.68 518.67 131.41C516.58 130.14 513.89 129.5 510.62 129.5C507.46 129.5 504.57 130.29 501.98 131.87C499.79 133.2 498.09 134.98 496.83 137.15C496.84 137.16 496.83 137.17 496.84 137.18H496.82C496.83 137.17 496.82 137.16 496.83 137.15C495.86 134.79 494.47 132.95 492.62 131.7C490.44 130.23 487.83 129.5 484.78 129.5C481.56 129.5 478.78 130.25 476.43 131.75C474.59 132.92 473.12 134.41 472 136.19C472 136.19 472 136.19 472 136.2C472 136.2 472 136.2 472 136.19C471.84 134.27 471.26 132.73 470.2 131.62C468.96 130.32 467.15 129.67 464.78 129.67C462.41 129.67 460.58 130.32 459.31 131.62C458.04 132.92 457.4 134.78 457.4 137.21V165.26C457.4 167.75 458.05 169.64 459.35 170.94C460.65 172.24 462.49 172.89 464.86 172.89C469.94 172.89 472.49 170.35 472.49 165.26V149.5C472.49 146.79 473.04 144.7 474.14 143.23C475.24 141.76 476.81 141.03 478.84 141.03C480.53 141.03 481.75 141.57 482.48 142.64C483.21 143.71 483.58 145.47 483.58 147.89V165.26C483.58 167.75 484.23 169.64 485.53 170.94C486.83 172.24 488.69 172.89 491.12 172.89C493.55 172.89 495.41 172.24 496.71 170.94C498.01 169.64 498.66 167.75 498.66 165.26V149.5C498.66 146.79 499.21 144.7 500.31 143.23C501.41 141.76 503.01 141.03 505.1 141.03C506.79 141.03 508.01 141.57 508.74 142.64C509.47 143.71 509.84 145.47 509.84 147.89V165.26C509.84 167.75 510.49 169.64 511.79 170.94C513.09 172.24 514.92 172.89 517.3 172.89C519.73 172.89 521.61 172.24 522.94 170.94C524.28 169.65 524.94 167.76 524.94 165.27Z" fill="#5F7D8A"/>
</g>
</g>
<defs>
<clipPath id="clip0_3577_11175">
<rect width="566.93" height="283.46" fill="white"/>
</clipPath>
</defs>
</svg>
